<svg id="Capa_1" enable-background="new 0 0 3711.188 3711.188" height="512" viewBox="0 0 3711.188 3711.188" width="512" xmlns="http://www.w3.org/2000/svg"><g><g fill="rgb(0,0,0)"><path d="m3444.486 832.934h-3177.782c-147.061 0-266.704 119.64-266.704 266.698v236.835c0 66.235 44.745 122.213 105.593 139.305v1228.546c0 16.761 13.587 30.345 30.348 30.345h401.048v132.316c0 16.76 13.587 30.345 30.348 30.345 16.76 0 30.348-13.584 30.348-30.345v-132.316h798.142v132.316c0 16.76 13.587 30.345 30.348 30.345s30.348-13.584 30.348-30.345v-132.316h798.142v132.316c0 16.76 13.587 30.345 30.348 30.345s30.348-13.584 30.348-30.345v-132.316h798.142v132.316c0 16.76 13.587 30.345 30.348 30.345s30.348-13.584 30.348-30.345v-132.316h401.048c16.761 0 30.348-13.584 30.348-30.345v-1228.546c60.848-17.092 105.593-73.069 105.593-139.305v-236.835c0-147.058-119.644-266.698-266.702-266.698zm100.413 1841.039h-3378.61v-176.014h3378.61zm0-236.704h-3378.61v-687.865h3378.61zm0-748.554h-3378.61v-207.576h3378.61zm105.593-352.248c0 46.304-37.671 83.982-83.976 83.982h-3421.845c-46.304 0-83.975-37.677-83.975-83.982v-236.835c0-113.59 92.415-206.008 206.008-206.008h3177.782c113.593 0 206.006 92.418 206.006 206.008z"/><path d="m567.337 3028.108c-16.761 0-30.348 13.584-30.348 30.345v162.661c0 16.761 13.587 30.345 30.348 30.345 16.76 0 30.348-13.584 30.348-30.345v-162.661c0-16.76-13.588-30.345-30.348-30.345z"/><path d="m567.337 3382.244c-16.761 0-30.348 13.584-30.348 30.345v162.661c0 16.761 13.587 30.345 30.348 30.345 16.76 0 30.348-13.584 30.348-30.345v-162.661c0-16.761-13.588-30.345-30.348-30.345z"/><path d="m335.508 406.62c5.72 4.898 12.741 7.297 19.726 7.297 8.555 0 17.06-3.598 23.063-10.604l158.692-185.284v486.614c0 16.761 13.587 30.345 30.348 30.345 16.76 0 30.348-13.584 30.348-30.345v-486.615l158.695 185.285c6.002 7.006 14.507 10.604 23.063 10.604 6.985 0 14.006-2.399 19.726-7.297 12.729-10.901 14.211-30.06 3.307-42.789l-211.986-247.506c-.154-.181-.314-.358-.472-.536-.138-.155-.277-.309-.418-.461-.181-.195-.364-.387-.551-.578-.173-.177-.348-.352-.526-.525-.185-.181-.372-.359-.561-.535-.16-.148-.321-.294-.484-.438-.221-.197-.444-.391-.669-.58-.138-.115-.277-.228-.417-.341-.252-.204-.506-.405-.763-.6-.125-.094-.251-.186-.377-.278-.272-.2-.546-.396-.824-.586-.127-.087-.256-.17-.384-.255-.229-.151-.458-.305-.69-.45-.047-.029-.096-.056-.143-.085-.002-.001-.004-.002-.005-.003-.148-.091-.299-.178-.448-.266-.221-.13-.441-.264-.664-.388-.063-.035-.127-.069-.191-.104-.168-.092-.34-.178-.51-.267-.195-.102-.388-.207-.585-.305-.077-.038-.155-.076-.232-.114-.186-.09-.376-.173-.564-.26-.033-.015-.066-.031-.099-.046-.138-.063-.274-.13-.413-.19-.092-.04-.184-.081-.277-.121-.183-.078-.37-.149-.555-.223-.103-.041-.205-.084-.308-.124-.065-.025-.13-.054-.196-.079-.105-.04-.21-.082-.316-.121-.191-.071-.386-.133-.579-.2-.131-.046-.263-.093-.394-.136-.025-.008-.05-.018-.075-.026-.117-.038-.234-.079-.352-.116-.199-.062-.401-.117-.602-.175-.139-.04-.277-.083-.416-.121-.008-.002-.015-.005-.022-.007-.129-.035-.257-.073-.386-.106-.202-.053-.407-.097-.61-.146-.126-.03-.252-.062-.378-.091-.016-.004-.031-.008-.047-.011-.139-.031-.277-.063-.415-.092-.199-.042-.401-.076-.601-.113-.103-.019-.205-.04-.308-.058-.041-.007-.082-.016-.123-.023-.148-.026-.296-.052-.444-.075-.191-.03-.384-.054-.577-.08-.069-.009-.137-.02-.206-.029-.081-.011-.161-.024-.242-.034-.158-.019-.316-.038-.475-.055-.183-.02-.368-.034-.552-.05-.023-.002-.045-.004-.068-.006-.13-.011-.26-.026-.391-.035-.167-.012-.334-.022-.502-.032-.167-.009-.335-.015-.503-.022-.164-.007-.328-.016-.493-.02-.172-.004-.344-.004-.515-.006-.079 0-.156-.005-.235-.005s-.156.005-.235.006c-.172.001-.344.001-.516.006-.164.004-.328.013-.493.02-.168.007-.335.013-.502.022-.167.01-.334.019-.502.032-.131.01-.261.024-.391.035-.022.002-.045.004-.068.006-.184.016-.368.03-.551.05-.158.017-.317.036-.475.055-.081.01-.161.023-.242.034-.069.009-.138.019-.207.029-.192.026-.385.05-.575.08-.149.023-.297.05-.445.075-.041.007-.081.016-.121.023-.104.018-.207.039-.31.058-.2.038-.401.072-.599.113-.139.029-.277.061-.416.092-.016.004-.031.008-.047.011-.127.029-.253.061-.38.091-.203.048-.407.093-.608.146-.129.034-.257.071-.386.106-.008.002-.016.005-.024.007-.14.039-.278.081-.418.122-.199.058-.4.112-.597.174-.118.037-.236.077-.353.116-.024.008-.048.017-.072.025-.135.044-.268.093-.402.139-.191.066-.384.128-.573.198-.106.039-.211.081-.317.121-.066.025-.13.053-.196.079-.104.041-.208.083-.312.125-.183.074-.369.144-.551.221-.093.039-.185.081-.277.121-.139.06-.275.127-.413.19-.034.016-.068.031-.103.047-.187.086-.376.169-.561.258-.078.038-.155.076-.233.114-.197.098-.391.203-.586.306-.169.089-.34.174-.507.266-.064.035-.128.068-.191.104-.224.125-.444.258-.666.389-.149.088-.298.174-.446.265-.002.001-.004.002-.006.004-.047.029-.096.056-.143.085-.233.145-.462.299-.692.451-.127.084-.255.167-.381.253-.279.19-.553.388-.827.588-.125.092-.251.183-.375.276-.258.195-.512.397-.765.602-.139.112-.277.224-.414.339-.226.19-.45.384-.672.582-.162.144-.323.289-.482.436-.189.176-.376.354-.562.536-.18.176-.358.353-.533.533-.181.185-.359.372-.534.56-.148.159-.293.32-.438.483-.151.169-.302.337-.449.509l-211.996 247.521c-10.904 12.729-9.423 31.889 3.307 42.789z"/><path d="m1426.175 3028.108c-16.761 0-30.348 13.584-30.348 30.345v162.661c0 16.761 13.587 30.345 30.348 30.345s30.348-13.584 30.348-30.345v-162.661c0-16.76-13.587-30.345-30.348-30.345z"/><path d="m1426.175 3382.244c-16.761 0-30.348 13.584-30.348 30.345v162.661c0 16.761 13.587 30.345 30.348 30.345s30.348-13.584 30.348-30.345v-162.661c0-16.761-13.587-30.345-30.348-30.345z"/><path d="m1194.343 406.62c5.723 4.904 12.741 7.297 19.726 7.297 8.555 0 17.061-3.598 23.063-10.604l158.695-185.285v486.615c0 16.761 13.587 30.345 30.348 30.345s30.348-13.584 30.348-30.345v-486.615l158.695 185.285c6.002 7.006 14.508 10.604 23.063 10.604 6.985 0 14.006-2.399 19.726-7.297 12.729-10.901 14.211-30.06 3.307-42.789l-211.999-247.521c-.146-.172-.298-.34-.449-.509-.144-.162-.29-.324-.438-.483-.175-.189-.353-.375-.534-.56-.176-.18-.353-.358-.533-.533-.186-.181-.373-.36-.562-.536-.159-.147-.32-.292-.482-.436-.222-.197-.445-.392-.671-.582-.137-.115-.276-.227-.415-.34-.252-.204-.506-.405-.764-.6-.124-.094-.25-.185-.376-.278-.273-.2-.548-.397-.826-.587-.126-.086-.255-.169-.383-.254-.278-.184-.557-.365-.84-.538-.148-.091-.299-.178-.448-.266-.23-.136-.458-.273-.691-.402-.045-.025-.091-.048-.136-.073-.177-.097-.357-.189-.536-.283-.206-.107-.41-.218-.617-.32-.057-.028-.114-.056-.171-.084-.211-.103-.426-.198-.639-.296-.167-.076-.333-.156-.502-.23-.071-.031-.141-.062-.211-.093-.246-.105-.497-.201-.746-.3-.127-.05-.253-.104-.381-.152-.083-.032-.165-.065-.249-.096-.273-.101-.55-.192-.827-.286-.097-.033-.193-.069-.291-.1-.094-.031-.188-.064-.282-.094-.277-.087-.558-.165-.838-.244-.015-.004-.031-.009-.046-.013-.076-.021-.15-.045-.226-.066-.106-.029-.211-.06-.317-.088-.268-.07-.54-.131-.811-.194-.021-.005-.042-.01-.063-.015-.077-.018-.153-.038-.229-.055-.116-.026-.232-.053-.348-.078-.254-.053-.51-.098-.767-.145-.014-.003-.028-.005-.042-.008-.096-.018-.192-.038-.289-.054-.126-.022-.251-.044-.377-.064-.234-.037-.47-.066-.705-.098-.128-.017-.257-.038-.385-.053-.136-.017-.272-.033-.409-.047-.203-.022-.408-.038-.612-.056-.154-.014-.308-.03-.462-.041-.146-.011-.293-.019-.439-.028-.177-.01-.355-.017-.533-.024-.174-.007-.348-.016-.522-.02-.152-.004-.305-.003-.457-.005-.088-.001-.175-.007-.263-.007-.079 0-.156.005-.235.006-.181.001-.361.002-.542.007-.146.004-.292.012-.438.018-.177.007-.354.013-.531.023-.175.01-.35.021-.525.034-.101.008-.201.019-.302.027-.044.004-.089.008-.133.012-.184.016-.368.03-.551.05-.166.018-.332.038-.497.058-.051.006-.102.015-.153.021-.091.012-.181.025-.272.038-.192.027-.385.05-.576.08-.155.024-.31.052-.465.079-.013.002-.026.005-.039.007-.124.022-.247.047-.371.07-.2.038-.402.072-.601.113-.281.059-.561.127-.841.194-.203.049-.408.093-.61.146-.276.072-.55.154-.824.234-.201.059-.403.113-.602.175-.275.086-.548.183-.822.278-.193.067-.388.13-.579.2-.11.041-.22.084-.33.126-.039.015-.078.032-.117.047-.125.048-.249.1-.373.15-.185.075-.372.145-.556.223-.097.041-.193.084-.29.127-.109.047-.215.1-.324.149-.059.027-.117.054-.175.081-.188.087-.378.17-.564.26-.081.039-.163.079-.244.12-.181.09-.359.187-.539.281-.182.095-.365.187-.545.285-.067.037-.134.072-.201.11-.209.117-.414.241-.621.363-.161.095-.323.188-.482.286-.052.032-.105.061-.157.094-.221.138-.438.284-.656.427-.14.093-.282.184-.421.279-.267.182-.53.372-.792.563-.137.1-.274.2-.409.302-.248.188-.492.382-.736.578-.149.12-.297.24-.443.363-.218.183-.433.37-.646.56-.17.151-.339.303-.506.458-.183.17-.363.342-.542.517-.183.178-.364.359-.542.542-.181.185-.359.371-.534.56-.148.159-.293.32-.438.483-.151.17-.304.338-.45.511l-211.998 247.519c-10.903 12.73-9.422 31.89 3.308 42.79z"/><path d="m2285.013 3028.108c-16.761 0-30.348 13.584-30.348 30.345v162.661c0 16.761 13.587 30.345 30.348 30.345s30.348-13.584 30.348-30.345v-162.661c0-16.76-13.588-30.345-30.348-30.345z"/><path d="m2285.013 3382.244c-16.761 0-30.348 13.584-30.348 30.345v162.661c0 16.761 13.587 30.345 30.348 30.345s30.348-13.584 30.348-30.345v-162.661c0-16.761-13.588-30.345-30.348-30.345z"/><path d="m2053.18 406.62c5.723 4.904 12.741 7.297 19.726 7.297 8.555 0 17.061-3.598 23.063-10.604l158.695-185.285v486.615c0 16.761 13.587 30.345 30.348 30.345s30.348-13.584 30.348-30.345v-486.615l158.695 185.285c6.002 7.006 14.508 10.604 23.063 10.604 6.985 0 14.006-2.399 19.726-7.297 12.729-10.901 14.211-30.06 3.307-42.789l-211.997-247.519c-.146-.172-.299-.341-.45-.511-.144-.162-.29-.324-.438-.483-.175-.188-.353-.375-.534-.56-.176-.181-.354-.359-.535-.535-.185-.181-.371-.359-.56-.534-.159-.148-.321-.293-.483-.438-.222-.197-.445-.392-.672-.582-.136-.114-.275-.226-.413-.338-.253-.205-.508-.407-.767-.602-.123-.093-.248-.184-.373-.275-.274-.201-.55-.399-.83-.59-.124-.085-.25-.166-.375-.249-.281-.185-.562-.368-.848-.544-.145-.089-.292-.174-.438-.26-.231-.136-.461-.275-.694-.404-.049-.027-.099-.053-.148-.08-.171-.094-.346-.183-.519-.273-.207-.108-.413-.219-.622-.322-.062-.031-.123-.061-.185-.091-.204-.099-.411-.191-.617-.285-.17-.078-.338-.159-.509-.234-.075-.033-.15-.066-.225-.098-.239-.102-.482-.195-.724-.291-.13-.051-.258-.106-.388-.156-.087-.033-.174-.068-.262-.101-.255-.094-.514-.179-.772-.267-.021-.007-.041-.015-.062-.021-.091-.031-.181-.064-.271-.094-.098-.032-.196-.066-.294-.097-.26-.082-.523-.154-.786-.229-.034-.01-.069-.02-.104-.03-.07-.02-.139-.042-.209-.061-.109-.03-.218-.062-.327-.09-.255-.067-.513-.124-.771-.185-.035-.008-.071-.017-.106-.025-.073-.017-.145-.036-.217-.052-.119-.026-.238-.055-.357-.08-.244-.051-.492-.094-.738-.139-.023-.004-.047-.009-.07-.013-.094-.017-.188-.037-.282-.053-.128-.022-.256-.045-.384-.065-.23-.036-.462-.065-.694-.096-.13-.018-.26-.038-.39-.054-.138-.017-.275-.033-.413-.048-.201-.022-.403-.038-.604-.055-.155-.014-.31-.03-.465-.041-.147-.011-.295-.019-.442-.028-.176-.01-.352-.017-.529-.024-.174-.007-.348-.016-.523-.02-.153-.004-.305-.003-.458-.005-.088-.001-.176-.007-.264-.007-.079 0-.156.005-.234.006-.18.001-.36.002-.541.007-.146.004-.291.012-.437.018-.179.007-.357.013-.535.023-.174.01-.348.021-.522.034-.102.008-.203.019-.305.028-.042.004-.083.008-.125.011-.188.017-.376.031-.562.051-.164.018-.328.037-.492.058-.053.007-.106.015-.159.022-.084.011-.169.024-.253.035-.199.027-.398.052-.595.083-.153.024-.305.051-.458.078-.016.003-.032.006-.048.009-.114.02-.227.043-.34.064-.21.039-.422.075-.63.119-.268.056-.534.121-.8.185-.217.052-.436.1-.652.156-.258.067-.514.145-.771.219-.219.063-.439.123-.656.191-.118.037-.236.078-.354.117-.009.003-.018.006-.027.009-.126.042-.252.087-.378.131-.214.074-.43.144-.643.222-.106.039-.211.081-.317.122-.05.019-.098.04-.148.059-.096.037-.192.077-.288.116-.208.083-.418.163-.624.25-.092.039-.183.08-.275.12-.122.053-.242.113-.364.168-.029.013-.057.026-.085.039-.21.096-.422.189-.629.29-.077.037-.153.075-.229.113-.179.089-.356.185-.534.278-.188.098-.378.193-.563.295-.062.034-.125.068-.187.102-.209.116-.414.241-.621.363-.165.097-.331.193-.494.293-.048.03-.098.057-.146.087-.221.138-.438.284-.656.427-.142.094-.286.187-.427.283-.266.181-.527.37-.788.56-.138.101-.276.201-.413.305-.247.187-.491.38-.733.576-.149.121-.299.241-.446.365-.218.183-.433.37-.646.56-.17.151-.338.303-.505.457-.183.17-.365.343-.544.519-.183.178-.363.358-.541.541-.181.185-.359.372-.534.56-.148.159-.293.32-.438.483-.151.169-.303.337-.449.509l-211.999 247.521c-10.903 12.726-9.422 31.886 3.307 42.786z"/><path d="m3143.851 3028.108c-16.76 0-30.348 13.584-30.348 30.345v162.661c0 16.761 13.587 30.345 30.348 30.345s30.348-13.584 30.348-30.345v-162.661c0-16.76-13.588-30.345-30.348-30.345z"/><path d="m3143.851 3382.244c-16.76 0-30.348 13.584-30.348 30.345v162.661c0 16.761 13.587 30.345 30.348 30.345s30.348-13.584 30.348-30.345v-162.661c0-16.761-13.588-30.345-30.348-30.345z"/><path d="m2912.018 406.62c5.723 4.904 12.741 7.297 19.726 7.297 8.556 0 17.061-3.598 23.063-10.604l158.695-185.285v486.615c0 16.761 13.587 30.345 30.348 30.345s30.348-13.584 30.348-30.345v-486.615l158.695 185.285c6.002 7.006 14.508 10.604 23.063 10.604 6.985 0 14.006-2.399 19.726-7.297 12.729-10.901 14.21-30.06 3.307-42.789l-211.998-247.521c-.146-.172-.298-.34-.449-.509-.144-.162-.29-.324-.438-.483-.175-.189-.353-.375-.534-.56-.173-.177-.347-.352-.524-.525-.192-.188-.385-.372-.581-.554-.151-.14-.304-.278-.458-.415-.23-.205-.463-.407-.698-.604-.126-.106-.254-.209-.382-.313-.264-.214-.529-.424-.799-.628-.111-.084-.224-.165-.336-.248-.286-.21-.574-.417-.866-.616-.112-.076-.225-.149-.338-.224-.292-.194-.587-.385-.885-.567-.132-.081-.266-.158-.398-.237-.243-.144-.485-.289-.73-.425-.046-.026-.093-.049-.14-.075-.162-.089-.328-.173-.492-.259-.219-.115-.437-.232-.658-.341-.058-.029-.116-.057-.175-.085-.197-.096-.397-.184-.596-.276-.18-.083-.359-.169-.541-.248-.072-.031-.144-.063-.216-.094-.233-.099-.47-.19-.706-.284-.139-.055-.277-.114-.416-.167-.084-.032-.168-.066-.252-.097-.26-.096-.524-.183-.787-.272-.003-.001-.006-.002-.009-.003-.106-.036-.212-.075-.318-.11-.095-.031-.189-.064-.285-.094-.265-.083-.533-.157-.801-.233-.02-.006-.04-.012-.06-.018-.082-.023-.164-.049-.246-.072-.106-.029-.212-.06-.319-.088-.26-.068-.523-.127-.785-.188-.023-.005-.047-.011-.071-.017-.082-.019-.163-.04-.246-.059-.116-.026-.232-.053-.349-.078-.249-.052-.5-.096-.751-.142-.014-.003-.029-.005-.043-.008-.101-.018-.201-.04-.302-.057-.126-.022-.252-.044-.378-.064-.23-.036-.463-.065-.695-.097-.131-.018-.263-.039-.395-.055-.136-.017-.272-.033-.408-.047-.201-.022-.404-.038-.606-.055-.156-.014-.311-.03-.467-.041-.146-.011-.293-.019-.439-.028-.176-.01-.353-.017-.53-.024-.175-.007-.349-.016-.524-.02-.152-.004-.305-.003-.457-.005-.088-.001-.176-.007-.264-.007-.079 0-.156.005-.234.006-.18.001-.36.002-.541.007-.146.004-.293.012-.439.018-.178.007-.356.013-.532.023-.174.01-.348.021-.522.034-.104.008-.208.019-.312.028-.04.003-.081.007-.121.011-.187.016-.373.031-.559.05-.164.018-.328.037-.492.057-.057.007-.113.016-.169.024-.084.011-.167.023-.251.035-.196.027-.392.051-.587.082-.153.024-.305.051-.458.078-.021.004-.041.008-.062.012-.114.02-.227.043-.34.064-.206.039-.412.073-.616.116-.275.057-.549.125-.823.19-.21.05-.42.096-.628.15-.269.07-.536.151-.804.228-.208.06-.417.117-.622.181-.119.038-.238.078-.357.117-.015.005-.031.011-.046.016-.133.044-.266.092-.398.138-.2.069-.401.134-.599.207-.107.039-.213.082-.319.122-.059.022-.117.048-.176.07-.103.04-.205.082-.308.124-.191.077-.383.149-.572.23-.093.04-.186.081-.279.122-.134.058-.265.123-.398.183-.033.015-.065.03-.098.045-.193.089-.387.174-.577.266-.078.038-.156.076-.233.114-.194.096-.384.2-.576.3-.173.09-.347.178-.518.271-.063.035-.127.068-.191.104-.223.124-.441.256-.661.386-.151.089-.303.177-.452.269-.001 0-.001.001-.002.001-.048.03-.098.057-.146.087-.233.145-.462.299-.692.45-.127.084-.256.167-.382.253-.279.19-.554.388-.828.588-.125.092-.25.182-.374.276-.259.196-.513.397-.766.602-.138.112-.277.224-.413.338-.227.19-.45.385-.672.582-.162.144-.323.289-.481.436-.189.176-.377.355-.562.536-.18.175-.357.353-.533.533-.18.185-.358.371-.533.559-.148.16-.295.322-.44.485-.15.169-.302.336-.447.508l-211.999 247.521c-10.9 12.733-9.419 31.893 3.31 42.793z"/></g></g></svg>