<?xml version="1.0" encoding="UTF-8"?>
<svg xmlns="http://www.w3.org/2000/svg" id="Layer_3" data-name="Layer 3" viewBox="0 0 64 64" width="512" height="512"><path d="M59.765,46.077,50,13.852V2a1,1,0,0,0-1-1H15a1,1,0,0,0-1,1V13.852L4.235,46.077A4.006,4.006,0,0,0,1,50v7a1,1,0,0,0,1,1H4v4a1,1,0,0,0,1,1H59a1,1,0,0,0,1-1V58h2a1,1,0,0,0,1-1V50A4.006,4.006,0,0,0,59.765,46.077ZM48.258,15l9.394,31H6.348l9.394-31ZM48,13H32V11h7a1,1,0,0,0,1-1V7h8ZM38,9H32V7a1,1,0,0,0-1-1H23V3H38ZM23,8h7v5H23ZM48,5H40V3h8ZM21,3V13H16V3ZM58,61H6V58H58Zm3-5H3V50a2,2,0,0,1,2-2H59a2,2,0,0,1,2,2Z"/></svg>
