<svg id="Capa_1" enable-background="new 0 0 3000.002 3000.002" height="512" viewBox="0 0 3000.002 3000.002" width="512" xmlns="http://www.w3.org/2000/svg"><g><g fill="rgb(0,0,0)"><path d="m1151.917 2789.05h-1025.404v-195.479h882.868c12.752 0 23.089-10.335 23.089-23.087 0-12.751-10.337-23.086-23.089-23.086h-882.868v-1593.01h2570.469v594.123c0 12.752 10.337 23.087 23.089 23.087s23.089-10.335 23.089-23.087v-894.66c46.293-13.003 80.336-55.588 80.336-105.979v-180.186c0-111.883-91.025-202.91-202.91-202.91h-2417.676c-111.885 0-202.91 91.027-202.91 202.91v180.185c0 50.391 34.042 92.975 80.336 105.979v2158.287c0 12.751 10.337 23.086 23.089 23.086h1048.493c12.751 0 23.089-10.335 23.089-23.086-.001-12.752-10.338-23.087-23.09-23.087zm1545.066-1880.836h-2570.47v-250.28h2570.469zm-2650.805-360.343v-180.185c0-86.425 70.31-156.732 156.733-156.732h2417.676c86.422 0 156.732 70.308 156.732 156.732v180.185c0 35.228-28.66 63.889-63.891 63.889h-2603.359c-35.23 0-63.891-28.66-63.891-63.889z"/><path d="m2357.863 1599.006c-85.835 0-167.791 16.297-242.703 45.843-27.16-42.329-58.074-85.088-92.448-127.878-9.148-17.246-20.126-40.581-31.733-65.261-24.873-52.895-53.066-112.845-83.129-157.74-27.541-41.123-59.862-79.505-96.071-114.083-9.219-8.808-23.83-8.478-32.642.75-8.806 9.219-8.469 23.836.752 32.64 33.779 32.261 63.923 68.054 89.594 106.385 13.724 20.497 27.277 44.872 40.367 70.43-98.868-99.485-218.594-194.136-281.63-235.749-3.774-2.489-8.198-3.817-12.72-3.817h-1.459c-4.521 0-8.946 1.328-12.72 3.817-63.036 41.613-182.759 136.261-281.627 235.747 13.091-25.558 26.642-49.932 40.367-70.428 25.67-38.332 55.815-74.125 89.593-106.385 9.222-8.804 9.558-23.421.752-32.64-8.811-9.228-23.426-9.563-32.643-.75-36.208 34.578-68.53 72.959-96.071 114.083-30.061 44.89-58.252 104.836-83.125 157.722-11.618 24.709-22.607 48.067-31.762 65.322-116.133 144.635-192.018 288.372-225.967 428.32-5.309 21.887-9.597 43.709-12.878 65.462-7.536-24.728-13.783-48.999-16.159-67.838-7.717-61.219-5.344-123.193 7.06-184.192 2.541-12.494-5.531-24.681-18.025-27.224-12.485-2.552-24.683 5.529-27.227 18.028-13.406 65.935-15.97 132.946-7.62 199.161 6.771 53.694 38.46 138.1 53.69 178.663l.421 1.122c1.812 98.704 25.001 195.633 69.417 290.079-2.528-2.512-4.695-4.71-6.407-6.51-55.411-58.234-99.978-126.487-132.46-202.856-4.989-11.735-18.545-17.187-30.282-12.209-11.735 4.991-17.201 18.552-12.209 30.287 34.655 81.474 82.262 154.352 141.499 216.606 20.413 21.459 97.14 92.146 121.441 112.536 40.021 54.779 87.982 105.93 140.636 149.751 99.974 83.204 228.904 129.025 363.037 129.025 131.575 0 258.138-44.093 357.283-124.31 107.485 78.008 241.134 124.31 385.81 124.31 354.075 0 642.137-277.283 642.137-618.108 0-340.824-288.063-618.111-642.139-618.111zm-743.093 1190.044c-123.365 0-241.804-42.031-333.498-118.346-61.978-51.58-117.052-113.852-159.269-180.072-187.829-294.653-146.81-612.489 121.647-945.814.342-.395.672-.803.99-1.225 19.513-24.181 40.213-48.443 62.119-72.785 96.586-107.316 233.107-218.3 308.011-269.835 74.906 51.535 211.429 162.523 308.011 269.835 57.935 64.376 108.13 129.111 149.501 192.759-211.161 101.351-356.553 311.413-356.553 553.548 0 184.922 84.809 351.131 218.944 464.502-89.658 69.399-202.552 107.433-319.903 107.433zm743.093 0c-328.613 0-595.957-256.568-595.957-571.935s267.344-571.935 595.957-571.935 595.959 256.568 595.959 571.935-267.346 571.935-595.959 571.935z"/><path d="m2357.863 1763.698c-259.595 0-470.792 203.403-470.792 453.417s211.197 453.417 470.792 453.417c259.597 0 470.794-203.403 470.794-453.417s-211.197-453.417-470.794-453.417zm0 860.661c-234.135 0-424.614-182.688-424.614-407.244s190.479-407.243 424.614-407.243c234.134 0 424.616 182.688 424.616 407.243 0 224.556-190.481 407.244-424.616 407.244z"/><path d="m273.367 1404.499c-7.898 10.014-6.184 24.532 3.828 32.428 4.235 3.343 9.278 4.964 14.283 4.964 6.828 0 13.587-3.017 18.143-8.79 55.98-70.968 119.869-132.106 189.892-181.708 32.602-23.094 66.488-43.69 101.561-61.811 54.237 5.148 108.163 14.231 161.607 27.296 59.264 14.491 118.288 34.036 175.429 58.098 2.927 1.233 5.963 1.816 8.951 1.816 9.009-.004 17.571-5.312 21.287-14.134 4.948-11.753-.567-25.291-12.318-30.242-59.388-25.006-120.75-45.324-182.38-60.393-30.649-7.492-61.448-13.72-92.366-18.712 76.647-29.956 158.252-49.024 244.198-56.917 12.698-1.165 22.045-12.404 20.88-25.101-1.165-12.702-12.401-21.984-25.103-20.882-117.964 10.835-228.236 41.686-329.32 91.994-109.692-9.132-220.533-2.752-331.26 19.216-12.508 2.484-20.634 14.635-18.152 27.143s14.629 20.611 27.141 18.154c82.344-16.34 164.745-23.72 246.636-22.17-14.719 9.204-29.214 18.858-43.48 28.964-73.634 52.163-140.74 116.35-199.457 190.787z"/><path d="m1456.979 1391.124c-31.369 30.007-58.326 64.119-80.128 101.381-30.515 52.163-50.41 109.272-59.13 169.742-1.82 12.621 6.936 24.329 19.556 26.149 1.118.163 2.227.24 3.325.24 11.29 0 21.165-8.293 22.823-19.794 7.864-54.543 25.792-106.024 53.285-153.02 19.633-33.557 43.921-64.287 72.191-91.335 9.213-8.813 9.538-23.43.723-32.64-8.816-9.221-23.433-9.545-32.645-.723z"/><path d="m1252.851 1897.264c4.799-11.812-.888-25.282-12.7-30.079-11.83-4.806-25.282.885-30.081 12.697-15.755 38.779-26.181 79.378-30.982 120.66-7.225 62.087-1.829 124.413 16.036 185.24 2.954 10.064 12.157 16.591 22.143 16.591 2.152 0 4.343-.307 6.513-.944 12.234-3.591 19.24-16.424 15.647-28.656-16.106-54.851-20.975-110.998-14.473-166.891 4.322-37.154 13.707-73.698 27.897-108.618z"/><path d="m1469.066 1995.297c-1.163-27.188-1.936-54.796-2.29-82.057-.165-12.647-10.468-22.784-23.08-22.784-.102 0-.205 0-.307 0-12.752.167-22.951 10.638-22.786 23.389.361 27.717 1.145 55.786 2.331 83.43 2.22 51.856 5.94 104.389 11.055 156.141 1.179 11.916 11.218 20.819 22.949 20.819.759 0 1.527-.041 2.299-.113 12.688-1.256 21.957-12.562 20.704-25.25-5.032-50.898-8.691-102.569-10.875-153.575z"/><path d="m1338.826 2473.806c-16.885-32.035-30.129-66.053-39.359-101.105-3.25-12.327-15.884-19.699-28.209-16.447-12.329 3.248-19.692 15.877-16.444 28.209 10.123 38.44 24.647 75.742 43.163 110.871 17.332 32.884 38.248 64.011 62.173 92.522 4.567 5.443 11.11 8.248 17.698 8.248 5.237 0 10.504-1.771 14.829-5.398 9.768-8.199 11.042-22.762 2.846-32.527-21.818-26.005-40.894-54.389-56.697-84.373z"/><path d="m1812.834 1515.822c27.493 46.995 45.421 98.476 53.285 153.02 1.66 11.5 11.53 19.794 22.823 19.794 1.097 0 2.209-.077 3.324-.24 12.621-1.82 21.377-13.529 19.557-26.149-8.72-60.47-28.615-117.579-59.13-169.742-21.804-37.266-48.762-71.374-80.133-101.385-9.208-8.813-23.827-8.492-32.642.727-8.815 9.215-8.49 23.827.725 32.645 28.267 27.038 52.557 57.768 72.191 91.33z"/><path d="m1640.673 1422.942c2.288-12.544-6.028-24.568-18.572-26.854-12.533-2.304-24.571 6.026-26.856 18.57-7.266 39.849-11.243 80.909-11.819 122.032-.673 48.165 3.295 97.126 11.792 145.526 1.969 11.207 11.713 19.098 22.714 19.098 1.326 0 2.67-.113 4.02-.352 12.56-2.204 20.952-14.175 18.748-26.732-8-45.559-11.735-91.615-11.101-136.889.541-38.571 4.265-77.061 11.074-114.399z"/><path d="m1631.515 2320.172c-.023-12.738-10.355-23.046-23.089-23.046-.013 0-.027 0-.041 0-12.749.023-23.068 10.376-23.048 23.127.099 56.829.458 114.399 1.071 171.119.298 27.541.655 54.986 1.071 82.35.19 12.634 10.489 22.739 23.078 22.739h.357c12.75-.194 22.929-10.688 22.734-23.435-.411-27.301-.768-54.683-1.066-82.152-.611-56.579-.97-114.014-1.067-170.702z"/><path d="m973.993 1579.354c-1.166-12.698-12.386-21.998-25.104-20.878-117.969 10.835-228.241 41.686-329.325 91.995-109.691-9.129-220.532-2.748-331.255 19.214-12.508 2.484-20.634 14.635-18.152 27.143s14.633 20.607 27.141 18.154c82.344-16.34 164.745-23.72 246.636-22.17-14.718 9.204-29.214 18.858-43.479 28.964-73.63 52.158-140.735 116.35-199.455 190.787-7.898 10.014-6.184 24.532 3.828 32.428 4.235 3.343 9.278 4.964 14.283 4.964 6.828 0 13.587-3.018 18.143-8.79 55.982-70.967 119.871-132.106 189.892-181.707 32.602-23.094 66.487-43.69 101.559-61.811 54.238 5.148 108.165 14.231 161.611 27.296 1.843.452 3.686.669 5.502.664 10.391 0 19.832-7.065 22.409-17.607 3.029-12.386-4.558-24.885-16.943-27.911-30.65-7.493-61.451-13.72-92.371-18.712 76.646-29.956 158.252-49.024 244.2-56.917 12.698-1.167 22.045-12.404 20.88-25.106z"/></g></g></svg>