<?xml version="1.0" encoding="UTF-8"?>
<svg xmlns="http://www.w3.org/2000/svg" id="Layer_3" data-name="Layer 3" viewBox="0 0 64 64" width="512" height="512"><path d="M45.889,7.542A1,1,0,0,0,45,7H19a1,1,0,0,0-.889.542l-17,33A1,1,0,0,0,1,41V51a1,1,0,0,0,1,1H3v4a1,1,0,0,0,1,1H8a1,1,0,0,0,1-1V52H55v4a1,1,0,0,0,1,1h4a1,1,0,0,0,1-1V52h1a1,1,0,0,0,1-1V41a1,1,0,0,0-.111-.458ZM3,50V42H7v8ZM51.087,22H33V16H48Zm4.637,9H33V24H52.118ZM31,22H12.913L16,16H31Zm0,2v7H8.276l3.606-7Zm0,9v7H3.64l3.606-7ZM9,42h4v8H9Zm6,0h4v8H15Zm6,0h4v8H21Zm6,0h4v8H27Zm6,0h4v8H33Zm6,0h4v8H39Zm6,0h4v8H45Zm6,0h4v8H51ZM33,40V33H56.754l3.606,7ZM46.966,14H33V9H44.39ZM19.61,9H31v5H17.034ZM7,55H5V52H7Zm52,0H57V52h2Zm-2-5V42h4v8Z"/></svg>
