<?xml version="1.0" encoding="UTF-8"?>
<svg xmlns="http://www.w3.org/2000/svg" id="Layer_3" data-name="Layer 3" viewBox="0 0 64 64" width="512" height="512"><path d="M62,53H61V48a1,1,0,0,0-.042-.287l-8.967-29.89A17.014,17.014,0,0,0,35,1H29A17.014,17.014,0,0,0,12.009,17.823L3.042,47.713A1,1,0,0,0,3,48v5H2a1,1,0,0,0-1,1v8a1,1,0,0,0,1,1H6a1,1,0,0,0,1-1V59H57v3a1,1,0,0,0,1,1h4a1,1,0,0,0,1-1V54A1,1,0,0,0,62,53ZM6.422,43.406a.8.8,0,0,1,.7-.406h.764a.805.805,0,0,1,.724.447A2.794,2.794,0,0,0,11.118,45h.764a2.794,2.794,0,0,0,2.512-1.553A.805.805,0,0,1,15.118,43h.764a.805.805,0,0,1,.724.447A2.794,2.794,0,0,0,19.118,45h.764a2.794,2.794,0,0,0,2.512-1.553A.805.805,0,0,1,23.118,43h.764a.805.805,0,0,1,.724.447A2.794,2.794,0,0,0,27.118,45h.764a2.794,2.794,0,0,0,2.512-1.553A.805.805,0,0,1,31.118,43h1.764a.805.805,0,0,1,.724.447A2.794,2.794,0,0,0,36.118,45h.764a2.794,2.794,0,0,0,2.512-1.553A.805.805,0,0,1,40.118,43h.764a.805.805,0,0,1,.724.447A2.794,2.794,0,0,0,44.118,45h.764a2.794,2.794,0,0,0,2.512-1.553A.805.805,0,0,1,48.118,43h.764a.805.805,0,0,1,.724.447A2.794,2.794,0,0,0,52.118,45h.764a2.794,2.794,0,0,0,2.512-1.553A.805.805,0,0,1,56.118,43h.764a.8.8,0,0,1,.7.406L58.656,47H5.344Zm1.616-5.384a.8.8,0,0,1,.568.425A2.794,2.794,0,0,0,11.118,40h.764a2.794,2.794,0,0,0,2.512-1.553A.805.805,0,0,1,15.118,38h.764a.805.805,0,0,1,.724.447A2.794,2.794,0,0,0,19.118,40h.764a2.794,2.794,0,0,0,2.512-1.553A.805.805,0,0,1,23.118,38h.764a.805.805,0,0,1,.724.447A2.794,2.794,0,0,0,27.118,40h.764a2.794,2.794,0,0,0,2.512-1.553A.805.805,0,0,1,31.118,38h1.764a.805.805,0,0,1,.724.447A2.794,2.794,0,0,0,36.118,40h.764a2.794,2.794,0,0,0,2.512-1.553A.805.805,0,0,1,40.118,38h.764a.805.805,0,0,1,.724.447A2.794,2.794,0,0,0,44.118,40h.764a2.794,2.794,0,0,0,2.512-1.553A.805.805,0,0,1,48.118,38h.764a.805.805,0,0,1,.724.447A2.794,2.794,0,0,0,52.118,40h.764a2.794,2.794,0,0,0,2.512-1.553.8.8,0,0,1,.568-.425L56.856,41h-.738a2.794,2.794,0,0,0-2.512,1.553.805.805,0,0,1-.724.447h-.764a.805.805,0,0,1-.724-.447A2.794,2.794,0,0,0,48.882,41h-.764a2.794,2.794,0,0,0-2.512,1.553.805.805,0,0,1-.724.447h-.764a.805.805,0,0,1-.724-.447A2.794,2.794,0,0,0,40.882,41h-.764a2.794,2.794,0,0,0-2.512,1.553.805.805,0,0,1-.724.447h-.764a.805.805,0,0,1-.724-.447A2.794,2.794,0,0,0,32.882,41H31.118a2.794,2.794,0,0,0-2.512,1.553.805.805,0,0,1-.724.447h-.764a.805.805,0,0,1-.724-.447A2.794,2.794,0,0,0,23.882,41h-.764a2.794,2.794,0,0,0-2.512,1.553.805.805,0,0,1-.724.447h-.764a.805.805,0,0,1-.724-.447A2.794,2.794,0,0,0,15.882,41h-.764a2.794,2.794,0,0,0-2.512,1.553.805.805,0,0,1-.724.447h-.764a.805.805,0,0,1-.724-.447A2.794,2.794,0,0,0,7.882,41H7.144Zm3.909-13.031a2.788,2.788,0,0,0,2.447-1.544A.805.805,0,0,1,15.118,23h.764a.805.805,0,0,1,.724.447A2.794,2.794,0,0,0,19.118,25h.764a2.794,2.794,0,0,0,2.512-1.553A.805.805,0,0,1,23.118,23h.764a.805.805,0,0,1,.724.447A2.794,2.794,0,0,0,27.118,25h.764a2.794,2.794,0,0,0,2.512-1.553A.805.805,0,0,1,31.118,23h1.764a.805.805,0,0,1,.724.447A2.794,2.794,0,0,0,36.118,25h.764a2.794,2.794,0,0,0,2.512-1.553A.805.805,0,0,1,40.118,23h.764a.805.805,0,0,1,.724.447A2.794,2.794,0,0,0,44.118,25h.764a2.794,2.794,0,0,0,2.512-1.553A.805.805,0,0,1,48.118,23h.764a.805.805,0,0,1,.724.447,2.788,2.788,0,0,0,2.447,1.544l.9,3a.578.578,0,0,1-.07.014h-.764a.805.805,0,0,1-.724-.447A2.794,2.794,0,0,0,48.882,26h-.764a2.794,2.794,0,0,0-2.512,1.553.805.805,0,0,1-.724.447h-.764a.805.805,0,0,1-.724-.447A2.794,2.794,0,0,0,40.882,26h-.764a2.794,2.794,0,0,0-2.512,1.553.805.805,0,0,1-.724.447h-.764a.805.805,0,0,1-.724-.447A2.794,2.794,0,0,0,32.882,26H31.118a2.794,2.794,0,0,0-2.512,1.553.805.805,0,0,1-.724.447h-.764a.805.805,0,0,1-.724-.447A2.794,2.794,0,0,0,23.882,26h-.764a2.794,2.794,0,0,0-2.512,1.553.805.805,0,0,1-.724.447h-.764a.805.805,0,0,1-.724-.447A2.794,2.794,0,0,0,15.882,26h-.764a2.794,2.794,0,0,0-2.512,1.553.805.805,0,0,1-.724.447h-.764a.578.578,0,0,1-.07-.014ZM13.744,19H50.256l1.01,3.366A2.778,2.778,0,0,0,48.882,21h-.764a2.794,2.794,0,0,0-2.512,1.553.805.805,0,0,1-.724.447h-.764a.805.805,0,0,1-.724-.447A2.794,2.794,0,0,0,40.882,21h-.764a2.794,2.794,0,0,0-2.512,1.553.805.805,0,0,1-.724.447h-.764a.805.805,0,0,1-.724-.447A2.794,2.794,0,0,0,32.882,21H31.118a2.794,2.794,0,0,0-2.512,1.553.805.805,0,0,1-.724.447h-.764a.805.805,0,0,1-.724-.447A2.794,2.794,0,0,0,23.882,21h-.764a2.794,2.794,0,0,0-2.512,1.553.805.805,0,0,1-.724.447h-.764a.805.805,0,0,1-.724-.447A2.794,2.794,0,0,0,15.882,21h-.764a2.778,2.778,0,0,0-2.384,1.366ZM11.118,30h.764a2.794,2.794,0,0,0,2.512-1.553A.805.805,0,0,1,15.118,28h.764a.805.805,0,0,1,.724.447A2.794,2.794,0,0,0,19.118,30h.764a2.794,2.794,0,0,0,2.512-1.553A.805.805,0,0,1,23.118,28h.764a.805.805,0,0,1,.724.447A2.794,2.794,0,0,0,27.118,30h.764a2.794,2.794,0,0,0,2.512-1.553A.805.805,0,0,1,31.118,28h1.764a.805.805,0,0,1,.724.447A2.794,2.794,0,0,0,36.118,30h.764a2.794,2.794,0,0,0,2.512-1.553A.805.805,0,0,1,40.118,28h.764a.805.805,0,0,1,.724.447A2.794,2.794,0,0,0,44.118,30h.764a2.794,2.794,0,0,0,2.512-1.553A.805.805,0,0,1,48.118,28h.764a.805.805,0,0,1,.724.447A2.794,2.794,0,0,0,52.118,30h.764a2.809,2.809,0,0,0,.649-.084l.579,1.93a2.764,2.764,0,0,0-.5.707.805.805,0,0,1-.724.447h-.764a.8.8,0,0,1-.723-.447A2.8,2.8,0,0,0,48.882,31h-.764a2.794,2.794,0,0,0-2.512,1.553.805.805,0,0,1-.724.447h-.764a.8.8,0,0,1-.723-.447A2.8,2.8,0,0,0,40.882,31h-.764a2.794,2.794,0,0,0-2.512,1.553.805.805,0,0,1-.724.447h-.764a.8.8,0,0,1-.723-.447A2.8,2.8,0,0,0,32.882,31H31.118a2.794,2.794,0,0,0-2.512,1.553.805.805,0,0,1-.724.447h-.764a.8.8,0,0,1-.723-.447A2.8,2.8,0,0,0,23.882,31h-.764a2.794,2.794,0,0,0-2.512,1.553.805.805,0,0,1-.724.447h-.764a.8.8,0,0,1-.723-.447A2.8,2.8,0,0,0,15.882,31h-.764a2.794,2.794,0,0,0-2.512,1.553.805.805,0,0,1-.724.447h-.764a.8.8,0,0,1-.723-.447,2.794,2.794,0,0,0-.5-.708l.578-1.929A2.809,2.809,0,0,0,11.118,30ZM9.183,34.2a2.78,2.78,0,0,0,1.935.8h.764A2.8,2.8,0,0,0,14.4,33.447.8.8,0,0,1,15.118,33h.764a.805.805,0,0,1,.724.447A2.794,2.794,0,0,0,19.118,35h.764A2.8,2.8,0,0,0,22.4,33.447.8.8,0,0,1,23.118,33h.764a.805.805,0,0,1,.724.447A2.794,2.794,0,0,0,27.118,35h.764A2.8,2.8,0,0,0,30.4,33.447.8.8,0,0,1,31.118,33h1.764a.805.805,0,0,1,.724.447A2.794,2.794,0,0,0,36.118,35h.764A2.8,2.8,0,0,0,39.4,33.447.8.8,0,0,1,40.118,33h.764a.805.805,0,0,1,.724.447A2.794,2.794,0,0,0,44.118,35h.764A2.8,2.8,0,0,0,47.4,33.447.8.8,0,0,1,48.118,33h.764a.805.805,0,0,1,.724.447A2.794,2.794,0,0,0,52.118,35h.764a2.78,2.78,0,0,0,1.935-.8l.569,1.9a2.784,2.784,0,0,0-1.78,1.451.805.805,0,0,1-.724.447h-.764a.805.805,0,0,1-.724-.447A2.794,2.794,0,0,0,48.882,36h-.764a2.794,2.794,0,0,0-2.512,1.553.805.805,0,0,1-.724.447h-.764a.805.805,0,0,1-.724-.447A2.794,2.794,0,0,0,40.882,36h-.764a2.794,2.794,0,0,0-2.512,1.553.805.805,0,0,1-.724.447h-.764a.805.805,0,0,1-.724-.447A2.794,2.794,0,0,0,32.882,36H31.118a2.794,2.794,0,0,0-2.512,1.553.805.805,0,0,1-.724.447h-.764a.805.805,0,0,1-.724-.447A2.794,2.794,0,0,0,23.882,36h-.764a2.794,2.794,0,0,0-2.512,1.553.805.805,0,0,1-.724.447h-.764a.805.805,0,0,1-.724-.447A2.794,2.794,0,0,0,15.882,36h-.764a2.794,2.794,0,0,0-2.512,1.553.805.805,0,0,1-.724.447h-.764a.805.805,0,0,1-.724-.447A2.784,2.784,0,0,0,8.614,36.1ZM29,3h6A15.021,15.021,0,0,1,49.967,17H14.033A15.021,15.021,0,0,1,29,3ZM5,49H59v4H5ZM3,55H61v2H3Zm2,6H3V59H5Zm54,0V59h2v2Z"/></svg>
