<svg id="Capa_1" enable-background="new 0 0 3000 3000" height="512" viewBox="0 0 3000 3000" width="512" xmlns="http://www.w3.org/2000/svg"><g><g fill="rgb(0,0,0)"><path d="m2890.112 1516.501c13.549 0 24.53-10.981 24.53-24.53v-866.518c49.188-13.817 85.358-59.067 85.358-112.609v-191.45c0-118.877-96.713-215.595-215.591-215.595h-2568.818c-118.878 0-215.591 96.718-215.591 215.595v191.449c0 53.542 36.17 98.792 85.358 112.609v2244.219c0 13.549 10.981 24.53 24.53 24.53h1895.07 469.692 415.463c13.549 0 24.53-10.981 24.53-24.53v-356.214c0-13.549-10.981-24.53-24.53-24.53s-24.53 10.981-24.53 24.53v74.924h-203.083c-13.549 0-24.53 10.981-24.53 24.53s10.981 24.53 24.53 24.53h203.083v207.7h-366.403v-269.93c0-37.872 30.812-68.689 68.689-68.689h76.551c189.918 0 344.427-154.508 344.427-344.426v-422.772c0-95.753-77.9-173.653-173.648-173.653-95.753 0-173.653 77.9-173.653 173.653v277.738c0 37.877-30.817 68.689-68.689 68.689h-4.987c-37.877 0-68.689-30.812-68.689-68.689v-1003.873c0-143.023-116.353-259.376-259.375-259.376-143.023 0-259.376 116.353-259.376 259.376v418.87c0 37.877-30.812 68.689-68.685 68.689-37.872 0-68.689-30.812-68.689-68.689v-216.627c0-80.52-65.503-146.023-146.022-146.023-80.52 0-146.023 65.503-146.023 146.023v358.105c0 156.908 127.655 284.558 284.563 284.558h76.172c37.873 0 68.685 30.817 68.685 68.689v918.357h-1846.013v-207.7h1745.04c13.549 0 24.53-10.981 24.53-24.53s-10.981-24.53-24.53-24.53h-1745.04v-1643.608h1639.063c13.549 0 24.53-10.981 24.53-24.53s-10.981-24.53-24.53-24.53h-1639.063v-265.922h2731.165v862.18c-.001 13.549 10.98 24.53 24.529 24.53zm-978.369 292.535h-76.172c-129.858 0-235.503-105.645-235.503-235.499v-358.105c0-53.466 43.497-96.963 96.963-96.963 53.465 0 96.963 43.497 96.963 96.963v216.627c0 64.927 52.822 117.75 117.749 117.75s117.745-52.823 117.745-117.75v-418.87c0-115.969 94.347-210.316 210.316-210.316s210.316 94.347 210.316 210.316v1003.873c0 64.927 52.823 117.749 117.749 117.749h4.987c64.927 0 117.749-52.822 117.749-117.749v-277.738c0-68.699 55.894-124.593 124.593-124.593s124.589 55.894 124.589 124.593v422.772c0 162.864-132.503 295.367-295.367 295.367h-76.551c-64.927 0-117.749 52.822-117.749 117.749v269.93h-420.632v-918.357c0-64.927-52.818-117.749-117.745-117.749zm-1794.795-1228.305c-37.431 0-67.888-30.457-67.888-67.888v-191.449c0-91.827 74.708-166.531 166.531-166.531h2568.819c91.823 0 166.531 74.703 166.531 166.531v191.449c0 37.431-30.457 67.888-67.888 67.888z"/><path d="m2158.103 1139.86c13.549 0 24.53-10.981 24.53-24.53v-99.919c0-13.549-10.981-24.53-24.53-24.53s-24.53 10.981-24.53 24.53v99.919c0 13.549 10.981 24.53 24.53 24.53z"/><path d="m2332.639 1139.86c13.549 0 24.53-10.981 24.53-24.53v-99.919c0-13.549-10.981-24.53-24.53-24.53s-24.53 10.981-24.53 24.53v99.919c0 13.549 10.981 24.53 24.53 24.53z"/><path d="m2158.103 1440.924c13.549 0 24.53-10.981 24.53-24.53v-99.919c0-13.549-10.981-24.53-24.53-24.53s-24.53 10.981-24.53 24.53v99.919c0 13.549 10.981 24.53 24.53 24.53z"/><path d="m2332.639 1440.924c13.549 0 24.53-10.981 24.53-24.53v-99.919c0-13.549-10.981-24.53-24.53-24.53s-24.53 10.981-24.53 24.53v99.919c0 13.549 10.981 24.53 24.53 24.53z"/><path d="m2158.103 1743.941c13.549 0 24.53-10.981 24.53-24.53v-99.919c0-13.549-10.981-24.53-24.53-24.53s-24.53 10.981-24.53 24.53v99.919c0 13.549 10.981 24.53 24.53 24.53z"/><path d="m2332.639 1743.941c13.549 0 24.53-10.981 24.53-24.53v-99.919c0-13.549-10.981-24.53-24.53-24.53s-24.53 10.981-24.53 24.53v99.919c0 13.549 10.981 24.53 24.53 24.53z"/><path d="m1780.877 1594.962c-13.549 0-24.53 10.981-24.53 24.53v99.919c0 13.549 10.981 24.53 24.53 24.53s24.53-10.981 24.53-24.53v-99.919c0-13.549-10.981-24.53-24.53-24.53z"/><path d="m1955.408 1594.962c-13.549 0-24.53 10.981-24.53 24.53v99.919c0 13.549 10.981 24.53 24.53 24.53s24.53-10.981 24.53-24.53v-99.919c0-13.549-10.981-24.53-24.53-24.53z"/><path d="m2141.804 1972.48v99.919c0 13.549 10.981 24.53 24.53 24.53s24.53-10.981 24.53-24.53v-99.919c0-13.549-10.981-24.53-24.53-24.53s-24.53 10.981-24.53 24.53z"/><path d="m2316.34 1972.48v99.919c0 13.549 10.981 24.53 24.53 24.53s24.53-10.981 24.53-24.53v-99.919c0-13.549-10.981-24.53-24.53-24.53s-24.53 10.981-24.53 24.53z"/><path d="m2141.775 2380.691c13.549 0 24.53-10.981 24.53-24.53v-99.919c0-13.549-10.981-24.53-24.53-24.53s-24.53 10.981-24.53 24.53v99.919c0 13.549 10.981 24.53 24.53 24.53z"/><path d="m2316.311 2380.691c13.549 0 24.53-10.981 24.53-24.53v-99.919c0-13.549-10.981-24.53-24.53-24.53s-24.53 10.981-24.53 24.53v99.919c0 13.549 10.982 24.53 24.53 24.53z"/><path d="m2500.965 2380.691c13.549 0 24.53-10.981 24.53-24.53v-99.919c0-13.549-10.981-24.53-24.53-24.53s-24.53 10.981-24.53 24.53v99.919c0 13.549 10.981 24.53 24.53 24.53z"/><path d="m2675.496 2380.691c13.549 0 24.53-10.981 24.53-24.53v-99.919c0-13.549-10.981-24.53-24.53-24.53s-24.53 10.981-24.53 24.53v99.919c0 13.549 10.981 24.53 24.53 24.53z"/><path d="m2149.939 2571.305c-13.549 0-24.53 10.981-24.53 24.53v99.919c0 13.549 10.981 24.53 24.53 24.53s24.53-10.981 24.53-24.53v-99.919c0-13.549-10.981-24.53-24.53-24.53z"/><path d="m2324.475 2571.305c-13.549 0-24.53 10.981-24.53 24.53v99.919c0 13.549 10.981 24.53 24.53 24.53s24.53-10.981 24.53-24.53v-99.919c0-13.549-10.981-24.53-24.53-24.53z"/><path d="m1402.346 1875.052c-141.67-93.551-298.625-155.684-466.514-184.668-7.315-1.263-14.652-2.452-22.005-3.583 82.472-31.873 170.198-52.177 262.514-60.653 13.491-1.238 23.426-13.179 22.188-26.67-1.243-13.501-13.213-23.397-26.67-22.188-127.054 11.666-245.901 44.688-354.958 98.486-164.253-12.258-335.078 6.963-500.465 56.847-12.973 3.917-20.316 17.6-16.404 30.573 3.916 12.973 17.599 20.297 30.572 16.405 133.442-40.252 270.455-59.832 404.251-58.274-17.102 10.603-33.932 21.758-50.475 33.475-88.79 62.896-168.628 141.684-237.298 234.164-8.078 10.875-5.807 26.243 5.073 34.321 4.396 3.264 9.522 4.838 14.604 4.838 7.497 0 14.902-3.427 19.716-9.911 65.579-88.319 141.708-163.474 226.264-223.375 36.551-25.89 74.571-48.918 113.971-69.065 33.945 2.912 67.573 7.228 100.77 12.959 161.179 27.822 311.848 87.465 447.826 177.257 4.166 2.75 8.855 4.065 13.496 4.065 7.967 0 15.776-3.873 20.493-11.015 7.468-11.306 4.354-26.525-6.949-33.988z"/><path d="m1402.346 1386.969c-141.66-93.546-298.621-155.674-466.514-184.663-7.315-1.263-14.652-2.452-22.006-3.583 82.468-31.871 170.196-52.177 262.52-60.657 13.491-1.238 23.421-13.184 22.183-26.675-1.243-13.496-13.213-23.388-26.675-22.183-127.057 11.673-245.902 44.696-354.95 98.49-164.251-12.26-335.08 6.957-500.467 56.854-12.973 3.912-20.316 17.6-16.4 30.567 3.907 12.978 17.595 20.326 30.568 16.4 133.442-40.253 270.455-59.83 404.255-58.271-17.103 10.604-33.932 21.758-50.475 33.477-88.789 62.892-168.628 141.674-237.303 234.159-8.078 10.875-5.807 26.243 5.073 34.321 4.396 3.263 9.522 4.838 14.604 4.838 7.497 0 14.902-3.427 19.716-9.911 65.579-88.324 141.708-163.473 226.269-223.37 36.548-25.89 74.566-48.918 113.966-69.065 33.945 2.912 67.574 7.228 100.771 12.959 161.184 27.827 311.853 87.465 447.826 177.253 4.166 2.75 8.855 4.065 13.496 4.065 7.967 0 15.776-3.873 20.493-11.015 7.467-11.308 4.353-26.527-6.95-33.99z"/><path d="m447.082 2477.045c-8.078 10.875-5.807 26.243 5.073 34.321 4.396 3.264 9.522 4.838 14.604 4.838 7.497 0 14.902-3.427 19.716-9.911 65.579-88.324 141.708-163.473 226.269-223.37 36.549-25.891 74.568-48.919 113.966-69.067 33.944 2.913 67.573 7.229 100.77 12.961 161.184 27.827 311.853 87.465 447.826 177.252 4.166 2.75 8.855 4.065 13.496 4.065 7.967 0 15.776-3.874 20.493-11.015 7.468-11.308 4.353-26.527-6.949-33.99-141.66-93.546-298.621-155.674-466.514-184.663-7.317-1.263-14.656-2.453-22.011-3.584 82.473-31.875 170.201-52.18 262.52-60.656 13.491-1.238 23.426-13.179 22.188-26.671-1.243-13.501-13.213-23.402-26.67-22.188-127.054 11.667-245.901 44.688-354.956 98.488-164.248-12.261-335.072 6.958-500.466 56.846-12.973 3.916-20.316 17.599-16.404 30.572 3.916 12.973 17.599 20.297 30.572 16.404 133.442-40.253 270.456-59.833 404.257-58.272-17.103 10.604-33.933 21.76-50.477 33.479-88.79 62.893-168.629 141.676-237.303 234.161z"/></g></g></svg>