<?xml version="1.0" encoding="UTF-8"?>
<svg xmlns="http://www.w3.org/2000/svg" id="Layer_3" data-name="Layer 3" viewBox="0 0 64 64" width="512" height="512"><path d="M56.263,45.3a3.95,3.95,0,0,0-.645-5.3A3.983,3.983,0,0,0,53,33H48.444a3.92,3.92,0,0,0-.826-5,3.98,3.98,0,0,0-1.826-6.92,50.508,50.508,0,0,0,14.247-6.571l2.5-1.669a1,1,0,0,0,.23-1.476l-1.118-1.4A23.775,23.775,0,0,0,43,1H21A23.775,23.775,0,0,0,2.346,9.968l-1.118,1.4a1,1,0,0,0,.23,1.476l2.5,1.669A50.532,50.532,0,0,0,17.926,21H11a3.983,3.983,0,0,0-2.618,7,3.977,3.977,0,0,0,1.072,6.688A6.977,6.977,0,0,0,9.111,45H6a5,5,0,0,0-3,9,5,5,0,0,0,3,9H54a8.994,8.994,0,0,0,2.263-17.7ZM5.071,12.845c-.676-.451-1.2-.8-1.613-1.068.134-.166.283-.352.449-.56A21.784,21.784,0,0,1,21,3H43a21.784,21.784,0,0,1,17.093,8.217c.166.208.315.394.449.56-.413.268-.938.618-1.613,1.068A48.4,48.4,0,0,1,32,21,48.4,48.4,0,0,1,5.071,12.845ZM9,25a2,2,0,0,1,2-2H45a2,2,0,0,1,0,4H11A2,2,0,0,1,9,25Zm2,8a2,2,0,0,1,0-4H45a2,2,0,0,1,0,4H11ZM9,40a5.006,5.006,0,0,1,5-5H53a2,2,0,0,1,0,4H12v2H53a2,2,0,0,1,0,4H14A5.006,5.006,0,0,1,9,40ZM54,61H6a3,3,0,0,1,0-6H56V53H6a3,3,0,0,1,0-6H54a7,7,0,0,1,0,14Z"/></svg>
