<svg id="Capa_1" enable-background="new 0 0 3000 3000" height="512" viewBox="0 0 3000 3000" width="512" xmlns="http://www.w3.org/2000/svg"><g><g fill="rgb(0,0,0)"><path d="m2784.405 85.358h-2568.81c-118.879 0-215.595 96.713-215.595 215.595v191.449c0 53.542 36.171 98.788 85.358 112.604v2285.105c0 13.549 10.984 24.53 24.532 24.53h2780.22c13.549 0 24.532-10.981 24.532-24.53v-2285.105c49.187-13.816 85.358-59.062 85.358-112.604v-191.449c0-118.882-96.716-215.595-215.595-215.595zm81.173 2780.222h-2731.156v-207.704h2731.156zm0-256.764h-2731.156v-1684.486h2731.156zm0-1733.545h-2731.156v-265.927h2731.156zm85.358-382.869c0 37.431-30.452 67.883-67.885 67.883h-2766.101c-37.433 0-67.885-30.452-67.885-67.883v-191.449c0-91.827 74.705-166.535 166.53-166.535h2568.811c91.825 0 166.53 74.708 166.53 166.535z"/><path d="m700.54 2065.437h203.474c13.549 0 24.532-10.981 24.532-24.53s-10.983-24.53-24.532-24.53h-203.474c-20.736 0-38.251-26.056-38.251-56.897v-335.528c0-30.841 17.516-56.902 38.251-56.902h203.474c13.549 0 24.532-10.981 24.532-24.53s-10.983-24.53-24.532-24.53h-203.474c-48.146 0-87.316 47.533-87.316 105.961v335.528c0 58.423 39.171 105.958 87.316 105.958z"/><path d="m1076.992 2065.437h176.472c38.28 0 69.424-31.139 69.424-69.419v-408.604c0-38.28-31.143-69.423-69.424-69.423h-176.472c-38.28 0-69.423 31.143-69.423 69.423v408.604c0 38.279 31.143 69.419 69.423 69.419zm-20.359-478.024c0-11.226 9.133-20.364 20.359-20.364h176.472c11.226 0 20.359 9.138 20.359 20.364v408.604c0 11.226-9.133 20.359-20.359 20.359h-176.472c-11.226 0-20.359-9.133-20.359-20.359z"/><path d="m306.198 2065.437h203.474c13.549 0 24.532-10.981 24.532-24.53s-10.984-24.53-24.532-24.53h-203.474c-20.736 0-38.251-26.056-38.251-56.897v-143.234h142.634c13.549 0 24.532-10.981 24.532-24.53s-10.983-24.53-24.532-24.53h-142.634v-143.234c0-30.841 17.516-56.902 38.251-56.902h203.474c13.549 0 24.532-10.981 24.532-24.53s-10.984-24.53-24.532-24.53h-203.474c-48.146 0-87.316 47.533-87.316 105.961v335.528c0 58.423 39.171 105.958 87.316 105.958z"/><path d="m1405.328 2365.375c.888 0 1.783-.048 2.685-.149 126.571-13.775 231.515-32.51 312.376-55.737 30.649 45.479 70.767 82.986 118 108.809 68.365 37.373 145.127 56.475 225.366 56.475 25.67 0 51.702-1.958 77.919-5.894 102.765-15.43 201.029-59.671 284.171-127.948 316.594-259.975 388.602-805.655 296.105-1210.318-2.354-10.295-11.029-17.926-21.54-18.948-10.479-1.013-20.496 4.795-24.789 14.442-100.692 226.278-220.452 376.159-355.954 445.477-76.767 39.269-148.184 53.706-217.25 67.667-6.986 1.412-13.945 2.82-20.883 4.245-58.326-213.174-209.315-436.627-398.606-588.191-3.824-3.063-8.284-4.788-12.821-5.25-.049-.005-.098-.011-.147-.016-.321-.031-.643-.054-.965-.072-.094-.005-.187-.012-.28-.016-.285-.013-.57-.019-.856-.021-.125-.001-.25-.004-.376-.003-.264.001-.527.01-.791.019-.142.005-.284.009-.426.017-.259.014-.517.035-.775.058-.144.012-.286.022-.43.037-.269.028-.538.064-.806.101-.131.018-.263.033-.395.053-.295.046-.589.1-.883.156-.105.02-.211.037-.316.058-.333.068-.665.146-.995.228-.064.016-.128.028-.193.044-.006.001-.011.003-.017.005-.796.205-1.582.451-2.356.736-.083.031-.164.065-.247.097-.294.112-.587.226-.876.349-.127.054-.25.113-.376.169-.24.107-.481.214-.718.328-.149.072-.294.15-.441.225-.209.107-.42.213-.626.326-.16.087-.316.18-.473.271-.188.109-.377.215-.563.329-.167.103-.331.211-.495.317-.171.111-.344.219-.512.335-.172.117-.339.24-.507.361-.156.112-.313.222-.467.339-.178.135-.351.275-.524.414-.139.111-.279.219-.416.334-.189.158-.372.323-.555.486-.116.103-.233.203-.347.308-.213.197-.419.401-.625.605-.08.079-.163.156-.242.236-.269.275-.531.556-.787.842-.015.017-.031.032-.046.049-.273.308-.538.622-.794.942-.006.007-.011.013-.017.02-.101.126-.193.256-.291.383-.139.182-.281.361-.415.546-.174.239-.338.482-.501.725-.054.081-.111.16-.165.241-.193.295-.377.593-.556.893-.019.032-.039.062-.057.094-.195.331-.381.665-.559 1.001-.002.004-.005.009-.007.013-.366.693-.696 1.399-.99 2.115-.003.008-.007.016-.01.024-.14.341-.271.685-.395 1.03-.012.033-.025.067-.036.1-.112.317-.216.635-.314.955-.022.071-.044.142-.066.213-.084.282-.161.565-.234.849-.031.117-.061.234-.09.351-.058.238-.11.476-.161.715-.036.169-.072.338-.104.508-.036.19-.068.381-.099.571-.036.218-.071.437-.102.657-.02.147-.037.294-.055.441-.031.26-.06.521-.083.783-.01.111-.017.223-.025.334-.021.292-.039.584-.05.877-.003.089-.004.178-.007.266-.008.309-.012.618-.008.928.001.083.004.167.006.25.007.308.017.616.036.925.006.104.016.207.023.31.021.284.043.568.074.853.017.155.039.309.059.464.03.231.057.463.094.694.04.258.089.516.138.773.024.129.044.257.071.386.09.438.191.873.304 1.306 48.511 188.279 48.113 338.677-1.187 447.016-27.923 61.37-64.797 105.112-100.459 147.414-51.853 61.514-105.472 125.121-124.406 237.154-17.482 103.447 9.875 202.588 77.031 279.153 36.615 41.746 82.606 72.858 131.995 90.636-63.933 13.593-138.897 25.105-224.142 34.384-13.47 1.464-23.198 13.573-21.734 27.04 1.37 12.573 12.003 21.883 24.359 21.883zm1294.431-1074.589c43.375 365.491-40.911 795.329-305.047 1012.23-97.814 80.318-216.48 122.208-330.541 122.198-71.295-.005-140.81-16.375-202.245-49.967-36-19.681-67.215-47.413-92.226-80.957 122.829-39.506 396.944-141.052 625.533-399.969 189.562-214.713 270.912-459.408 304.526-603.535zm-587.621 396.556c72.32-14.619 147.1-29.737 229.875-72.083 114.547-58.593 217.716-168.667 307.793-328.063-33.141 136.198-112.425 371.984-291.353 574.652-227.648 257.85-503.215 354.067-615.701 389.526-19.296-36.839-32.176-78.336-37.317-122.434-13.882-119.059 30.927-234.802 122.937-317.554 95.639-86.013 187.02-104.486 283.766-124.044zm-580.403 471.741c-57.238-65.258-80.513-150.006-65.536-238.622 16.699-98.83 61.576-152.065 113.54-213.709 37.8-44.841 76.887-91.203 107.605-158.717 47.284-103.92 54.249-240.39 20.87-406.41 154.384 141.595 275.125 330.932 325.327 512.384-78.834 18.807-156.045 47.215-237.977 120.904-103.999 93.531-154.611 224.642-138.862 359.712 4.625 39.663 14.8 77.536 29.773 112.482-57.364-9.31-113.046-40.486-154.74-88.024z"/></g></g></svg>