<svg id="Layer_3" height="512" viewBox="0 0 64 64" width="512" xmlns="http://www.w3.org/2000/svg" data-name="Layer 3"><path d="m31 7h2v2h-2z"/><path d="m31 13h2v2h-2z"/><path d="m31 19h2v2h-2z"/><path d="m31 25h2v2h-2z"/><path d="m31 31h2v2h-2z"/><path d="m20 7h2v2h-2z"/><path d="m19 13h2v2h-2z"/><path d="m18 19h2v2h-2z"/><path d="m17 25h2v2h-2z"/><path d="m16 31h2v2h-2z"/><path d="m15 37h2v2h-2z"/><path d="m14 43h2v2h-2z"/><path d="m42 7h2v2h-2z"/><path d="m43 13h2v2h-2z"/><path d="m44 19h2v2h-2z"/><path d="m45 25h2v2h-2z"/><path d="m59.672 37.27-6.133-32.508a4.623 4.623 0 0 0 -4.539-3.762h-34a4.623 4.623 0 0 0 -4.539 3.762l-9.236 48.955a3.955 3.955 0 0 0 -.225 1.283v4a4 4 0 0 0 4 4h54a4 4 0 0 0 4-4v-4a3.968 3.968 0 0 0 -.964-2.583 15.824 15.824 0 0 0 -2.364-15.147zm-12.672 23.73a14 14 0 1 1 14-14 14.015 14.015 0 0 1 -14 14zm-34.574-55.867a2.622 2.622 0 0 1 2.574-2.133h34a2.622 2.622 0 0 1 2.574 2.133l5.566 29.5a15.962 15.962 0 0 0 -25.613 16.367h-26.527a3.971 3.971 0 0 0 -1.271.226zm-7.426 55.867a2 2 0 0 1 -2-2v-4a2 2 0 0 1 2-2h2v5h2v-5h3v5h2v-5h3v5h2v-5h3v5h2v-5h3v5h2v-5h3.178a16.087 16.087 0 0 0 7.093 8zm56-6v4a2 2 0 0 1 -2 2h-4.271a16.116 16.116 0 0 0 6.245-6.229 1.933 1.933 0 0 1 .026.229z"/><path d="m48.275 38.039v.016a.981.981 0 0 0 -.275-.055 8.188 8.188 0 0 0 -5.828 2.414l-1.757 1.757a8.19 8.19 0 0 0 -2.415 5.829.975.975 0 0 0 .055.27h-.016a10.7 10.7 0 0 0 10.242 7.73 7.728 7.728 0 0 0 7.719-7.72 10.7 10.7 0 0 0 -7.725-10.241zm-6.446 5.547 1.757-1.757a6.2 6.2 0 0 1 3.319-1.729 6.188 6.188 0 0 1 -1.733 3.319l-1.757 1.757a6.2 6.2 0 0 1 -3.315 1.73 6.194 6.194 0 0 1 1.729-3.32zm-1.441 5.291a8.14 8.14 0 0 0 2.19-.7l1.755 1.568 1.334-1.492-1.349-1.2c.175-.148.347-.3.511-.463l1.757-1.757c.14-.139.267-.287.4-.435l1.312 1.313 1.414-1.414-1.594-1.597a8.14 8.14 0 0 0 .759-2.315 8.7 8.7 0 0 1 4.892 5.938l-.169-.123-1.2 1.6 1.555 1.166a5.681 5.681 0 0 1 -.99 2.585l-1.259-1.259-1.414 1.414 1.259 1.259a5.681 5.681 0 0 1 -2.655 1l-1.077-1.539-1.638 1.146.135.194a8.71 8.71 0 0 1 -5.928-4.889z"/></svg>