<svg id="Layer_3" height="512" viewBox="0 0 64 64" width="512" xmlns="http://www.w3.org/2000/svg" data-name="Layer 3"><path d="m15 5h2v2h-2z"/><path d="m31 5h2v2h-2z"/><path d="m31 9h2v2h-2z"/><path d="m31 13h2v2h-2z"/><path d="m31 17h2v2h-2z"/><path d="m23 5h2v2h-2z"/><path d="m13 9h2v2h-2z"/><path d="m22 9h2v2h-2z"/><path d="m11 13h2v2h-2z"/><path d="m21 13h2v2h-2z"/><path d="m9 17h2v2h-2z"/><path d="m20 17h2v2h-2z"/><path d="m47 5h2v2h-2z"/><path d="m39 5h2v2h-2z"/><path d="m49 9h2v2h-2z"/><path d="m40 9h2v2h-2z"/><path d="m51 13h2v2h-2z"/><path d="m41 13h2v2h-2z"/><path d="m53 17h2v2h-2z"/><path d="m42 17h2v2h-2z"/><path d="m62 45h-60a1 1 0 0 0 -1 1v16a1 1 0 0 0 1 1h60a1 1 0 0 0 1-1v-16a1 1 0 0 0 -1-1zm-1 2v10h-58v-10zm-52 12v2h-2v-2zm2 0h2v2h-2zm4 0h2v2h-2zm4 0h2v2h-2zm4 0h2v2h-2zm4 0h2v2h-2zm4 0h2v2h-2zm4 0h2v2h-2zm4 0h2v2h-2zm4 0h2v2h-2zm4 0h2v2h-2zm4 0h2v2h-2zm4 0h2v2h-2zm-52 0h2v2h-2zm56 2v-2h2v2z"/><path d="m7 49h2v2h-2z"/><path d="m13 49h2v2h-2z"/><path d="m19 49h2v2h-2z"/><path d="m25 49h2v2h-2z"/><path d="m31 49h2v2h-2z"/><path d="m37 49h2v2h-2z"/><path d="m43 49h2v2h-2z"/><path d="m49 49h2v2h-2z"/><path d="m55 49h2v2h-2z"/><path d="m10 53h2v2h-2z"/><path d="m16 53h2v2h-2z"/><path d="m22 53h2v2h-2z"/><path d="m28 53h2v2h-2z"/><path d="m34 53h2v2h-2z"/><path d="m40 53h2v2h-2z"/><path d="m46 53h2v2h-2z"/><path d="m52 53h2v2h-2z"/><path d="m53.912 1.59a1 1 0 0 0 -.912-.59h-42a1 1 0 0 0 -.912.59l-9 20a1 1 0 0 0 -.088.41v20a1 1 0 0 0 1 1h60a1 1 0 0 0 1-1v-20a1 1 0 0 0 -.088-.41zm-42.266 1.41h40.708l8.1 18h-56.907zm49.354 20v2h-58v-2zm-58 18v-14h58v14z"/><path d="m31.256 29.332c-.544.606-3.256 3.728-3.256 5.668a4 4 0 1 0 8 0c0-1.941-2.712-5.063-3.256-5.669a1.033 1.033 0 0 0 -1.488.001zm.744 7.668a2 2 0 0 1 -2-2c0-.638.939-2.126 2-3.452 1.062 1.333 2 2.832 2 3.452a2 2 0 0 1 -2 2z"/><path d="m48.256 29.332c-.544.606-3.256 3.728-3.256 5.668a4 4 0 1 0 8 0c0-1.941-2.712-5.063-3.256-5.669a1.033 1.033 0 0 0 -1.488.001zm.744 7.668a2 2 0 0 1 -2-2c0-.638.939-2.126 2-3.452 1.062 1.333 2 2.832 2 3.452a2 2 0 0 1 -2 2z"/><path d="m13.256 29.332c-.544.606-3.256 3.728-3.256 5.668a4 4 0 0 0 8 0c0-1.941-2.712-5.063-3.256-5.669a1.033 1.033 0 0 0 -1.488.001zm.744 7.668a2 2 0 0 1 -2-2c0-.638.939-2.126 2-3.452 1.062 1.333 2 2.832 2 3.452a2 2 0 0 1 -2 2z"/></svg>