<svg id="Capa_1" enable-background="new 0 0 3500 3500" height="512" viewBox="0 0 3500 3500" width="512" xmlns="http://www.w3.org/2000/svg"><g><path d="m3165.539 2031.631h-719.502c224.548-185.148 367.912-465.353 367.912-778.427-.001-691.022-562.183-1253.204-1253.204-1253.204-416.404 0-807.881 162.154-1102.325 456.599s-456.599 685.921-456.599 1102.325c0 518.482 201.903 1005.928 568.529 1372.548 366.619 366.625 854.071 568.528 1372.547 568.528h1222.642c183.422 0 332.641-149.218 332.641-332.635v-803.1c-.002-183.416-149.22-332.634-332.641-332.634zm272.013 1135.734c0 149.983-122.024 272.008-272.014 272.008h-1222.641c-1036.882 0-1880.449-843.567-1880.449-1880.449 0-826.166 672.131-1498.297 1498.297-1498.297 657.588 0 1192.577 534.989 1192.577 1192.577 0 522.723-425.271 947.994-948 947.994-414.838 0-752.331-337.498-752.331-752.33 0-328.524 267.281-595.805 595.805-595.805 259.476 0 470.578 211.102 470.578 470.578 0 16.743 13.57 30.313 30.313 30.313s30.313-13.57 30.313-30.313c0-292.909-238.296-531.205-531.205-531.205-361.958 0-656.432 294.474-656.432 656.432 0 448.266 364.692 812.957 812.957 812.957 206.696 0 399.056-62.489 559.205-169.573.202.006.403.006.611.006h800.401c149.989 0 272.014 122.024 272.014 272.008v803.099z" fill="rgb(0,0,0)"/></g></svg>