<svg id="Layer_3" height="512" viewBox="0 0 64 64" width="512" xmlns="http://www.w3.org/2000/svg" data-name="Layer 3"><path d="m53.912 1.59a1 1 0 0 0 -.912-.59h-42a1 1 0 0 0 -.912.59l-9 20a1 1 0 0 0 -.088.41v4a1 1 0 0 0 1 1h60a1 1 0 0 0 1-1v-4a1 1 0 0 0 -.088-.41zm-42.266 1.41h40.708l8.1 18h-56.907zm-8.646 22v-2h58v2z"/><path d="m15 5h2v2h-2z"/><path d="m31 5h2v2h-2z"/><path d="m31 9h2v2h-2z"/><path d="m31 13h2v2h-2z"/><path d="m31 17h2v2h-2z"/><path d="m23 5h2v2h-2z"/><path d="m13 9h2v2h-2z"/><path d="m22 9h2v2h-2z"/><path d="m11 13h2v2h-2z"/><path d="m21 13h2v2h-2z"/><path d="m9 17h2v2h-2z"/><path d="m20 17h2v2h-2z"/><path d="m47 5h2v2h-2z"/><path d="m39 5h2v2h-2z"/><path d="m49 9h2v2h-2z"/><path d="m40 9h2v2h-2z"/><path d="m51 13h2v2h-2z"/><path d="m41 13h2v2h-2z"/><path d="m53 17h2v2h-2z"/><path d="m42 17h2v2h-2z"/><path d="m62 45h-60a1 1 0 0 0 -1 1v16a1 1 0 0 0 1 1h60a1 1 0 0 0 1-1v-16a1 1 0 0 0 -1-1zm-1 2v10h-58v-10zm-52 12v2h-2v-2zm2 0h2v2h-2zm4 0h2v2h-2zm4 0h2v2h-2zm4 0h2v2h-2zm4 0h2v2h-2zm4 0h2v2h-2zm4 0h2v2h-2zm4 0h2v2h-2zm4 0h2v2h-2zm4 0h2v2h-2zm4 0h2v2h-2zm4 0h2v2h-2zm-52 0h2v2h-2zm56 2v-2h2v2z"/><path d="m7 49h2v2h-2z"/><path d="m13 49h2v2h-2z"/><path d="m19 49h2v2h-2z"/><path d="m25 49h2v2h-2z"/><path d="m31 49h2v2h-2z"/><path d="m37 49h2v2h-2z"/><path d="m43 49h2v2h-2z"/><path d="m49 49h2v2h-2z"/><path d="m55 49h2v2h-2z"/><path d="m10 53h2v2h-2z"/><path d="m16 53h2v2h-2z"/><path d="m22 53h2v2h-2z"/><path d="m28 53h2v2h-2z"/><path d="m34 53h2v2h-2z"/><path d="m40 53h2v2h-2z"/><path d="m46 53h2v2h-2z"/><path d="m52 53h2v2h-2z"/><path d="m62 29h-60a1 1 0 0 0 -1 1v12a1 1 0 0 0 1 1h60a1 1 0 0 0 1-1v-12a1 1 0 0 0 -1-1zm-1 12h-58v-10h58z"/><path d="m7 33h2v2h-2z"/><path d="m13 33h2v2h-2z"/><path d="m19 33h2v2h-2z"/><path d="m25 33h2v2h-2z"/><path d="m31 33h2v2h-2z"/><path d="m37 33h2v2h-2z"/><path d="m43 33h2v2h-2z"/><path d="m49 33h2v2h-2z"/><path d="m55 33h2v2h-2z"/><path d="m10 37h2v2h-2z"/><path d="m16 37h2v2h-2z"/><path d="m22 37h2v2h-2z"/><path d="m28 37h2v2h-2z"/><path d="m34 37h2v2h-2z"/><path d="m40 37h2v2h-2z"/><path d="m46 37h2v2h-2z"/><path d="m52 37h2v2h-2z"/></svg>