<svg id="Capa_1" enable-background="new 0 0 3500.001 3500.001" height="512" viewBox="0 0 3500.001 3500.001" width="512" xmlns="http://www.w3.org/2000/svg"><g><g fill="rgb(0,0,0)"><path d="m3243.96 0h-2987.919c-141.18 0-256.035 114.86-256.035 256.041v2987.913c0 141.18 114.855 256.041 256.035 256.041h1880.807c.054 0 .107.006.161.006.083 0 .167-.005.25-.006h330.969c.051 0 .102.006.153.006.049 0 .098-.006.147-.006h611.483c.05 0 .098.006.148.006.055 0 .11-.006.165-.006h163.636c141.18 0 256.035-114.861 256.035-256.041v-2987.913c-.001-141.181-114.855-256.041-256.035-256.041zm-753.844 3439.304-81.879-240.841c-1.847-5.427-5.189-10.224-9.648-13.828-19.801-16.018-40.248-32.447-60.333-48.584-65.523-52.645-133.272-107.083-150.561-125.09-4.387-4.797-19.735-28.54-34.578-51.499-51.588-79.796-137.92-213.341-226.479-294.923l-.57-.517c-9.986-9.203-25.084-23.113-35.196-45.716-4.091-9.137-9.779-25.957-16.369-45.437-15.977-47.212-37.849-111.88-67.268-159.17-32.761-52.675-69.893-112.373-58.82-132.357 6.555-11.857 35.285-22.205 58.261-12.569 67.031 28.059 102.505 74.535 138.01 140.432 7.576 14.065 12.017 31.419 16.309 48.21 3.616 14.136 7.03 27.495 12.361 39.352 7.594 16.909 21.107 23.357 33.023 29.045 14.469 6.911 38.687 18.471 81.179 59.603 8.852 8.573 21.576 21.896 32.797 33.652 12.045 12.612 19.754 20.65 24.287 24.84.05.047.101.094.152.141.063.058.133.124.195.181.07.064.143.122.214.186.255.229.513.454.776.673.142.119.285.236.429.352.218.176.438.348.661.517.18.137.36.274.542.407.178.13.36.255.542.381.222.155.443.31.668.458.107.07.216.136.323.204.986.63 1.998 1.198 3.033 1.702.062.031.124.063.186.093.291.139.584.269.878.398.142.063.283.127.427.187.254.107.51.208.767.308.195.076.39.152.587.224.22.08.44.157.661.232.247.084.494.165.743.243.181.056.362.112.544.164.305.089.613.172.921.252.132.034.263.068.395.1.375.091.753.174 1.133.251.072.015.144.031.216.045.454.088.91.167 1.37.235.004 0 .007.001.011.002 1.443.213 2.913.328 4.403.328.117 0 .237-.011.355-.013.513-.005 1.025-.025 1.537-.056.187-.012.373-.024.56-.039.64-.051 1.279-.117 1.916-.208.015-.002.03-.003.044-.005.159-.023.314-.055.472-.081.323-.052.646-.104.968-.166.21-.041.417-.09.625-.135.279-.06.557-.119.834-.187.239-.059.475-.125.712-.19.24-.065.479-.128.717-.199.261-.078.518-.163.776-.248.209-.069.419-.135.627-.209.274-.096.544-.2.814-.304.189-.073.378-.144.565-.22.279-.114.554-.234.828-.356.176-.078.352-.155.527-.236.278-.13.552-.266.826-.404.167-.084.336-.168.502-.256.275-.146.546-.297.816-.451.159-.091.319-.18.478-.274.274-.162.543-.331.811-.501.149-.095.3-.189.448-.287.275-.182.543-.37.812-.56.136-.096.272-.191.407-.29.281-.207.557-.42.83-.636.115-.091.232-.179.346-.272.297-.241.587-.49.874-.743.087-.076.175-.149.261-.226.323-.29.638-.588.948-.891.049-.048.099-.093.148-.141.361-.358.713-.723 1.056-1.098.001-.001.002-.003.004-.004.685-.751 1.333-1.535 1.94-2.35.193-.258.373-.522.557-.785.094-.136.193-.268.286-.406.217-.322.422-.649.625-.976.053-.085.109-.169.161-.255.206-.339.4-.683.591-1.029.046-.083.094-.164.139-.247.18-.333.349-.669.516-1.007.052-.106.107-.211.158-.317.148-.309.286-.621.423-.934.064-.146.13-.29.192-.437.114-.271.219-.545.324-.819.076-.198.154-.395.227-.594.08-.222.153-.446.228-.669.087-.259.174-.517.254-.778.05-.165.096-.332.143-.498.093-.322.183-.645.265-.97.027-.107.05-.215.076-.322.092-.383.179-.767.256-1.155.01-.052.019-.104.029-.156.085-.438.161-.879.227-1.322 0-.001 0-.002 0-.003.371-2.516.426-5.115.135-7.752-.037-.339-.073-.677-.122-1.014-.002-.015-.003-.031-.006-.046-5.48-37.576-10.046-85.038-14.457-130.938-4.477-46.518-8.698-90.453-13.525-119.978-14.416-88.262-26.005-164.751-33.082-277.616-8.158-130.238-13.573-224.461-14.475-342.872-.605-79.333-2.44-94.728-7.333-135.878-2.167-18.221-4.868-40.907-8.377-76.916-1.514-15.567-2.903-54.135 16.903-75.96 10.699-11.791 26.818-17.527 49.285-17.527 62.857 0 76.601 11.085 79.386 128.582 1.651 69.536 4.756 95.63 8.045 123.25 2.393 20.103 4.863 40.883 7.107 81.351 3.503 63.261 14.475 304.749 16.505 393.427.386 16.749 13.994 30.083 31.033 29.644 16.755-.386 30.03-14.279 29.644-31.034-2.042-89.218-13.068-331.864-16.583-395.392-2.345-42.38-5.052-65.113-7.439-85.169-.77-6.471-1.515-12.733-2.226-19.41-.235-41.419 1.593-74.921 3.371-107.319 2.939-53.666 5.712-104.358-1.74-179.125-1.514-15.229-2.903-52.989 16.885-74.82 11.281-12.45 28.469-18.5 52.55-18.5h.154c65.855.077 80.241 11.174 82.996 128.694 1.817 77.415 5.438 125.838 9.274 177.106 2.06 27.537 4.192 56.017 6.109 90.144 1.891 33.659 4.974 114.932 6.963 207.051-.001.427.011.852.028 1.275 2.251 104.882 3.073 223.576-.899 301.991-.849 16.743 12.034 30.998 28.771 31.847.528.024 1.045.036 1.562.036 16.054 0 29.46-12.593 30.285-28.807 4.03-79.57 3.214-199.693.949-305.815 1.938-42.99 6.844-85.396 12.042-130.276 7.974-68.854 16.22-140.046 12.872-213.727-.712-15.626-.107-54.218 20.798-74.992 11.286-11.215 27.643-16.107 50.127-14.956 62.774 3.254 75.93 15.027 72.641 132.512-1.732 61.86-1.412 105.28-.647 146.452-.136 5.143-.035 10.336.308 15.558.106 5.1.216 10.197.327 15.322.594 27.596 1.211 56.13 1.336 90.292.042 12.379-.612 34.299-1.437 62.05-2.749 92.495-6.911 232.286 4.572 310.033 2.227 15.074 15.181 25.916 29.983 25.916 1.472 0 2.969-.107 4.471-.333 16.577-2.446 28.035-17.871 25.583-34.453-10.693-72.434-6.465-214.486-3.942-299.358.843-28.314 1.508-50.68 1.46-64.068-.125-34.715-.742-63.522-1.348-91.385-.112-5.204-.224-10.379-.332-15.558-.002-.118-.004-.236-.007-.354-.09-4.319-.177-8.642-.259-12.987.64-17.495 5.516-37.426 17.833-50.332 10.087-10.568 24.241-15.52 43.763-14.985 49.51 1.241 62.453 5.842 62.311 109.481-.095 67.434 1.942 109.642 4.091 154.331 1.152 23.933 2.345 48.685 3.242 78.311 1.864 61.747 18.548 317.669 26.284 422.216.226 3.058.908 6.056 2.036 8.906l8.9 22.543c43.561 176.477 80.71 366.977 20.234 584.479-2.09 7.522-5.587 20.109 28.617 195.523 11.93 61.169 28.411 140.335 41.696 194.377zm949.188-195.351c0 75.107-42.611 140.438-104.919 173.118l-44.353-215.86c-.136-.659-.297-1.318-.475-1.965-3.681-13.341-5.925-27.151-6.662-41.062-.885-16.731-14.908-29.526-31.912-28.694-16.731.885-29.585 15.175-28.694 31.912.95 17.924 3.806 35.748 8.49 52.989l45.652 222.198c-10.565 1.775-21.41 2.714-32.471 2.714h-140.698c-26.394-101.48-72.054-343.724-73.516-376.785 63.391-231.194 22.354-438.169-21.148-614.135-.326-1.312-.736-2.6-1.235-3.859l-7.95-20.133c-7.837-106.81-23.992-354.823-25.803-414.961-.914-30.179-2.12-55.204-3.283-79.404-2.114-43.917-4.115-85.394-4.025-151.327.131-94.728-8.734-167.417-121.475-170.242-26.93-.64-47.661 5.555-63.298 14.02.189-10.551.443-21.662.773-33.452 3.081-109.968-4.453-188.309-130.173-194.823-40.017-2.06-72.255 8.876-96.046 32.518-10.39 10.326-18.097 22.118-23.784 34.385-.585-14.944-1.095-31.003-1.508-48.592-2.577-109.968-14.386-187.817-143.603-187.959-.077 0-.148 0-.226 0-41.596 0-74.411 12.925-97.524 38.431-34.816 38.414-35.184 92.667-32.304 121.594.554 5.558 1.042 10.95 1.48 16.223-20.259-14.009-48.556-21.733-88.193-21.733-39.993 0-71.698 12.593-94.235 37.428-34.81 38.372-35.213 93.303-32.358 122.638 3.568 36.65 6.311 59.687 8.514 78.198 4.732 39.797 6.329 53.203 6.911 129.169.908 119.961 6.371 214.961 14.594 346.208 7.249 115.65 19.064 193.647 33.759 283.601 4.494 27.542 8.627 70.51 13.002 116 1.435 14.928 2.886 30.016 4.383 44.916-46.833-44.402-76.361-58.503-92.467-66.189-1.71-.819-3.675-1.757-5.195-2.529-2.63-6.935-5.023-16.303-7.534-26.135-4.958-19.379-10.574-41.346-21.677-61.96-40.64-75.414-84.759-132.785-168.004-167.63-48.94-20.483-111.916-2.179-134.798 39.15-28.344 51.167 10.806 114.119 60.387 193.837 25.702 41.317 46.28 102.137 61.301 146.547 7.38 21.801 13.204 39.019 18.459 50.769 15.217 34.008 37.505 54.539 49.48 65.57l.564.517c82.895 76.364 169.898 210.942 216.636 283.239 23.434 36.247 34.115 52.604 41.697 60.506 20.068 20.905 83.245 71.667 156.397 130.446 17.734 14.249 35.754 28.724 53.363 42.949l72.412 212.99h-268.654l-89.788-219.088c-6.359-15.502-24.069-22.923-39.589-16.577-15.508 6.359-22.929 24.081-16.577 39.589l80.357 196.075h-1835.72c-107.712 0-195.345-87.633-195.345-195.351v-2987.911c0-107.718 87.633-195.351 195.345-195.351h2987.919c107.712 0 195.345 87.633 195.345 195.351z"/><path d="m2843.455 1228.841c-15.627-8.021-32.542-16.078-50.27-23.957-46.939-20.857-86.279-53.464-113.768-94.294-15.692-23.315-34.459-43.733-55.786-60.702-13.103-10.426-32.203-8.265-42.641 4.857-10.432 13.115-8.259 32.203 4.856 42.641 16.458 13.092 30.998 28.938 43.223 47.1 33.866 50.306 82.094 90.37 139.47 115.864 16.707 7.421 32.583 14.985 47.201 22.484 4.435 2.28 9.167 3.354 13.833 3.354 11.02 0 21.647-6.02 27.02-16.494 7.654-14.914 1.771-33.206-13.138-40.853z"/><path d="m3233.32 2284.31c-7.54-114.219-15.686-247.123-16.885-286.546l-.208-6.501c-.564-16.755-14.754-30.006-31.348-29.306-16.749.564-29.876 14.6-29.306 31.348l.196 6.299c1.223 40.177 9.417 173.947 16.992 288.707 1.057 16.042 14.398 28.344 30.25 28.344.671 0 1.348-.018 2.031-.065 16.724-1.104 29.382-15.555 28.278-32.28z"/><path d="m3244.737 2545.849c-16.44 3.248-27.139 19.213-23.885 35.653 20.62 104.346 30.226 194.33 30.226 283.179v2.969c0 16.76 13.584 30.345 30.345 30.345s30.345-13.584 30.345-30.345v-2.969c0-91.634-10.26-188.113-31.378-294.947-3.248-16.446-19.201-27.127-35.653-23.885z"/><path d="m3178.823 1728.674c16.725-1.021 29.46-15.413 28.439-32.144-3.937-64.377-17.574-114.95-42.926-159.17-23.867-41.632-56.558-74.927-97.18-98.973-4.477-2.648-8.87-5.415-13.056-8.205-13.94-9.321-32.785-5.557-42.089 8.377-9.31 13.935-5.557 32.785 8.377 42.089 5.1 3.408 10.443 6.768 15.858 9.969 31.473 18.631 56.854 44.517 75.438 76.928 20.816 36.306 31.604 77.231 34.994 132.69.986 16.096 14.35 28.492 30.262 28.492.624 0 1.254-.018 1.883-.053z"/><path d="m1874.034 1605.317c3.853 32.411 5.148 43.33 5.824 89.408.243 16.606 13.786 29.9 30.339 29.9h.451c16.761-.25 30.143-14.035 29.9-30.79-.724-49.225-2.339-62.827-6.252-95.731-2.422-20.394-5.438-45.781-9.369-86.065-1.164-11.952-1.758-23.927-1.758-35.594 0-23.582 2.399-46.565 7.125-68.301 3.556-16.381-6.834-32.542-23.208-36.104-16.375-3.527-32.548 6.834-36.104 23.208-5.64 25.969-8.502 53.286-8.502 81.197 0 13.626.683 27.584 2.042 41.483 3.99 40.919 7.048 66.656 9.512 87.389z"/><path d="m1956.685 2099.646c-2.535-40.373-4.821-77.599-6.828-113.216-.938-16.731-14.997-29.644-32.001-28.594-16.731.938-29.537 15.271-28.593 32.001 1.253 22.282 2.618 45.194 4.085 69.103-3.046-1.342-6.098-2.66-9.173-3.948-37.873-15.882-78.591-23.511-120.549-22.817-16.755.297-30.101 14.119-29.811 30.879.291 16.577 13.822 29.811 30.333 29.811h.546c33.497-.624 65.932 5.492 96.028 18.108 17.426 7.297 34.145 15.597 51.107 25.387 4.702 2.713 9.939 4.061 15.169 4.061 5.563 0 11.126-1.526 16.024-4.572 9.505-5.914 14.985-16.583 14.255-27.75z"/><path d="m2316.098 997.279c-56.083 15.627-105.67 45.883-143.406 87.508-6.204 6.851-12.141 14.065-17.633 21.427-19.302 25.839-46.411 46.126-78.406 58.665-15.603 6.121-23.292 23.731-17.176 39.334 4.696 11.963 16.143 19.278 28.261 19.278 3.687 0 7.433-.677 11.073-2.102 42.528-16.678 78.798-43.941 104.886-78.864 4.358-5.842 9.066-11.566 13.976-16.986 30.018-33.112 69.685-57.246 114.718-69.792 16.143-4.5 25.583-21.237 21.089-37.38-4.502-16.142-21.227-25.588-37.382-21.088z"/><path d="m1665.959 2773.141c30.404 58.451 69.643 94.597 86.398 110.028 28.837 26.569 63.261 67.09 102.315 120.436 5.943 8.122 15.164 12.427 24.509 12.427 6.222 0 12.498-1.912 17.9-5.866 13.525-9.897 16.464-28.89 6.561-42.409-41.958-57.318-77.991-99.584-110.164-129.223-15.639-14.404-48.174-44.38-73.675-93.404-7.736-14.873-26.052-20.644-40.931-12.914-14.866 7.731-20.649 26.053-12.913 40.925z"/><path d="m1541.273 2300.994c0-26.86 5.231-52.022 15.983-76.928 6.644-15.389-.445-33.248-15.834-39.892-15.383-6.644-33.248.451-39.892 15.834-13.899 32.203-20.946 66.176-20.946 100.986 0 78.822 35.813 151.125 67.013 205.313 5.611 9.749 15.823 15.205 26.325 15.205 5.136 0 10.343-1.306 15.116-4.055 14.522-8.36 19.516-26.913 11.15-41.441-27.43-47.634-58.915-110.58-58.915-175.022z"/><path d="m463.254 451.819c-59.473 0-107.861 48.388-107.861 107.867s48.388 107.866 107.861 107.866c59.479 0 107.867-48.388 107.867-107.866s-48.388-107.867-107.867-107.867zm0 155.043c-26.011 0-47.171-21.166-47.171-47.177s21.16-47.177 47.171-47.177 47.177 21.166 47.177 47.177-21.166 47.177-47.177 47.177z"/><path d="m1310.299 451.819c-59.473 0-107.861 48.388-107.861 107.867s48.388 107.866 107.861 107.866c59.479 0 107.867-48.388 107.867-107.866s-48.389-107.867-107.867-107.867zm0 155.043c-26.011 0-47.171-21.166-47.171-47.177s21.16-47.177 47.171-47.177 47.177 21.166 47.177 47.177-21.166 47.177-47.177 47.177z"/><path d="m2157.344 667.552c59.479 0 107.866-48.388 107.866-107.866s-48.388-107.867-107.866-107.867c-59.473 0-107.861 48.388-107.861 107.867s48.388 107.866 107.861 107.866zm0-155.043c26.011 0 47.177 21.166 47.177 47.177s-21.166 47.177-47.177 47.177-47.171-21.166-47.171-47.177 21.16-47.177 47.171-47.177z"/><path d="m3112.255 559.686c0-59.479-48.388-107.867-107.861-107.867-59.479 0-107.866 48.388-107.866 107.867s48.388 107.866 107.866 107.866c59.473 0 107.861-48.388 107.861-107.866zm-107.861 47.176c-26.011 0-47.177-21.166-47.177-47.177s21.166-47.177 47.177-47.177 47.171 21.166 47.171 47.177-21.16 47.177-47.171 47.177z"/><path d="m463.254 1230.266c-59.473 0-107.861 48.388-107.861 107.861 0 59.479 48.388 107.867 107.861 107.867 59.479 0 107.867-48.388 107.867-107.867 0-59.473-48.388-107.861-107.867-107.861zm0 155.037c-26.011 0-47.171-21.166-47.171-47.177s21.16-47.171 47.171-47.171 47.177 21.16 47.177 47.171-21.166 47.177-47.177 47.177z"/><path d="m1310.299 1230.266c-59.473 0-107.861 48.388-107.861 107.861 0 59.479 48.388 107.867 107.861 107.867 59.479 0 107.867-48.388 107.867-107.867 0-59.473-48.389-107.861-107.867-107.861zm0 155.037c-26.011 0-47.171-21.166-47.171-47.177s21.16-47.171 47.171-47.171 47.177 21.16 47.177 47.171-21.166 47.177-47.177 47.177z"/><path d="m463.254 2008.707c-59.473 0-107.861 48.388-107.861 107.866 0 59.473 48.388 107.861 107.861 107.861 59.479 0 107.867-48.388 107.867-107.861 0-59.479-48.388-107.866-107.867-107.866zm0 155.037c-26.011 0-47.171-21.16-47.171-47.171s21.16-47.177 47.171-47.177 47.177 21.166 47.177 47.177-21.166 47.171-47.177 47.171z"/><path d="m1310.299 2008.707c-59.473 0-107.861 48.388-107.861 107.866 0 59.473 48.388 107.861 107.861 107.861 59.479 0 107.867-48.388 107.867-107.861 0-59.479-48.389-107.866-107.867-107.866zm0 155.037c-26.011 0-47.171-21.16-47.171-47.171s21.16-47.177 47.171-47.177 47.177 21.166 47.177 47.177-21.166 47.171-47.177 47.171z"/><path d="m463.254 2787.147c-59.473 0-107.861 48.388-107.861 107.866 0 59.473 48.388 107.861 107.861 107.861 59.479 0 107.867-48.388 107.867-107.861 0-59.478-48.388-107.866-107.867-107.866zm0 155.038c-26.011 0-47.171-21.16-47.171-47.171s21.16-47.177 47.171-47.177 47.177 21.166 47.177 47.177-21.166 47.171-47.177 47.171z"/><path d="m1310.299 2787.147c-59.473 0-107.861 48.388-107.861 107.866 0 59.473 48.388 107.861 107.861 107.861 59.479 0 107.867-48.388 107.867-107.861 0-59.478-48.389-107.866-107.867-107.866zm0 155.038c-26.011 0-47.171-21.16-47.171-47.171s21.16-47.177 47.171-47.177 47.177 21.166 47.177 47.177-21.166 47.171-47.177 47.171z"/></g></g></svg>