<svg id="Layer_3" height="512" viewBox="0 0 64 64" width="512" xmlns="http://www.w3.org/2000/svg" data-name="Layer 3"><path d="m31 7h2v2h-2z"/><path d="m31 13h2v2h-2z"/><path d="m31 19h2v2h-2z"/><path d="m31 25h2v2h-2z"/><path d="m31 31h2v2h-2z"/><path d="m20 7h2v2h-2z"/><path d="m19 13h2v2h-2z"/><path d="m18 19h2v2h-2z"/><path d="m17 25h2v2h-2z"/><path d="m16 31h2v2h-2z"/><path d="m15 37h2v2h-2z"/><path d="m14 43h2v2h-2z"/><path d="m42 7h2v2h-2z"/><path d="m43 13h2v2h-2z"/><path d="m44 19h2v2h-2z"/><path d="m45 25h2v2h-2z"/><path d="m59.672 37.27-6.133-32.508a4.623 4.623 0 0 0 -4.539-3.762h-34a4.623 4.623 0 0 0 -4.539 3.762l-9.236 48.956a3.943 3.943 0 0 0 -.225 1.282v4a4 4 0 0 0 4 4h54a4 4 0 0 0 4-4v-4a3.968 3.968 0 0 0 -.964-2.583 15.824 15.824 0 0 0 -2.364-15.147zm-12.672 23.73a14 14 0 1 1 14-14 14.015 14.015 0 0 1 -14 14zm-34.574-55.866a2.622 2.622 0 0 1 2.574-2.134h34a2.622 2.622 0 0 1 2.574 2.133l5.566 29.5a15.962 15.962 0 0 0 -25.613 16.367h-26.527a3.933 3.933 0 0 0 -1.27.226zm-7.426 55.866a2 2 0 0 1 -2-2v-4a2 2 0 0 1 2-2h2v5h2v-5h3v5h2v-5h3v5h2v-5h3v5h2v-5h3v5h2v-5h3.178a16.087 16.087 0 0 0 7.093 8zm56-6v4a2 2 0 0 1 -2 2h-4.271a16.109 16.109 0 0 0 6.245-6.229 1.933 1.933 0 0 1 .026.229z"/><path d="m53.97 45.758a1 1 0 0 0 -.97-.758h-1.586l-1.707-1.707a1 1 0 0 0 -1.153-.188l-1.108.553-.546-1.105a1.137 1.137 0 0 0 -.631-.52 20.143 20.143 0 0 0 -6.375-1.033h-1.894a1 1 0 0 0 -1 1 11.823 11.823 0 0 0 2.844 7.688l3.4 3.962a1 1 0 0 0 1.207.245l1.356-.678 1.49 1.49a1 1 0 0 0 .949.263l4-1a1 1 0 0 0 .59-.415l1.699-2.555h3.465v-2h-3.22zm-5.663 7.135-1.6-1.6a1 1 0 0 0 -1.154-.188l-1.3.652-2.888-3.37a9.837 9.837 0 0 1 -2.314-5.387h.843a18.167 18.167 0 0 1 5.4.823l.81 1.623a1 1 0 0 0 1.341.448l1.357-.677 1.491 1.49a1 1 0 0 0 .707.293h1.219l.5 1.988a14.081 14.081 0 0 1 -8.119-2.788l-1.2 1.6a16.106 16.106 0 0 0 8.755 3.165l-.772 1.159z"/></svg>