<svg id="Capa_1" enable-background="new 0 0 3000 3000" height="512" viewBox="0 0 3000 3000" width="512" xmlns="http://www.w3.org/2000/svg"><g><g fill="rgb(0,0,0)"><path d="m2784.407 85.36h-2568.812c-118.879 0-215.595 96.713-215.595 215.59v191.449c0 53.543 36.17 98.793 85.358 112.609v2285.102c0 13.549 10.983 24.53 24.532 24.53h2780.22c13.549 0 24.532-10.981 24.532-24.53v-2285.102c49.188-13.816 85.358-59.066 85.358-112.609v-191.449c0-118.877-96.716-215.59-215.593-215.59zm81.171 2780.22h-2731.156v-207.7h2731.155zm0-256.76h-2731.156v-1684.492h2731.155zm0-1733.552h-2731.156v-265.921h2731.155zm85.358-382.869c0 37.431-30.452 67.888-67.883 67.888h-2766.105c-37.431 0-67.883-30.457-67.883-67.888v-191.449c0-91.823 74.705-166.53 166.531-166.53h2568.812c91.825 0 166.528 74.708 166.528 166.53z"/><path d="m2186.956 2139.71c20.038 34.705 20.04 76.148 0 110.852-20.038 34.709-55.928 55.433-96.005 55.433h-530.946l182.937-156.682c10.29-8.812 11.488-24.299 2.673-34.589-8.812-10.285-24.299-11.485-34.589-2.673l-233.246 199.771c-.479.407-.942.839-1.395 1.289-1.685 1.667-3.085 3.525-4.188 5.514-.039.07-.073.14-.111.21-.149.275-.296.552-.435.832-.079.16-.151.323-.227.485-.089.191-.181.382-.265.575-.101.232-.194.467-.288.701-.05.126-.104.252-.152.379-.107.282-.205.565-.301.85-.029.084-.06.168-.087.253-.102.311-.194.623-.282.937-.018.062-.038.125-.055.187-.088.322-.167.645-.241.969-.014.059-.029.118-.042.177-.071.317-.132.635-.19.954-.013.07-.028.14-.04.211-.052.3-.095.601-.135.902-.013.094-.028.187-.039.281-.033.273-.059.546-.083.82-.011.125-.024.25-.034.375-.017.238-.028.477-.038.715-.007.163-.017.325-.021.488-.005.201-.003.401-.003.602s-.001.401.003.602c.004.163.013.325.021.488.01.239.021.477.038.716.009.125.023.25.034.374.024.274.05.547.083.82.011.094.026.187.039.28.04.301.083.602.135.902.012.071.027.14.04.211.058.319.119.637.19.954.013.06.029.118.042.178.074.324.154.647.241.969.017.063.037.125.055.187.089.313.181.626.282.937.027.085.059.168.087.252.096.284.194.568.301.85.048.127.102.252.152.379.094.234.187.469.288.701.084.193.176.384.265.575.076.162.148.324.227.485.138.28.285.556.435.832.038.07.073.141.111.21 1.005 1.812 2.253 3.518 3.741 5.068.06.063.123.121.184.183.233.237.468.473.711.702.185.175.375.341.564.509.1.088.195.18.297.268l.204.175c.024.02.048.041.072.062l233.055 199.606c4.624 3.959 10.3 5.898 15.946 5.898 6.916 0 13.791-2.908 18.643-8.572 8.814-10.29 7.617-25.778-2.673-34.589l-182.937-156.682h530.946c57.814 0 109.588-29.891 138.495-79.958 28.907-50.073 28.907-109.854 0-159.922l-127.343-220.562c-6.774-11.729-21.78-15.747-33.51-8.979-11.735 6.777-15.754 21.78-8.98 33.514z"/><path d="m1239.605 1345.698c11.73 6.758 26.735 2.745 33.51-8.98l127.343-220.562c20.04-34.71 55.93-55.433 96.005-55.433 40.078 0 75.968 20.724 96.008 55.433l265.467 459.803-227.154-80.083c-12.781-4.507-26.788 2.198-31.292 14.984-4.504 12.776 2.2 26.786 14.979 31.292l289.736 102.146c.005.002.011.003.016.005.562.197 1.138.368 1.721.525.17.046.34.094.511.136.463.114.93.219 1.404.308.052.01.103.016.154.025.208.038.415.07.622.102.51.079 1.018.147 1.525.193.175.016.349.024.524.036.467.032.933.053 1.397.058.094.001.188.012.282.012.697 0 1.389-.037 2.079-.095.188-.016.372-.045.559-.065.474-.052.946-.109 1.414-.188.263-.044.523-.1.784-.153.388-.078.775-.161 1.158-.258.282-.071.561-.15.839-.231.361-.105.719-.218 1.075-.34.275-.094.547-.19.818-.293.363-.138.72-.289 1.075-.444.247-.108.494-.213.736-.328.396-.189.784-.395 1.17-.604.188-.103.38-.198.566-.305.521-.301 1.03-.622 1.528-.96.044-.03.091-.056.134-.086 1.114-.768 2.164-1.632 3.144-2.581.104-.101.201-.208.303-.311.365-.366.722-.74 1.064-1.13.146-.166.283-.339.424-.509.279-.337.554-.677.816-1.031.164-.221.321-.448.478-.675.217-.314.428-.631.631-.957.17-.272.333-.547.493-.827.167-.293.328-.592.484-.895.164-.317.324-.635.474-.961.133-.287.255-.58.377-.873.143-.343.284-.685.412-1.036.031-.084.069-.164.099-.249.16-.454.302-.909.434-1.365.03-.105.057-.212.085-.317.189-.687.351-1.375.478-2.065l56.385-301.894c2.486-13.314-6.292-26.128-19.611-28.614-13.326-2.525-26.133 6.292-28.619 19.61l-44.221 236.763-265.472-459.812c-28.907-50.068-80.681-79.963-138.497-79.963-57.814 0-109.588 29.896-138.495 79.963l-127.343 220.562c-6.77 11.738-2.751 26.741 8.984 33.517z"/><path d="m909.052 2355.056h254.684c13.549 0 24.532-10.981 24.532-24.53s-10.984-24.53-24.532-24.53h-254.684c-40.078 0-75.968-20.724-96.008-55.429-20.038-34.709-20.038-76.152 0-110.857l265.473-459.81 44.222 236.761c2.203 11.797 12.507 20.033 24.086 20.033 1.495 0 3.012-.135 4.533-.422 13.318-2.486 22.096-15.301 19.61-28.614l-56.388-301.897c-.103-.558-.229-1.115-.372-1.672-.812-3.185-2.222-6.082-4.091-8.588-.002-.002-.004-.005-.006-.007-.237-.318-.482-.63-.733-.935-.009-.011-.019-.022-.029-.034-.247-.298-.5-.591-.76-.876-.001-.002-.003-.003-.004-.005-5.012-5.503-12.414-8.616-20.196-7.926-1.974.167-3.958.582-5.914 1.255-.053.018-.108.034-.161.052-.008.002-.015.005-.022.007l-289.734 102.146c-12.778 4.507-19.483 18.516-14.979 31.292 3.554 10.083 13.023 16.385 23.136 16.385 2.707 0 5.459-.451 8.156-1.406l227.157-80.085-265.473 459.81c-28.907 50.072-28.907 109.854 0 159.922 28.907 50.069 80.683 79.96 138.497 79.96z"/></g></g></svg>