<svg id="Layer_3" height="512" viewBox="0 0 64 64" width="512" xmlns="http://www.w3.org/2000/svg" data-name="Layer 3"><path d="m31 7h2v2h-2z"/><path d="m31 13h2v2h-2z"/><path d="m31 19h2v2h-2z"/><path d="m31 25h2v2h-2z"/><path d="m31 31h2v2h-2z"/><path d="m20 7h2v2h-2z"/><path d="m19 13h2v2h-2z"/><path d="m18 19h2v2h-2z"/><path d="m17 25h2v2h-2z"/><path d="m16 31h2v2h-2z"/><path d="m15 37h2v2h-2z"/><path d="m14 43h2v2h-2z"/><path d="m42 7h2v2h-2z"/><path d="m43 13h2v2h-2z"/><path d="m44 19h2v2h-2z"/><path d="m45 25h2v2h-2z"/><path d="m59.672 37.27-6.133-32.507a4.623 4.623 0 0 0 -4.539-3.763h-34a4.623 4.623 0 0 0 -4.539 3.763l-9.236 48.955a3.943 3.943 0 0 0 -.225 1.282v4a4 4 0 0 0 4 4h54a4 4 0 0 0 4-4v-4a3.968 3.968 0 0 0 -.964-2.583 15.824 15.824 0 0 0 -2.364-15.147zm-12.672 23.73a13.922 13.922 0 0 1 -9.154-3.432l5.228-5.229c.049.105.085.216.137.319a4.236 4.236 0 0 0 7.578 0c.1-.2.173-.4.26-.606l1.194.67.862 1.725 1.79-.894-1-2a1 1 0 0 0 -.406-.425l-1.789-1.005a11.5 11.5 0 0 0 .285-2.331l.512.118 1.8 1.8 1.414-1.414-2-2a1 1 0 0 0 -.483-.268l-1.472-.338a7 7 0 0 0 -.565-1.461l6.381-6.38a13.979 13.979 0 0 1 -10.572 23.151zm0-20a1 1 0 1 1 1-1 1 1 0 0 1 -1 1zm2.948 6a4.89 4.89 0 0 1 .052.528 9.31 9.31 0 0 1 -.131 1.472h-3.455l2-2zm-5.889 1.527a9.266 9.266 0 0 1 -.059-1 4.89 4.89 0 0 1 .052-.527h1.534zm5.269 2.473c-.1.258-.2.516-.328.764a2.236 2.236 0 0 1 -4 0c-.124-.248-.226-.506-.327-.764zm-1.742-6h-2.893a5.106 5.106 0 0 1 .8-1.08l.507-.506a1.415 1.415 0 0 1 2 0l.505.506c.028.027.046.06.073.088zm2.334-2.494-.505-.506c-.036-.036-.08-.06-.117-.094a2.972 2.972 0 0 0 .702-1.906 3 3 0 0 0 -6 0 2.972 2.972 0 0 0 .7 1.906c-.037.034-.081.058-.117.094l-.014.014-2.177-.934a1.007 1.007 0 0 0 -.842.024l-2 1 .9 1.79 1.584-.794 1.154.495a6.992 6.992 0 0 0 -.938 2.091l-1.472.338a1 1 0 0 0 -.483.268l-2 2 1.414 1.414 1.8-1.8.512-.118a11.453 11.453 0 0 0 .319 2.459l-5.9 5.9a13.979 13.979 0 0 1 19.714-19.715l-6.154 6.158c-.03-.027-.053-.057-.08-.084zm-37.494-37.372a2.622 2.622 0 0 1 2.574-2.134h34a2.622 2.622 0 0 1 2.574 2.134l5.566 29.5a15.962 15.962 0 0 0 -25.613 16.366h-26.527a3.933 3.933 0 0 0 -1.27.226zm-7.426 55.866a2 2 0 0 1 -2-2v-4a2 2 0 0 1 2-2h2v5h2v-5h3v5h2v-5h3v5h2v-5h3v5h2v-5h3v5h2v-5h3.178a16.087 16.087 0 0 0 7.093 8zm56-6v4a2 2 0 0 1 -2 2h-4.271a16.116 16.116 0 0 0 6.245-6.229 1.933 1.933 0 0 1 .026.229z"/></svg>