<svg id="Layer_3" height="512" viewBox="0 0 64 64" width="512" xmlns="http://www.w3.org/2000/svg" data-name="Layer 3"><path d="m63 12a7.008 7.008 0 0 0 -7-7h-48a7 7 0 0 0 -1.9 13.731 10.982 10.982 0 0 0 -.254 18.383 6 6 0 0 0 -2.159 10.886 6 6 0 0 0 3.313 11h45a11 11 0 0 0 6.153-20.114 6 6 0 0 0 2.16-10.886 5.992 5.992 0 0 0 -.369-10.222 7 7 0 0 0 3.056-5.778zm-55 5a5 5 0 0 1 0-10h48a5 5 0 0 1 0 10zm53 31a9.01 9.01 0 0 1 -9 9h-45a4 4 0 0 1 0-8h48v-2h-48a4 4 0 0 1 0-8h45a9.01 9.01 0 0 1 9 9zm-4-29a4 4 0 0 1 0 8h-48v2h48a4 4 0 0 1 0 8h-45a9 9 0 0 1 0-18z"/></svg>