<svg id="Capa_1" enable-background="new 0 0 3200.102 3200.102" height="512" viewBox="0 0 3200.102 3200.102" width="512" xmlns="http://www.w3.org/2000/svg"><g><g fill="rgb(0,0,0)"><path d="m2970.13 91.052h-2740.155c-126.808 0-229.975 103.167-229.975 229.975v204.219c0 57.114 38.582 105.382 91.051 120.12v2437.517c0 14.452 11.716 26.168 26.169 26.168h2965.663c14.452 0 26.168-11.716 26.168-26.168v-2437.517c52.469-14.738 91.051-63.006 91.051-120.12v-204.219c.001-126.808-103.166-229.975-229.972-229.975zm86.584 2965.663h-2913.326v-221.549h2913.326zm0-273.886h-2913.326v-1796.842h2913.326zm0-1849.179h-2913.326v-283.656h2913.326zm91.051-408.405c0 39.927-32.484 72.411-72.411 72.411h-2950.606c-39.927 0-72.411-32.484-72.411-72.411v-204.218c0-97.95 79.688-177.638 177.638-177.638h2740.155c97.95 0 177.635 79.688 177.635 177.638z"/><path d="m259.113 1153.109h430.408c14.453 0 26.169-11.716 26.169-26.168 0-14.453-11.716-26.169-26.169-26.169h-430.408c-14.453 0-26.169 11.716-26.169 26.169.001 14.453 11.717 26.168 26.169 26.168z"/><path d="m250.279 1614.636 430.408 154.354c2.918 1.044 5.9 1.541 8.834 1.541 10.733 0 20.801-6.655 24.633-17.34 4.876-13.605-2.196-28.588-15.799-33.467l-430.408-154.353c-13.597-4.861-28.588 2.196-33.466 15.799-4.877 13.606 2.196 28.589 15.798 33.466z"/><path d="m250.279 1923.344 430.408 154.354c2.918 1.044 5.9 1.541 8.834 1.541 10.733 0 20.801-6.656 24.633-17.34 4.876-13.605-2.196-28.588-15.799-33.467l-430.408-154.354c-13.597-4.864-28.588 2.194-33.466 15.799-4.877 13.606 2.196 28.587 15.798 33.467z"/><path d="m250.279 2540.76 288.752 103.553h-279.918c-14.453 0-26.169 11.716-26.169 26.168 0 14.453 11.716 26.169 26.169 26.169h430.288c.04 0 .081.005.121.005.129 0 .256-.013.385-.015.437-.006.871-.023 1.303-.05.204-.013.407-.029.611-.047 1.202-.104 2.38-.292 3.531-.553.062-.014.125-.029.187-.043 2.558-.602 4.97-1.578 7.177-2.869.024-.014.049-.028.073-.042.534-.315 1.057-.647 1.566-.998.072-.049.141-.101.213-.151.421-.296.832-.604 1.234-.924.099-.078.199-.154.297-.234.41-.336.808-.687 1.197-1.047.157-.145.31-.293.464-.442.295-.286.582-.58.863-.88.188-.2.371-.404.553-.61.265-.301.523-.608.774-.921.139-.173.277-.347.412-.524.32-.421.629-.85.923-1.291.084-.126.164-.256.247-.385.289-.448.566-.906.828-1.373.033-.059.068-.116.101-.176.313-.568.601-1.152.872-1.745.02-.043.039-.086.059-.13.636-1.414 1.153-2.894 1.532-4.428.013-.051.023-.102.035-.152.085-.352.165-.706.235-1.063.036-.183.066-.366.098-.55.039-.223.08-.445.113-.67.048-.321.086-.642.123-.963.01-.09.023-.18.032-.27.227-2.229.165-4.449-.17-6.611-.518-3.394-1.692-6.571-3.382-9.404 0-.001-.001-.001-.001-.002-.177-.297-.363-.589-.551-.878-.05-.077-.098-.155-.149-.232-.141-.211-.288-.417-.435-.624-.107-.152-.212-.305-.323-.454-.096-.129-.196-.254-.294-.381-.169-.22-.338-.439-.514-.654-.045-.055-.092-.107-.137-.162-1.818-2.181-4.002-4.086-6.509-5.604-1.538-.935-3.182-1.709-4.906-2.314l-430.24-154.294c-13.597-4.864-28.588 2.196-33.466 15.799-4.879 13.605 2.194 28.589 15.796 33.466z"/><path d="m250.279 2232.052 430.408 154.354c2.918 1.044 5.9 1.541 8.834 1.541 10.733 0 20.801-6.655 24.633-17.34 4.876-13.605-2.196-28.587-15.799-33.467l-430.408-154.354c-13.597-4.869-28.588 2.194-33.466 15.799-4.877 13.605 2.196 28.589 15.798 33.467z"/><path d="m477.316 1175.241-111.588 40.02c-13.603 4.879-20.675 19.864-15.799 33.467 3.834 10.685 13.9 17.34 24.633 17.34 2.933 0 5.916-.497 8.834-1.541l111.588-40.02c13.603-4.879 20.675-19.864 15.799-33.466-4.884-13.603-19.867-20.663-33.467-15.8z"/><path d="m250.279 1305.928 430.408 154.354c2.918 1.044 5.9 1.541 8.834 1.541 10.733 0 20.801-6.656 24.633-17.34 4.876-13.605-2.196-28.587-15.799-33.466l-430.408-154.354c-13.597-4.869-28.588 2.194-33.466 15.799-4.877 13.605 2.196 28.588 15.798 33.466z"/><path d="m536.414 1462.759-152.473 54.679c-13.603 4.879-20.675 19.861-15.799 33.467 3.834 10.685 13.897 17.34 24.633 17.34 2.934 0 5.916-.497 8.834-1.541l152.473-54.679c13.603-4.879 20.675-19.861 15.799-33.467-4.88-13.606-19.872-20.668-33.467-15.799z"/><path d="m536.414 1771.464-152.473 54.682c-13.603 4.879-20.675 19.864-15.799 33.466 3.834 10.685 13.899 17.34 24.633 17.34 2.934 0 5.916-.497 8.834-1.541l152.473-54.682c13.603-4.879 20.675-19.864 15.799-33.467-4.882-13.605-19.872-20.667-33.467-15.798z"/><path d="m536.414 2080.173-152.473 54.679c-13.603 4.879-20.675 19.861-15.799 33.467 3.834 10.685 13.897 17.34 24.633 17.34 2.934 0 5.916-.497 8.834-1.541l152.473-54.679c13.603-4.879 20.675-19.861 15.799-33.467-4.88-13.606-19.872-20.667-33.467-15.799z"/><path d="m536.414 2388.882-152.473 54.679c-13.603 4.879-20.675 19.861-15.799 33.467 3.834 10.684 13.897 17.34 24.633 17.34 2.934 0 5.916-.497 8.834-1.541l152.473-54.679c13.603-4.879 20.675-19.861 15.799-33.466-4.88-13.603-19.872-20.663-33.467-15.8z"/><path d="m1009.603 1153.109h430.408c14.452 0 26.168-11.716 26.168-26.168 0-14.453-11.716-26.169-26.168-26.169h-430.408c-14.453 0-26.169 11.716-26.169 26.169.001 14.453 11.717 26.168 26.169 26.168z"/><path d="m1000.769 1614.636 430.408 154.354c2.918 1.044 5.9 1.541 8.834 1.541 10.733 0 20.801-6.655 24.633-17.34 4.876-13.605-2.196-28.588-15.799-33.467l-430.408-154.354c-13.59-4.861-28.585 2.196-33.467 15.799-4.876 13.607 2.197 28.59 15.799 33.467z"/><path d="m1000.769 1923.344 430.408 154.354c2.918 1.044 5.9 1.541 8.834 1.541 10.733 0 20.801-6.656 24.633-17.34 4.876-13.605-2.196-28.588-15.799-33.467l-430.408-154.354c-13.59-4.864-28.585 2.194-33.467 15.799-4.876 13.606 2.197 28.587 15.799 33.467z"/><path d="m1000.769 2540.76 288.752 103.553h-279.918c-14.453 0-26.169 11.716-26.169 26.168 0 14.453 11.716 26.169 26.169 26.169h430.288c.04 0 .081.005.121.005.129 0 .256-.013.385-.015.437-.006.872-.023 1.303-.05.204-.013.407-.029.611-.047 1.203-.104 2.381-.292 3.531-.553.062-.014.125-.029.187-.043 2.558-.602 4.97-1.578 7.177-2.869.024-.014.049-.028.073-.042.534-.315 1.057-.647 1.566-.998.072-.049.141-.101.213-.151.421-.296.833-.604 1.234-.924.099-.078.199-.154.297-.234.41-.336.808-.687 1.197-1.047.157-.145.311-.293.464-.442.295-.286.583-.58.863-.88.188-.2.372-.404.553-.61.265-.301.523-.608.774-.921.139-.173.277-.347.412-.524.32-.421.629-.85.923-1.291.084-.126.164-.256.247-.385.289-.448.566-.906.827-1.373.033-.059.069-.116.101-.176.313-.568.601-1.152.872-1.745.02-.043.039-.086.059-.13.636-1.414 1.153-2.894 1.532-4.428.012-.051.023-.102.035-.152.085-.352.165-.706.235-1.063.037-.183.066-.366.098-.55.039-.223.08-.445.113-.67.048-.321.086-.642.122-.963.01-.09.023-.18.032-.27.226-2.229.165-4.449-.17-6.611-.518-3.394-1.692-6.571-3.383-9.404 0-.001-.001-.001-.001-.002-.177-.297-.362-.589-.551-.878-.05-.077-.098-.155-.149-.232-.141-.211-.288-.417-.435-.624-.107-.152-.212-.305-.323-.454-.096-.129-.196-.254-.294-.381-.169-.22-.338-.439-.514-.654-.045-.055-.092-.107-.138-.162-1.818-2.181-4.002-4.086-6.509-5.604-1.538-.935-3.182-1.709-4.906-2.314l-430.24-154.294c-13.59-4.864-28.585 2.196-33.467 15.799-4.874 13.605 2.199 28.589 15.801 33.466z"/><path d="m1000.769 2232.052 430.408 154.354c2.918 1.044 5.9 1.541 8.834 1.541 10.733 0 20.801-6.655 24.633-17.34 4.876-13.605-2.196-28.587-15.799-33.467l-430.408-154.354c-13.59-4.869-28.585 2.194-33.467 15.799-4.876 13.605 2.197 28.589 15.799 33.467z"/><path d="m1227.806 1175.241-111.591 40.02c-13.603 4.879-20.675 19.864-15.799 33.467 3.834 10.685 13.897 17.34 24.633 17.34 2.933 0 5.916-.497 8.834-1.541l111.591-40.02c13.603-4.879 20.675-19.864 15.799-33.466-4.882-13.603-19.861-20.657-33.467-15.8z"/><path d="m1000.769 1305.928 430.408 154.354c2.918 1.044 5.9 1.541 8.834 1.541 10.733 0 20.801-6.656 24.633-17.34 4.876-13.605-2.196-28.587-15.799-33.466l-430.408-154.354c-13.59-4.869-28.585 2.194-33.467 15.799-4.876 13.605 2.197 28.588 15.799 33.466z"/><path d="m1286.904 1462.759-152.473 54.679c-13.603 4.879-20.675 19.861-15.799 33.467 3.835 10.685 13.897 17.34 24.633 17.34 2.934 0 5.916-.497 8.834-1.541l152.473-54.679c13.603-4.879 20.675-19.861 15.799-33.467-4.88-13.606-19.87-20.668-33.467-15.799z"/><path d="m1286.904 1771.464-152.473 54.682c-13.603 4.879-20.675 19.864-15.799 33.466 3.835 10.685 13.9 17.34 24.633 17.34 2.934 0 5.916-.497 8.834-1.541l152.473-54.682c13.603-4.879 20.675-19.864 15.799-33.467-4.885-13.605-19.867-20.667-33.467-15.798z"/><path d="m1286.904 2080.173-152.473 54.679c-13.603 4.879-20.675 19.861-15.799 33.467 3.835 10.685 13.897 17.34 24.633 17.34 2.934 0 5.916-.497 8.834-1.541l152.473-54.679c13.603-4.879 20.675-19.861 15.799-33.467-4.88-13.606-19.87-20.667-33.467-15.799z"/><path d="m1286.904 2388.882-152.473 54.679c-13.603 4.879-20.675 19.861-15.799 33.467 3.835 10.684 13.897 17.34 24.633 17.34 2.934 0 5.916-.497 8.834-1.541l152.473-54.679c13.603-4.879 20.675-19.861 15.799-33.466-4.88-13.603-19.87-20.663-33.467-15.8z"/><path d="m1760.094 1153.109h430.406c14.453 0 26.169-11.716 26.169-26.168 0-14.453-11.716-26.169-26.169-26.169h-430.406c-14.452 0-26.169 11.716-26.169 26.169s11.716 26.168 26.169 26.168z"/><path d="m1751.26 1614.636 430.406 154.354c2.918 1.044 5.9 1.541 8.834 1.541 10.733 0 20.801-6.655 24.633-17.34 4.876-13.603-2.196-28.588-15.799-33.467l-430.406-154.354c-13.595-4.861-28.587 2.196-33.466 15.799-4.878 13.605 2.195 28.59 15.798 33.467z"/><path d="m1751.26 1923.344 430.406 154.354c2.918 1.044 5.9 1.541 8.834 1.541 10.733 0 20.801-6.656 24.633-17.34 4.876-13.603-2.196-28.588-15.799-33.467l-430.406-154.354c-13.595-4.864-28.587 2.194-33.466 15.799-4.878 13.602 2.195 28.587 15.798 33.467z"/><path d="m1751.26 2540.76 288.75 103.553h-279.916c-14.452 0-26.169 11.716-26.169 26.168 0 14.453 11.716 26.169 26.169 26.169h430.285c.04 0 .08.005.12.005.129 0 .257-.013.385-.015.437-.006.872-.023 1.303-.05.204-.013.407-.029.611-.047 1.202-.104 2.38-.292 3.531-.553.062-.014.125-.029.187-.043 2.558-.602 4.97-1.578 7.177-2.869.024-.014.049-.028.073-.042.534-.315 1.057-.647 1.566-.998.072-.049.142-.101.213-.151.421-.296.832-.604 1.234-.924.099-.078.199-.154.297-.234.41-.336.808-.687 1.197-1.047.157-.145.31-.293.464-.442.295-.286.582-.58.863-.88.188-.2.372-.404.553-.61.265-.301.523-.608.774-.921.139-.173.277-.347.412-.524.32-.421.628-.85.923-1.291.084-.126.164-.256.246-.385.289-.448.566-.906.828-1.373.033-.059.069-.116.101-.176.313-.568.601-1.152.872-1.745.02-.043.039-.086.059-.13.636-1.414 1.153-2.892 1.532-4.426.014-.055.025-.11.038-.165.083-.348.163-.697.232-1.05.038-.188.068-.376.101-.565.038-.218.078-.436.111-.656.049-.326.088-.651.124-.977.009-.086.021-.171.03-.257.227-2.229.166-4.448-.169-6.61-.575-3.766-1.957-7.264-3.957-10.322-.041-.062-.08-.126-.121-.188-.15-.225-.307-.446-.464-.666-.098-.138-.193-.277-.294-.413-.105-.142-.216-.28-.323-.42-.16-.207-.319-.414-.485-.617-.055-.067-.113-.132-.168-.198-.223-.267-.45-.531-.684-.79-.002-.002-.004-.004-.006-.007-1.667-1.837-3.607-3.454-5.792-4.777-1.538-.935-3.183-1.71-4.908-2.316l-430.237-154.294c-13.595-4.864-28.587 2.196-33.466 15.799-4.878 13.607 2.195 28.593 15.798 33.47z"/><path d="m1751.26 2232.052 430.406 154.354c2.918 1.044 5.9 1.541 8.834 1.541 10.733 0 20.801-6.655 24.633-17.34 4.876-13.603-2.196-28.587-15.799-33.467l-430.406-154.354c-13.595-4.869-28.587 2.194-33.466 15.799-4.878 13.603 2.195 28.589 15.798 33.467z"/><path d="m1978.296 1175.241-111.591 40.02c-13.603 4.879-20.675 19.864-15.799 33.467 3.834 10.685 13.897 17.34 24.633 17.34 2.934 0 5.916-.497 8.834-1.541l111.591-40.02c13.603-4.879 20.675-19.864 15.799-33.466-4.882-13.603-19.869-20.657-33.467-15.8z"/><path d="m1751.26 1305.928 430.406 154.354c2.918 1.044 5.9 1.541 8.834 1.541 10.733 0 20.801-6.656 24.633-17.34 4.876-13.603-2.196-28.587-15.799-33.466l-430.406-154.354c-13.595-4.869-28.587 2.194-33.466 15.799-4.878 13.602 2.195 28.588 15.798 33.466z"/><path d="m2037.391 1462.759-152.47 54.679c-13.603 4.879-20.675 19.861-15.799 33.467 3.834 10.685 13.897 17.34 24.633 17.34 2.934 0 5.916-.497 8.834-1.541l152.47-54.679c13.603-4.879 20.675-19.861 15.799-33.467-4.882-13.606-19.861-20.668-33.467-15.799z"/><path d="m2037.391 1771.467-152.47 54.682c-13.603 4.876-20.675 19.861-15.799 33.464 3.834 10.685 13.899 17.34 24.633 17.34 2.934 0 5.916-.497 8.834-1.544l152.47-54.682c13.603-4.876 20.675-19.861 15.799-33.464-4.882-13.606-19.869-20.668-33.467-15.796z"/><path d="m2037.391 2080.173-152.47 54.679c-13.603 4.879-20.675 19.861-15.799 33.467 3.834 10.685 13.897 17.34 24.633 17.34 2.934 0 5.916-.497 8.834-1.541l152.47-54.679c13.603-4.879 20.675-19.861 15.799-33.467-4.882-13.606-19.861-20.667-33.467-15.799z"/><path d="m2037.391 2388.882-152.47 54.679c-13.603 4.879-20.675 19.861-15.799 33.467 3.834 10.684 13.897 17.34 24.633 17.34 2.934 0 5.916-.497 8.834-1.541l152.47-54.679c13.603-4.879 20.675-19.861 15.799-33.466-4.882-13.603-19.861-20.663-33.467-15.8z"/><path d="m2510.581 1153.109h430.408c14.453 0 26.168-11.716 26.168-26.168 0-14.453-11.716-26.169-26.168-26.169h-430.408c-14.453 0-26.168 11.716-26.168 26.169s11.715 26.168 26.168 26.168z"/><path d="m2501.747 1614.636 430.408 154.354c2.918 1.044 5.9 1.541 8.834 1.541 10.733 0 20.801-6.655 24.633-17.34 4.876-13.605-2.196-28.588-15.799-33.467l-430.408-154.354c-13.6-4.861-28.588 2.196-33.467 15.799-4.876 13.607 2.197 28.59 15.799 33.467z"/><path d="m2501.747 1923.344 430.408 154.354c2.918 1.044 5.9 1.541 8.834 1.541 10.733 0 20.801-6.656 24.633-17.34 4.876-13.605-2.196-28.588-15.799-33.467l-430.408-154.354c-13.6-4.864-28.588 2.194-33.467 15.799-4.876 13.606 2.197 28.587 15.799 33.467z"/><path d="m2501.747 2540.76 288.752 103.553h-279.918c-14.453 0-26.168 11.716-26.168 26.168 0 14.453 11.716 26.169 26.168 26.169h430.288c.04 0 .081.005.121.005.129 0 .256-.013.385-.015.437-.006.872-.023 1.303-.05.204-.013.407-.029.611-.047 1.202-.104 2.38-.292 3.531-.553.062-.014.125-.029.187-.043 2.558-.602 4.97-1.578 7.177-2.869.024-.014.049-.028.073-.042.534-.315 1.057-.647 1.566-.998.072-.049.141-.101.213-.151.421-.296.832-.604 1.234-.924.099-.078.199-.154.297-.234.41-.336.808-.687 1.197-1.047.157-.145.31-.293.464-.442.295-.286.582-.58.863-.88.188-.2.371-.404.553-.61.265-.301.523-.608.774-.921.139-.173.277-.347.412-.524.32-.421.629-.85.923-1.291.084-.126.164-.256.247-.385.289-.448.566-.906.828-1.373.033-.059.068-.116.101-.176.313-.568.601-1.152.872-1.745.02-.043.039-.086.059-.13.636-1.414 1.153-2.894 1.532-4.428.013-.051.023-.102.035-.152.085-.352.165-.706.235-1.063.036-.183.066-.366.098-.55.039-.223.08-.445.113-.67.048-.321.086-.642.123-.963.01-.09.023-.18.032-.27.227-2.229.165-4.449-.17-6.611-.518-3.394-1.692-6.571-3.382-9.404 0-.001-.001-.001-.001-.002-.177-.297-.363-.589-.551-.878-.05-.077-.098-.155-.149-.232-.141-.211-.288-.417-.435-.624-.107-.152-.212-.305-.323-.454-.096-.129-.196-.254-.294-.381-.169-.22-.338-.439-.514-.654-.045-.055-.092-.107-.137-.162-1.818-2.181-4.002-4.086-6.509-5.604-1.538-.935-3.182-1.709-4.906-2.314l-430.24-154.294c-13.6-4.864-28.588 2.196-33.467 15.799-4.878 13.605 2.195 28.589 15.797 33.466z"/><path d="m2501.747 2232.052 430.408 154.354c2.918 1.044 5.9 1.541 8.834 1.541 10.733 0 20.801-6.655 24.633-17.34 4.876-13.605-2.196-28.587-15.799-33.467l-430.408-154.354c-13.6-4.869-28.588 2.194-33.467 15.799-4.876 13.605 2.197 28.589 15.799 33.467z"/><path d="m2728.784 1175.241-111.588 40.02c-13.603 4.879-20.675 19.864-15.799 33.467 3.834 10.685 13.9 17.34 24.633 17.34 2.933 0 5.916-.497 8.834-1.541l111.588-40.02c13.603-4.879 20.676-19.864 15.799-33.466-4.882-13.603-19.87-20.663-33.467-15.8z"/><path d="m2501.747 1305.928 430.408 154.354c2.918 1.044 5.9 1.541 8.834 1.541 10.733 0 20.801-6.656 24.633-17.34 4.876-13.605-2.196-28.587-15.799-33.466l-430.408-154.354c-13.6-4.869-28.588 2.194-33.467 15.799-4.876 13.605 2.197 28.588 15.799 33.466z"/><path d="m2787.881 1462.759-152.473 54.679c-13.603 4.879-20.675 19.861-15.799 33.467 3.832 10.685 13.897 17.34 24.633 17.34 2.934 0 5.916-.497 8.834-1.541l152.473-54.679c13.603-4.879 20.675-19.861 15.799-33.467-4.882-13.606-19.871-20.668-33.467-15.799z"/><path d="m2787.881 1771.464-152.473 54.682c-13.603 4.879-20.675 19.864-15.799 33.466 3.834 10.685 13.899 17.34 24.633 17.34 2.934 0 5.916-.497 8.834-1.541l152.473-54.682c13.603-4.879 20.675-19.864 15.799-33.467-4.884-13.605-19.874-20.667-33.467-15.798z"/><path d="m2787.881 2080.173-152.473 54.679c-13.603 4.879-20.675 19.861-15.799 33.467 3.832 10.685 13.897 17.34 24.633 17.34 2.934 0 5.916-.497 8.834-1.541l152.473-54.679c13.603-4.879 20.675-19.861 15.799-33.467-4.882-13.606-19.871-20.667-33.467-15.799z"/><path d="m2787.881 2388.882-152.473 54.679c-13.603 4.879-20.675 19.861-15.799 33.467 3.832 10.684 13.897 17.34 24.633 17.34 2.934 0 5.916-.497 8.834-1.541l152.473-54.679c13.603-4.879 20.675-19.861 15.799-33.466-4.882-13.603-19.871-20.663-33.467-15.8z"/></g></g></svg>