<svg id="Layer_3" height="512" viewBox="0 0 64 64" width="512" xmlns="http://www.w3.org/2000/svg" data-name="Layer 3"><path d="m32 57v2a27.032 27.032 0 0 0 26.982-26h3.018a1 1 0 0 0 .781-1.625l-4-5a1.036 1.036 0 0 0 -1.562 0l-4 5a1 1 0 0 0 .781 1.625h2.98a25.03 25.03 0 0 1 -24.98 24zm24.081-26 1.919-2.4 1.919 2.4z"/><path d="m5.219 37.625a1 1 0 0 0 1.562 0l4-5a1 1 0 0 0 -.781-1.625h-2.98a25.03 25.03 0 0 1 24.98-24v-2a27.032 27.032 0 0 0 -26.982 26h-3.018a1 1 0 0 0 -.781 1.625zm2.7-4.625-1.919 2.4-1.919-2.4z"/><path d="m22.02 18.8-4 20a.925.925 0 0 0 -.02.2v6a1 1 0 0 0 1 1h26a1 1 0 0 0 1-1v-6a.925.925 0 0 0 -.02-.2l-4-20a1 1 0 0 0 -.98-.8h-18a1 1 0 0 0 -.98.8zm-2.02 25.2v-4h24v4zm20.18-24 3.6 18h-23.56l3.6-18z"/><path d="m25 30h2v2h-2z"/><path d="m29 30h2v2h-2z"/><path d="m33 30h2v2h-2z"/><path d="m37 30h2v2h-2z"/><path d="m23 34h2v2h-2z"/><path d="m27 34h2v2h-2z"/><path d="m31 34h2v2h-2z"/><path d="m35 34h2v2h-2z"/><path d="m39 34h2v2h-2z"/><path d="m27 26h2v2h-2z"/><path d="m31 26h2v2h-2z"/><path d="m35 26h2v2h-2z"/><path d="m27 22h2v2h-2z"/><path d="m31 22h2v2h-2z"/><path d="m35 22h2v2h-2z"/></svg>