<svg id="Capa_1" enable-background="new 0 0 3812.073 3812.073" height="512" viewBox="0 0 3812.073 3812.073" width="512" xmlns="http://www.w3.org/2000/svg"><g><g fill="rgb(0,0,0)"><path d="m3538.125 1702.608h-3264.17c-151.062 0-273.955 122.892-273.955 273.949v243.273c0 68.036 45.961 125.535 108.464 143.092v1261.945c0 17.216 13.954 31.17 31.17 31.17h3532.806c17.216 0 31.17-13.954 31.17-31.17v-1261.944c62.504-17.555 108.463-75.055 108.463-143.093v-243.273c0-151.057-122.892-273.949-273.948-273.949zm-3367.322 941.385h3470.467v706.565h-3470.467zm0-62.34v-213.219h3470.467v213.219zm0 1012.044v-180.799h3470.467v180.799zm3578.931-1373.867c0 47.563-38.696 86.265-86.259 86.265h-3514.871c-47.563 0-86.265-38.702-86.265-86.265v-243.273c0-116.678 94.931-211.609 211.615-211.609h3264.17c116.678 0 211.609 94.931 211.609 211.609z"/><path d="m3255.888 2962.395c7.977 0 15.954-3.043 22.04-9.13l100.255-100.261c12.173-12.173 12.173-31.908 0-44.081s-31.908-12.173-44.081 0l-100.255 100.261c-12.173 12.173-12.173 31.908 0 44.081 6.087 6.087 14.064 9.13 22.041 9.13z"/><path d="m3082.121 3060.905-100.261 100.261c-12.173 12.173-12.173 31.908 0 44.081 6.086 6.086 14.063 9.13 22.04 9.13s15.954-3.043 22.041-9.13l100.261-100.261c12.173-12.173 12.173-31.908 0-44.081-12.173-12.172-31.909-12.172-44.081 0z"/><path d="m3277.928 3060.905c-12.173-12.173-31.908-12.173-44.081 0s-12.173 31.908 0 44.081l100.255 100.261c6.086 6.086 14.063 9.13 22.04 9.13s15.954-3.043 22.04-9.13c12.173-12.173 12.173-31.908 0-44.081z"/><path d="m3025.94 2808.924c-12.173-12.173-31.908-12.173-44.081 0s-12.173 31.908 0 44.081l100.261 100.261c6.086 6.086 14.063 9.13 22.04 9.13s15.954-3.043 22.041-9.13c12.173-12.173 12.173-31.908 0-44.081z"/><path d="m2484.781 2808.924-100.261 100.261c-12.173 12.173-12.173 31.908 0 44.081 6.086 6.086 14.063 9.13 22.04 9.13s15.954-3.043 22.04-9.13l100.261-100.261c12.173-12.173 12.173-31.908 0-44.081s-31.907-12.173-44.08 0z"/><path d="m2232.8 3060.905-100.261 100.261c-12.173 12.173-12.173 31.908 0 44.081 6.086 6.086 14.063 9.13 22.041 9.13 7.977 0 15.954-3.043 22.04-9.13l100.261-100.261c12.173-12.173 12.173-31.908 0-44.081-12.173-12.172-31.909-12.172-44.081 0z"/><path d="m2428.601 3060.905c-12.173-12.173-31.908-12.173-44.081 0s-12.173 31.908 0 44.081l100.261 100.261c6.086 6.086 14.063 9.13 22.04 9.13s15.954-3.043 22.04-9.13c12.173-12.173 12.173-31.908 0-44.081z"/><path d="m2176.619 2808.924c-12.173-12.173-31.908-12.173-44.081 0s-12.173 31.908 0 44.081l100.261 100.261c6.086 6.086 14.063 9.13 22.041 9.13 7.977 0 15.954-3.043 22.04-9.13 12.173-12.173 12.173-31.908 0-44.081z"/><path d="m1635.46 2808.924-100.261 100.261c-12.173 12.173-12.173 31.908 0 44.081 6.086 6.086 14.063 9.13 22.041 9.13 7.977 0 15.954-3.043 22.04-9.13l100.261-100.261c12.173-12.173 12.173-31.908 0-44.081s-31.908-12.173-44.081 0z"/><path d="m1383.473 3060.905-100.255 100.261c-12.173 12.173-12.173 31.908 0 44.081 6.086 6.086 14.063 9.13 22.04 9.13s15.954-3.043 22.04-9.13l100.255-100.261c12.173-12.173 12.173-31.908 0-44.081-12.173-12.172-31.908-12.172-44.08 0z"/><path d="m1579.28 3060.905c-12.173-12.173-31.908-12.173-44.081 0s-12.173 31.908 0 44.081l100.261 100.261c6.086 6.086 14.063 9.13 22.04 9.13s15.954-3.043 22.04-9.13c12.173-12.173 12.173-31.908 0-44.081z"/><path d="m1327.298 2808.924c-12.173-12.173-31.908-12.173-44.081 0s-12.173 31.908 0 44.081l100.255 100.261c6.086 6.086 14.063 9.13 22.04 9.13s15.954-3.043 22.04-9.13c12.173-12.173 12.173-31.908 0-44.081z"/><path d="m786.133 2808.924-100.255 100.261c-12.173 12.173-12.173 31.908 0 44.081 6.086 6.086 14.063 9.13 22.04 9.13s15.954-3.043 22.04-9.13l100.255-100.261c12.173-12.173 12.173-31.908 0-44.081-12.172-12.173-31.907-12.173-44.08 0z"/><path d="m534.152 3060.905-100.261 100.261c-12.173 12.173-12.173 31.908 0 44.081 6.086 6.086 14.063 9.13 22.04 9.13s15.954-3.043 22.04-9.13l100.261-100.261c12.173-12.173 12.173-31.908 0-44.081-12.173-12.172-31.908-12.172-44.08 0z"/><path d="m729.959 3060.905c-12.173-12.173-31.908-12.173-44.081 0s-12.173 31.908 0 44.081l100.255 100.261c6.086 6.086 14.063 9.13 22.041 9.13 7.977 0 15.954-3.043 22.04-9.13 12.173-12.173 12.173-31.908 0-44.081z"/><path d="m477.971 2808.924c-12.173-12.173-31.908-12.173-44.081 0s-12.173 31.908 0 44.081l100.261 100.261c6.086 6.086 14.063 9.13 22.04 9.13s15.954-3.043 22.04-9.13c12.173-12.173 12.173-31.908 0-44.081z"/><path d="m492.614 596.682c46.423 150.373 145.385 363.397 353.402 526.913 115.288 90.625 231.783 140.481 309.211 166.345 129.388 43.233 249.286 54.528 340.442 56.68-57.559 14.393-117.825 28.102-151.977 35.872-37.14 8.453-56.912 12.978-65.383 15.466-19.235 5.66-26.444 23.071-23.632 37.354 5.068 25.693 30.572 29.627 72.829 36.14 32.902 5.074 75.678 9.782 120.441 13.246 40.074 3.104 102.109 6.751 172.273 6.751 52.167 0 108.83-2.013 164.296-7.77 204.785-21.241 398.208-41.306 554.997-179.219 64.645-56.869 111.013-123.167 142.274-168.608-10.471 55.711-31.615 131.443-46.001 160.21-10.246 20.491-1.33 37.994 11.288 45.581 20.638 12.411 40.653-.287 68.853-21.052 19.936-14.679 45.258-35.421 71.305-58.4 30.572-26.974 106.39-96.315 149.946-157.417 9.099-12.764 17.381-24.279 24.998-34.866 63.657-88.484 82.868-115.19 139.945-261.374 61.557-157.658 36.556-264.208 7.108-312.499 31.371-21.1 64.019-41.139 98.124-59.559-14.934 100.138-3.104 194.312 13.904 266.54 3.379 14.356 16.18 24.035 30.316 24.035 2.36 0 4.769-.268 7.166-.835 16.759-3.946 27.145-20.729 23.199-37.482-17.31-73.518-28.845-171.805-7.325-273.977 98.086 82.357 137.727 169.418 141.458 187.376 3.055 14.722 16.021 24.84 30.487 24.84 2.098 0 4.232-.214 6.367-.653 16.856-3.507 27.688-20.01 24.187-36.86-5.451-26.24-46.159-119.274-146.58-209.034 129.831-48.114 279.471-69.336 456.449-40.642 17.003 2.744 33-8.782 35.756-25.779 2.757-16.991-8.782-33-25.779-35.756-191.733-31.094-354.422-6.289-494.51 46.906 6.057-14.441 12.912-28.84 20.668-43.137 14.258-26.291 31.249-51.551 50.49-75.08 10.898-13.325 8.928-32.969-4.397-43.867-13.325-10.892-32.963-8.916-43.867 4.397-21.717 26.553-40.903 55.095-57.028 84.825-10.86 20.02-20.166 40.182-28.098 60.365-23.224-14.565-48.448-28.482-75.834-41.368-53.747-25.291-112.403-39.726-174.341-42.904-17.259-.896-31.853 12.344-32.731 29.536s12.344 31.847 29.536 32.731c53.814 2.757 104.615 15.222 150.995 37.049 25.586 12.038 49.082 25.088 70.637 38.738-51.051 25.495-98.843 54.385-143.768 85.007-90.518-63.783-242.14-72.592-379.44-18.215-58.4 23.138-133.822 64.56-158.606 78.166-55.515 30.481-88.887 52.161-115.697 69.585-13.911 9.038-25.925 16.844-37.958 23.827-123.46 71.64-302.85 73.97-389.06 75.092-16.875.219-30.206.39-40.214.994-11.691.701-36.031 2.171-43.087 25.273-3.22 10.557-1.494 26.681 13.972 37.385 34.128 23.632 96.382 43.257 156.581 62.23 16.259 5.123 36.092 11.374 54.253 17.594-67.823 4.775-187.587-.646-314.59-31.652-82.099-20.052-168.687-45.087-238.254-65.206-34.622-10.014-64.517-18.656-85.886-24.346-33.195-8.825-59.425-15.808-71.024 11.344-2.653 6.202-9.154 27.7 18.534 43.782 35.872 20.821 100.041 75.434 109.311 98.98-35.939 15.484-209.566-3.421-394.549-75.714-159.722-62.413-305.668-159.521-433.787-288.616-10.447-10.514-26.834-12.234-39.238-4.098-12.386 8.135-17.332 23.87-11.831 37.634zm433.696 241.956c91.418 35.726 198.4 64.73 286.177 77.592 147.69 21.632 179.201-9.191 190.069-34.268 12.423-28.663-3.927-61.059-29.151-90.314 66.725 19.265 146.336 42.001 222.678 60.638 182.25 44.501 370.746 43.794 417.51 13.417 13.673-8.88 18.223-20.022 19.632-27.803 7.952-43.904-45.764-60.84-143.281-91.577-6.672-2.104-13.459-4.239-20.272-6.41 98.602-4.946 231.46-21.315 334.624-81.178 13.399-7.776 26.023-15.978 40.641-25.474 25.95-16.863 58.242-37.842 111.732-67.213 64.23-35.274 115.221-60.455 151.562-74.854 107.318-42.502 226.595-41.064 301.649-.589-72.374 53.986-136.944 110.951-195.619 162.72-16.594 14.643-32.817 28.956-48.722 42.775-171.035 148.635-320.5 250.53-470.373 320.683-274.918 128.668-570.957 141.024-833.593 34.799-15.972-6.452-34.134 1.256-40.586 17.204-6.458 15.96 1.25 34.134 17.204 40.586 125.741 50.862 258.55 76.177 393.158 76.177 163.949 0 330.568-37.567 490.248-112.306 155.252-72.665 309.315-177.554 484.838-330.086 16.015-13.917 32.353-28.334 49.069-43.081 62.333-54.996 129.027-113.83 202.804-168.149 18.144 32.136 39.184 117.035-14.26 253.932-54.21 138.841-70.792 161.887-132.48 247.64-7.666 10.654-16.003 22.242-25.157 35.085-38.635 54.204-110.823 122.374-164.717 167.785 18.778-65.993 35.842-148.293 24.462-181.445-5.111-14.881-14.515-21.979-21.498-25.315-34.213-16.338-56.93 16.637-91.284 66.609-31.28 45.514-74.128 107.848-135.041 161.43-141.841 124.771-317.2 142.957-520.247 164.022-112.385 11.654-236.077 8.087-329.867.683 36.396-8.599 74.683-17.985 108.811-27.157 106.579-28.639 141.372-43.989 137.371-78.452-2.378-20.491-18.314-31.664-47.362-33.207-12.575-.671-29.517-.262-50.984.244-85.667 2.013-245.17 5.806-421.078-52.972-72.744-24.303-182.183-71.128-290.433-156.222-174.863-137.457-267.86-312.756-316.862-449.767 109.622 91.779 229.807 163.474 358.628 213.818z"/></g></g></svg>