<svg id="Capa_1" enable-background="new 0 0 3000 3000" height="512" viewBox="0 0 3000 3000" width="512" xmlns="http://www.w3.org/2000/svg"><g><g fill="rgb(0,0,0)"><path d="m2784.409 85.358h-2568.818c-118.878 0-215.591 96.713-215.591 215.59v191.45c0 59.542 44.725 108.831 102.345 116.038l235.578 235.573c4.79 4.79 11.068 7.185 17.345 7.185 6.278 0 12.555-2.395 17.345-7.185 9.58-9.58 9.58-25.111 0-34.69l-199.977-199.973h2654.727l-199.977 199.973c-9.58 9.58-9.58 25.111 0 34.69 4.79 4.79 11.068 7.185 17.345 7.185s12.555-2.395 17.345-7.185l235.579-235.574c57.619-7.209 102.345-56.497 102.345-116.037v-191.45c0-118.877-96.713-215.59-215.591-215.59zm166.531 407.04c0 37.431-30.457 67.888-67.888 67.888h-2766.109c-37.431 0-67.883-30.457-67.883-67.888v-191.45c0-91.823 74.708-166.531 166.531-166.531h2568.819c91.823 0 166.531 74.708 166.531 166.531v191.45z"/><path d="m2890.112 2097.586h-2780.224c-13.549 0-24.53 10.981-24.53 24.53v767.996c0 13.549 10.981 24.53 24.53 24.53h2780.225c13.549 0 24.53-10.981 24.53-24.53v-767.996c-.001-13.549-10.982-24.53-24.531-24.53zm-24.53 767.996h-2731.164v-718.936h2731.165z"/><path d="m504.219 2742.434c13.549 0 24.53-10.981 24.53-24.53v-375.167c0-13.549-10.981-24.53-24.53-24.53s-24.53 10.981-24.53 24.53v375.167c0 13.549 10.981 24.53 24.53 24.53z"/><path d="m902.533 2742.434c13.549 0 24.53-10.981 24.53-24.53v-375.167c0-13.549-10.981-24.53-24.53-24.53s-24.53 10.981-24.53 24.53v375.167c0 13.549 10.981 24.53 24.53 24.53z"/><path d="m1300.843 2742.434c13.549 0 24.53-10.981 24.53-24.53v-375.167c0-13.549-10.981-24.53-24.53-24.53s-24.53 10.981-24.53 24.53v375.167c0 13.549 10.981 24.53 24.53 24.53z"/><path d="m1699.157 2742.434c13.549 0 24.53-10.981 24.53-24.53v-375.167c0-13.549-10.981-24.53-24.53-24.53s-24.53 10.981-24.53 24.53v375.167c0 13.549 10.981 24.53 24.53 24.53z"/><path d="m2097.467 2742.434c13.549 0 24.53-10.981 24.53-24.53v-375.167c0-13.549-10.981-24.53-24.53-24.53s-24.53 10.981-24.53 24.53v375.167c0 13.549 10.981 24.53 24.53 24.53z"/><path d="m2495.781 2742.434c13.549 0 24.53-10.981 24.53-24.53v-375.167c0-13.549-10.981-24.53-24.53-24.53s-24.53 10.981-24.53 24.53v375.167c0 13.549 10.981 24.53 24.53 24.53z"/><path d="m2914.525 1053.43c-.072-.747-.181-1.484-.319-2.21-.009-.045-.015-.089-.024-.134-.143-.73-.32-1.447-.525-2.152-.016-.054-.03-.109-.046-.163-.209-.698-.45-1.382-.718-2.052-.029-.073-.056-.145-.086-.218-.271-.66-.572-1.304-.897-1.934-.044-.085-.086-.171-.131-.255-.336-.631-.7-1.245-1.088-1.841-.05-.077-.098-.156-.149-.232-.417-.626-.863-1.23-1.333-1.814-.035-.043-.067-.087-.102-.129-1.039-1.27-2.203-2.434-3.473-3.473-.043-.035-.087-.067-.129-.102-.584-.471-1.188-.917-1.814-1.333-.077-.051-.155-.099-.232-.149-.597-.388-1.21-.752-1.841-1.088-.084-.045-.17-.087-.255-.131-.63-.326-1.274-.626-1.934-.898-.072-.03-.145-.057-.218-.086-.67-.268-1.354-.509-2.052-.718-.054-.016-.109-.031-.163-.046-.705-.206-1.422-.383-2.152-.525-.044-.009-.089-.016-.134-.024-.726-.138-1.463-.247-2.21-.319-.041-.004-.082-.005-.123-.009-.746-.068-1.5-.108-2.264-.108h-2780.225c-.764 0-1.518.04-2.264.108-.041.004-.082.005-.123.009-.747.072-1.484.181-2.21.319-.044.008-.089.015-.134.024-.73.143-1.447.32-2.152.525-.054.016-.109.03-.163.046-.698.209-1.382.45-2.052.718-.073.029-.145.056-.218.086-.66.271-1.304.572-1.934.898-.085.044-.171.086-.255.131-.631.336-1.245.7-1.841 1.088-.077.05-.155.098-.232.149-.626.417-1.23.863-1.814 1.333-.043.035-.087.067-.129.102-1.27 1.039-2.434 2.203-3.473 3.473-.035.043-.067.087-.102.129-.471.583-.917 1.188-1.334 1.814-.051.077-.099.155-.149.232-.388.597-.752 1.21-1.088 1.841-.045.085-.087.17-.13.255-.326.63-.627 1.274-.898 1.935-.029.072-.056.144-.085.215-.268.671-.509 1.355-.718 2.054-.016.054-.031.109-.046.163-.206.705-.383 1.422-.525 2.152-.009.044-.015.089-.024.134-.138.726-.247 1.462-.319 2.21-.004.041-.006.082-.009.123-.068.746-.108 1.5-.108 2.264s.04 1.518.108 2.264c.004.041.005.082.009.123.072.747.181 1.484.319 2.21.009.045.015.089.024.134.143.73.32 1.447.526 2.152.016.054.03.108.046.162.209.699.45 1.383.719 2.054.029.072.055.143.085.215.271.661.572 1.305.898 1.936.044.085.085.17.13.254.336.632.701 1.246 1.089 1.843.05.076.097.154.147.23.417.627.864 1.232 1.335 1.816.034.042.065.085.1.127.527.645 1.086 1.263 1.675 1.851l241.823 241.828c4.79 4.79 11.067 7.185 17.345 7.185s12.555-2.395 17.345-7.185c9.58-9.58 9.58-25.111 0-34.69l-199.975-199.979h2661.785l-199.978 199.978c-9.58 9.58-9.58 25.111 0 34.69 4.79 4.79 11.068 7.185 17.345 7.185s12.555-2.395 17.345-7.185l241.827-241.828c.589-.588 1.148-1.206 1.675-1.851.034-.042.066-.085.1-.127.472-.584.918-1.19 1.335-1.816.051-.076.098-.154.147-.23.388-.598.753-1.211 1.089-1.843.045-.084.086-.169.13-.254.326-.63.627-1.274.898-1.935.03-.072.057-.145.085-.217.268-.671.509-1.355.718-2.053.016-.054.03-.108.046-.162.206-.705.383-1.422.526-2.152.009-.044.015-.089.024-.134.138-.726.247-1.463.319-2.21.004-.041.006-.082.009-.123.068-.746.108-1.5.108-2.264s-.04-1.518-.108-2.264c-.002-.041-.003-.082-.007-.122z"/><path d="m2914.525 1613.399c-.072-.747-.181-1.483-.319-2.21-.009-.045-.015-.089-.024-.134-.143-.73-.32-1.447-.525-2.152-.016-.054-.03-.108-.046-.162-.209-.698-.45-1.382-.718-2.052-.029-.073-.056-.145-.086-.218-.271-.66-.572-1.304-.897-1.934-.044-.085-.086-.17-.131-.255-.336-.631-.7-1.245-1.088-1.842-.05-.077-.098-.155-.149-.232-.417-.626-.863-1.23-1.334-1.814-.035-.043-.067-.087-.102-.129-1.039-1.27-2.203-2.434-3.473-3.473-.043-.035-.087-.067-.129-.102-.584-.471-1.188-.917-1.814-1.334-.077-.051-.155-.099-.232-.149-.597-.388-1.21-.753-1.842-1.089-.084-.045-.169-.086-.254-.13-.63-.326-1.274-.627-1.935-.898-.072-.03-.145-.057-.218-.086-.67-.268-1.354-.509-2.052-.718-.054-.016-.109-.031-.163-.046-.705-.206-1.422-.383-2.152-.525-.044-.009-.089-.015-.134-.024-.726-.138-1.463-.247-2.21-.319-.041-.004-.082-.006-.123-.009-.746-.068-1.5-.108-2.264-.108h-2780.223c-.764 0-1.518.04-2.264.108-.041.004-.082.005-.123.009-.747.072-1.484.181-2.21.319-.044.008-.089.015-.134.024-.73.143-1.447.32-2.152.525-.054.016-.109.03-.163.046-.698.209-1.382.45-2.052.718-.073.029-.145.056-.218.086-.66.271-1.305.572-1.935.898-.084.043-.17.085-.254.13-.632.336-1.245.7-1.842 1.089-.077.05-.155.098-.232.149-.626.417-1.23.863-1.814 1.334-.043.034-.087.067-.129.102-1.27 1.039-2.434 2.203-3.473 3.473-.035.042-.067.086-.102.129-.471.583-.917 1.188-1.334 1.814-.051.077-.099.155-.149.232-.388.597-.752 1.21-1.088 1.842-.045.084-.087.17-.13.255-.326.63-.627 1.274-.898 1.935-.029.072-.056.144-.085.215-.268.671-.509 1.355-.718 2.054-.016.054-.03.108-.046.162-.206.705-.383 1.422-.525 2.152-.009.045-.015.089-.024.134-.138.726-.247 1.462-.319 2.21-.004.041-.006.082-.009.123-.068.746-.108 1.5-.108 2.264s.04 1.518.108 2.264c.004.041.005.082.009.123.072.747.181 1.484.319 2.21.009.044.015.089.024.134.143.73.32 1.447.525 2.152.016.054.03.109.046.163.209.698.45 1.383.718 2.053.029.072.056.144.085.216.271.66.572 1.305.898 1.935.044.085.086.17.13.255.336.632.701 1.245 1.089 1.842.05.077.097.155.148.231.417.626.863 1.231 1.335 1.815.034.042.066.086.101.128.527.644 1.085 1.262 1.673 1.849l241.824 241.829c4.79 4.79 11.067 7.185 17.345 7.185s12.555-2.395 17.345-7.185c9.58-9.58 9.58-25.111 0-34.69l-199.974-199.978h2661.785l-199.978 199.978c-9.58 9.58-9.58 25.111 0 34.69 4.79 4.79 11.068 7.185 17.345 7.185s12.555-2.395 17.345-7.185l241.829-241.829c.589-.587 1.146-1.205 1.673-1.849.035-.042.066-.086.101-.128.471-.584.918-1.189 1.335-1.815.051-.076.098-.154.148-.231.388-.597.753-1.21 1.089-1.842.045-.085.087-.17.131-.255.325-.63.626-1.274.897-1.934.03-.072.057-.145.086-.218.268-.67.509-1.354.718-2.052.016-.054.03-.108.046-.163.206-.705.383-1.422.525-2.152.009-.044.015-.089.024-.134.138-.726.247-1.463.319-2.21.004-.041.006-.082.009-.123.068-.746.108-1.5.108-2.264s-.04-1.518-.108-2.264c-.003-.041-.004-.082-.008-.123z"/></g></g></svg>