<svg id="Layer_3" height="512" viewBox="0 0 64 64" width="512" xmlns="http://www.w3.org/2000/svg" data-name="Layer 3"><path d="m53.912 1.59a1 1 0 0 0 -.912-.59h-42a1 1 0 0 0 -.912.59l-9 20a1 1 0 0 0 -.088.41v4a1 1 0 0 0 1 1h60a1 1 0 0 0 1-1v-4a1 1 0 0 0 -.088-.41zm-42.266 1.41h40.708l8.1 18h-56.907zm-8.646 22v-2h58v2z"/><path d="m15 5h2v2h-2z"/><path d="m31 5h2v2h-2z"/><path d="m31 9h2v2h-2z"/><path d="m31 13h2v2h-2z"/><path d="m31 17h2v2h-2z"/><path d="m23 5h2v2h-2z"/><path d="m13 9h2v2h-2z"/><path d="m22 9h2v2h-2z"/><path d="m11 13h2v2h-2z"/><path d="m21 13h2v2h-2z"/><path d="m9 17h2v2h-2z"/><path d="m20 17h2v2h-2z"/><path d="m47 5h2v2h-2z"/><path d="m39 5h2v2h-2z"/><path d="m49 9h2v2h-2z"/><path d="m40 9h2v2h-2z"/><path d="m51 13h2v2h-2z"/><path d="m41 13h2v2h-2z"/><path d="m53 17h2v2h-2z"/><path d="m42 17h2v2h-2z"/><path d="m62 29h-60a1 1 0 0 0 -1 1v32a1 1 0 0 0 1 1h60a1 1 0 0 0 1-1v-32a1 1 0 0 0 -1-1zm-1 4h-2v-2h2zm-52 26v2h-2v-2zm2 0h2v2h-2zm4 0h2v2h-2zm4 0h2v2h-2zm4 0h2v2h-2zm4 0h2v2h-2zm4 0h2v2h-2zm4 0h2v2h-2zm4 0h2v2h-2zm4 0h2v2h-2zm4 0h2v2h-2zm4 0h2v2h-2zm4 0h2v2h-2zm-52-2v-22h58v22zm52-24v-2h2v2zm-2 0h-2v-2h2zm-4 0h-2v-2h2zm-4 0h-2v-2h2zm-4 0h-2v-2h2zm-4 0h-2v-2h2zm-4 0h-2v-2h2zm-4 0h-2v-2h2zm-4 0h-2v-2h2zm-4 0h-2v-2h2zm-4 0h-2v-2h2zm-4 0h-2v-2h2zm-4 0h-2v-2h2zm-4-2v2h-2v-2zm-2 28h2v2h-2zm56 2v-2h2v2z"/><path d="m7 37h2v2h-2z"/><path d="m13 37h2v2h-2z"/><path d="m19 37h2v2h-2z"/><path d="m25 37h2v2h-2z"/><path d="m31 37h2v2h-2z"/><path d="m37 37h2v2h-2z"/><path d="m43 37h2v2h-2z"/><path d="m49 37h2v2h-2z"/><path d="m55 37h2v2h-2z"/><path d="m10 41h2v2h-2z"/><path d="m16 41h2v2h-2z"/><path d="m22 41h2v2h-2z"/><path d="m28 41h2v2h-2z"/><path d="m34 41h2v2h-2z"/><path d="m40 41h2v2h-2z"/><path d="m46 41h2v2h-2z"/><path d="m52 41h2v2h-2z"/><path d="m7 45h2v2h-2z"/><path d="m13 45h2v2h-2z"/><path d="m19 45h2v2h-2z"/><path d="m25 45h2v2h-2z"/><path d="m31 45h2v2h-2z"/><path d="m37 45h2v2h-2z"/><path d="m43 45h2v2h-2z"/><path d="m49 45h2v2h-2z"/><path d="m55 45h2v2h-2z"/><path d="m10 49h2v2h-2z"/><path d="m16 49h2v2h-2z"/><path d="m22 49h2v2h-2z"/><path d="m28 49h2v2h-2z"/><path d="m34 49h2v2h-2z"/><path d="m40 49h2v2h-2z"/><path d="m46 49h2v2h-2z"/><path d="m52 49h2v2h-2z"/><path d="m7 53h2v2h-2z"/><path d="m13 53h2v2h-2z"/><path d="m19 53h2v2h-2z"/><path d="m25 53h2v2h-2z"/><path d="m31 53h2v2h-2z"/><path d="m37 53h2v2h-2z"/><path d="m43 53h2v2h-2z"/><path d="m49 53h2v2h-2z"/><path d="m55 53h2v2h-2z"/></svg>