<svg id="Capa_1" enable-background="new 0 0 3248.877 3248.877" height="512" viewBox="0 0 3248.877 3248.877" width="512" xmlns="http://www.w3.org/2000/svg"><g><g fill="rgb(0,0,0)"><path d="m3015.397 92.439h-2781.916c-128.742 0-233.481 104.739-233.481 233.48v207.332c0 57.984 39.171 106.988 92.439 121.951v2474.669c0 14.673 11.895 26.567 26.567 26.567h3010.865c14.673 0 26.567-11.895 26.567-26.567v-2474.669c53.268-14.963 92.439-63.967 92.439-121.951v-207.332c.001-128.741-104.738-233.48-233.48-233.48zm87.907 3010.865h-2957.73v-224.925h2957.73zm0-278.06h-2957.73v-1824.229h2957.73zm0-1877.364h-2957.73v-287.98h2957.73zm92.439-414.629c0 40.536-32.979 73.515-73.515 73.515h-2995.579c-40.536 0-73.515-32.979-73.515-73.515v-207.332c0-99.443 80.903-180.346 180.346-180.346h2781.917c99.443 0 180.346 80.903 180.346 180.346z"/><path d="m440.365 2713.312h168.607c121.099 0 219.619-98.52 219.619-219.616v-1147.673c0-121.096-98.52-219.616-219.619-219.616h-168.607c-121.098 0-219.619 98.52-219.619 219.616v1147.673c.001 121.095 98.521 219.616 219.619 219.616zm-166.484-1367.289c0-91.8 74.684-166.481 166.484-166.481h168.607c91.8 0 166.484 74.681 166.484 166.481v1147.673c0 91.8-74.684 166.481-166.484 166.481h-168.607c-91.8 0-166.484-74.681-166.484-166.481z"/><path d="m336.577 2532.381c0 14.673 11.895 26.568 26.567 26.568h322.837c.064 0 .129.005.193.005.157 0 .313-.014.471-.017.382-.006.762-.018 1.14-.04.202-.012.403-.029.604-.046.421-.034.84-.079 1.255-.133.116-.015.234-.028.35-.044 1.196-.171 2.364-.425 3.503-.75.01-.003.02-.006.031-.009 1.187-.341 2.34-.76 3.453-1.256.007-.003.014-.006.021-.009.561-.25 1.112-.516 1.651-.803.001 0 .001-.001.002-.001.516-.275 1.022-.566 1.518-.874.093-.057.184-.118.276-.177.368-.235.73-.478 1.086-.73.142-.1.284-.198.424-.301.398-.294.789-.597 1.17-.913.178-.147.351-.303.526-.455.226-.197.448-.396.667-.601.192-.179.382-.358.569-.543.309-.306.611-.62.905-.941.173-.19.34-.385.509-.581.222-.257.439-.517.651-.782.132-.165.264-.33.392-.499.325-.427.638-.862.937-1.308.045-.068.088-.139.133-.207.308-.469.599-.948.877-1.437.024-.043.049-.085.073-.128.754-1.342 1.393-2.755 1.908-4.228.001-.004.003-.009.004-.013.138-.396.268-.796.387-1.2.022-.074.042-.148.063-.222.094-.327.183-.657.265-.989.037-.151.07-.303.105-.455.057-.254.114-.507.164-.764.046-.232.085-.465.125-.698.03-.178.061-.356.087-.536.046-.312.084-.623.119-.935.012-.109.026-.217.037-.326.038-.381.066-.762.087-1.142.003-.052.007-.103.01-.154.021-.429.032-.857.032-1.285 0-.014.001-.028.001-.042 0-.004 0-.008 0-.012 0-.425-.011-.849-.032-1.272-.002-.034-.002-.068-.004-.102-.019-.353-.048-.705-.08-1.057-.01-.107-.016-.214-.027-.321-.021-.201-.051-.401-.076-.601-.464-3.668-1.672-7.102-3.474-10.146-.031-.052-.059-.104-.09-.156-.136-.226-.279-.447-.422-.669-.099-.154-.194-.31-.296-.462-.08-.119-.164-.234-.246-.351-.172-.249-.345-.497-.526-.74-.012-.016-.025-.032-.037-.048-1.675-2.238-3.722-4.23-6.1-5.878-.109-.076-.215-.155-.324-.229-.072-.048-.147-.093-.219-.141-1.109-.732-2.277-1.382-3.494-1.943l-271.575-127.287 271.726-127.358c.313-.147.618-.304.923-.461.127-.065.255-.128.381-.196.444-.239.878-.49 1.303-.75.157-.096.312-.196.467-.296.339-.217.671-.441.998-.671.13-.092.262-.181.39-.276.438-.321.865-.653 1.279-.998.089-.074.175-.153.263-.228.345-.295.681-.598 1.009-.909.113-.107.225-.213.336-.323.395-.388.781-.785 1.149-1.195.034-.038.066-.078.099-.116.346-.39.676-.79.997-1.198.089-.113.177-.226.264-.341.348-.457.685-.922 1.001-1.399 0 0 0-.001.001-.001.327-.494.631-1 .924-1.514.054-.094.108-.188.16-.283.293-.529.572-1.065.828-1.612.002-.005.005-.01.008-.015.024-.052.045-.104.068-.156.155-.336.304-.673.445-1.014.068-.165.128-.331.193-.496.09-.231.181-.462.264-.696.083-.233.159-.468.235-.702.054-.167.11-.332.161-.5.085-.278.161-.556.236-.835.034-.129.071-.257.103-.386.076-.302.145-.604.21-.907.024-.113.05-.225.073-.338.062-.309.117-.617.168-.926.019-.116.039-.232.057-.348.045-.299.084-.599.119-.899.016-.134.032-.268.045-.403.028-.277.05-.553.069-.83.012-.166.023-.331.031-.497.012-.244.02-.487.026-.73.005-.203.008-.407.008-.61 0-.204-.003-.407-.008-.611-.005-.243-.013-.486-.026-.73-.008-.166-.02-.331-.031-.497-.019-.277-.042-.553-.069-.83-.014-.134-.03-.268-.045-.402-.035-.3-.074-.599-.119-.899-.018-.116-.038-.232-.057-.348-.051-.309-.106-.618-.168-.926-.023-.113-.048-.225-.073-.338-.065-.303-.134-.605-.21-.907-.033-.129-.069-.257-.103-.386-.075-.279-.151-.557-.236-.835-.051-.167-.107-.333-.161-.5-.077-.235-.152-.469-.235-.702-.083-.234-.174-.465-.264-.696-.064-.165-.125-.331-.193-.496-.14-.342-.29-.679-.445-1.014-.024-.052-.044-.104-.068-.156-.003-.007-.007-.013-.01-.019-.567-1.209-1.225-2.377-1.97-3.492-.06-.09-.124-.176-.185-.264-.183-.267-.367-.533-.561-.794-.107-.144-.219-.282-.328-.424-.154-.2-.307-.4-.467-.596-.135-.165-.277-.324-.416-.486-.142-.165-.282-.332-.429-.494-.158-.175-.322-.343-.484-.512-.136-.142-.269-.286-.408-.426-.182-.182-.37-.357-.557-.534-.126-.119-.249-.24-.378-.357-.217-.197-.439-.385-.662-.574-.105-.089-.207-.181-.314-.269-.274-.225-.554-.442-.836-.655-.06-.046-.118-.094-.179-.139-1.478-1.099-3.061-2.036-4.72-2.803l-271.602-127.302 271.728-127.362c9.722-4.557 15.385-14.249 15.287-24.327.098-10.078-5.565-19.771-15.287-24.327l-271.728-127.363 271.726-127.358c.313-.147.618-.304.923-.461.127-.065.255-.128.381-.196.444-.239.878-.49 1.303-.75.157-.096.312-.196.467-.296.338-.217.67-.44.996-.67.131-.093.263-.182.393-.277.438-.321.865-.653 1.278-.998.089-.074.175-.153.263-.228.345-.295.68-.597 1.007-.908.113-.107.227-.214.338-.324.395-.388.781-.784 1.148-1.193.035-.039.067-.08.102-.119.345-.389.674-.788.994-1.195.089-.114.178-.228.266-.343.347-.457.684-.921 1-1.397.001-.001.001-.003.002-.004.327-.493.63-.999.923-1.511.054-.095.108-.189.161-.285.293-.529.572-1.065.828-1.611.002-.005.005-.01.008-.015.024-.052.045-.105.069-.157.154-.335.304-.672.444-1.013.068-.166.129-.333.194-.499.089-.23.18-.46.263-.693.084-.234.159-.469.236-.705.054-.166.11-.331.161-.498.085-.278.161-.557.236-.836.034-.128.07-.256.103-.385.077-.302.145-.605.211-.908.024-.112.05-.224.072-.337.062-.309.117-.618.168-.927.019-.116.039-.232.057-.348.045-.3.084-.599.119-.899.016-.134.032-.268.045-.403.028-.277.05-.554.069-.83.012-.165.023-.331.031-.496.012-.244.02-.487.026-.73.005-.204.008-.407.008-.611s-.003-.407-.008-.61c-.005-.243-.013-.487-.026-.73-.008-.166-.02-.331-.031-.496-.019-.277-.042-.553-.069-.83-.014-.135-.03-.269-.045-.403-.035-.3-.074-.599-.119-.899-.018-.116-.038-.232-.057-.348-.051-.309-.106-.618-.168-.927-.023-.113-.048-.225-.072-.337-.065-.303-.134-.606-.211-.908-.033-.129-.068-.256-.103-.384-.075-.279-.152-.558-.236-.836-.051-.167-.107-.332-.161-.498-.077-.235-.152-.47-.236-.705-.083-.233-.173-.463-.263-.693-.065-.166-.126-.333-.194-.499-.14-.341-.29-.678-.444-1.013-.024-.052-.044-.105-.069-.157-.003-.007-.007-.013-.01-.019-.567-1.209-1.225-2.378-1.972-3.494-.054-.082-.113-.159-.168-.24-.189-.276-.379-.551-.579-.82-.098-.132-.201-.259-.302-.389-.164-.212-.326-.425-.496-.632-.123-.15-.251-.293-.377-.44-.156-.182-.31-.364-.47-.542-.141-.155-.287-.305-.431-.457-.154-.161-.305-.324-.463-.482-.157-.157-.319-.307-.479-.459-.153-.146-.304-.293-.461-.436-.177-.16-.358-.313-.539-.468-.147-.126-.291-.255-.441-.378-.213-.175-.432-.342-.65-.51-.123-.095-.243-.192-.368-.285-.29-.215-.585-.421-.883-.624-.059-.04-.115-.082-.174-.122-1.128-.755-2.309-1.419-3.532-1.991l-271.712-127.35 271.571-127.288c1.217-.562 2.385-1.211 3.494-1.943.073-.048.147-.092.219-.14.11-.074.216-.154.324-.229 2.379-1.648 4.426-3.64 6.1-5.878.012-.016.025-.032.037-.048.182-.244.355-.493.528-.742.081-.116.165-.231.244-.348.103-.153.199-.31.298-.465.142-.221.285-.441.42-.667.031-.052.059-.104.09-.156 1.802-3.044 3.01-6.478 3.474-10.146.026-.2.055-.4.076-.601.011-.106.017-.214.027-.321.033-.352.062-.704.08-1.057.002-.034.002-.068.004-.102.021-.423.031-.847.032-1.272 0-.004 0-.008 0-.012 0-.014-.001-.028-.001-.042 0-.428-.011-.856-.032-1.285-.002-.052-.007-.103-.01-.154-.021-.381-.049-.761-.087-1.142-.011-.109-.025-.217-.037-.326-.035-.312-.073-.624-.119-.935-.026-.18-.058-.358-.088-.537-.039-.232-.079-.465-.124-.697-.05-.256-.107-.51-.164-.764-.035-.151-.068-.303-.105-.454-.082-.333-.171-.662-.265-.99-.021-.073-.041-.147-.063-.221-.12-.405-.249-.806-.388-1.202-.001-.004-.003-.007-.004-.011-.729-2.088-1.709-4.056-2.908-5.87-.043-.066-.084-.134-.128-.2-.082-.121-.17-.239-.254-.359-1.642-2.361-3.622-4.395-5.846-6.061-.02-.015-.039-.031-.058-.045-.243-.181-.491-.354-.74-.526-.117-.081-.231-.165-.349-.244-.156-.104-.315-.203-.474-.304-.218-.14-.434-.28-.656-.413-.06-.036-.122-.069-.182-.105-2.79-1.647-5.905-2.8-9.228-3.335-.058-.009-.115-.022-.173-.031-.125-.019-.252-.032-.377-.05-.33-.047-.66-.091-.991-.126-.002 0-.005 0-.008 0-.942-.098-1.892-.141-2.846-.137h-322.908c-14.673 0-26.567 11.895-26.567 26.567 0 14.673 11.895 26.568 26.567 26.568h203.769l-214.996 100.771c-1.63.76-3.187 1.684-4.641 2.765-.078.058-.152.119-.228.177-.266.202-.531.406-.789.619-.113.093-.221.19-.332.284-.218.185-.435.37-.647.562-.127.115-.248.234-.372.352-.189.179-.38.356-.564.541-.134.134-.262.273-.393.41-.167.175-.336.348-.499.528-.141.155-.274.315-.411.473-.145.168-.292.334-.433.506-.155.189-.302.383-.451.575-.115.148-.232.293-.344.444-.187.252-.365.51-.542.769-.067.097-.137.191-.202.289-.746 1.117-1.404 2.286-1.971 3.496-.002.005-.005.009-.007.014-.017.037-.032.074-.049.111-.163.352-.319.706-.466 1.064-.064.156-.122.313-.183.47-.093.24-.187.479-.273.721-.082.229-.156.458-.23.688-.056.171-.113.341-.165.513-.084.275-.16.552-.234.828-.035.131-.072.261-.105.392-.076.301-.144.603-.21.906-.024.113-.05.225-.073.338-.062.308-.117.617-.168.926-.019.116-.039.233-.057.35-.045.299-.084.597-.119.896-.016.135-.032.27-.046.406-.028.276-.05.551-.069.827-.012.167-.023.334-.031.501-.012.241-.02.482-.025.724-.005.206-.008.411-.008.616 0 .202.004.404.008.605.006.245.013.491.026.737.008.162.019.324.031.486.019.281.042.561.07.842.013.129.029.258.044.387.036.307.075.613.122.919.016.107.035.213.052.32.052.319.109.637.174.955.021.102.044.204.066.306.068.314.139.628.218.941.029.114.061.226.091.339.079.295.16.59.25.884.044.145.093.287.139.431.084.258.167.517.259.774.07.197.147.391.222.586.078.203.154.407.237.609.114.276.236.548.359.819.05.11.094.222.145.331.005.011.012.021.017.033.25.532.522 1.054.807 1.569.062.113.126.224.19.336.276.483.564.96.871 1.426.016.025.031.051.047.075.309.466.639.919.978 1.366.096.127.194.253.293.378.305.387.619.767.947 1.138.049.055.094.113.143.167.362.403.741.792 1.129 1.174.119.117.24.232.362.347.316.299.641.592.973.877.098.083.192.17.291.253.409.341.832.669 1.265.987.135.099.274.193.411.29.319.225.644.444.976.656.16.103.319.206.48.304.418.255.844.502 1.28.737.136.073.275.142.412.213.301.155.601.31.91.455l271.727 127.359-271.651 127.323c-1.649.766-3.222 1.699-4.691 2.794-.01.007-.019.015-.028.022-.336.251-.667.51-.992.778-.051.042-.099.085-.149.127-.281.235-.559.473-.83.721-.069.063-.135.128-.203.192-.248.231-.494.464-.734.705-.075.075-.146.153-.22.229-.227.233-.452.468-.671.71-.08.088-.155.18-.234.269-.206.234-.411.469-.609.711-.087.106-.168.215-.253.323-.182.23-.365.46-.54.697-.101.137-.196.278-.294.417-.15.212-.303.422-.448.64-.153.23-.297.465-.443.699-.082.133-.169.261-.249.396-.228.381-.446.767-.654 1.158-.011.021-.021.043-.032.064-.196.37-.383.743-.56 1.121-.007.014-.014.028-.021.042-.052.111-.096.224-.147.335-.122.271-.244.541-.357.815-.084.203-.16.408-.238.612-.075.194-.151.387-.221.583-.092.258-.176.517-.26.776-.046.143-.095.285-.138.429-.09.294-.171.59-.25.885-.03.113-.062.225-.091.339-.079.313-.151.627-.218.942-.022.102-.045.204-.066.306-.064.318-.121.636-.174.955-.018.107-.036.213-.052.32-.047.307-.086.613-.122.92-.015.129-.031.258-.044.387-.028.281-.051.561-.07.842-.011.162-.022.324-.031.486-.012.246-.02.491-.026.737-.005.202-.008.403-.008.605 0 .206.004.411.008.616.005.241.013.482.025.724.009.167.02.334.031.501.019.276.041.551.069.827.014.135.03.271.046.406.035.299.073.597.119.896.018.117.038.233.057.35.051.309.106.617.168.926.023.113.048.226.073.338.065.302.134.604.21.905.033.131.07.261.105.392.074.276.15.552.234.828.052.172.11.342.165.513.075.23.149.46.23.688.086.242.18.48.273.72.061.157.119.315.183.472.147.358.303.711.466 1.063.017.037.032.075.049.112.002.004.004.007.006.011.258.551.539 1.092.835 1.625.049.089.099.177.15.265.58 1.018 1.228 1.999 1.942 2.938.08.105.161.209.242.313.335.427.68.846 1.043 1.253.019.021.037.044.057.066.375.418.769.823 1.172 1.219.099.097.2.193.301.289.346.329.702.65 1.068.962.07.06.138.122.209.181.424.354.862.693 1.311 1.022.111.081.224.158.336.238.349.247.705.486 1.068.718.137.087.273.176.411.261.46.282.929.555 1.411.812.068.036.138.067.206.103.333.173.668.344 1.011.505l272.31 127.635-272.297 127.628c-1.226.573-2.41 1.24-3.54 1.996-.025.017-.048.034-.073.051-.333.225-.662.456-.985.696-.096.072-.188.147-.284.22-.247.189-.494.379-.736.577-.125.102-.244.209-.366.314-.206.175-.412.35-.613.532-.136.124-.267.252-.401.379-.18.17-.361.339-.536.515-.142.142-.278.289-.416.434-.16.167-.321.333-.477.505-.147.162-.287.329-.429.495-.139.161-.28.321-.416.486-.158.192-.308.39-.46.586-.112.145-.227.287-.336.434-.189.255-.369.515-.548.776-.065.095-.133.186-.197.281-.746 1.117-1.404 2.287-1.972 3.497-.002.005-.004.009-.007.013-.017.036-.031.073-.047.108-.163.353-.32.708-.468 1.067-.064.156-.122.313-.183.47-.093.24-.187.479-.273.721-.082.229-.156.458-.23.688-.056.171-.113.341-.165.513-.084.275-.16.552-.234.828-.035.131-.072.26-.105.392-.076.301-.144.603-.21.905-.024.113-.05.226-.073.339-.062.308-.117.617-.168.926-.019.116-.039.233-.057.349-.045.299-.084.598-.119.896-.016.135-.032.27-.046.406-.028.276-.05.551-.069.827-.012.167-.023.333-.031.501-.012.241-.02.483-.025.724-.005.205-.008.411-.008.616 0 .202.004.404.008.605.006.245.013.491.026.737.008.162.019.324.031.486.019.281.042.561.07.842.013.129.028.258.044.386.035.307.075.613.122.92.016.107.035.213.052.32.052.319.109.636.174.954.021.103.044.204.066.306.068.314.139.628.218.942.029.114.061.226.091.339.079.295.16.59.25.884.044.145.093.287.139.431.084.258.167.517.259.774.07.197.147.391.222.586.078.203.154.407.237.609.113.275.236.546.358.817.05.111.094.223.146.334.005.011.012.022.017.033.25.532.521 1.054.806 1.569.062.113.126.225.19.336.276.483.564.96.871 1.426.016.025.031.051.047.075.309.466.639.919.978 1.366.096.127.194.253.293.378.305.387.619.767.947 1.138.049.055.094.113.143.167.362.403.741.792 1.129 1.174.119.117.24.232.362.347.316.3.641.592.973.877.098.083.192.17.291.252.409.341.832.669 1.265.987.135.099.274.193.411.29.319.225.644.444.976.656.16.102.319.205.48.304.418.255.844.502 1.28.737.136.073.274.141.411.212.301.155.601.31.911.455l271.727 127.359-271.54 127.271c-2.086.957-4.052 2.183-5.841 3.66-.007.006-.013.012-.02.017-.324.268-.643.544-.955.829-.038.035-.074.071-.112.106-.278.257-.553.518-.821.787-.054.054-.106.111-.159.166-.247.252-.491.508-.729.771-.064.072-.125.146-.189.218-.22.25-.439.501-.651.761-.075.092-.146.188-.22.281-.193.243-.385.486-.571.736-.094.127-.181.257-.272.386-.158.222-.317.442-.469.669-.148.221-.286.448-.427.674-.088.14-.179.277-.265.419-.228.381-.445.767-.653 1.157-.01.018-.018.038-.028.056-.197.372-.385.748-.564 1.129-.007.014-.014.028-.021.042-.052.111-.096.223-.146.334-.122.271-.245.542-.358.817-.083.202-.159.406-.237.609-.075.195-.152.389-.222.586-.092.257-.176.516-.259.774-.046.144-.095.287-.139.431-.09.294-.171.589-.25.884-.03.113-.062.226-.091.339-.079.313-.151.627-.218.942-.022.102-.045.204-.066.306-.064.318-.121.636-.174.954-.017.107-.036.213-.052.32-.047.307-.086.613-.122.92-.015.129-.03.257-.044.386-.028.281-.051.561-.07.842-.011.162-.022.324-.031.486-.012.246-.02.491-.026.737-.005.202-.008.403-.008.605 0 .206.004.411.008.616.005.241.013.482.025.724.009.167.02.334.031.501.019.276.041.551.069.827.014.135.03.271.046.406.035.299.073.598.119.896.018.117.038.233.057.35.051.309.106.617.168.925.023.114.049.226.073.339.065.302.133.604.21.905.033.131.07.261.105.392.074.276.15.552.234.828.052.172.11.342.165.513.075.229.149.459.23.688.086.242.18.481.273.721.061.157.118.314.183.47.148.359.305.715.468 1.067.017.036.031.072.047.108.002.004.004.007.005.01.259.552.54 1.093.836 1.626.049.088.099.176.149.263.58 1.019 1.229 2 1.943 2.939.08.105.16.208.241.311.336.428.682.848 1.045 1.256.018.021.036.043.054.063.376.419.77.824 1.174 1.22.099.097.199.192.299.287.347.33.703.651 1.069.963.07.06.138.122.209.181.424.354.862.694 1.311 1.023.11.081.223.157.334.236.349.248.706.487 1.069.719.137.087.273.176.411.26.46.282.929.556 1.411.812.068.036.138.067.206.103.333.173.668.344 1.011.505l215.046 100.794h-203.774c-14.673.002-26.568 11.896-26.568 26.569z"/><path d="m1173.544 2713.312h168.609c121.096 0 219.616-98.52 219.616-219.616v-1147.673c0-121.096-98.52-219.616-219.616-219.616h-168.609c-121.096 0-219.616 98.52-219.616 219.616v1147.673c0 121.095 98.52 219.616 219.616 219.616zm-166.481-1367.289c0-91.8 74.681-166.481 166.481-166.481h168.609c91.8 0 166.481 74.681 166.481 166.481v1147.673c0 91.8-74.681 166.481-166.481 166.481h-168.609c-91.8 0-166.481-74.681-166.481-166.481z"/><path d="m1069.758 2532.381c0 14.673 11.895 26.568 26.567 26.568h322.836c.064 0 .129.005.193.005.157 0 .313-.014.471-.017.382-.006.762-.018 1.14-.04.202-.012.403-.029.604-.046.421-.035.84-.079 1.255-.133.117-.015.234-.028.35-.044 1.195-.171 2.364-.425 3.502-.75.01-.003.021-.006.031-.009 1.187-.34 2.34-.76 3.452-1.256l.021-.009c.561-.25 1.113-.517 1.652-.804h.001c.517-.275 1.023-.566 1.518-.874.093-.057.183-.118.275-.177.369-.235.731-.479 1.087-.731.141-.1.283-.198.422-.3.398-.294.79-.598 1.171-.913.178-.147.351-.303.526-.455.225-.197.448-.396.667-.601.192-.179.383-.358.569-.543.307-.304.607-.616.899-.935.176-.192.345-.39.516-.588.221-.256.438-.516.649-.781.132-.165.264-.33.392-.499.324-.427.638-.862.937-1.308.045-.068.088-.139.133-.207.308-.469.599-.948.877-1.437.024-.043.049-.085.073-.128.753-1.342 1.393-2.755 1.908-4.228.001-.004.003-.009.004-.013.138-.396.268-.796.387-1.2.022-.074.042-.148.063-.222.094-.327.183-.657.265-.989.037-.151.07-.303.105-.455.058-.254.114-.507.164-.764.046-.232.085-.465.125-.698.03-.178.061-.356.087-.536.046-.312.084-.625.119-.937.012-.108.026-.215.036-.323.038-.383.066-.765.087-1.148.003-.049.007-.098.009-.148.021-.431.032-.862.033-1.292 0-.012.001-.024.001-.037 0-.003 0-.007 0-.011 0-.426-.011-.851-.032-1.275-.002-.033-.002-.067-.004-.1-.019-.355-.048-.709-.081-1.063-.01-.104-.016-.21-.026-.314-.021-.204-.051-.406-.077-.609-.464-3.663-1.671-7.092-3.47-10.133-.032-.054-.062-.109-.094-.163-.135-.225-.278-.445-.42-.666-.099-.155-.195-.311-.297-.464-.08-.119-.164-.234-.246-.351-.172-.249-.345-.497-.526-.74-.012-.016-.025-.031-.037-.047-1.675-2.239-3.722-4.23-6.101-5.879-.109-.076-.214-.155-.324-.229-.072-.048-.147-.093-.219-.141-1.109-.732-2.276-1.381-3.492-1.942l-271.573-127.289 271.726-127.358c.313-.147.618-.304.923-.461.127-.065.255-.128.381-.196.444-.239.877-.49 1.303-.75.157-.096.312-.196.467-.296.339-.217.671-.441.998-.671.13-.092.262-.181.39-.276.438-.321.865-.653 1.279-.998.089-.074.175-.153.263-.228.345-.295.681-.598 1.009-.909.113-.107.225-.213.336-.323.395-.388.781-.784 1.149-1.194.035-.039.067-.08.102-.118.345-.389.675-.789.995-1.197.089-.113.177-.226.263-.34.348-.457.685-.922 1.002-1.399 0 0 0-.001.001-.001.327-.494.632-1.001.924-1.514.054-.094.107-.188.16-.282.293-.529.572-1.065.829-1.613.002-.005.005-.01.008-.015.024-.052.045-.104.068-.156.155-.336.304-.673.445-1.014.067-.164.128-.328.192-.493.09-.233.182-.465.266-.7.083-.233.158-.466.234-.7.054-.167.111-.333.162-.501.085-.278.161-.556.236-.835.034-.129.071-.257.103-.386.076-.302.145-.604.21-.907.024-.113.05-.225.073-.338.062-.309.118-.618.169-.928.019-.115.039-.23.056-.345.045-.3.084-.6.119-.899.016-.135.032-.27.046-.405.028-.276.05-.552.069-.828.011-.166.023-.332.031-.498.012-.243.02-.486.025-.728.005-.204.008-.407.008-.612s-.003-.408-.008-.612c-.005-.243-.013-.485-.025-.728-.009-.166-.02-.332-.031-.498-.019-.276-.042-.552-.069-.828-.014-.135-.03-.27-.046-.404-.035-.3-.074-.6-.119-.899-.018-.115-.037-.23-.056-.345-.051-.31-.106-.619-.169-.928-.023-.113-.048-.225-.073-.338-.065-.303-.134-.605-.21-.907-.033-.129-.069-.257-.103-.386-.075-.279-.151-.557-.236-.835-.051-.168-.107-.334-.162-.501-.076-.234-.151-.467-.234-.7-.084-.235-.175-.468-.266-.7-.064-.164-.124-.329-.192-.493-.14-.341-.29-.679-.445-1.014-.024-.052-.044-.104-.068-.156-.003-.007-.007-.013-.01-.019-.567-1.209-1.225-2.377-1.97-3.492-.06-.09-.124-.176-.185-.264-.183-.267-.367-.533-.561-.794-.106-.143-.218-.28-.326-.421-.155-.201-.309-.403-.47-.599-.135-.164-.275-.322-.413-.483-.143-.166-.283-.333-.431-.496-.158-.175-.322-.343-.484-.512-.136-.142-.269-.286-.408-.426-.182-.182-.37-.357-.557-.534-.126-.119-.249-.24-.377-.357-.217-.197-.439-.385-.662-.574-.105-.089-.208-.181-.314-.269-.274-.225-.554-.442-.836-.655-.06-.046-.118-.094-.179-.139-1.478-1.099-3.061-2.036-4.72-2.803l-271.602-127.304 271.729-127.362c9.722-4.557 15.385-14.249 15.287-24.327.097-10.078-5.565-19.771-15.287-24.327l-271.729-127.362 271.726-127.358c.313-.147.618-.304.923-.461.127-.065.255-.128.381-.196.444-.239.877-.49 1.303-.75.157-.096.312-.196.467-.296.338-.217.67-.44.996-.67.131-.093.263-.182.393-.277.438-.321.865-.653 1.278-.998.089-.074.175-.153.263-.228.344-.295.68-.597 1.007-.908.113-.107.227-.214.338-.324.395-.388.78-.783 1.147-1.193.035-.04.068-.082.104-.121.344-.388.673-.788.993-1.194.089-.113.177-.227.265-.342.347-.457.685-.921 1-1.398.001-.001.002-.003.002-.004.327-.493.631-.999.923-1.511.054-.094.107-.188.16-.284.293-.529.572-1.065.829-1.612.002-.005.005-.01.008-.015.024-.052.045-.105.069-.157.154-.335.304-.672.444-1.013.068-.165.129-.33.193-.495.09-.232.181-.463.264-.698.083-.233.159-.468.235-.702.054-.166.11-.332.161-.499.085-.278.161-.557.237-.836.034-.128.071-.256.103-.385.077-.302.145-.605.211-.908.024-.112.05-.224.072-.337.062-.309.118-.619.169-.928.019-.115.039-.23.056-.345.045-.3.084-.599.119-.899.016-.135.032-.27.046-.405.028-.276.05-.552.069-.828.011-.166.022-.332.031-.498.012-.243.02-.486.025-.728.005-.204.008-.407.008-.612 0-.204-.003-.408-.008-.612-.005-.243-.013-.485-.025-.729-.009-.166-.02-.332-.031-.497-.019-.276-.042-.552-.069-.828-.014-.135-.03-.27-.046-.405-.035-.3-.074-.6-.119-.899-.018-.115-.037-.23-.056-.345-.051-.31-.106-.619-.169-.928-.023-.113-.048-.225-.072-.337-.065-.303-.134-.606-.211-.908-.032-.129-.068-.256-.103-.384-.075-.279-.152-.558-.237-.836-.051-.167-.107-.333-.161-.5-.076-.234-.152-.468-.235-.702s-.175-.466-.264-.698c-.064-.165-.125-.331-.193-.495-.14-.341-.29-.678-.444-1.013-.024-.052-.044-.105-.069-.157-.003-.007-.007-.013-.01-.019-.567-1.209-1.226-2.378-1.972-3.494-.054-.082-.113-.159-.168-.24-.189-.276-.379-.551-.579-.82-.097-.131-.2-.257-.299-.386-.164-.213-.327-.427-.499-.636-.122-.149-.249-.292-.374-.437-.156-.182-.311-.366-.472-.544-.141-.155-.287-.305-.431-.457-.154-.161-.305-.324-.463-.482-.157-.157-.319-.307-.479-.459-.153-.146-.304-.293-.461-.436-.177-.16-.358-.313-.539-.468-.147-.126-.291-.255-.441-.378-.213-.175-.432-.342-.65-.51-.123-.095-.243-.192-.368-.285-.29-.215-.585-.421-.883-.624-.059-.04-.115-.082-.174-.122-1.128-.755-2.309-1.419-3.532-1.991l-271.712-127.352 271.573-127.289c1.216-.562 2.384-1.211 3.492-1.942.073-.048.147-.093.219-.141.11-.074.216-.153.324-.229 2.379-1.649 4.426-3.64 6.101-5.879.012-.016.025-.031.037-.047.182-.244.355-.493.528-.742.081-.116.165-.231.244-.348.103-.154.2-.311.299-.467.141-.22.283-.439.418-.664.032-.054.062-.109.094-.163 1.799-3.041 3.005-6.47 3.47-10.133.026-.203.056-.405.077-.609.011-.104.017-.209.026-.314.033-.354.062-.708.081-1.063.002-.033.002-.067.003-.1.021-.424.032-.849.032-1.276 0-.004 0-.007 0-.011 0-.012-.001-.024-.001-.036 0-.43-.011-.861-.033-1.292-.002-.05-.007-.099-.009-.148-.021-.383-.049-.765-.087-1.148-.01-.108-.024-.215-.036-.322-.035-.313-.073-.625-.119-.937-.026-.18-.058-.358-.088-.537-.039-.232-.079-.465-.125-.697-.05-.256-.106-.51-.164-.764-.034-.151-.067-.303-.105-.454-.082-.333-.171-.662-.265-.99-.021-.073-.041-.147-.063-.221-.12-.405-.249-.806-.388-1.202-.001-.004-.002-.007-.004-.011-.729-2.087-1.709-4.055-2.907-5.868-.043-.066-.084-.135-.129-.201-.082-.121-.17-.239-.254-.359-1.641-2.36-3.62-4.392-5.843-6.058-.021-.016-.042-.033-.063-.049-.241-.18-.488-.352-.735-.523-.118-.082-.234-.167-.354-.247-.155-.104-.314-.201-.471-.302-.218-.14-.436-.281-.658-.415-.06-.036-.121-.069-.182-.104-2.789-1.647-5.903-2.799-9.225-3.335-.059-.01-.117-.022-.176-.031-.125-.019-.251-.032-.376-.05-.33-.047-.66-.092-.992-.126-.002 0-.005 0-.008 0-.942-.098-1.892-.141-2.846-.137h-322.912c-14.673 0-26.567 11.895-26.567 26.567 0 14.673 11.895 26.568 26.567 26.568h203.77l-214.956 100.752c-1.655.767-3.234 1.704-4.708 2.802-.002.001-.004.003-.007.005-.343.256-.68.52-1.011.793-.049.041-.096.083-.144.124-.282.236-.562.477-.835.725-.068.062-.132.126-.199.188-.249.231-.496.465-.737.707-.078.079-.153.16-.23.24-.223.229-.444.459-.659.698-.088.098-.171.198-.258.297-.197.225-.394.449-.583.681-.102.124-.197.252-.296.378-.167.211-.334.421-.495.639-.131.177-.254.358-.38.538-.12.172-.244.34-.361.515-.238.356-.466.718-.686 1.084-.001.002-.003.005-.004.007-.464.775-.887 1.573-1.269 2.389-.002.004-.004.008-.006.013-.016.034-.03.07-.046.104-.164.354-.321.711-.469 1.071-.064.155-.121.311-.182.467-.094.241-.188.482-.275.726-.081.227-.154.454-.229.682-.056.173-.115.345-.167.519-.083.273-.158.548-.232.822-.036.133-.073.265-.106.398-.076.3-.144.6-.208.9-.025.115-.051.229-.074.344-.062.308-.117.616-.168.925-.019.116-.039.232-.057.348-.045.299-.084.597-.119.896-.016.136-.032.271-.046.408-.028.276-.05.551-.069.826-.012.166-.023.333-.031.499-.012.242-.02.484-.026.726-.005.205-.008.41-.008.616 0 .202.004.404.008.605.006.245.013.491.026.737.008.162.019.324.031.486.019.281.042.561.07.841.013.13.029.26.044.389.035.305.075.611.121.916.017.108.035.216.053.325.052.317.109.635.173.951.021.102.044.204.066.306.068.314.139.628.218.941.029.114.061.226.091.339.079.295.16.59.25.884.044.145.093.288.139.432.083.258.167.515.258.771.071.199.149.396.225.594.077.201.152.402.234.602.115.279.239.554.364.83.049.107.091.216.141.322.005.011.011.021.016.032.25.533.522 1.055.808 1.571.062.112.125.223.188.334.277.484.565.963.874 1.43.015.023.03.048.045.071.309.466.639.92.979 1.367.096.127.194.252.292.377.306.388.621.769.949 1.14.048.054.093.111.141.164.362.403.741.792 1.13 1.175.119.117.24.232.361.346.317.3.642.593.975.878.097.083.191.169.289.251.409.341.832.669 1.265.987.135.099.274.193.411.29.319.225.644.444.976.656.16.103.319.206.48.304.418.255.844.502 1.28.737.136.073.275.142.412.212.301.155.601.31.91.455l271.727 127.359-271.612 127.305c-2.45 1.132-4.734 2.637-6.757 4.483-.011.01-.022.021-.033.032-.307.281-.608.569-.903.866-.021.021-.041.043-.062.065-.281.285-.558.576-.827.875-.027.03-.052.062-.079.092-.259.29-.513.585-.76.887-.034.042-.066.085-.1.127-.235.292-.467.587-.69.891-.042.056-.08.115-.121.172-.21.29-.417.581-.617.881-.072.108-.138.22-.208.33-.162.251-.325.502-.479.76-.224.374-.438.754-.643 1.138-.029.055-.055.112-.084.167-.177.339-.35.68-.512 1.026-.006.014-.014.027-.02.041-.051.108-.094.218-.143.326-.124.274-.247.547-.362.825-.083.201-.157.403-.235.605-.076.197-.153.392-.224.591-.092.257-.176.515-.259.773-.046.144-.095.286-.139.43-.09.294-.171.59-.25.885-.03.113-.062.225-.091.339-.08.313-.151.627-.219.942-.022.102-.045.204-.066.306-.064.317-.121.635-.173.952-.018.108-.037.216-.053.324-.046.305-.086.611-.121.916-.015.13-.031.259-.044.389-.028.281-.051.561-.07.841-.011.162-.022.324-.031.486-.012.246-.02.491-.026.737-.005.202-.008.403-.008.605 0 .206.004.411.008.616.006.242.013.484.026.726.009.167.02.333.031.499.019.275.041.551.069.826.014.136.03.272.046.408.035.299.073.598.119.897.018.116.037.232.057.348.051.309.106.617.168.925.023.115.049.229.074.344.065.301.133.601.208.9.033.133.071.265.106.397.074.274.149.549.232.822.053.174.111.346.167.519.074.228.147.455.229.682.086.243.181.484.274.724.061.156.118.313.182.469.148.36.305.716.469 1.07.016.035.03.07.046.105.001.003.003.007.005.01.258.552.54 1.093.836 1.626.049.088.099.176.149.263.58 1.018 1.228 2 1.942 2.938.08.105.161.209.243.313.335.427.681.847 1.044 1.255.019.021.036.043.054.063.375.419.769.823 1.172 1.219.1.098.201.194.303.29.346.329.701.65 1.067.961.07.06.138.123.209.182.424.353.861.693 1.31 1.022.112.082.226.159.338.239.348.247.703.486 1.066.717.137.087.273.176.412.261.46.282.928.555 1.41.812.069.036.14.068.208.104.332.173.666.344 1.009.504l272.31 127.635-272.257 127.609c-1.639.763-3.203 1.692-4.664 2.78-.022.017-.043.034-.065.05-.323.242-.642.491-.955.749-.061.05-.119.103-.179.154-.271.227-.538.457-.8.695-.078.071-.152.145-.229.216-.239.223-.477.447-.708.679-.086.086-.168.176-.253.264-.215.222-.429.444-.636.674-.095.105-.185.213-.278.32-.19.218-.381.435-.565.66-.105.128-.204.261-.307.391-.163.208-.328.414-.486.627-.133.179-.258.364-.385.546-.118.169-.24.335-.355.508-.742 1.112-1.396 2.276-1.96 3.481-.002.004-.004.008-.006.012-.016.033-.029.067-.044.101-.165.355-.323.713-.471 1.074-.064.155-.121.311-.182.467-.094.241-.188.482-.275.725-.081.227-.154.455-.229.682-.056.173-.115.345-.167.52-.083.273-.158.548-.232.822-.036.133-.073.264-.106.398-.076.299-.144.599-.208.899-.025.115-.051.229-.074.344-.062.308-.117.616-.168.925-.019.116-.039.231-.057.348-.045.299-.084.598-.119.897-.016.136-.032.271-.046.407-.028.275-.05.551-.069.826-.012.166-.023.332-.031.499-.012.242-.02.484-.026.726-.005.205-.008.41-.008.616 0 .202.004.404.008.605.006.245.013.491.026.737.008.162.019.324.031.486.019.281.042.561.07.842.013.13.029.259.044.389.035.306.075.611.121.916.017.109.035.217.053.325.052.318.109.635.173.952.021.102.044.204.066.306.068.314.139.628.218.942.029.114.061.226.091.339.079.295.16.59.25.884.044.145.093.288.139.432.083.258.167.515.258.771.071.199.149.396.225.594.077.201.152.402.234.602.115.278.238.553.363.827.049.108.092.217.142.325.005.011.011.021.016.032.25.532.522 1.055.808 1.571.062.112.125.223.188.334.277.484.565.963.874 1.43.015.023.03.048.045.071.309.466.639.92.979 1.367.096.127.194.252.292.377.306.388.621.769.949 1.14.048.054.093.111.141.165.362.403.741.792 1.13 1.174.119.117.24.232.361.347.317.3.642.593.975.878.097.083.191.169.289.251.409.341.832.669 1.265.987.135.099.274.193.411.29.319.225.644.444.976.656.16.102.319.205.48.304.418.255.844.502 1.28.737.136.073.274.141.411.212.301.155.602.31.911.455l271.727 127.359-271.5 127.253c-3.265 1.491-6.239 3.643-8.7 6.38-.011.012-.021.025-.032.037-.274.306-.543.619-.804.939-.022.027-.043.056-.065.083-.247.305-.489.615-.723.933-.033.045-.063.091-.096.136-.218.301-.434.604-.641.915-.064.096-.122.195-.185.292-.17.263-.341.526-.502.797-.224.375-.438.754-.642 1.139-.028.052-.053.107-.081.16-.179.341-.352.684-.515 1.032-.006.014-.014.027-.02.041-.051.108-.094.217-.142.325-.124.274-.248.549-.363.827-.083.2-.157.401-.234.602-.076.198-.154.394-.225.594-.092.256-.175.514-.258.771-.046.144-.095.288-.139.432-.09.294-.171.589-.25.884-.03.113-.062.226-.091.339-.079.313-.151.627-.218.942-.022.102-.045.204-.066.306-.064.317-.121.634-.173.951-.018.108-.036.216-.053.325-.046.305-.086.611-.121.916-.015.129-.031.259-.044.389-.028.281-.051.561-.07.842-.011.162-.022.324-.031.486-.012.246-.02.491-.026.737-.005.202-.008.403-.008.605 0 .206.004.411.008.616.006.242.013.484.026.726.009.167.02.333.031.499.019.275.042.551.069.826.014.136.03.272.046.407.035.299.073.598.119.897.018.116.038.232.057.347.051.309.106.617.168.925.023.115.049.23.074.345.065.3.133.6.208.899.033.133.071.265.106.398.074.274.149.549.232.822.053.174.111.346.167.52.074.228.147.455.229.682.087.244.181.484.275.725.061.156.118.312.182.467.148.362.306.719.471 1.074.015.033.028.067.044.101.001.003.003.006.005.01.259.552.54 1.094.837 1.628.049.088.098.175.148.262.58 1.019 1.229 2.001 1.943 2.939.08.105.16.208.242.312.336.428.683.85 1.046 1.258.018.02.034.041.052.061.376.419.77.824 1.174 1.22.099.098.2.193.301.289.346.329.702.651 1.068.963.07.06.138.122.209.181.424.354.862.694 1.311 1.022.111.081.224.158.336.238.349.247.705.486 1.068.718.137.087.273.176.412.261.46.282.928.555 1.41.812.069.036.14.068.208.104.332.173.666.344 1.009.504l215.046 100.794h-203.77c-14.668.002-26.563 11.896-26.563 26.569z"/><path d="m1906.725 2713.312h168.609c121.096 0 219.616-98.52 219.616-219.616v-1147.673c0-121.096-98.52-219.616-219.616-219.616h-168.609c-121.096 0-219.616 98.52-219.616 219.616v1147.673c0 121.095 98.52 219.616 219.616 219.616zm-166.481-1367.289c0-91.8 74.681-166.481 166.481-166.481h168.609c91.8 0 166.481 74.681 166.481 166.481v1147.673c0 91.8-74.681 166.481-166.481 166.481h-168.609c-91.8 0-166.481-74.681-166.481-166.481z"/><path d="m1802.937 2532.381c0 14.673 11.895 26.568 26.567 26.568h322.839c.064 0 .129.005.193.005.157 0 .313-.014.471-.017.382-.006.762-.018 1.14-.04.202-.012.403-.029.604-.046.421-.035.84-.079 1.255-.133.117-.015.234-.028.35-.044 1.195-.171 2.364-.425 3.502-.75.01-.003.021-.006.031-.009 1.187-.34 2.34-.76 3.452-1.256.007-.003.014-.006.021-.009.561-.25 1.113-.517 1.652-.804h.001c.516-.275 1.022-.566 1.518-.874.093-.058.184-.119.277-.178.368-.235.73-.478 1.086-.73.141-.1.283-.198.422-.3.398-.294.789-.597 1.17-.913.179-.148.352-.304.527-.457.225-.196.447-.396.666-.6.192-.179.383-.358.57-.543.307-.304.607-.616.899-.935.176-.192.345-.39.516-.588.221-.256.438-.516.649-.781.132-.165.264-.33.392-.499.324-.426.637-.861.936-1.307.046-.069.089-.14.134-.21.307-.468.598-.946.875-1.433.025-.044.051-.086.075-.13.753-1.341 1.393-2.753 1.907-4.225.002-.006.004-.012.006-.018.137-.394.266-.792.385-1.195.022-.076.043-.152.064-.228.093-.326.183-.653.263-.984.038-.153.071-.307.106-.46.057-.252.113-.504.163-.758.046-.234.086-.468.125-.702.03-.177.061-.354.087-.533.046-.312.084-.625.119-.938.012-.108.026-.215.036-.323.038-.383.066-.765.087-1.148.003-.049.007-.098.009-.148.021-.43.032-.859.032-1.288 0-.013.001-.027.001-.041 0-.004 0-.008 0-.012 0-.425-.011-.849-.032-1.273-.002-.034-.002-.068-.004-.102-.019-.351-.047-.702-.08-1.051-.01-.109-.016-.219-.028-.328-.021-.197-.05-.392-.075-.588-.466-3.694-1.685-7.151-3.507-10.211-.018-.03-.034-.062-.052-.092-.15-.25-.307-.494-.465-.738-.084-.131-.165-.263-.251-.392-.097-.144-.199-.285-.299-.427-.155-.222-.309-.445-.471-.662-.034-.046-.07-.089-.104-.135-1.598-2.12-3.532-4.017-5.766-5.608-.207-.148-.412-.297-.622-.439-.011-.008-.023-.014-.034-.022-1.179-.791-2.427-1.484-3.73-2.081l-271.497-127.253 271.728-127.359c.313-.147.618-.304.923-.461.127-.066.255-.128.382-.196.444-.238.877-.49 1.302-.75.157-.096.312-.197.468-.297.339-.217.671-.44.997-.67.13-.092.262-.181.391-.276.438-.321.865-.653 1.279-.997.09-.075.176-.154.265-.23.345-.295.68-.597 1.007-.908.112-.106.225-.213.335-.322.396-.389.782-.785 1.15-1.195.034-.038.065-.078.099-.116.346-.39.677-.791.998-1.199.088-.113.176-.225.263-.339.348-.458.686-.922 1.002-1.4 0 0 0-.001.001-.001.327-.494.631-1 .924-1.514.054-.094.107-.188.16-.283.293-.529.572-1.065.828-1.612.002-.005.005-.01.008-.015.024-.052.045-.104.069-.156.154-.336.304-.673.444-1.014.068-.165.129-.331.193-.496.09-.231.181-.462.264-.696.083-.233.159-.468.235-.702.054-.167.11-.332.161-.5.085-.278.161-.556.236-.835.035-.129.071-.257.103-.386.076-.302.145-.604.21-.907.024-.113.05-.225.073-.338.062-.309.117-.617.168-.926.019-.116.039-.232.057-.348.045-.299.084-.599.119-.899.016-.134.031-.268.045-.403.028-.277.051-.553.07-.83.011-.166.023-.331.031-.497.012-.244.02-.487.025-.73.005-.203.008-.407.008-.61 0-.204-.003-.407-.008-.611-.005-.243-.013-.486-.025-.73-.009-.166-.02-.331-.031-.497-.019-.277-.042-.553-.07-.83-.014-.134-.03-.268-.045-.402-.035-.3-.074-.599-.119-.899-.018-.116-.038-.232-.057-.348-.051-.309-.106-.618-.168-.926-.023-.113-.048-.225-.073-.338-.065-.303-.134-.605-.21-.907-.032-.129-.069-.257-.103-.386-.075-.279-.151-.557-.236-.835-.051-.167-.107-.333-.161-.5-.076-.235-.152-.469-.235-.702-.083-.234-.174-.465-.264-.696-.064-.165-.125-.331-.193-.496-.14-.342-.29-.679-.444-1.014-.024-.052-.044-.104-.069-.156-.003-.007-.007-.013-.01-.019-.567-1.209-1.224-2.376-1.97-3.492-.063-.094-.13-.184-.194-.277-.18-.262-.361-.524-.551-.78-.111-.15-.228-.294-.342-.441-.15-.193-.297-.388-.453-.577-.141-.172-.288-.338-.433-.506-.136-.158-.27-.318-.411-.473-.165-.182-.335-.357-.505-.534-.128-.134-.254-.271-.386-.403-.192-.192-.389-.377-.586-.562-.116-.109-.229-.22-.347-.328-.23-.209-.466-.41-.703-.61-.091-.077-.179-.156-.271-.232-.291-.24-.589-.471-.889-.697-.042-.032-.083-.066-.126-.098-1.485-1.105-3.076-2.046-4.744-2.816l-271.59-127.295 271.728-127.362c9.724-4.557 15.387-14.249 15.29-24.327.097-10.078-5.566-19.771-15.29-24.327l-271.727-127.362 271.728-127.359c.313-.147.618-.304.923-.461.127-.066.255-.128.382-.196.444-.238.877-.49 1.302-.75.158-.096.312-.197.468-.297.338-.217.669-.439.995-.669.131-.093.263-.183.393-.278.438-.321.864-.653 1.278-.997.09-.075.176-.154.265-.23.344-.294.679-.597 1.006-.907.113-.107.226-.214.337-.323.395-.388.781-.784 1.148-1.194.035-.039.067-.08.102-.119.345-.389.675-.789.995-1.196.089-.113.177-.226.264-.341.348-.457.685-.921 1.001-1.398.001-.001.001-.003.002-.004.327-.493.63-.999.923-1.511.054-.095.108-.189.161-.285.293-.529.572-1.065.828-1.611.002-.005.005-.01.008-.015.024-.052.045-.105.069-.157.154-.335.304-.672.444-1.013.068-.166.129-.333.194-.499.089-.23.18-.46.263-.693.084-.234.159-.469.236-.705.054-.166.11-.331.161-.498.085-.278.161-.557.236-.836.034-.128.071-.256.103-.385.076-.302.145-.605.21-.908.024-.112.05-.224.072-.337.062-.309.117-.618.169-.927.019-.116.039-.232.057-.348.045-.3.084-.599.119-.899.016-.134.031-.268.045-.403.028-.277.05-.554.07-.83.011-.165.023-.331.031-.496.012-.244.02-.487.025-.73.005-.204.008-.407.008-.611s-.003-.407-.008-.61c-.005-.243-.013-.487-.025-.73-.009-.166-.02-.331-.031-.496-.019-.277-.042-.553-.07-.83-.014-.135-.03-.269-.045-.403-.035-.3-.074-.599-.119-.899-.018-.116-.038-.232-.057-.348-.051-.309-.106-.618-.169-.927-.023-.113-.048-.225-.072-.337-.065-.303-.134-.606-.21-.908-.032-.129-.069-.256-.103-.384-.075-.279-.152-.558-.236-.836-.051-.167-.107-.332-.161-.498-.077-.235-.152-.47-.236-.705-.083-.233-.173-.463-.263-.693-.065-.166-.126-.333-.194-.499-.14-.341-.29-.678-.444-1.013-.024-.052-.044-.105-.069-.157-.003-.007-.007-.013-.01-.019-.567-1.209-1.225-2.377-1.971-3.493-.057-.086-.118-.167-.177-.252-.186-.271-.373-.542-.57-.806-.102-.138-.21-.271-.315-.406-.159-.206-.317-.413-.482-.615-.128-.156-.262-.307-.394-.459-.15-.175-.298-.351-.453-.521-.148-.163-.301-.32-.452-.479-.146-.154-.291-.309-.441-.46-.166-.166-.337-.325-.507-.486-.144-.136-.284-.274-.431-.408-.19-.172-.385-.336-.579-.502-.134-.114-.264-.231-.4-.343-.23-.189-.467-.37-.703-.551-.106-.081-.208-.165-.316-.245-.316-.234-.637-.46-.962-.68-.032-.021-.062-.044-.094-.065-1.135-.76-2.325-1.429-3.557-2.003l-271.695-127.345 271.501-127.255c1.302-.597 2.551-1.29 3.73-2.081.011-.008.023-.014.034-.022.211-.142.416-.292.622-.439 2.234-1.591 4.167-3.488 5.766-5.608.034-.045.07-.089.104-.135.162-.218.317-.441.472-.665.099-.142.201-.281.297-.425.087-.13.169-.263.253-.395.157-.243.314-.487.463-.735.018-.03.035-.061.052-.091 1.822-3.061 3.041-6.518 3.507-10.211.025-.196.054-.392.075-.588.011-.108.018-.219.028-.327.032-.35.061-.7.08-1.052.002-.034.002-.068.004-.102.021-.423.031-.848.032-1.273 0-.004 0-.008 0-.012 0-.013-.001-.027-.001-.04 0-.429-.011-.858-.032-1.288-.002-.05-.007-.099-.009-.148-.021-.383-.049-.765-.087-1.148-.01-.108-.024-.215-.036-.322-.035-.313-.073-.625-.119-.938-.026-.179-.057-.356-.087-.534-.04-.234-.079-.468-.125-.701-.05-.255-.106-.507-.163-.759-.035-.154-.068-.307-.106-.46-.081-.331-.17-.659-.263-.985-.022-.075-.042-.151-.064-.226-.119-.403-.248-.802-.386-1.197-.002-.005-.004-.011-.006-.016-.727-2.081-1.704-4.043-2.897-5.852-.047-.072-.092-.146-.14-.218-.075-.111-.155-.217-.231-.327-1.654-2.387-3.654-4.44-5.902-6.118-.006-.005-.012-.01-.018-.014-.256-.191-.517-.373-.779-.554-.104-.072-.205-.146-.31-.217-.17-.114-.344-.221-.517-.331-.203-.13-.405-.261-.611-.385-.077-.046-.155-.089-.233-.134-2.76-1.623-5.836-2.761-9.116-3.299-.082-.014-.163-.031-.246-.044-.114-.017-.229-.029-.344-.045-1.277-.183-2.571-.273-3.873-.267h-322.916c-14.673 0-26.567 11.895-26.567 26.567 0 14.673 11.895 26.568 26.567 26.568h203.772l-214.943 100.746c-1.66.768-3.243 1.707-4.721 2.808-.002.001-.004.003-.006.004-.343.256-.681.521-1.012.793-.051.042-.099.085-.149.127-.281.235-.559.474-.83.721-.071.064-.137.131-.207.196-.246.229-.491.46-.729.699-.081.081-.157.165-.237.247-.22.227-.44.456-.653.692-.089.098-.173.2-.26.3-.196.223-.392.447-.58.678-.103.125-.199.255-.299.382-.166.21-.333.42-.493.636-.129.174-.25.353-.375.53-.123.175-.248.346-.367.524-.222.333-.435.672-.642 1.013-.016.027-.034.052-.05.079-.462.771-.883 1.565-1.263 2.377-.003.007-.007.014-.011.021-.027.057-.05.116-.076.173-.151.329-.298.66-.436.995-.07.169-.132.339-.198.508-.088.228-.177.455-.259.685-.085.237-.161.475-.239.713-.053.162-.108.324-.157.487-.086.282-.163.564-.24.847-.033.125-.068.249-.1.374-.077.306-.146.612-.213.918-.023.109-.048.218-.07.327-.063.312-.119.625-.17.937-.019.112-.038.224-.055.337-.046.302-.085.604-.12.907-.016.133-.031.265-.045.398-.028.278-.051.556-.07.834-.012.164-.022.328-.031.493-.012.244-.02.488-.026.731-.005.203-.008.407-.008.611s.003.407.008.611c.005.244.013.488.026.731.008.164.019.328.031.491.019.279.042.558.07.837.013.131.029.261.044.392.035.305.075.61.121.915.017.108.035.216.053.325.052.317.109.635.173.951.021.102.044.204.066.306.068.314.139.628.218.941.029.114.061.226.091.339.079.295.16.59.25.884.044.145.093.288.139.432.083.258.167.515.258.771.071.199.149.396.225.594.077.201.152.402.234.602.115.279.239.554.363.83.049.107.091.216.141.322.005.011.011.021.016.032.25.533.522 1.055.808 1.571.062.112.125.223.188.334.277.484.566.963.874 1.43.016.023.03.048.045.071.31.466.639.92.979 1.367.096.127.194.252.292.377.305.387.619.767.947 1.138.049.055.094.113.143.167.362.403.741.792 1.129 1.174.119.117.24.232.362.347.317.3.642.593.975.878.097.083.191.169.289.251.41.341.832.669 1.266.987.135.099.273.193.411.29.319.225.644.444.975.656.16.103.319.206.48.304.418.255.844.502 1.28.737.136.073.275.142.412.213.301.155.601.31.91.455l271.729 127.359-271.582 127.293c-2.46 1.134-4.753 2.643-6.784 4.496-.013.012-.027.025-.04.038-.304.279-.603.564-.894.858-.027.027-.052.055-.079.082-.275.279-.545.563-.809.856-.036.041-.071.083-.107.123-.249.28-.494.563-.732.855-.047.057-.09.117-.137.174-.222.277-.441.556-.653.843-.061.082-.117.167-.177.25-.19.264-.38.529-.562.802-.104.157-.201.319-.302.478-.13.204-.262.405-.387.614-.225.377-.441.759-.647 1.146-.022.041-.041.084-.063.125-.185.352-.363.706-.532 1.065-.006.014-.014.027-.02.041-.051.108-.094.218-.143.326-.124.274-.247.547-.361.825-.083.201-.158.403-.235.605-.075.197-.153.392-.224.591-.092.257-.176.515-.259.773-.046.144-.095.286-.139.43-.09.294-.171.59-.25.885-.03.113-.062.225-.091.339-.08.313-.151.627-.218.942-.022.102-.045.204-.066.306-.064.317-.121.635-.173.952-.018.108-.036.216-.053.324-.046.305-.086.61-.121.915-.015.131-.031.261-.044.392-.028.279-.051.558-.07.837-.011.164-.022.327-.031.491-.012.244-.02.488-.026.732-.005.203-.008.407-.008.61 0 .204.003.407.008.611.005.244.013.487.026.731.009.165.02.329.031.493.019.278.042.556.07.834.013.133.029.265.045.398.035.302.074.604.12.906.017.113.036.225.055.337.052.313.107.625.17.937.022.109.047.218.07.327.066.306.135.613.213.918.032.125.067.249.1.374.076.283.154.565.24.847.05.164.104.325.157.488.078.238.154.476.239.713.082.229.171.456.259.683.066.17.129.341.198.51.137.334.284.665.435.993.027.058.049.116.076.174.003.006.006.011.009.017.256.546.534 1.081.827 1.609.053.096.108.192.162.287.291.51.594 1.015.919 1.506.002.003.003.006.005.009.316.476.652.939.999 1.396.088.116.177.23.267.344.319.406.648.804.992 1.192.035.04.069.082.104.122.367.409.752.805 1.147 1.192.112.11.225.217.339.325.327.31.663.613 1.007.907.088.075.174.154.263.228.414.344.841.676 1.278.997.129.095.262.185.393.277.326.23.658.453.996.67.156.099.31.2.467.296.426.26.859.512 1.303.75.126.068.254.13.381.196.305.157.609.314.923.461l272.31 127.635-272.244 127.604c-1.644.764-3.213 1.695-4.678 2.786-.021.016-.042.033-.064.05-.323.242-.643.491-.956.749-.062.052-.122.105-.184.157-.269.225-.535.454-.795.69-.081.073-.157.15-.237.224-.236.22-.471.442-.7.671-.088.089-.172.181-.259.271-.213.22-.425.44-.631.668-.096.106-.187.216-.28.323-.189.217-.379.433-.562.656-.106.129-.206.263-.309.395-.163.207-.327.412-.484.625-.131.177-.254.358-.38.538-.121.172-.244.341-.362.517-.225.338-.441.681-.651 1.028-.013.022-.028.043-.041.065-.462.772-.883 1.566-1.264 2.378-.003.007-.007.014-.01.021-.026.057-.049.114-.074.17-.152.33-.299.662-.438.998-.07.169-.132.339-.198.508-.088.228-.177.455-.259.684-.085.237-.161.475-.239.713-.053.163-.108.324-.157.488-.086.281-.163.564-.24.847-.033.125-.068.249-.1.374-.077.305-.146.611-.212.917-.024.109-.048.218-.07.328-.063.312-.119.625-.17.937-.019.112-.038.224-.055.336-.046.302-.085.604-.12.907-.016.133-.031.265-.045.398-.028.278-.051.556-.07.834-.012.164-.022.328-.031.493-.012.244-.02.487-.026.731-.005.203-.008.407-.008.611s.003.407.008.611c.005.244.013.487.026.731.008.164.019.328.031.491.019.279.042.558.07.837.013.131.029.261.044.392.035.305.075.61.121.915.017.109.035.217.053.325.052.318.109.635.173.952.021.102.044.204.066.306.068.314.139.628.218.942.029.114.061.226.091.339.079.295.16.59.25.884.044.145.093.288.139.432.083.258.167.515.258.771.071.199.149.396.225.594.077.201.152.402.234.602.115.278.238.553.362.827.049.108.092.217.142.325.005.011.011.021.017.032.25.532.522 1.055.807 1.571.062.112.125.223.188.334.277.484.566.963.874 1.43.016.023.03.048.045.071.31.466.639.92.979 1.367.096.127.194.253.292.378.305.387.619.767.947 1.138.049.055.094.113.143.167.362.403.741.792 1.129 1.174.119.117.24.232.362.347.317.3.642.593.975.878.097.083.191.169.289.251.41.341.832.669 1.266.987.135.099.273.193.411.29.319.225.644.444.975.656.16.102.319.205.48.304.418.255.844.502 1.28.737.136.073.274.141.411.212.301.155.602.31.91.455l271.729 127.359-271.474 127.24c-2.893 1.317-5.557 3.152-7.84 5.453-.005.005-.011.011-.016.017-.296.299-.586.605-.869.919-.02.022-.039.046-.06.069-.264.296-.524.598-.776.907-.035.043-.067.087-.102.131-.233.29-.463.583-.685.884-.052.071-.101.144-.152.216-.198.275-.396.551-.585.835-.098.146-.188.297-.282.445-.136.214-.276.426-.406.645-.225.377-.441.759-.647 1.146-.021.039-.039.079-.059.117-.186.354-.366.711-.536 1.072-.006.014-.014.027-.02.041-.051.108-.094.217-.142.325-.124.274-.248.549-.362.827-.083.2-.157.401-.234.602-.076.198-.154.394-.225.594-.092.256-.175.514-.258.771-.047.144-.095.288-.139.432-.09.294-.171.589-.25.884-.03.113-.062.226-.091.339-.08.313-.151.627-.218.942-.022.102-.045.204-.066.306-.064.317-.121.634-.173.951-.018.108-.036.216-.053.325-.046.305-.086.61-.121.915-.015.131-.031.261-.044.392-.028.279-.051.558-.07.837-.011.164-.022.327-.031.491-.012.244-.02.488-.026.731-.005.203-.008.407-.008.611s.003.407.008.611c.005.243.013.487.026.731.009.165.019.329.031.493.019.278.042.556.07.834.013.133.029.265.045.397.035.302.074.605.12.907.017.112.036.224.055.336.052.313.107.625.17.937.022.11.047.219.07.328.066.306.135.612.212.917.032.125.067.249.1.374.076.283.154.565.24.847.05.163.104.325.157.487.078.238.154.476.239.714.082.23.171.457.259.684.066.169.128.34.198.508.138.336.286.668.438.998.026.057.048.114.074.17.003.006.006.011.009.017.256.546.534 1.081.827 1.61.053.096.107.191.162.286.292.511.595 1.017.921 1.509.001.002.003.004.004.006.316.477.653.94 1 1.397.088.115.176.229.265.343.32.406.649.806.994 1.195.034.039.067.08.102.119.368.41.753.805 1.148 1.193.111.109.224.216.337.324.327.311.663.613 1.008.908.088.075.174.154.263.228.414.345.841.677 1.279.998.128.094.26.184.39.276.326.23.659.454.998.671.155.099.31.199.467.295.426.26.859.512 1.303.75.126.068.254.13.381.196.305.157.609.314.923.461l215.046 100.794h-203.772c-14.672-.001-26.567 11.893-26.567 26.566z"/><path d="m2639.906 2713.312h168.61c121.096 0 219.616-98.52 219.616-219.616v-1147.673c0-121.096-98.52-219.616-219.616-219.616h-168.61c-121.096 0-219.616 98.52-219.616 219.616v1147.673c0 121.095 98.52 219.616 219.616 219.616zm-166.481-1367.289c0-91.8 74.681-166.481 166.481-166.481h168.61c91.8 0 166.481 74.681 166.481 166.481v1147.673c0 91.8-74.681 166.481-166.481 166.481h-168.61c-91.8 0-166.481-74.681-166.481-166.481z"/><path d="m2536.118 2532.381c0 14.673 11.895 26.568 26.567 26.568h322.836c.064 0 .129.005.193.005.157 0 .314-.014.471-.017.382-.006.762-.018 1.14-.04.202-.012.403-.029.604-.046.421-.035.84-.079 1.255-.133.117-.015.234-.028.351-.044 1.195-.171 2.363-.425 3.502-.75.01-.003.021-.006.031-.009 1.187-.34 2.34-.76 3.452-1.256l.021-.009c.561-.25 1.113-.517 1.653-.804h.001c.516-.275 1.022-.566 1.518-.874.093-.058.185-.119.277-.178.368-.235.73-.478 1.086-.73.141-.1.283-.198.422-.3.398-.294.79-.597 1.17-.913.179-.148.352-.304.527-.457.225-.196.447-.396.666-.6.192-.179.383-.358.57-.543.307-.304.607-.616.899-.935.176-.192.345-.39.515-.588.221-.256.438-.516.649-.781.132-.165.264-.33.392-.499.324-.426.637-.861.936-1.307.046-.069.089-.14.135-.21.307-.468.598-.946.875-1.433.025-.044.05-.086.075-.13.753-1.341 1.392-2.753 1.907-4.225.002-.006.004-.012.006-.018.137-.394.266-.792.385-1.195.023-.076.043-.152.065-.228.093-.326.182-.653.263-.984.038-.153.071-.307.106-.46.057-.252.113-.504.163-.758.046-.234.086-.469.126-.703.03-.177.061-.353.087-.531.046-.313.084-.627.119-.941.012-.107.026-.213.036-.32.038-.383.066-.766.087-1.148.003-.049.007-.098.009-.148.021-.431.032-.862.033-1.292 0-.012.001-.024.001-.037 0-.003 0-.007 0-.011 0-.428-.011-.854-.032-1.28-.001-.031-.001-.063-.003-.094-.019-.356-.048-.712-.081-1.066-.01-.104-.015-.208-.026-.311-.022-.205-.052-.409-.078-.614-.465-3.661-1.671-7.089-3.469-10.128-.032-.054-.062-.109-.094-.163-.135-.225-.278-.445-.42-.666-.099-.155-.195-.311-.297-.464-.08-.119-.164-.234-.246-.351-.172-.249-.345-.497-.526-.74-.012-.016-.025-.031-.037-.047-1.675-2.239-3.722-4.23-6.101-5.879-.109-.076-.215-.155-.324-.229-.072-.048-.147-.093-.219-.141-1.109-.732-2.276-1.381-3.492-1.942l-271.573-127.289 271.726-127.358c.313-.147.618-.304.923-.461.127-.066.255-.128.381-.196.444-.238.877-.49 1.302-.75.157-.096.312-.197.468-.297.339-.217.671-.44.997-.67.13-.092.262-.181.391-.276.438-.321.865-.653 1.279-.997.09-.075.176-.154.264-.23.344-.295.68-.597 1.007-.907.113-.107.226-.214.336-.323.395-.388.781-.784 1.149-1.194.035-.039.067-.08.102-.118.345-.389.675-.789.995-1.197.088-.113.177-.226.263-.34.348-.457.685-.921 1.001-1.398.001-.002.002-.003.003-.005.326-.492.63-.998.922-1.51.054-.095.108-.189.161-.285.293-.529.572-1.064.828-1.611.003-.005.006-.01.008-.016.026-.055.047-.11.072-.165.153-.332.301-.666.44-1.004.068-.166.13-.333.194-.5.089-.23.18-.46.263-.693s.159-.468.235-.702c.054-.167.11-.332.161-.5.084-.278.161-.556.236-.835.034-.129.071-.257.103-.386.076-.302.145-.604.21-.907.024-.113.05-.225.073-.338.062-.31.118-.619.169-.929.019-.115.039-.229.056-.344.046-.3.084-.601.119-.901.016-.134.031-.267.045-.401.028-.277.051-.554.07-.832.011-.165.022-.33.031-.496.012-.243.02-.486.026-.729.005-.204.008-.407.008-.612s-.004-.408-.008-.612c-.006-.243-.013-.486-.026-.729-.009-.165-.02-.33-.031-.495-.019-.277-.042-.554-.07-.832-.014-.134-.029-.268-.045-.402-.035-.301-.074-.601-.119-.901-.017-.115-.037-.229-.056-.344-.051-.31-.106-.62-.169-.929-.023-.113-.048-.225-.073-.338-.065-.303-.134-.605-.21-.907-.033-.129-.069-.257-.103-.386-.075-.279-.152-.557-.236-.835-.051-.167-.107-.333-.161-.5-.076-.235-.152-.469-.235-.702s-.173-.463-.263-.693c-.065-.167-.126-.334-.194-.5-.139-.338-.287-.672-.44-1.004-.025-.055-.047-.11-.072-.165-.003-.007-.007-.014-.01-.021-.565-1.206-1.221-2.371-1.964-3.483-.083-.124-.17-.242-.255-.364-.161-.233-.321-.466-.49-.694-.125-.168-.255-.33-.383-.495-.137-.176-.271-.353-.412-.525-.151-.184-.307-.361-.462-.54-.127-.147-.251-.296-.382-.44-.172-.19-.35-.374-.527-.558-.122-.127-.24-.256-.365-.38-.195-.195-.396-.383-.596-.572-.113-.107-.224-.216-.339-.321-.227-.206-.459-.404-.693-.601-.095-.081-.188-.164-.285-.244-.28-.23-.566-.452-.854-.67-.055-.042-.108-.085-.163-.126-1.475-1.097-3.055-2.032-4.71-2.799l-271.616-127.306 271.728-127.362c9.722-4.557 15.385-14.249 15.287-24.327.097-10.078-5.565-19.771-15.287-24.327l-271.728-127.362 271.726-127.358c.313-.147.618-.304.923-.461.127-.066.255-.128.381-.196.444-.238.877-.49 1.302-.75.158-.096.313-.197.469-.297.338-.217.669-.439.995-.669.131-.093.263-.183.393-.278.438-.321.864-.653 1.278-.997.09-.075.176-.154.265-.23.344-.294.679-.596 1.006-.906.113-.108.227-.215.338-.324.395-.388.78-.783 1.147-1.193.035-.04.069-.082.104-.121.344-.388.673-.788.993-1.194.089-.113.177-.227.265-.342.347-.457.684-.921 1-1.397.002-.002.003-.005.005-.007.326-.492.629-.997.92-1.507.054-.095.109-.19.162-.286.293-.528.571-1.064.827-1.61.003-.005.006-.011.009-.016.026-.055.047-.111.073-.166.153-.332.301-.665.439-1.003.069-.167.13-.335.196-.503.089-.229.179-.458.262-.69.084-.234.159-.469.236-.705.054-.166.11-.331.161-.498.085-.278.161-.557.237-.836.034-.128.07-.256.103-.385.077-.302.145-.605.21-.908.024-.112.05-.224.073-.337.062-.31.118-.619.169-.93.019-.114.038-.229.056-.343.045-.3.084-.601.119-.901.016-.134.031-.268.045-.402.028-.277.051-.554.07-.832.011-.165.022-.33.031-.495.012-.243.02-.486.026-.729.005-.204.008-.407.008-.612 0-.204-.004-.408-.008-.612-.006-.243-.013-.486-.026-.729-.009-.165-.02-.33-.031-.495-.019-.277-.042-.554-.07-.832-.014-.134-.029-.268-.045-.402-.035-.301-.074-.601-.119-.901-.018-.115-.037-.229-.056-.344-.051-.31-.106-.62-.169-.93-.023-.113-.048-.225-.073-.337-.065-.303-.134-.606-.21-.908-.032-.129-.068-.256-.103-.384-.075-.279-.152-.558-.237-.836-.051-.167-.107-.332-.161-.498-.077-.235-.152-.47-.236-.705-.083-.232-.173-.461-.262-.69-.065-.167-.127-.336-.196-.503-.139-.337-.287-.671-.439-1.003-.025-.055-.047-.111-.073-.166-.003-.007-.007-.013-.01-.021-.566-1.206-1.222-2.372-1.965-3.485-.076-.115-.158-.224-.236-.338-.167-.242-.334-.484-.509-.721-.116-.156-.238-.306-.356-.459-.146-.188-.29-.378-.441-.563-.138-.168-.281-.33-.423-.494-.141-.163-.279-.328-.424-.489-.155-.171-.315-.335-.474-.502-.14-.146-.277-.294-.42-.438-.17-.17-.344-.332-.518-.497-.141-.134-.279-.269-.423-.4-.187-.169-.379-.332-.57-.495-.137-.117-.271-.237-.412-.352-.22-.181-.446-.353-.671-.526-.117-.09-.231-.183-.35-.271-.291-.216-.588-.423-.887-.627-.058-.039-.113-.081-.171-.119-1.125-.752-2.302-1.415-3.522-1.986l-271.723-127.357 271.573-127.289c1.216-.562 2.383-1.211 3.492-1.942.073-.048.147-.093.219-.141.11-.074.216-.153.324-.229 2.379-1.649 4.426-3.64 6.101-5.879.012-.016.025-.031.037-.047.182-.244.355-.493.528-.742.081-.116.165-.231.244-.348.103-.154.2-.311.299-.467.141-.22.283-.439.418-.664.032-.054.062-.109.094-.163 1.798-3.039 3.004-6.467 3.469-10.128.026-.204.056-.408.078-.614.011-.103.017-.208.026-.311.033-.355.062-.71.081-1.066.002-.031.002-.063.003-.094.021-.426.032-.853.032-1.28 0-.004 0-.007 0-.011 0-.012-.001-.024-.001-.036 0-.43-.011-.861-.033-1.292-.002-.05-.007-.099-.009-.148-.021-.383-.049-.765-.087-1.148-.01-.107-.024-.213-.036-.32-.035-.314-.073-.627-.119-.941-.026-.178-.057-.354-.087-.531-.04-.234-.079-.469-.125-.703-.05-.255-.106-.507-.163-.759-.035-.154-.068-.307-.106-.46-.081-.331-.17-.659-.264-.985-.022-.075-.042-.151-.064-.226-.119-.403-.248-.802-.386-1.197-.002-.005-.004-.011-.006-.016-.716-2.05-1.675-3.984-2.845-5.77-.067-.103-.13-.208-.198-.31-.038-.057-.08-.111-.118-.168-1.891-2.769-4.248-5.091-6.913-6.912-.061-.042-.12-.085-.18-.126-.212-.142-.428-.277-.643-.412-.161-.102-.321-.207-.485-.306-.118-.071-.239-.137-.358-.206-.265-.155-.531-.308-.802-.453-.016-.009-.032-.016-.049-.025-2.478-1.323-5.191-2.261-8.059-2.742-.118-.02-.235-.045-.353-.063-.098-.015-.197-.025-.296-.039-1.291-.187-2.599-.278-3.914-.272h-322.915c-14.673 0-26.567 11.895-26.567 26.567 0 14.673 11.895 26.568 26.567 26.568h203.769l-214.992 100.769c-1.635.761-3.195 1.688-4.653 2.772-.057.042-.112.088-.168.131-.287.217-.572.438-.85.667-.093.077-.182.157-.274.234-.238.201-.475.403-.706.613-.106.096-.208.197-.312.295-.21.197-.421.395-.625.6-.113.113-.221.231-.332.346-.188.196-.377.39-.56.593-.119.132-.233.269-.35.403-.166.191-.333.38-.494.577-.132.162-.258.328-.386.492-.136.175-.275.347-.407.525-.164.221-.319.448-.476.674-.089.128-.181.252-.267.382-.744 1.114-1.4 2.281-1.966 3.489-.002.005-.005.009-.007.014-.017.037-.032.074-.049.111-.163.352-.319.706-.466 1.064-.064.156-.122.313-.183.47-.093.24-.187.479-.273.721-.082.229-.156.458-.23.688-.056.171-.113.341-.166.513-.084.275-.159.552-.234.828-.035.131-.072.261-.105.392-.076.3-.144.601-.209.903-.024.114-.05.228-.073.343-.062.308-.117.615-.168.923-.02.117-.04.233-.057.351-.045.299-.084.597-.119.896-.016.135-.032.27-.046.406-.028.276-.05.552-.069.828-.011.166-.023.332-.031.498-.012.243-.02.485-.025.728-.005.205-.008.409-.008.614 0 .202.003.404.008.606.005.245.013.489.026.734.009.164.019.327.031.491.019.28.042.559.07.839.013.129.029.259.044.388.035.306.075.611.122.917.016.108.035.217.053.325.052.317.109.635.173.951.021.102.044.204.066.306.068.314.139.628.218.941.029.114.061.226.091.339.079.295.16.59.25.884.044.145.093.287.139.431.084.258.167.517.259.774.071.198.148.393.223.589.078.202.153.405.236.606.115.279.239.554.363.829.049.107.091.216.141.322.005.011.011.021.016.032.25.532.522 1.055.807 1.57.062.113.126.224.189.335.277.484.565.963.873 1.43.016.023.03.048.045.071.31.466.639.919.979 1.366.097.127.195.253.293.378.305.387.62.768.948 1.139.048.054.093.111.141.165.362.403.741.792 1.13 1.175.119.117.24.232.361.346.317.3.642.593.975.878.097.083.191.169.289.251.41.341.832.669 1.266.987.135.099.273.193.411.29.319.225.644.444.975.656.16.103.319.206.48.304.418.255.844.502 1.28.737.136.073.274.142.412.212.301.155.601.31.91.455l271.727 127.359-271.584 127.292c-2.46 1.133-4.753 2.642-6.784 4.495-.013.012-.027.025-.04.038-.304.279-.603.564-.894.858-.027.027-.052.055-.079.082-.275.279-.545.563-.809.856-.036.041-.07.082-.106.123-.249.28-.495.564-.733.856-.045.055-.087.113-.132.168-.223.279-.444.559-.657.848-.061.082-.117.167-.177.25-.19.264-.38.529-.562.802-.104.157-.201.319-.302.478-.13.204-.262.405-.387.614-.225.376-.44.758-.646 1.145-.024.045-.046.093-.07.139-.183.347-.359.698-.526 1.052-.006.014-.014.027-.02.041-.051.108-.094.218-.143.326-.124.273-.247.547-.361.825-.083.202-.159.406-.237.609-.075.195-.152.389-.222.586-.093.258-.176.517-.26.776-.046.143-.095.285-.138.429-.09.294-.171.59-.25.885-.03.113-.062.225-.091.339-.08.313-.151.627-.218.942-.022.102-.045.204-.066.306-.064.317-.121.635-.173.952-.018.108-.036.216-.053.324-.046.306-.086.611-.122.917-.015.129-.031.258-.044.388-.028.28-.051.56-.07.839-.011.163-.022.327-.031.49-.012.245-.02.489-.026.734-.005.202-.008.404-.008.607 0 .205.003.409.008.614.005.242.013.485.025.728.009.166.02.332.031.498.019.276.042.552.069.828.014.135.03.271.046.406.035.299.073.597.119.896.018.117.038.234.057.351.051.308.105.616.168.923.023.115.049.229.073.343.065.301.133.602.209.902.033.131.07.261.105.392.074.276.15.552.234.828.052.172.11.342.166.513.075.23.149.46.23.688.086.242.18.48.273.72.061.157.119.315.183.472.147.358.303.711.466 1.063.017.037.032.075.049.112.002.004.004.007.006.011.258.551.539 1.092.835 1.625.049.089.099.177.149.265.58 1.018 1.228 1.999 1.942 2.937.08.105.161.209.243.313.335.427.681.847 1.044 1.255.018.021.036.043.054.063.375.419.769.823 1.172 1.219.1.098.201.194.303.29.346.329.701.65 1.067.961.07.06.138.123.209.182.424.353.861.693 1.31 1.022.112.082.226.159.338.239.348.247.703.486 1.066.717.137.087.273.176.412.261.46.282.928.555 1.41.812.069.036.139.068.208.104.332.173.666.344 1.009.504l272.31 127.635-272.292 127.626c-1.23.574-2.417 1.243-3.55 2.002-.002.001-.003.002-.005.003-.357.239-.708.488-1.054.745-.076.056-.149.116-.224.174-.268.204-.535.41-.796.625-.105.086-.205.177-.309.264-.226.192-.452.384-.672.583-.116.105-.227.215-.341.322-.201.189-.402.377-.597.573-.121.121-.236.247-.354.37-.181.188-.362.375-.538.569-.126.139-.246.283-.368.425-.16.185-.321.367-.476.557-.135.166-.264.336-.395.504-.134.171-.27.34-.399.515-.166.224-.323.453-.481.682-.087.125-.177.247-.262.374-.744 1.115-1.401 2.282-1.967 3.49-.002.004-.004.009-.007.013-.017.036-.031.073-.047.108-.163.353-.32.708-.468 1.067-.064.156-.122.313-.183.47-.093.24-.187.479-.273.721-.082.229-.156.458-.23.688-.056.171-.113.341-.166.513-.084.275-.159.552-.234.828-.035.131-.072.261-.105.392-.076.3-.144.601-.209.902-.025.115-.051.229-.074.344-.062.307-.117.615-.168.923-.02.117-.039.233-.057.35-.045.299-.084.598-.119.896-.016.135-.032.27-.046.406-.028.276-.05.552-.069.828-.011.166-.023.332-.031.498-.012.243-.02.485-.025.728-.005.205-.008.409-.008.614 0 .203.003.405.008.607.005.245.013.489.026.734.009.164.019.327.031.49.019.28.042.56.07.84.013.129.029.258.044.387.035.306.075.612.122.917.016.108.035.217.053.324.052.318.109.635.173.952.021.102.044.204.066.306.068.314.139.628.218.942.029.114.061.226.091.339.079.295.16.59.25.884.044.145.093.287.139.431.084.258.167.517.259.774.071.198.148.393.223.589.078.202.153.405.236.606.115.278.238.553.362.827.049.108.092.217.142.325.005.011.011.021.017.032.25.532.522 1.054.807 1.57.062.113.126.224.189.335.277.484.565.963.873 1.43.016.023.03.048.045.071.31.466.639.919.979 1.366.097.127.195.253.293.378.305.387.62.768.948 1.139.048.054.093.111.141.165.362.403.741.792 1.13 1.174.119.117.24.232.361.347.317.3.642.593.975.878.097.083.191.169.289.251.41.341.832.669 1.266.987.135.099.273.193.411.29.319.225.644.444.975.656.16.102.319.205.48.304.418.255.844.502 1.28.737.136.073.274.141.411.212.301.155.602.31.911.455l271.727 127.359-271.472 127.24c-2.893 1.317-5.557 3.152-7.84 5.453-.005.005-.011.011-.016.017-.296.299-.586.605-.869.919-.02.022-.039.046-.059.068-.265.296-.525.598-.777.908-.033.041-.064.083-.097.123-.235.292-.466.587-.69.891-.052.071-.101.144-.152.216-.198.275-.396.551-.585.835-.098.146-.188.297-.282.445-.136.214-.276.426-.406.645-.225.377-.44.759-.646 1.145-.023.043-.043.088-.066.132-.184.349-.361.702-.529 1.059-.006.014-.014.027-.02.041-.051.108-.094.217-.142.325-.124.274-.248.549-.362.827-.083.201-.158.404-.236.606-.075.196-.153.391-.223.589-.092.257-.176.516-.259.774-.046.144-.095.287-.139.431-.09.294-.171.589-.25.884-.03.113-.062.226-.091.339-.08.313-.151.627-.218.942-.022.102-.045.204-.066.306-.064.317-.121.634-.173.951-.018.108-.036.216-.053.324-.047.306-.086.612-.122.917-.015.129-.031.258-.044.387-.028.28-.051.56-.07.84-.011.163-.022.327-.031.49-.012.245-.02.49-.026.734-.005.202-.008.404-.008.607 0 .205.003.409.008.614.005.242.013.485.025.727.009.167.02.332.031.498.019.276.042.552.069.828.014.135.03.271.046.406.035.299.073.598.119.896.018.117.038.234.057.35.051.308.105.616.168.923.023.115.049.229.074.344.065.301.133.602.209.902.033.131.07.261.105.392.074.276.15.552.234.828.052.172.11.342.166.513.075.229.149.459.23.688.086.242.18.481.273.721.061.157.119.314.183.47.148.359.305.715.468 1.067.017.036.031.072.047.108.002.004.004.007.005.01.259.552.54 1.093.836 1.626.049.088.099.176.149.263.58 1.019 1.229 2 1.943 2.939.08.105.161.208.242.312.336.428.683.85 1.047 1.258.018.02.034.041.052.061.375.419.77.824 1.173 1.22.1.098.2.193.301.289.346.329.702.651 1.068.963.07.06.138.122.209.181.424.354.862.694 1.311 1.022.111.081.224.158.336.238.349.247.704.486 1.067.718.137.087.273.176.412.261.46.282.928.555 1.41.812.069.036.139.068.208.104.332.173.666.344 1.009.504l215.045 100.794h-203.769c-14.675.002-26.57 11.896-26.57 26.569z"/></g></g></svg>