<?xml version="1.0" encoding="UTF-8"?>
<svg xmlns="http://www.w3.org/2000/svg" id="Layer_3" data-name="Layer 3" viewBox="0 0 64 64" width="512" height="512"><path d="M53,1H11A4,4,0,0,0,7,5V59a4,4,0,0,0,4,4H53a4,4,0,0,0,4-4V5A4,4,0,0,0,53,1ZM9,25H55v2.732A6.2,6.2,0,0,1,49.528,31H14.472A6.2,6.2,0,0,1,9,27.732ZM11,3H53a2,2,0,0,1,2,2V23H9V5A2,2,0,0,1,11,3ZM53,61H11a2,2,0,0,1-2-2V30.907A8.181,8.181,0,0,0,14.472,33H49.528A8.181,8.181,0,0,0,55,30.907V59A2,2,0,0,1,53,61Z"/><path d="M29,39H27v7H21V39H19v8a1,1,0,0,0,1,1h7v7h2V48h2V46H29Z"/><path d="M40,49H38v1H35V47a1,1,0,0,1,2,0l2,0a3,3,0,1,0-6,0v3H32v2h1v4h2V52h3v3a1,1,0,0,0,1,1h2V54H40V52h1V50H40Z"/><rect x="43" y="54" width="2" height="2"/><path d="M36.051,17.684A1,1,0,0,0,37,19H51a1,1,0,0,0,.949-1.316l-.368-1.1a11.317,11.317,0,0,1,0-7.162l.367-1.1A1,1,0,0,0,51,7H37a1,1,0,0,0-.949,1.316l.368,1.1a11.317,11.317,0,0,1,0,7.162ZM38.385,9h11.23a13.316,13.316,0,0,0,0,8H38.385a13.316,13.316,0,0,0,0-8Z"/><path d="M12.051,17.684A1,1,0,0,0,13,19H27a1,1,0,0,0,.949-1.316l-.368-1.1a11.317,11.317,0,0,1,0-7.162l.367-1.1A1,1,0,0,0,27,7H13a1,1,0,0,0-.949,1.316l.368,1.1A11.3,11.3,0,0,1,13,13a11.268,11.268,0,0,1-.582,3.581ZM14.385,9h11.23a13.316,13.316,0,0,0,0,8H14.385a13.316,13.316,0,0,0,0-8Z"/></svg>
