<svg id="Layer_3" height="512" viewBox="0 0 64 64" width="512" xmlns="http://www.w3.org/2000/svg" data-name="Layer 3"><path d="m62.775 53.718-9.236-48.955a4.623 4.623 0 0 0 -4.539-3.763h-34a4.623 4.623 0 0 0 -4.539 3.763l-9.236 48.955a3.943 3.943 0 0 0 -.225 1.282v4a4 4 0 0 0 4 4h54a4 4 0 0 0 4-4v-4a3.943 3.943 0 0 0 -.229-1.281zm-50.349-48.584a2.622 2.622 0 0 1 2.574-2.134h34a2.622 2.622 0 0 1 2.574 2.134l8.7 46.092a3.933 3.933 0 0 0 -1.274-.226h-20v-8.273a12 12 0 1 0 -14 0v8.273h-20a3.933 3.933 0 0 0 -1.27.226zm19.574 37.866a10 10 0 1 1 10-10 10.011 10.011 0 0 1 -10 10zm-5 .9a11.865 11.865 0 0 0 10 0v9.97l-4.36-3.634a1 1 0 0 0 -1.28 0l-4.36 3.629zm34 15.1a2 2 0 0 1 -2 2h-54a2 2 0 0 1 -2-2v-4a2 2 0 0 1 2-2h20v3a1 1 0 0 0 1.64.769l5.36-4.469 5.36 4.467a1 1 0 0 0 .64.233.989.989 0 0 0 .424-.095 1 1 0 0 0 .576-.905v-3h20a2 2 0 0 1 2 2z"/><path d="m31 7h2v2h-2z"/><path d="m33 19h-2v2h1 1z"/><path d="m20 7h2v2h-2z"/><path d="m19 13h2v2h-2z"/><path d="m18 19h2v2h-2z"/><path d="m17 25h2v2h-2z"/><path d="m16 31h2v2h-2z"/><path d="m15 37h2v2h-2z"/><path d="m14 43h2v2h-2z"/><path d="m42 7h2v2h-2z"/><path d="m43 13h2v2h-2z"/><path d="m44 19h2v2h-2z"/><path d="m45 25h2v2h-2z"/><path d="m46 31h2v2h-2z"/><path d="m47 37h2v2h-2z"/><path d="m48 43h2v2h-2z"/><path d="m31.155 33.431-1.323-1.986-1.664 1.11 2 3a1 1 0 0 0 .733.44c.034 0 .066.005.1.005a1 1 0 0 0 .707-.293l4-4-1.414-1.414z"/><path d="m32 25a8 8 0 1 0 8 8 8.009 8.009 0 0 0 -8-8zm0 14a6 6 0 1 1 6-6 6.006 6.006 0 0 1 -6 6z"/><path d="m31 13h2v2h-2z"/></svg>