<svg id="Capa_1" enable-background="new 0 0 3000 3000" height="512" viewBox="0 0 3000 3000" width="512" xmlns="http://www.w3.org/2000/svg"><g><g fill="rgb(0,0,0)"><path d="m2784.405 85.358h-2568.81c-118.882 0-215.595 96.716-215.595 215.595v191.449c0 53.543 36.17 98.793 85.358 112.609v2285.099c0 13.549 10.981 24.532 24.53 24.532h2780.225c13.549 0 24.53-10.983 24.53-24.532v-2285.099c49.187-13.816 85.357-59.067 85.357-112.609v-191.449c0-118.879-96.713-215.595-215.595-215.595zm81.178 2780.22h-2731.166v-207.695h2731.165zm0-256.76h-2731.166v-1684.485h2731.165zm0-1733.549h-2731.166v-265.919h2731.165zm85.357-382.867c0 37.431-30.457 67.883-67.888 67.883h-2766.104c-37.431 0-67.888-30.452-67.888-67.883v-191.449c0-91.825 74.708-166.53 166.535-166.53h2568.81c91.827 0 166.535 74.705 166.535 166.53z"/><path d="m522.672 2306.606c13.549 0 24.53-10.983 24.53-24.532v-1049.12c0-13.549-10.981-24.532-24.53-24.532s-24.53 10.983-24.53 24.532v1049.12c0 13.548 10.981 24.532 24.53 24.532z"/><path d="m1011.335 2306.606c13.549 0 24.53-10.983 24.53-24.532v-1049.12c0-13.549-10.981-24.532-24.53-24.532s-24.53 10.983-24.53 24.532v1049.12c0 13.548 10.981 24.532 24.53 24.532z"/><path d="m1500.002 2306.606c13.549 0 24.53-10.983 24.53-24.532v-1049.12c0-13.549-10.981-24.532-24.53-24.532s-24.53 10.983-24.53 24.532v1049.12c0 13.548 10.982 24.532 24.53 24.532z"/><path d="m1988.666 2306.606c13.549 0 24.53-10.983 24.53-24.532v-1049.12c0-13.549-10.981-24.532-24.53-24.532s-24.53 10.983-24.53 24.532v1049.12c-.001 13.548 10.981 24.532 24.53 24.532z"/><path d="m2477.328 2306.606c13.549 0 24.53-10.983 24.53-24.532v-1049.12c0-13.549-10.981-24.532-24.53-24.532s-24.53 10.983-24.53 24.532v1049.12c.001 13.548 10.982 24.532 24.53 24.532z"/></g></g></svg>