<svg id="Layer_3" height="512" viewBox="0 0 64 64" width="512" xmlns="http://www.w3.org/2000/svg" data-name="Layer 3"><path d="m31 7h2v2h-2z"/><path d="m31 13h2v2h-2z"/><path d="m31 19h2v2h-2z"/><path d="m31 25h2v2h-2z"/><path d="m31 31h2v2h-2z"/><path d="m20 7h2v2h-2z"/><path d="m19 13h2v2h-2z"/><path d="m18 19h2v2h-2z"/><path d="m17 25h2v2h-2z"/><path d="m16 31h2v2h-2z"/><path d="m15 37h2v2h-2z"/><path d="m14 43h2v2h-2z"/><path d="m42 7h2v2h-2z"/><path d="m43 13h2v2h-2z"/><path d="m44 19h2v2h-2z"/><path d="m45 25h2v2h-2z"/><path d="m59.672 37.27-6.133-32.507a4.623 4.623 0 0 0 -4.539-3.763h-34a4.623 4.623 0 0 0 -4.539 3.763l-9.236 48.955a3.943 3.943 0 0 0 -.225 1.282v4a4 4 0 0 0 4 4h54a4 4 0 0 0 4-4v-4a3.968 3.968 0 0 0 -.964-2.583 15.824 15.824 0 0 0 -2.364-15.147zm-12.672 23.73a14 14 0 1 1 14-14 14.015 14.015 0 0 1 -14 14zm-34.574-55.866a2.622 2.622 0 0 1 2.574-2.134h34a2.622 2.622 0 0 1 2.574 2.134l5.566 29.5a15.962 15.962 0 0 0 -25.613 16.366h-26.527a3.933 3.933 0 0 0 -1.27.226zm-7.426 55.866a2 2 0 0 1 -2-2v-4a2 2 0 0 1 2-2h2v5h2v-5h3v5h2v-5h3v5h2v-5h3v5h2v-5h3v5h2v-5h3.178a16.087 16.087 0 0 0 7.093 8zm56-6v4a2 2 0 0 1 -2 2h-4.271a16.109 16.109 0 0 0 6.245-6.229 1.933 1.933 0 0 1 .026.229z"/><path d="m39 40a1 1 0 0 0 -1 1v5a10.011 10.011 0 0 0 10 10h5a1 1 0 0 0 1-1c0-.5-.027-.992-.075-1.479a11.023 11.023 0 0 0 4.075-8.521 1 1 0 0 0 -1-1 11.02 11.02 0 0 0 -6.126 1.869 14.969 14.969 0 0 0 -11.874-5.869zm1 6v-3.962a13.019 13.019 0 0 1 11.852 11.062l-2.53-1.581a14.885 14.885 0 0 1 -5.422-5.966l-1.79.894a16.879 16.879 0 0 0 6.157 6.771l1.246.782h-1.513a8.009 8.009 0 0 1 -8-8zm15.937.063a9.047 9.047 0 0 1 -2.44 5.15 14.885 14.885 0 0 0 -1.497-3.671 9.021 9.021 0 0 1 3.937-1.479z"/></svg>