<svg id="Capa_1" enable-background="new 0 0 3000 3000" height="512" viewBox="0 0 3000 3000" width="512" xmlns="http://www.w3.org/2000/svg"><g><g fill="rgb(0,0,0)"><path d="m2784.405 85.355h-2568.814c-118.878 0-215.591 96.716-215.591 215.595v191.449c0 53.544 36.169 98.795 85.358 112.611v2285.102c0 13.549 10.981 24.532 24.53 24.532h2780.225c13.549 0 24.53-10.983 24.53-24.532v-2285.103c49.187-13.816 85.357-59.066 85.357-112.609v-191.45c0-118.879-96.713-215.595-215.595-215.595zm81.177 2780.225h-2731.164v-207.695h2731.165zm0-256.76h-2731.164v-1684.488h2731.165zm0-1733.553h-2731.164v-265.92h2731.165zm85.358-382.867c0 37.431-30.457 67.883-67.888 67.883h-2766.109c-37.431 0-67.883-30.452-67.883-67.883v-191.45c0-91.825 74.708-166.531 166.531-166.531h2568.814c91.828 0 166.535 74.706 166.535 166.531z"/><path d="m609.955 1359.904c43.468 0 78.831-35.367 78.831-78.835s-35.362-78.835-78.831-78.835-78.836 35.367-78.836 78.835 35.368 78.835 78.836 78.835zm0-108.606c16.414 0 29.771 13.355 29.771 29.771 0 16.417-13.357 29.771-29.771 29.771-16.419 0-29.776-13.354-29.776-29.771s13.357-29.771 29.776-29.771z"/><path d="m1203.318 1359.904c43.469 0 78.831-35.367 78.831-78.835s-35.362-78.835-78.831-78.835-78.835 35.367-78.835 78.835 35.367 78.835 78.835 78.835zm0-108.606c16.414 0 29.771 13.355 29.771 29.771 0 16.417-13.357 29.771-29.771 29.771-16.419 0-29.776-13.354-29.776-29.771.001-16.417 13.357-29.771 29.776-29.771z"/><path d="m1796.682 1359.904c43.469 0 78.831-35.367 78.831-78.835s-35.362-78.835-78.831-78.835-78.835 35.367-78.835 78.835 35.366 78.835 78.835 78.835zm0-108.606c16.414 0 29.771 13.355 29.771 29.771 0 16.417-13.357 29.771-29.771 29.771-16.419 0-29.776-13.354-29.776-29.771s13.357-29.771 29.776-29.771z"/><path d="m2390.045 1359.904c43.469 0 78.831-35.367 78.831-78.835s-35.362-78.835-78.831-78.835c-43.468 0-78.835 35.367-78.835 78.835s35.367 78.835 78.835 78.835zm0-108.606c16.414 0 29.771 13.355 29.771 29.771 0 16.417-13.357 29.771-29.771 29.771-16.419 0-29.776-13.354-29.776-29.771s13.357-29.771 29.776-29.771z"/><path d="m313.273 1882.533c43.469 0 78.831-35.367 78.831-78.836 0-43.468-35.362-78.835-78.831-78.835-43.468 0-78.831 35.367-78.831 78.835.001 43.47 35.363 78.836 78.831 78.836zm0-108.606c16.414 0 29.771 13.354 29.771 29.771s-13.357 29.771-29.771 29.771-29.771-13.354-29.771-29.771c0-16.416 13.357-29.771 29.771-29.771z"/><path d="m906.637 1882.533c43.468 0 78.831-35.367 78.831-78.836 0-43.468-35.362-78.835-78.831-78.835s-78.835 35.367-78.835 78.835c-.001 43.47 35.366 78.836 78.835 78.836zm0-108.606c16.414 0 29.771 13.354 29.771 29.771s-13.357 29.771-29.771 29.771c-16.419 0-29.776-13.354-29.776-29.771 0-16.416 13.357-29.771 29.776-29.771z"/><path d="m1500 1882.533c43.469 0 78.831-35.367 78.831-78.836 0-43.468-35.362-78.835-78.831-78.835s-78.835 35.367-78.835 78.835c0 43.47 35.366 78.836 78.835 78.836zm0-108.606c16.414 0 29.771 13.354 29.771 29.771s-13.357 29.771-29.771 29.771c-16.419 0-29.776-13.354-29.776-29.771 0-16.416 13.357-29.771 29.776-29.771z"/><path d="m2093.363 1882.533c43.469 0 78.831-35.367 78.831-78.836 0-43.468-35.362-78.835-78.831-78.835-43.468 0-78.835 35.367-78.835 78.835 0 43.47 35.367 78.836 78.835 78.836zm0-108.606c16.414 0 29.771 13.354 29.771 29.771s-13.357 29.771-29.771 29.771c-16.419 0-29.776-13.354-29.776-29.771.001-16.416 13.358-29.771 29.776-29.771z"/><path d="m2686.727 1882.533c43.469 0 78.831-35.367 78.831-78.836 0-43.468-35.362-78.835-78.831-78.835-43.468 0-78.835 35.367-78.835 78.835-.001 43.47 35.366 78.836 78.835 78.836zm0-108.606c16.414 0 29.771 13.354 29.771 29.771s-13.357 29.771-29.771 29.771c-16.419 0-29.776-13.354-29.776-29.771 0-16.416 13.357-29.771 29.776-29.771z"/><path d="m609.955 2405.164c43.468 0 78.831-35.367 78.831-78.835s-35.362-78.835-78.831-78.835-78.836 35.367-78.836 78.835c.001 43.467 35.368 78.835 78.836 78.835zm0-108.608c16.414 0 29.771 13.354 29.771 29.771s-13.357 29.771-29.771 29.771c-16.419 0-29.776-13.354-29.776-29.771s13.357-29.771 29.776-29.771z"/><path d="m1203.318 2405.164c43.469 0 78.831-35.367 78.831-78.835s-35.362-78.835-78.831-78.835-78.835 35.367-78.835 78.835c0 43.467 35.367 78.835 78.835 78.835zm0-108.608c16.414 0 29.771 13.354 29.771 29.771s-13.357 29.771-29.771 29.771c-16.419 0-29.776-13.354-29.776-29.771s13.357-29.771 29.776-29.771z"/><path d="m1796.682 2405.164c43.469 0 78.831-35.367 78.831-78.835s-35.362-78.835-78.831-78.835-78.835 35.367-78.835 78.835c-.001 43.467 35.366 78.835 78.835 78.835zm0-108.608c16.414 0 29.771 13.354 29.771 29.771s-13.357 29.771-29.771 29.771c-16.419 0-29.776-13.354-29.776-29.771s13.357-29.771 29.776-29.771z"/><path d="m2390.045 2405.164c43.469 0 78.831-35.367 78.831-78.835s-35.362-78.835-78.831-78.835c-43.468 0-78.835 35.367-78.835 78.835-.001 43.467 35.367 78.835 78.835 78.835zm0-108.608c16.414 0 29.771 13.354 29.771 29.771s-13.357 29.771-29.771 29.771c-16.419 0-29.776-13.354-29.776-29.771s13.357-29.771 29.776-29.771z"/></g></g></svg>