<svg id="Layer_3" height="512" viewBox="0 0 64 64" width="512" xmlns="http://www.w3.org/2000/svg" data-name="Layer 3"><path d="m62 57h-60a1 1 0 0 0 -1 1v4a1 1 0 0 0 1 1h60a1 1 0 0 0 1-1v-4a1 1 0 0 0 -1-1zm-1 4h-58v-2h58z"/><path d="m60 29a3 3 0 0 0 -3 3v1h-2v-1a3 3 0 0 0 -6 0v1h-2v-1a3 3 0 0 0 -6 0v1h-2v-1a3 3 0 0 0 -6 0v1h-2v-1a3 3 0 0 0 -6 0v1h-2v-1a3 3 0 0 0 -6 0v1h-2v-1a3 3 0 0 0 -6 0v1h-2v-1a3 3 0 0 0 -6 0v22a1 1 0 0 0 1 1h60a1 1 0 0 0 1-1v-22a3 3 0 0 0 -3-3zm1 24h-58v-21a1 1 0 0 1 2 0v2a1 1 0 0 0 1 1h4a1 1 0 0 0 1-1v-2a1 1 0 0 1 2 0v2a1 1 0 0 0 1 1h4a1 1 0 0 0 1-1v-2a1 1 0 0 1 2 0v2a1 1 0 0 0 1 1h4a1 1 0 0 0 1-1v-2a1 1 0 0 1 2 0v2a1 1 0 0 0 1 1h4a1 1 0 0 0 1-1v-2a1 1 0 0 1 2 0v2a1 1 0 0 0 1 1h4a1 1 0 0 0 1-1v-2a1 1 0 0 1 2 0v2a1 1 0 0 0 1 1h4a1 1 0 0 0 1-1v-2a1 1 0 0 1 2 0v2a1 1 0 0 0 1 1h4a1 1 0 0 0 1-1v-2a1 1 0 0 1 2 0z"/><path d="m53.912 1.59a1 1 0 0 0 -.912-.59h-42a1 1 0 0 0 -.912.59l-9 20a1 1 0 0 0 -.088.41v4a1 1 0 0 0 1 1h60a1 1 0 0 0 1-1v-4a1 1 0 0 0 -.088-.41zm-42.266 1.41h40.708l8.1 18h-56.907zm-8.646 22v-2h58v2z"/><path d="m15 5h2v2h-2z"/><path d="m31 5h2v2h-2z"/><path d="m31 9h2v2h-2z"/><path d="m31 13h2v2h-2z"/><path d="m31 17h2v2h-2z"/><path d="m23 5h2v2h-2z"/><path d="m13 9h2v2h-2z"/><path d="m22 9h2v2h-2z"/><path d="m11 13h2v2h-2z"/><path d="m21 13h2v2h-2z"/><path d="m9 17h2v2h-2z"/><path d="m20 17h2v2h-2z"/><path d="m47 5h2v2h-2z"/><path d="m39 5h2v2h-2z"/><path d="m49 9h2v2h-2z"/><path d="m40 9h2v2h-2z"/><path d="m51 13h2v2h-2z"/><path d="m41 13h2v2h-2z"/><path d="m53 17h2v2h-2z"/><path d="m42 17h2v2h-2z"/><path d="m7 37h2v2h-2z"/><path d="m7 45h2v2h-2z"/><path d="m15 37h2v2h-2z"/><path d="m15 45h2v2h-2z"/><path d="m23 37h2v2h-2z"/><path d="m23 45h2v2h-2z"/><path d="m31 37h2v2h-2z"/><path d="m31 45h2v2h-2z"/><path d="m39 37h2v2h-2z"/><path d="m39 45h2v2h-2z"/><path d="m47 37h2v2h-2z"/><path d="m47 45h2v2h-2z"/><path d="m55 45h2v2h-2z"/><path d="m55 37h2v2h-2z"/><path d="m7 41h2v2h-2z"/><path d="m15 41h2v2h-2z"/><path d="m23 41h2v2h-2z"/><path d="m31 41h2v2h-2z"/><path d="m39 41h2v2h-2z"/><path d="m47 41h2v2h-2z"/><path d="m55 41h2v2h-2z"/><path d="m7 49h2v2h-2z"/><path d="m15 49h2v2h-2z"/><path d="m23 49h2v2h-2z"/><path d="m31 49h2v2h-2z"/><path d="m39 49h2v2h-2z"/><path d="m47 49h2v2h-2z"/><path d="m55 49h2v2h-2z"/></svg>