<svg id="Capa_1" enable-background="new 0 0 3000 3000" height="512" viewBox="0 0 3000 3000" width="512" xmlns="http://www.w3.org/2000/svg"><g><path d="m2784.405 85.358h-2568.81c-118.879 0-215.595 96.716-215.595 215.595v191.449c0 53.543 36.17 98.793 85.358 112.609v582.64c-.922 2.58-1.428 5.358-1.428 8.255s.506 5.675 1.428 8.256v1685.948c0 13.549 10.983 24.532 24.532 24.532h2780.22c13.549 0 24.532-10.983 24.532-24.532v-1685.948c.922-2.58 1.428-5.358 1.428-8.256 0-2.897-.506-5.675-1.428-8.255v-582.64c49.188-13.816 85.358-59.067 85.358-112.609v-191.449c0-118.879-96.716-215.595-215.595-215.595zm81.173 2780.22h-2731.156v-207.695h2731.155zm0-256.76h-2731.156v-231.906h98.074c13.549 0 24.532-10.983 24.532-24.532v-100.142c0-42.261 34.383-76.645 76.645-76.645 42.264 0 76.647 34.383 76.647 76.645v100.143c0 13.549 10.983 24.532 24.532 24.532h575.194c13.549 0 24.532-10.983 24.532-24.532v-100.143c0-42.261 34.383-76.645 76.647-76.645 42.261 0 76.645 34.383 76.645 76.645v100.143c0 13.549 10.983 24.532 24.532 24.532h575.197c13.549 0 24.532-10.983 24.532-24.532v-100.143c0-42.261 34.383-76.645 76.645-76.645 42.264 0 76.647 34.383 76.647 76.645v100.143c0 13.549 10.984 24.532 24.532 24.532h575.194c13.549 0 24.532-10.983 24.532-24.532v-100.143c0-42.261 34.383-76.645 76.647-76.645s76.647 34.383 76.647 76.645v100.143c0 13.549 10.983 24.532 24.532 24.532h98.071zm0-280.97h-73.539v-75.61c0-69.316-56.393-125.709-125.711-125.709s-125.711 56.393-125.711 125.709v75.61h-526.13v-75.61c0-69.316-56.396-125.709-125.711-125.709s-125.709 56.393-125.709 125.709v75.61h-526.132v-75.61c0-69.316-56.393-125.709-125.709-125.709-69.318 0-125.711 56.393-125.711 125.709v75.61h-526.13v-75.61c0-69.316-56.396-125.709-125.711-125.709-69.316 0-125.709 56.393-125.709 125.709v75.61h-73.542v-1107.41h460.889v75.61c0 61.499 44.395 112.819 102.818 123.613v576.2c0 13.549 10.984 24.532 24.532 24.532 13.549 0 24.532-10.984 24.532-24.532v-576.853c56.797-12.076 99.538-62.618 99.538-122.961v-75.61h526.132v75.61c0 61.425 44.287 112.694 102.604 123.573v576.241c0 13.549 10.983 24.532 24.532 24.532s24.532-10.984 24.532-24.532v-576.806c56.904-11.995 99.751-62.589 99.751-123.007v-75.61h526.13v75.61c0 61.35 44.179 112.568 102.394 123.532v576.282c0 13.549 10.983 24.532 24.532 24.532s24.532-10.984 24.532-24.532v-576.76c57.008-11.913 99.962-62.56 99.962-123.054v-75.61h463.744v1107.41zm0-1156.474h-488.277c-13.549 0-24.532 10.984-24.532 24.532v100.142c0 42.261-34.383 76.645-76.645 76.645-42.264 0-76.647-34.383-76.647-76.645v-100.142c0-13.549-10.984-24.532-24.532-24.532h-575.194c-13.549 0-24.532 10.984-24.532 24.532v100.142c0 42.261-34.383 76.645-76.647 76.645-42.261 0-76.645-34.383-76.645-76.645v-100.142c0-13.549-10.983-24.532-24.532-24.532h-575.196c-13.549 0-24.532 10.984-24.532 24.532v100.142c0 42.261-34.383 76.645-76.645 76.645-42.264 0-76.647-34.383-76.647-76.645v-100.142c0-13.549-10.983-24.532-24.532-24.532h-485.421v-247.041h2731.155zm0-296.105h-2731.156v-265.919h2731.155zm85.358-382.867c0 37.431-30.452 67.883-67.883 67.883h-2766.105c-37.431 0-67.883-30.452-67.883-67.883v-191.449c0-91.825 74.705-166.53 166.531-166.53h2568.81c91.825 0 166.531 74.705 166.531 166.53z" fill="rgb(0,0,0)"/></g></svg>