<?xml version="1.0" encoding="UTF-8"?>
<svg xmlns="http://www.w3.org/2000/svg" id="Layer_3" data-name="Layer 3" viewBox="0 0 64 64" width="512" height="512"><path d="M63,12a1,1,0,0,0-.664-.942L36.22,1.731a12.6,12.6,0,0,0-8.44,0L1.664,11.058a1,1,0,0,0,0,1.884L13.026,17,1.664,21.058a1,1,0,0,0,0,1.884L13.026,27,1.664,31.058a1,1,0,0,0,0,1.884L13.026,37,1.664,41.058A1,1,0,0,0,1,42V52a1,1,0,0,0,.664.942L27.78,62.269a12.546,12.546,0,0,0,8.44,0l26.116-9.327A1,1,0,0,0,63,52V42a1,1,0,0,0-.664-.942L50.974,37l11.362-4.058a1,1,0,0,0,0-1.884L50.974,27l11.362-4.058a1,1,0,0,0,0-1.884L50.974,17l11.362-4.058A1,1,0,0,0,63,12ZM36.19,8.988,32,10.521,27.81,8.988,32,7.455Zm-1.28-2.6,4.153-1.519L43.3,6.385,39.1,7.923ZM24.9,7.923,20.7,6.385l4.241-1.514L29.09,6.39ZM21.989,8.988l-4.456,1.63L13.24,9.048l4.511-1.611ZM24.9,10.052l4.19,1.533-4.457,1.631-4.19-1.533Zm7.1,2.6,4.457,1.63L32,15.911,27.543,14.28ZM21.723,14.28,16.6,16.153l-4.24-1.514,5.17-1.891Zm2.91,1.065,4.457,1.631-5.031,1.84L19.549,17.2ZM32,18.04l5,1.828-1.449.517a10.573,10.573,0,0,1-7.094,0L27,19.868Zm7.941.776-5.031-1.84,4.457-1.631,5.084,1.86ZM47.4,16.153l-5.12-1.873,4.19-1.532,5.17,1.891Zm-8.03-2.937L34.91,11.585l4.19-1.533,4.457,1.631Zm2.644-4.228,4.238-1.551L50.76,9.048l-4.293,1.57ZM35.547,3.615l.571.2L32,5.325,27.882,3.819l.571-.2A10.573,10.573,0,0,1,35.547,3.615ZM10.3,10.1l4.328,1.583-5.206,1.9L4.973,12ZM35.547,60.385a10.573,10.573,0,0,1-7.094,0L3,51.3V43.419l4,1.429V49H9V45.562l3,1.071V51h2V47.348l3,1.071V53h2V49.133l3,1.072V55h2V50.919l3,1.071V57h2V52.629a12.315,12.315,0,0,0,6,0V57h2V51.99l3-1.071V55h2v-4.8l3-1.072V53h2V48.419l3-1.071V51h2V46.633l3-1.071V49h2V44.848l4-1.429V51.3ZM59.027,42l-23.48,8.385a10.573,10.573,0,0,1-7.094,0L4.973,42,16,38.062l11.78,4.207a12.546,12.546,0,0,0,8.44,0L48,38.062Zm0-10-23.48,8.385a10.573,10.573,0,0,1-7.094,0L4.973,32,16,28.062l11.78,4.207a12.546,12.546,0,0,0,8.44,0L48,28.062Zm0-10-23.48,8.385a10.573,10.573,0,0,1-7.094,0L4.973,22,16,18.062l11.78,4.207a12.546,12.546,0,0,0,8.44,0L48,18.062Zm-4.444-8.413-5.206-1.9L53.705,10.1,59.027,12Z"/></svg>
