<svg id="Capa_1" enable-background="new 0 0 3000 3000" height="512" viewBox="0 0 3000 3000" width="512" xmlns="http://www.w3.org/2000/svg"><g><path d="m2784.405 85.358h-2568.81c-118.879 0-215.595 96.716-215.595 215.595v191.449c0 53.543 36.17 98.793 85.358 112.609v582.64c-.922 2.58-1.428 5.358-1.428 8.255s.506 5.675 1.428 8.256v1139.963c-.922 2.58-1.428 5.358-1.428 8.256 0 2.897.506 5.675 1.428 8.255v529.474c0 13.549 10.983 24.532 24.532 24.532h2780.22c13.549 0 24.532-10.983 24.532-24.532v-529.474c.922-2.58 1.428-5.358 1.428-8.255s-.506-5.676-1.428-8.256v-1139.963c.922-2.58 1.428-5.358 1.428-8.256 0-2.897-.506-5.675-1.428-8.255v-582.64c49.188-13.816 85.358-59.067 85.358-112.609v-191.449c0-118.879-96.716-215.595-215.595-215.595zm81.173 2780.22h-2731.156v-207.697h2731.155zm0-256.762h-2731.156v-231.903h488.277c13.549 0 24.532-10.983 24.532-24.532v-100.143c0-42.264 34.383-76.647 76.647-76.647 42.261 0 76.644 34.383 76.644 76.647v100.143c0 13.549 10.984 24.532 24.532 24.532h575.197c13.549 0 24.532-10.983 24.532-24.532v-100.143c0-42.264 34.383-76.647 76.644-76.647 42.264 0 76.647 34.383 76.647 76.647v100.143c0 13.549 10.983 24.532 24.532 24.532h575.194c13.549 0 24.532-10.983 24.532-24.532v-100.143c0-42.264 34.383-76.647 76.647-76.647 42.261 0 76.645 34.383 76.645 76.647v100.143c0 13.549 10.983 24.532 24.532 24.532h485.421v231.903zm0-280.968h-460.889v-75.61c0-61.502-44.395-112.823-102.818-123.616v-236.681c0-13.549-10.984-24.532-24.532-24.532-13.549 0-24.532 10.983-24.532 24.532v237.335c-56.797 12.076-99.538 62.618-99.538 122.963v75.61h-526.13v-75.61c0-61.427-44.289-112.696-102.607-123.575v-236.722c0-13.549-10.983-24.532-24.532-24.532s-24.532 10.983-24.532 24.532v237.288c-56.902 11.995-99.749 62.589-99.749 123.009v75.61h-526.132v-75.61c0-61.353-44.18-112.571-102.393-123.535v-236.763c0-13.549-10.983-24.532-24.532-24.532s-24.532 10.983-24.532 24.532v237.242c-57.009 11.913-99.962 62.56-99.962 123.056v75.61h-463.746v-1107.411h460.889v75.61c0 61.499 44.395 112.819 102.818 123.613v236.684c0 13.549 10.984 24.532 24.532 24.532 13.549 0 24.532-10.984 24.532-24.532v-237.337c56.797-12.076 99.538-62.618 99.538-122.961v-75.61h526.132v75.61c0 61.425 44.287 112.694 102.604 123.573v236.725c0 13.549 10.983 24.532 24.532 24.532s24.532-10.984 24.532-24.532v-237.29c56.904-11.995 99.751-62.589 99.751-123.007v-75.61h526.13v75.61c0 61.35 44.179 112.568 102.394 123.532v236.766c0 13.549 10.983 24.532 24.532 24.532s24.532-10.984 24.532-24.532v-237.244c57.008-11.913 99.962-62.56 99.962-123.054v-75.61h463.744v1107.41zm0-1156.474h-488.277c-13.549 0-24.532 10.984-24.532 24.532v100.142c0 42.261-34.383 76.645-76.645 76.645-42.264 0-76.647-34.383-76.647-76.645v-100.142c0-13.549-10.984-24.532-24.532-24.532h-575.194c-13.549 0-24.532 10.984-24.532 24.532v100.142c0 42.261-34.383 76.645-76.647 76.645-42.261 0-76.645-34.383-76.645-76.645v-100.142c0-13.549-10.983-24.532-24.532-24.532h-575.196c-13.549 0-24.532 10.984-24.532 24.532v100.142c0 42.261-34.383 76.645-76.645 76.645-42.264 0-76.647-34.383-76.647-76.645v-100.142c0-13.549-10.983-24.532-24.532-24.532h-485.421v-247.043h2731.155zm0-296.108h-2731.156v-265.916h2731.155zm85.358-382.864c0 37.431-30.452 67.883-67.883 67.883h-2766.105c-37.431 0-67.883-30.452-67.883-67.883v-191.449c0-91.825 74.705-166.53 166.531-166.53h2568.81c91.825 0 166.531 74.705 166.531 166.53z" fill="rgb(0,0,0)"/></g></svg>