<?xml version="1.0" encoding="UTF-8"?>
<svg xmlns="http://www.w3.org/2000/svg" id="Layer_3" data-name="Layer 3" viewBox="0 0 64 64" width="512" height="512"><path d="M22.192,15.778A9.485,9.485,0,0,0,6,22.485V25H5a4,4,0,0,0-4,4V47a4,4,0,0,0,4,4H63V49H46.719a25.89,25.89,0,0,1-16.544-5.99A11.567,11.567,0,0,1,26,34.1a13.508,13.508,0,0,0-2.6-8l-4.6-6.322A4.313,4.313,0,0,0,11,22.313V25H8V22.485a7.485,7.485,0,0,1,12.778-5.293A19.7,19.7,0,0,0,34.8,23H63V21H34.8A17.713,17.713,0,0,1,22.192,15.778ZM24,34.1a13.672,13.672,0,0,0,.315,2.9H3V33H23.943C23.977,33.363,24,33.729,24,34.1ZM36.43,49H5a2,2,0,0,1-2-2V45H29.489A27.837,27.837,0,0,0,36.43,49Zm-9.087-6H3V39H24.93A13.533,13.533,0,0,0,27.343,43Zm-3.77-12H3V29a2,2,0,0,1,2-2H21.582l.2.274A11.55,11.55,0,0,1,23.573,31ZM13,22.313a2.313,2.313,0,0,1,4.184-1.36L20.127,25H13Z"/></svg>
