<svg id="Capa_1" enable-background="new 0 0 3000 3000" height="512" viewBox="0 0 3000 3000" width="512" xmlns="http://www.w3.org/2000/svg"><g><g fill="rgb(0,0,0)"><path d="m2784.405 85.358h-2568.81c-118.882 0-215.595 96.716-215.595 215.595v191.449c0 53.543 36.17 98.793 85.358 112.609v2285.099c0 13.549 10.981 24.532 24.53 24.532h2780.225c13.549 0 24.53-10.983 24.53-24.532v-2285.099c49.187-13.816 85.357-59.067 85.357-112.609v-191.449c0-118.879-96.713-215.595-215.595-215.595zm81.178 2780.22h-2731.166v-207.697h2731.165zm0-256.762h-2731.166v-1684.485h2731.165zm0-1733.55h-2731.166v-265.916h2731.165zm85.357-382.864c0 37.431-30.457 67.883-67.888 67.883h-2766.104c-37.431 0-67.888-30.452-67.888-67.883v-191.449c0-91.825 74.708-166.53 166.535-166.53h2568.81c91.827 0 166.535 74.705 166.535 166.53z"/><path d="m279.648 2185.425c0 194.324 162.869 352.417 363.062 352.417 95.173 0 319.944-13.148 351.529-134.936 3.398-13.115-4.473-26.502-17.59-29.903-13.107-3.403-26.507 4.468-29.905 17.587-18.795 72.471-175.529 98.187-304.034 98.187-171.469 0-311.281-133.477-313.964-298.526.312-1.56.475-3.175.475-4.826 0-61.031 19.022-119.223 52.663-168.071 28.653 28.857 62.318 52.994 99.618 71.081v136.455c0 108.282 88.093 196.375 196.373 196.375h1.713c108.28 0 196.373-88.093 196.373-196.375v-131.19c57.81-19.881 105.47-51.917 118.786-103.267.518-2.011.782-4.079.782-6.157v-10.175c0-2.078-.264-4.147-.782-6.158-11.782-45.446-51.728-80.079-118.786-103.123v-183.771c57.579-19.894 104.999-51.89 118.277-103.088.518-2.011.782-4.08.782-6.158v-10.175c0-2.078-.264-4.147-.782-6.158-11.758-45.333-51.528-79.906-118.277-102.947v-92.536c0-108.282-88.094-196.376-196.373-196.376h-1.713c-108.28 0-196.373 88.093-196.373 196.376v97.123c-37.952 18.267-71.68 42.514-100.186 71.257-33.216-48.108-52.608-105.848-52.608-167.888 0-167.27 140.863-303.352 314.002-303.352s314.002 136.083 314.002 303.352c0 13.549 10.981 24.532 24.53 24.532s24.53-10.983 24.53-24.532c0-194.324-162.868-352.417-363.062-352.417s-363.062 158.093-363.062 352.417c0 76.909 25.516 148.139 68.756 206.143-43.792 58.897-68.756 130.703-68.756 206.329 0 1.786.187 3.525.552 5.2 1.119 74.927 26.449 144.266 68.719 200.963-42.787 57.554-67.604 127.423-68.719 201.107-.365 1.677-.552 3.419-.552 5.204zm596.314-680.478c31.293 12.903 61.221 32.175 70 60.1v3.347c-8.089 25.869-34.078 45.609-70 60.239zm0 412.258c31.517 12.919 61.688 32.252 70.508 60.313v3.348c-8.126 25.992-34.322 45.797-70.508 60.448zm-49.06-34.681c-.002.247-.005.493 0 .739v173.555c-51.759 12.729-113.19 18.604-170.305 19.391l128.071-110.697c5.603-4.842 8.474-11.665 8.485-18.531.002-.103-.001-.205 0-.308-.001-.103.002-.205 0-.308-.011-6.866-2.882-13.689-8.485-18.531l-157.949-136.522 94.101-81.335c33.425-2.544 70.363-7.135 106.083-15.171v187.718zm-296.34-522.535c0-81.228 66.083-147.311 147.314-147.311h1.713c81.23 0 147.313 66.083 147.313 147.311v110.654c0 .056-.001.113 0 .169v173.409c-12.772 3.156-26.136 5.894-39.885 8.239.056-.063.115-.122.17-.186.011-.013.021-.027.032-.039.246-.286.483-.576.715-.871.02-.025.042-.05.061-.075.509-.654.982-1.328 1.417-2.021.001-.002.003-.004.004-.006.189-.301.368-.605.542-.913.03-.052.062-.103.091-.155.123-.221.237-.445.354-.669.073-.142.151-.281.222-.424.04-.081.075-.163.114-.244 1.518-3.154 2.317-6.547 2.409-9.948.001-.025.003-.051.004-.076.005-.2.001-.401.001-.601s.004-.401-.001-.601c-.001-.026-.003-.051-.004-.076-.092-3.401-.891-6.794-2.409-9.948-.039-.081-.074-.163-.114-.244-.071-.142-.148-.282-.222-.424-.116-.224-.23-.448-.354-.669-.029-.052-.062-.103-.091-.155-.174-.307-.354-.612-.542-.913-.001-.002-.003-.004-.004-.006-.435-.693-.908-1.367-1.417-2.021-.02-.025-.041-.05-.061-.075-.231-.294-.468-.585-.715-.87-.011-.013-.021-.026-.032-.04-.079-.091-.162-.176-.242-.266-.175-.197-.349-.393-.532-.585-.206-.217-.417-.425-.629-.633-.071-.069-.138-.14-.21-.209-.377-.361-.762-.708-1.157-1.041l-157.699-136.304 157.949-136.522c.054-.046.104-.096.157-.143.199-.175.395-.353.588-.534.117-.11.234-.22.348-.332.162-.158.321-.319.478-.481.137-.141.273-.282.406-.426.124-.134.245-.27.365-.407.155-.175.308-.35.457-.528.091-.109.18-.221.269-.332.167-.207.332-.414.491-.625.068-.09.133-.182.2-.273.171-.233.34-.467.501-.705.055-.082.108-.165.162-.247.164-.248.325-.496.479-.748.057-.094.111-.189.167-.284.143-.242.285-.484.42-.73.069-.126.134-.255.2-.383.113-.217.227-.433.334-.652.084-.172.162-.348.242-.523.081-.177.164-.354.241-.533.095-.221.183-.447.272-.671.054-.137.11-.272.162-.41.097-.26.187-.524.275-.788.036-.106.073-.211.107-.318.09-.28.171-.562.251-.846.027-.097.056-.193.082-.29.075-.279.142-.562.207-.844.025-.107.051-.214.074-.322.056-.262.106-.526.154-.791.025-.136.051-.272.073-.409.038-.234.071-.469.103-.706.024-.175.047-.35.067-.525.022-.2.041-.401.058-.603.019-.218.036-.437.05-.655.01-.167.018-.334.025-.502.01-.257.017-.513.019-.77.001-.075.006-.149.006-.224 0-.069-.005-.136-.005-.205-.002-.274-.009-.548-.021-.822-.006-.136-.011-.273-.019-.408-.016-.269-.037-.538-.061-.806-.013-.141-.025-.283-.04-.423-.028-.255-.061-.51-.097-.764-.021-.151-.041-.303-.065-.453-.038-.24-.083-.48-.128-.719-.03-.159-.059-.319-.092-.478-.048-.229-.103-.457-.158-.685-.039-.164-.077-.327-.119-.49-.059-.224-.125-.447-.19-.669-.047-.161-.093-.323-.143-.483-.071-.223-.148-.444-.225-.666-.054-.155-.106-.311-.163-.465-.083-.223-.173-.444-.262-.666-.06-.148-.118-.298-.181-.445-.094-.219-.195-.437-.296-.654-.068-.146-.133-.293-.204-.437-.102-.208-.21-.415-.318-.621-.079-.15-.156-.302-.238-.45-.106-.193-.219-.384-.331-.575-.093-.159-.185-.318-.281-.474-.108-.175-.221-.348-.333-.52-.111-.17-.222-.34-.336-.507-.108-.156-.219-.311-.331-.466-.129-.178-.259-.356-.392-.53-.11-.144-.223-.286-.336-.427-.142-.178-.287-.354-.434-.529-.057-.068-.11-.138-.169-.205-.063-.073-.13-.141-.193-.212-.144-.162-.289-.322-.437-.481-.138-.148-.277-.294-.417-.438-.131-.134-.264-.265-.398-.395-.165-.161-.33-.32-.499-.476-.111-.102-.224-.203-.338-.303-.194-.172-.389-.343-.587-.509-.093-.078-.188-.153-.283-.229-.219-.178-.44-.353-.665-.522-.083-.063-.168-.123-.253-.185-.236-.173-.473-.344-.714-.508-.089-.061-.181-.118-.271-.178-.237-.156-.475-.312-.716-.459-.115-.071-.234-.137-.35-.206-.217-.128-.434-.256-.655-.376-.169-.093-.342-.18-.513-.269-.17-.088-.338-.177-.509-.261-.239-.117-.482-.226-.725-.335-.108-.048-.214-.099-.322-.146-.307-.132-.617-.256-.93-.376-.046-.018-.092-.037-.139-.054-.356-.134-.716-.26-1.08-.377-.005-.002-.011-.004-.016-.005-1.095-.354-2.223-.631-3.38-.829-.026-.005-.053-.01-.079-.014-.337-.057-.677-.105-1.018-.148-.065-.008-.13-.017-.194-.025-.304-.036-.61-.064-.917-.089-.107-.009-.214-.017-.321-.024-.272-.018-.546-.031-.821-.04-.142-.005-.284-.009-.427-.011-.132-.002-.262-.01-.394-.01h-179.422c-13.549 0-24.53 10.983-24.53 24.532s10.981 24.532 24.53 24.532h113.527l-129.304 111.763c-.4.337-.791.689-1.173 1.055-.062.06-.121.122-.183.182-.22.216-.44.432-.654.658-.182.191-.355.387-.53.583-.08.09-.164.175-.243.267-.011.013-.021.026-.032.039-.245.284-.482.574-.712.867-.021.027-.044.053-.065.08-.507.651-.978 1.322-1.411 2.011-.003.005-.007.01-.01.016-.189.302-.369.607-.544.915-.029.051-.06.1-.089.151-.123.22-.237.445-.353.668-.074.142-.152.282-.223.426-.038.078-.072.157-.109.235-1.516 3.148-2.316 6.535-2.411 9.931-.001.034-.004.068-.005.103-.005.2-.001.4-.001.6s-.004.4.001.6c.001.034.004.069.005.104.095 3.397.896 6.787 2.415 9.937.036.075.069.152.106.228.072.146.152.289.227.434.115.221.227.442.349.66.03.053.062.104.092.156.174.306.353.611.541.91.003.005.007.01.01.016.433.689.904 1.36 1.411 2.011.021.027.044.054.066.081.23.293.466.582.71.865.011.013.021.026.032.04.057.065.117.125.174.19.212.239.426.477.648.709.153.16.309.313.465.468.137.135.272.271.413.404.213.202.43.396.648.589.058.051.112.105.171.155l157.949 136.52-29.883 25.829c-19.767 1.201-39.456 1.772-58.522 1.772-39.495 0-77.301-7.101-112.148-20.018zm0 335.707c35.245 11.137 72.841 17.17 111.857 17.2l-68.99 59.631c-.4.337-.791.689-1.173 1.055-.064.061-.124.124-.187.185-.219.215-.438.43-.651.655-.182.191-.355.387-.53.583-.08.09-.164.175-.243.267-.011.013-.021.026-.032.039-.245.284-.482.574-.712.867-.021.027-.044.053-.065.08-.507.651-.978 1.322-1.411 2.012-.003.005-.007.01-.01.015-.189.302-.369.607-.544.916-.029.051-.06.1-.089.151-.123.22-.237.445-.353.668-.074.142-.152.282-.223.426-.038.077-.071.156-.109.233-1.517 3.149-2.317 6.537-2.412 9.933-.001.034-.004.068-.005.103-.005.2-.001.4-.001.6s-.004.4.001.6c.001.034.004.068.005.103.095 3.395.895 6.782 2.411 9.931.037.078.071.158.109.235.071.144.15.285.225.428.115.222.229.446.351.665.03.053.063.105.093.158.174.306.352.609.54.908.005.007.01.014.014.022.432.687.902 1.357 1.407 2.006.021.028.044.054.066.081.23.292.466.582.71.865.011.013.021.027.032.039.057.066.117.126.174.19.212.239.426.477.648.71.152.159.309.313.464.467.137.136.273.273.415.406.212.201.428.395.646.588.058.052.113.105.172.156l158.273 136.802-144.351 124.769c-19.527-3.419-38.425-8.599-56.526-15.344v-360.404zm0 412.305c13.132 4.171 26.589 7.637 40.328 10.344.19.213.381.426.58.633.152.159.307.312.462.465.138.136.275.274.416.408.212.201.428.395.646.587.058.051.113.105.172.156l129.567 111.99h-113.527c-13.549 0-24.53 10.984-24.53 24.532 0 13.549 10.981 24.532 24.53 24.532h179.422c2.196 0 4.322-.292 6.347-.833.031-.008.062-.018.094-.026.371-.101.739-.209 1.103-.327.078-.025.155-.053.232-.079.313-.104.624-.213.932-.33.119-.045.236-.093.354-.14.26-.104.519-.209.775-.322.153-.067.305-.137.457-.207.214-.099.426-.201.637-.306.181-.09.361-.182.54-.276.174-.092.346-.188.518-.284.202-.113.403-.227.602-.346.141-.085.281-.173.42-.261.218-.136.435-.272.649-.416.107-.072.212-.148.318-.222.747-.519 1.469-1.083 2.164-1.692.133-.117.269-.23.399-.35.15-.138.296-.281.443-.423.167-.16.334-.321.496-.486.127-.129.251-.262.376-.395.179-.189.355-.382.528-.578.058-.065.119-.126.176-.192.058-.067.111-.138.169-.206.147-.174.291-.35.434-.528.113-.142.226-.284.336-.428.133-.174.263-.352.392-.53.112-.154.224-.309.331-.466.115-.167.226-.336.336-.506.113-.173.226-.345.333-.52.096-.157.188-.315.281-.474.112-.191.224-.382.331-.576.081-.148.158-.299.237-.449.108-.207.217-.414.319-.623.07-.144.136-.291.203-.436.101-.218.202-.435.296-.655.063-.146.12-.296.18-.444.09-.222.18-.443.263-.667.057-.153.108-.309.162-.463.077-.222.155-.444.226-.668.05-.159.096-.321.143-.482.065-.223.131-.446.19-.67.043-.162.08-.326.119-.489.055-.229.11-.457.158-.687.033-.158.062-.318.092-.477.046-.24.09-.479.128-.719.024-.15.044-.302.065-.453.036-.254.069-.509.097-.764.015-.141.027-.282.04-.424.024-.269.046-.537.061-.806.008-.136.013-.272.019-.408.011-.274.019-.548.021-.822.001-.069.005-.136.005-.205 0-.075-.005-.149-.006-.224-.002-.257-.009-.513-.019-.77-.007-.168-.015-.335-.025-.502-.013-.219-.031-.437-.05-.655-.018-.202-.036-.403-.058-.603-.02-.175-.043-.35-.067-.525-.032-.236-.064-.472-.103-.706-.022-.137-.048-.272-.073-.408-.048-.265-.098-.529-.154-.792-.023-.107-.05-.214-.074-.322-.065-.283-.132-.565-.207-.845-.026-.096-.055-.191-.082-.288-.08-.284-.161-.568-.251-.848-.034-.106-.072-.211-.107-.317-.089-.265-.178-.528-.275-.789-.051-.137-.108-.273-.162-.41-.089-.225-.177-.45-.272-.671-.077-.179-.16-.356-.241-.533-.08-.175-.158-.351-.242-.523-.106-.219-.22-.435-.333-.65-.067-.128-.132-.258-.201-.385-.134-.245-.276-.487-.419-.728-.056-.095-.11-.191-.168-.285-.154-.251-.315-.499-.478-.746-.055-.083-.108-.167-.164-.249-.161-.237-.33-.471-.5-.704-.067-.091-.132-.184-.201-.274-.159-.21-.324-.417-.49-.624-.09-.111-.179-.224-.27-.333-.148-.177-.301-.352-.455-.525-.122-.138-.243-.275-.368-.41-.132-.143-.267-.283-.403-.423-.158-.164-.318-.325-.48-.484-.114-.111-.229-.22-.346-.33-.194-.182-.391-.361-.591-.537-.053-.046-.102-.095-.155-.141l-131.013-113.24c44.49-.443 110.7-3.914 173.248-17.922v117.496c0 81.228-66.083 147.311-147.313 147.311h-1.713c-81.23 0-147.314-66.083-147.314-147.311v-116.886zm-49.06-75.117c-25.359-14.781-48.382-32.932-68.42-53.797 19.877-20.727 42.844-38.882 68.42-53.745zm0-520.316v108.138c-25.565-14.837-48.768-33.091-68.943-54.1 20.012-20.863 43.156-39.12 68.943-54.038zm-152.281 260.385c0-1.651-.163-3.263-.47-4.823.971-59.296 19.859-115.715 52.611-163.269 28.788 28.997 62.629 53.236 100.14 71.355v193.612c-37.738 18.239-71.29 42.402-99.667 71.021-33.219-48.109-52.614-105.852-52.614-167.896z"/><path d="m1994.228 2185.425c0 194.324 162.868 352.417 363.062 352.417 95.172 0 319.944-13.148 351.529-134.936 3.398-13.115-4.473-26.502-17.59-29.903-13.103-3.403-26.507 4.468-29.905 17.587-18.794 72.471-175.529 98.187-304.034 98.187-171.483 0-311.3-133.484-313.964-298.548.312-1.555.47-3.161.47-4.805 0-61.033 19.025-119.227 52.67-168.076 28.652 28.857 62.314 52.993 99.61 71.082v136.46c0 108.282 88.094 196.375 196.373 196.375h1.718c108.28 0 196.373-88.093 196.373-196.375v-131.191c57.809-19.881 105.469-51.917 118.786-103.266.518-2.011.782-4.079.782-6.157v-10.175c0-2.078-.264-4.147-.782-6.158-11.782-45.446-51.728-80.079-118.786-103.123v-183.771c57.579-19.894 104.999-51.89 118.277-103.088.519-2.011.782-4.08.782-6.158v-10.175c0-2.078-.264-4.147-.782-6.158-11.757-45.332-51.531-79.904-118.277-102.945v-92.538c0-108.282-88.094-196.376-196.373-196.376h-1.718c-108.28 0-196.373 88.093-196.373 196.376v97.126c-37.95 18.267-71.677 42.513-100.181 71.254-33.216-48.107-52.608-105.848-52.608-167.888 0-167.27 140.863-303.352 314.002-303.352s314.002 136.083 314.002 303.352c0 13.549 10.981 24.532 24.53 24.532s24.53-10.983 24.53-24.532c0-194.324-162.869-352.417-363.062-352.417-200.194 0-363.062 158.093-363.062 352.417 0 76.909 25.516 148.139 68.756 206.143-43.792 58.897-68.756 130.703-68.756 206.329 0 1.776.187 3.509.547 5.176 1.119 74.932 26.452 144.278 68.727 200.981-42.796 57.561-67.616 127.441-68.727 201.134-.359 1.672-.546 3.405-.546 5.183zm596.314-680.476c31.292 12.902 61.218 32.173 70 60.098v3.347c-8.089 25.869-34.078 45.609-70 60.239zm0 412.256c31.517 12.919 61.688 32.252 70.508 60.313v3.348c-8.127 25.991-34.323 45.796-70.508 60.446zm-49.06-34.674c-.002.244-.005.488 0 .731v173.556c-51.761 12.73-113.194 18.604-170.31 19.392l128.071-110.697c5.603-4.843 8.474-11.666 8.485-18.532.002-.102 0-.205 0-.307-.001-.102.002-.205 0-.307-.011-6.866-2.881-13.689-8.485-18.532l-157.949-136.522 94.101-81.335c33.427-2.544 70.367-7.135 106.089-15.171v187.724zm-296.345-409.608c0-.082.001-.165 0-.247v-112.688c0-81.228 66.083-147.311 147.313-147.311h1.718c81.23 0 147.313 66.083 147.313 147.311v110.209c-.002.245-.005.491 0 .735v173.288c-12.774 3.157-26.14 5.894-39.891 8.24.056-.064.115-.123.171-.187.011-.013.022-.027.033-.04.244-.283.479-.572.709-.863.022-.028.045-.055.067-.083.507-.651.978-1.322 1.411-2.012.003-.005.007-.01.01-.015.188-.3.366-.604.541-.91.03-.053.063-.104.093-.157.123-.221.237-.445.353-.669.073-.142.152-.281.222-.424.04-.081.075-.163.114-.244 1.513-3.145 2.312-6.528 2.407-9.92.001-.035.004-.07.005-.105.005-.2.001-.4.001-.6s.004-.4-.001-.6c-.001-.035-.004-.07-.005-.105-.095-3.391-.894-6.775-2.407-9.92-.039-.081-.074-.163-.114-.244-.071-.142-.149-.282-.222-.424-.116-.224-.23-.448-.353-.669-.03-.053-.063-.105-.093-.157-.174-.306-.353-.61-.541-.91-.003-.005-.007-.01-.01-.015-.433-.689-.904-1.361-1.411-2.012-.022-.028-.045-.055-.067-.083-.229-.292-.465-.58-.709-.864-.011-.013-.021-.027-.033-.04-.081-.093-.165-.18-.247-.271-.173-.194-.346-.389-.526-.579-.208-.219-.421-.429-.635-.639-.069-.067-.135-.137-.205-.203-.377-.362-.764-.709-1.159-1.042l-157.698-136.303 157.949-136.522c.054-.046.104-.096.157-.143.199-.175.395-.353.588-.535.117-.109.233-.219.347-.331.162-.159.322-.32.48-.483.136-.14.272-.281.405-.424.124-.134.245-.271.366-.408.154-.174.307-.349.456-.526.092-.11.181-.223.271-.335.166-.206.331-.413.49-.623.068-.09.134-.183.2-.274.17-.233.339-.466.5-.703.057-.084.111-.169.167-.254.162-.245.322-.491.474-.74.059-.096.114-.195.172-.292.142-.24.283-.48.416-.724.069-.127.134-.256.201-.384.113-.216.226-.431.333-.649.085-.175.164-.353.245-.53.08-.175.162-.35.238-.526.097-.225.186-.454.276-.682.052-.133.107-.264.157-.398.099-.263.189-.53.279-.798.034-.103.072-.206.105-.309.09-.282.173-.568.253-.854.026-.094.055-.187.08-.281.075-.281.143-.565.208-.85.024-.106.05-.211.073-.317.057-.264.107-.53.155-.796.024-.134.05-.268.072-.403.039-.236.071-.473.103-.711.023-.173.046-.346.066-.52.022-.202.041-.405.059-.608.019-.217.036-.433.05-.65.01-.168.018-.337.025-.507.01-.255.017-.509.02-.764 0-.076.006-.151.006-.228 0-.07-.005-.139-.005-.209-.002-.271-.01-.541-.021-.812-.006-.14-.012-.279-.02-.418-.016-.266-.037-.531-.061-.796-.013-.145-.026-.29-.041-.434-.027-.252-.061-.503-.096-.755-.021-.154-.042-.308-.066-.461-.038-.238-.082-.475-.127-.713-.031-.161-.06-.323-.093-.483-.048-.228-.103-.455-.158-.683-.039-.164-.077-.328-.12-.491-.059-.223-.124-.444-.189-.666-.048-.163-.094-.326-.145-.488-.07-.221-.147-.44-.223-.659-.055-.157-.107-.315-.165-.471-.082-.221-.171-.44-.26-.659-.061-.15-.12-.302-.183-.451-.093-.218-.193-.433-.293-.648-.068-.148-.135-.296-.206-.443-.101-.208-.209-.413-.317-.619-.079-.151-.156-.302-.238-.451-.106-.193-.218-.383-.329-.573-.094-.16-.187-.32-.284-.478-.107-.174-.219-.345-.332-.517-.111-.17-.222-.341-.337-.508-.108-.157-.22-.312-.332-.467-.128-.177-.258-.354-.39-.528-.11-.144-.223-.287-.337-.429-.142-.178-.286-.354-.433-.527-.058-.068-.111-.138-.169-.206-.063-.073-.13-.141-.194-.213-.143-.162-.288-.321-.435-.479-.138-.148-.277-.295-.418-.439-.131-.133-.263-.264-.397-.394-.165-.161-.331-.321-.5-.477-.11-.102-.223-.201-.335-.301-.195-.173-.39-.345-.59-.511-.092-.077-.187-.151-.28-.227-.22-.178-.442-.355-.667-.524-.082-.062-.167-.121-.25-.182-.237-.174-.475-.345-.717-.51-.089-.06-.179-.118-.269-.177-.238-.157-.476-.312-.718-.46-.115-.071-.234-.137-.35-.206-.217-.128-.434-.256-.655-.376-.168-.092-.34-.179-.51-.267-.171-.088-.341-.179-.513-.263-.237-.116-.478-.224-.719-.333-.109-.049-.217-.1-.327-.148-.305-.132-.615-.255-.926-.375-.048-.019-.095-.039-.143-.057-.355-.134-.715-.259-1.078-.377-.006-.002-.011-.004-.017-.006-1.095-.354-2.223-.631-3.379-.829-.027-.004-.054-.01-.081-.014-.337-.057-.676-.105-1.017-.148-.065-.008-.13-.017-.195-.025-.303-.036-.609-.064-.916-.089-.107-.009-.214-.017-.321-.024-.272-.018-.546-.031-.821-.04-.142-.005-.284-.009-.427-.011-.132-.002-.262-.01-.394-.01h-179.422c-13.549 0-24.53 10.983-24.53 24.532s10.981 24.532 24.53 24.532h113.527l-129.305 111.763c-.4.337-.791.688-1.172 1.054-.062.059-.121.121-.182.181-.221.216-.441.433-.655.659-.181.19-.353.385-.527.58-.081.091-.166.177-.246.27-.011.013-.021.027-.032.04-.245.284-.48.573-.71.865-.021.028-.045.054-.066.082-.507.651-.978 1.322-1.411 2.011-.003.005-.007.01-.01.016-.187.298-.365.601-.538.906-.031.054-.065.107-.095.161-.122.219-.235.441-.35.662-.075.144-.154.286-.226.431-.039.078-.072.157-.11.235-1.52 3.156-2.32 6.551-2.412 9.954-.001.026-.003.052-.004.078-.005.2 0 .401 0 .601s-.004.401 0 .601c.001.027.003.053.004.079.092 3.405.894 6.803 2.416 9.96.036.075.069.152.106.228.073.148.154.292.23.439.114.219.225.438.345.654.031.056.066.111.098.167.172.303.349.604.535.901.003.005.007.01.01.016.433.689.904 1.36 1.411 2.011.022.028.045.055.067.083.229.292.464.58.709.864.011.013.022.027.033.04.057.066.119.127.176.193.211.238.425.475.646.707.153.16.31.314.467.47.136.135.271.27.411.402.213.202.431.398.65.592.058.051.111.104.169.154l157.949 136.52-29.884 25.83c-19.765 1.201-39.452 1.771-58.517 1.771-39.497 0-77.304-7.102-112.153-20.02v-170.885h.001zm0 412.696c0-.103.001-.205 0-.307v-189.618c35.245 11.137 72.841 17.171 111.857 17.202l-68.991 59.632c-.4.336-.79.688-1.172 1.054-.063.061-.123.124-.186.185-.219.215-.438.431-.651.656-.181.19-.353.385-.527.58-.081.091-.166.177-.246.27-.011.013-.021.026-.032.04-.245.284-.48.573-.71.865-.021.027-.045.054-.066.081-.507.651-.978 1.322-1.411 2.012-.003.005-.007.01-.01.015-.187.298-.365.601-.538.906-.031.054-.065.107-.095.161-.122.218-.235.44-.35.662-.075.144-.154.286-.226.431-.038.077-.072.156-.109.233-1.521 3.156-2.321 6.552-2.413 9.956-.001.026-.003.052-.004.078-.005.2 0 .401 0 .601s-.004.401 0 .602c.001.026.003.052.004.078.092 3.403.893 6.798 2.412 9.954.037.078.071.158.11.235.072.146.152.289.227.434.114.22.226.441.348.659.031.057.067.112.099.168.172.302.348.603.534.899.005.007.01.014.014.022.432.687.902 1.357 1.407 2.006.022.028.045.055.067.083.229.292.464.58.709.864.011.013.022.027.033.04.057.066.119.127.176.193.211.239.425.476.646.707.153.16.31.314.466.469.136.135.272.271.412.404.213.202.43.397.649.59.058.051.112.104.17.155l158.273 136.802-144.351 124.769c-19.528-3.419-38.425-8.599-56.526-15.344v-170.484zm0 222.38c13.132 4.171 26.589 7.638 40.327 10.345.191.213.382.426.581.634.152.159.309.312.464.467.137.136.273.272.414.405.213.202.43.397.648.59.058.051.112.104.17.155l129.567 111.99h-113.527c-13.549 0-24.53 10.984-24.53 24.532 0 13.549 10.981 24.532 24.53 24.532h179.422c2.196 0 4.322-.292 6.347-.833.031-.008.061-.018.092-.026.372-.101.74-.209 1.105-.327.077-.025.154-.052.231-.078.313-.105.625-.214.932-.331.118-.044.236-.093.354-.139.26-.104.519-.21.775-.322.153-.067.305-.137.458-.207.213-.099.425-.2.635-.305.181-.09.361-.182.541-.277.174-.093.346-.188.518-.284.202-.113.403-.227.602-.346.141-.084.28-.172.419-.26.218-.136.436-.273.651-.417.106-.071.209-.146.314-.219.749-.52 1.473-1.085 2.17-1.697.132-.116.267-.229.396-.347.15-.137.295-.281.443-.422.167-.161.334-.321.497-.486.127-.129.252-.262.377-.396.178-.189.354-.381.526-.576.058-.066.119-.127.177-.193.058-.068.111-.138.169-.206.147-.173.291-.35.433-.527.114-.143.227-.285.337-.429.133-.174.262-.35.39-.528.112-.155.224-.31.332-.467.115-.167.226-.338.337-.508.112-.171.224-.343.332-.517.097-.157.19-.317.284-.478.112-.19.223-.38.329-.573.082-.148.159-.299.238-.45.108-.206.216-.412.318-.621.071-.146.137-.294.205-.441.1-.216.2-.431.293-.649.064-.149.122-.3.183-.45.089-.22.178-.439.26-.661.058-.155.11-.312.165-.469.076-.22.154-.44.224-.662.051-.161.097-.324.144-.487.065-.222.131-.443.189-.667.042-.162.08-.327.12-.49.055-.228.109-.455.158-.684.034-.16.063-.322.093-.483.045-.237.089-.475.127-.713.024-.153.044-.307.066-.461.035-.251.069-.503.096-.755.016-.144.028-.289.041-.434.024-.265.045-.53.061-.796.008-.139.014-.278.02-.418.011-.271.018-.542.021-.812 0-.07.005-.139.005-.209 0-.076-.005-.151-.006-.228-.002-.255-.009-.509-.02-.764-.007-.169-.015-.338-.025-.507-.013-.217-.031-.434-.05-.65-.018-.203-.036-.406-.059-.608-.02-.173-.043-.347-.066-.52-.032-.238-.065-.476-.103-.711-.022-.134-.048-.268-.072-.402-.048-.267-.098-.533-.155-.797-.023-.106-.049-.211-.073-.317-.065-.285-.133-.569-.208-.85-.025-.094-.053-.187-.079-.28-.081-.287-.163-.573-.253-.855-.033-.104-.07-.206-.105-.31-.09-.267-.18-.534-.279-.797-.05-.133-.104-.265-.157-.397-.09-.229-.179-.458-.276-.683-.076-.177-.158-.351-.238-.526-.081-.177-.16-.354-.245-.529-.106-.218-.219-.433-.332-.648-.068-.129-.133-.259-.202-.386-.133-.243-.273-.483-.415-.722-.058-.098-.113-.196-.172-.293-.152-.249-.312-.494-.473-.739-.056-.085-.111-.171-.168-.255-.161-.237-.329-.47-.499-.702-.067-.092-.133-.185-.201-.275-.158-.21-.323-.417-.489-.622-.091-.113-.18-.226-.273-.336-.148-.177-.3-.351-.454-.524-.122-.138-.244-.275-.368-.411-.132-.142-.267-.282-.402-.421-.159-.164-.319-.326-.482-.486-.114-.11-.229-.219-.344-.328-.194-.183-.391-.361-.591-.538-.053-.046-.102-.095-.156-.141l-131.013-113.24c44.49-.443 110.703-3.914 173.253-17.923v117.497c0 81.228-66.083 147.311-147.313 147.311h-1.718c-81.23 0-147.313-66.083-147.313-147.311v-116.894h-.002zm-49.06-75.115c-25.358-14.781-48.38-32.93-68.418-53.794 19.876-20.726 42.843-38.88 68.418-53.744zm0-520.313v108.132c-25.562-14.836-48.764-33.089-68.937-54.096 20.01-20.862 43.152-39.118 68.937-54.036zm-152.281 260.382c0-1.644-.158-3.247-.47-4.799.971-59.304 19.861-115.732 52.618-163.291 28.786 28.995 62.626 53.233 100.134 71.351v193.617c-37.737 18.239-71.289 42.402-99.666 71.02-33.221-48.11-52.616-105.853-52.616-167.898z"/><path d="m1136.936 2185.425c0 194.324 162.868 352.417 363.067 352.417 95.173 0 319.944-13.148 351.524-134.936 3.398-13.115-4.478-26.502-17.59-29.903-13.103-3.417-26.507 4.473-29.905 17.587-18.79 72.474-175.524 98.187-304.029 98.187-171.474 0-311.286-133.477-313.969-298.526.312-1.56.475-3.175.475-4.826 0-61.031 19.022-119.223 52.663-168.07 28.653 28.857 62.318 52.993 99.618 71.081v136.455c0 108.282 88.094 196.375 196.374 196.375h1.713c108.28 0 196.373-88.093 196.373-196.375v-131.189c57.811-19.881 105.473-51.917 118.791-103.267.518-2.011.782-4.079.782-6.157v-10.175c0-2.078-.264-4.147-.782-6.16-11.791-45.448-51.733-80.082-118.791-103.121v-183.769c57.58-19.894 105.001-51.89 118.277-103.089.518-2.011.782-4.08.782-6.158v-10.175c0-2.078-.264-4.147-.782-6.158-11.758-45.333-51.529-79.908-118.277-102.948v-92.535c0-108.282-88.093-196.376-196.373-196.376h-1.713c-108.28 0-196.374 88.093-196.374 196.376v97.124c-37.952 18.267-71.68 42.514-100.186 71.256-33.216-48.108-52.608-105.848-52.608-167.888 0-167.27 140.863-303.352 314.007-303.352 173.139 0 314.002 136.083 314.002 303.352 0 13.549 10.981 24.532 24.53 24.532s24.53-10.983 24.53-24.532c0-194.324-162.868-352.417-363.062-352.417-200.198 0-363.067 158.093-363.067 352.417 0 76.909 25.516 148.139 68.756 206.142-43.792 58.897-68.756 130.703-68.756 206.33 0 1.786.187 3.525.552 5.203 1.118 74.926 26.449 144.265 68.719 200.961-42.787 57.554-67.604 127.423-68.719 201.106-.365 1.674-.552 3.416-.552 5.201zm596.314-680.479c31.292 12.902 61.218 32.174 70 60.101v3.347c-8.088 25.87-34.077 45.61-70 60.24zm0 412.259c31.517 12.918 61.689 32.251 70.513 60.316v3.345c-8.127 25.992-34.325 45.797-70.513 60.448zm-49.06-34.677c-.002.245-.005.49 0 .735v173.557c-51.76 12.729-113.19 18.603-170.305 19.391l128.071-110.697c5.603-4.843 8.474-11.666 8.485-18.532.002-.102-.001-.205 0-.307-.001-.102.002-.205 0-.307-.011-6.866-2.882-13.689-8.485-18.532l-157.949-136.522 94.101-81.335c33.425-2.544 70.364-7.135 106.084-15.17v187.719zm-296.34-522.539c0-81.228 66.083-147.311 147.313-147.311h1.713c81.23 0 147.313 66.083 147.313 147.311v110.661c0 .054-.001.108 0 .162v173.411c-12.773 3.156-26.137 5.894-39.886 8.238.056-.063.115-.123.171-.187.011-.013.021-.027.032-.04.245-.284.481-.573.71-.865.021-.027.045-.054.066-.081.507-.651.978-1.322 1.411-2.011.003-.005.007-.01.01-.016.188-.3.366-.604.541-.91.03-.052.063-.104.092-.157.122-.218.234-.439.349-.66.075-.145.155-.288.227-.434.037-.075.07-.152.106-.228 1.519-3.15 2.32-6.54 2.415-9.938.001-.034.004-.068.005-.103.005-.2.001-.4.001-.6s.004-.4-.001-.6c-.001-.034-.004-.068-.005-.102-.095-3.398-.896-6.788-2.415-9.938-.036-.075-.069-.152-.106-.228-.072-.146-.152-.289-.227-.434-.115-.221-.227-.442-.349-.66-.03-.053-.062-.104-.092-.156-.174-.306-.353-.611-.541-.91-.003-.005-.007-.01-.01-.016-.433-.689-.904-1.36-1.411-2.011-.021-.027-.044-.054-.066-.081-.23-.293-.466-.582-.71-.865-.011-.013-.021-.026-.032-.04-.076-.088-.157-.171-.235-.258-.179-.201-.356-.401-.543-.597-.189-.199-.383-.389-.577-.581-.09-.088-.176-.178-.267-.265-.368-.352-.745-.692-1.13-1.017l-157.717-136.319 157.949-136.522c.054-.047.104-.096.158-.144.198-.175.393-.352.586-.533.117-.11.234-.221.349-.333.162-.158.321-.319.479-.482.136-.141.272-.282.405-.425.124-.134.244-.27.365-.406.155-.175.309-.35.458-.529.091-.11.18-.221.27-.333.167-.206.332-.414.49-.624.068-.09.133-.182.2-.273.171-.233.34-.467.501-.705.055-.082.108-.165.162-.247.164-.248.325-.496.479-.748.057-.094.111-.189.167-.284.143-.242.285-.484.42-.73.069-.126.134-.255.2-.383.113-.217.227-.433.334-.652.084-.172.162-.348.242-.523.081-.177.165-.354.241-.533.096-.224.185-.451.275-.678.052-.134.108-.266.158-.401.098-.262.188-.528.278-.794.035-.104.073-.208.106-.313.089-.28.171-.563.251-.847.027-.097.056-.193.082-.29.075-.279.142-.562.207-.844.025-.107.051-.214.074-.322.056-.262.106-.526.154-.791.025-.136.051-.272.073-.409.038-.234.071-.469.103-.706.024-.175.047-.35.067-.525.022-.2.041-.401.059-.603.019-.218.036-.437.05-.655.01-.167.018-.334.024-.502.01-.256.017-.513.02-.769.001-.075.006-.15.006-.225 0-.069-.005-.137-.005-.207-.002-.273-.01-.545-.021-.818-.006-.137-.011-.274-.019-.411-.016-.269-.037-.537-.061-.806-.013-.141-.025-.283-.04-.423-.028-.255-.061-.51-.097-.764-.021-.151-.041-.303-.065-.453-.038-.24-.083-.48-.128-.719-.03-.159-.059-.319-.092-.478-.048-.229-.103-.457-.158-.685-.039-.164-.077-.327-.119-.49-.059-.225-.125-.448-.191-.672-.047-.16-.092-.321-.142-.48-.071-.223-.148-.445-.225-.666-.054-.156-.106-.312-.164-.467-.082-.222-.172-.442-.261-.663-.06-.149-.118-.299-.182-.446-.094-.22-.195-.438-.296-.656-.067-.145-.132-.291-.202-.434-.102-.21-.211-.417-.32-.625-.078-.149-.155-.3-.236-.448-.107-.194-.219-.385-.332-.577-.093-.158-.184-.316-.28-.472-.109-.176-.222-.35-.336-.524-.11-.168-.22-.337-.334-.502-.109-.158-.221-.313-.334-.469-.128-.177-.257-.353-.39-.527-.11-.144-.223-.287-.337-.429-.142-.178-.286-.354-.433-.527-.058-.068-.111-.138-.169-.206-.062-.073-.129-.14-.192-.211-.146-.165-.294-.327-.444-.488-.133-.142-.267-.283-.402-.422-.139-.142-.281-.281-.423-.42-.155-.151-.311-.301-.469-.447-.125-.115-.251-.227-.378-.339-.179-.159-.359-.317-.543-.47-.112-.094-.226-.184-.34-.276-.2-.161-.401-.322-.605-.476-.107-.081-.218-.159-.326-.238-.212-.154-.424-.308-.64-.455-.118-.081-.24-.158-.36-.237-.208-.136-.416-.272-.627-.402-.15-.092-.302-.179-.454-.267-.183-.107-.365-.215-.55-.316-.206-.114-.417-.22-.626-.328-.133-.068-.264-.138-.397-.203-.275-.135-.554-.261-.834-.386-.072-.032-.142-.066-.214-.097-.34-.147-.684-.285-1.031-.417-.013-.005-.026-.01-.039-.015-1.445-.546-2.956-.957-4.517-1.223-.015-.003-.031-.006-.046-.008-.345-.058-.692-.108-1.042-.151-.058-.007-.115-.015-.173-.022-.309-.036-.619-.065-.931-.09-.103-.008-.206-.017-.309-.023-.275-.018-.551-.031-.827-.041-.141-.005-.282-.008-.423-.011-.132-.002-.262-.01-.395-.01h-179.422c-13.549 0-24.53 10.983-24.53 24.532s10.981 24.532 24.53 24.532h113.527l-129.288 111.749c-.409.344-.809.703-1.198 1.077-.04.039-.078.079-.118.117-.241.235-.481.473-.715.719-.175.184-.341.372-.51.56-.085.096-.174.187-.258.284-.011.013-.021.027-.032.04-.247.285-.484.576-.715.871-.02.025-.041.05-.061.075-.507.651-.978 1.322-1.411 2.012-.003.006-.007.011-.011.016-.187.298-.365.601-.538.906-.031.054-.065.107-.095.161-.124.221-.238.446-.354.671-.073.141-.151.28-.221.421-.04.082-.076.165-.115.247-1.517 3.152-2.315 6.544-2.407 9.943-.001.026-.003.052-.004.078-.005.2-.001.401-.001.601s-.004.401.001.601c.001.027.003.053.004.079.092 3.401.892 6.795 2.411 9.949.038.079.073.16.112.24.072.145.151.286.225.43.115.221.228.444.35.662.031.056.066.111.098.167.172.303.349.604.535.901.003.005.007.01.011.016.433.689.904 1.361 1.411 2.012.02.025.042.05.062.076.231.294.468.584.714.869.011.013.022.027.033.041.058.067.119.128.178.194.21.238.423.474.644.705.153.161.311.315.467.47.136.135.271.271.411.403.213.202.43.396.648.589.058.051.112.105.171.155l157.949 136.52-29.884 25.83c-19.765 1.201-39.452 1.771-58.517 1.771-39.497 0-77.304-7.101-112.153-20.019v-283.82h-.005zm0 335.706c35.245 11.137 72.841 17.17 111.857 17.201l-68.974 59.617c-.409.344-.808.703-1.198 1.077-.042.04-.081.082-.123.122-.24.234-.479.47-.711.716-.175.184-.341.373-.51.56-.085.096-.174.187-.258.284-.011.013-.021.027-.032.04-.247.285-.484.576-.715.871-.02.025-.041.05-.061.075-.507.651-.978 1.323-1.412 2.012-.003.005-.007.01-.01.016-.187.298-.365.601-.538.906-.031.054-.064.107-.095.161-.124.221-.238.446-.354.67-.073.141-.151.28-.221.421-.04.081-.075.164-.114.245-1.517 3.153-2.316 6.545-2.408 9.945-.001.026-.003.052-.004.078-.005.2-.001.401-.001.601s-.004.401.001.602c.001.026.003.052.004.078.092 3.399.891 6.791 2.407 9.943.039.082.075.165.115.247.071.143.149.283.222.424.115.223.229.447.352.667.032.057.067.112.099.168.172.302.348.603.534.899.005.007.01.015.014.022.432.688.902 1.357 1.408 2.006.02.026.042.051.062.076.231.294.468.584.714.869.011.013.022.027.033.04.058.067.119.128.178.194.21.238.423.474.644.705.153.16.31.314.467.469.137.135.272.271.413.404.212.201.428.396.646.588.058.052.113.105.172.156l158.273 136.802-144.351 124.769c-19.528-3.419-38.425-8.599-56.526-15.344zm0 412.306c13.132 4.17 26.589 7.637 40.328 10.344.19.213.381.425.579.633.152.159.309.312.464.467.137.136.273.272.415.406.212.201.428.395.646.588.058.051.113.105.172.156l129.567 111.99h-113.527c-13.549 0-24.53 10.984-24.53 24.532 0 13.549 10.981 24.532 24.53 24.532h179.422c2.196 0 4.322-.292 6.347-.833.031-.008.062-.018.094-.026.371-.101.739-.209 1.103-.327.078-.025.155-.053.232-.079.313-.104.624-.213.932-.33.119-.045.236-.093.354-.14.26-.104.519-.209.774-.322.153-.067.305-.137.457-.207.214-.099.426-.201.636-.306.181-.09.361-.182.54-.276.174-.092.347-.188.518-.284.202-.113.403-.227.602-.346.141-.085.28-.173.42-.261.218-.136.435-.272.649-.416.107-.072.212-.148.318-.222.748-.519 1.471-1.084 2.167-1.694.132-.116.267-.229.396-.347.15-.137.296-.281.443-.422.167-.161.334-.321.497-.486.127-.129.252-.262.377-.396.178-.189.354-.381.526-.576.058-.066.119-.127.177-.193.058-.068.111-.138.169-.206.147-.173.291-.35.433-.527.114-.143.227-.285.337-.429.133-.173.262-.35.39-.527.113-.156.225-.312.334-.47.114-.166.224-.333.334-.502.114-.174.227-.348.336-.524.096-.155.188-.313.28-.472.112-.191.225-.383.332-.577.081-.147.157-.297.236-.446.109-.208.218-.416.321-.626.07-.143.135-.288.202-.432.101-.218.202-.437.297-.657.063-.147.121-.296.181-.445.09-.221.179-.441.262-.664.057-.154.109-.31.163-.464.077-.223.155-.445.226-.668.05-.158.095-.319.142-.479.066-.224.132-.447.191-.672.042-.162.08-.326.119-.489.055-.229.11-.457.158-.687.033-.158.062-.318.092-.477.046-.24.09-.479.128-.719.024-.15.044-.302.065-.453.036-.254.069-.509.097-.764.015-.141.027-.282.04-.424.024-.269.046-.537.061-.806.008-.137.013-.273.019-.411.011-.273.019-.545.021-.818 0-.069.005-.137.005-.207 0-.075-.005-.149-.006-.225-.002-.256-.009-.513-.02-.769-.007-.168-.014-.335-.024-.502-.013-.219-.031-.437-.05-.655-.018-.202-.036-.403-.059-.603-.02-.175-.043-.35-.067-.525-.031-.236-.064-.472-.103-.706-.022-.137-.048-.272-.073-.408-.048-.265-.098-.529-.154-.792-.023-.107-.05-.214-.074-.322-.065-.283-.132-.565-.207-.845-.026-.096-.055-.191-.082-.288-.08-.284-.162-.568-.251-.848-.034-.105-.071-.209-.106-.314-.089-.266-.179-.532-.278-.794-.05-.134-.105-.267-.158-.4-.09-.227-.178-.455-.275-.678-.077-.179-.16-.356-.241-.533-.08-.175-.158-.351-.242-.523-.106-.219-.22-.435-.333-.65-.067-.128-.132-.258-.201-.385-.134-.245-.276-.487-.419-.728-.056-.095-.11-.191-.168-.285-.154-.251-.315-.499-.478-.746-.055-.083-.108-.167-.164-.249-.161-.237-.33-.471-.5-.704-.067-.091-.133-.184-.201-.274-.159-.21-.323-.417-.49-.624-.09-.111-.179-.224-.271-.334-.148-.178-.302-.352-.456-.526-.121-.138-.243-.274-.367-.409-.132-.143-.267-.283-.402-.422-.158-.164-.318-.325-.481-.484-.114-.111-.23-.221-.347-.331-.193-.181-.389-.36-.588-.535-.053-.046-.103-.096-.156-.142l-131.013-113.24c44.489-.443 110.7-3.914 173.248-17.922v117.496c0 81.228-66.083 147.311-147.313 147.311h-1.713c-81.23 0-147.313-66.083-147.313-147.311zm-49.06-75.117c-25.359-14.781-48.382-32.932-68.42-53.797 19.877-20.727 42.844-38.882 68.42-53.745zm0-520.316v108.137c-25.564-14.837-48.768-33.09-68.942-54.099 20.01-20.863 43.154-39.12 68.942-54.038zm-152.281 260.385c0-1.651-.163-3.263-.47-4.823.971-59.296 19.859-115.716 52.612-163.269 28.788 28.997 62.629 53.236 100.139 71.355v193.613c-37.738 18.239-71.29 42.402-99.667 71.021-33.22-48.11-52.614-105.853-52.614-167.897z"/></g></g></svg>