<svg id="Capa_1" enable-background="new 0 0 3000 3000" height="512" viewBox="0 0 3000 3000" width="512" xmlns="http://www.w3.org/2000/svg"><g><g fill="rgb(0,0,0)"><path d="m2784.409 85.355h-2568.818c-118.878 0-215.591 96.716-215.591 215.595v191.449c0 53.544 36.169 98.795 85.358 112.611v2285.102c0 13.549 10.981 24.532 24.53 24.532h2780.225c13.549 0 24.53-10.983 24.53-24.532v-2285.103c49.187-13.816 85.357-59.066 85.357-112.609v-191.45c0-118.879-96.713-215.595-215.591-215.595zm81.173 2780.225h-2731.164v-207.698h2731.165zm0-256.763h-2731.164v-1741.726h2731.165zm0-1790.79h-2731.164v-208.68h2731.165zm85.358-325.627c0 37.431-30.457 67.883-67.888 67.883h-2766.109c-37.431 0-67.883-30.452-67.883-67.883v-191.45c0-91.825 74.708-166.531 166.531-166.531h2568.819c91.823 0 166.531 74.706 166.531 166.531v191.45z"/><path d="m406.627 2505.869h155.693c111.822 0 202.791-90.973 202.791-202.793v-495.534c0-111.822-90.969-202.795-202.791-202.795h-155.693c-111.822 0-202.79 90.973-202.79 202.795v495.534c0 111.82 90.968 202.793 202.79 202.793zm-153.731-698.327c0-84.768 68.963-153.73 153.731-153.73h155.693c84.768 0 153.731 68.963 153.731 153.73v495.534c0 84.768-68.963 153.728-153.731 153.728h-155.693c-84.768 0-153.731-68.961-153.731-153.728z"/><path d="m317.912 1252.347c-.012.012-.023.024-.035.036-.267.27-.529.547-.785.831-.019.021-.038.044-.057.066-.244.273-.483.551-.716.836-.03.036-.057.074-.087.11-.219.271-.434.546-.642.829-.039.053-.075.108-.114.161-.193.267-.384.535-.568.811-.067.101-.129.205-.195.307-.149.231-.299.461-.441.699-.207.346-.405.697-.594 1.053-.026.048-.048.098-.073.146-.166.316-.326.635-.478.957-.006.013-.012.024-.018.037-.046.098-.085.197-.129.295-.115.254-.229.508-.336.766-.079.192-.151.385-.225.578-.067.174-.135.347-.198.522-.088.245-.168.491-.247.738-.04.125-.082.249-.12.374-.085.28-.163.56-.238.841-.025.095-.052.19-.077.286-.076.297-.143.595-.207.893-.019.086-.038.173-.056.26-.061.299-.114.599-.163.899-.015.094-.031.187-.046.28-.044.287-.081.574-.114.862-.013.115-.027.23-.039.345-.027.262-.048.524-.066.787-.01.148-.02.295-.028.443-.011.227-.019.454-.024.681-.004.187-.008.375-.008.562 0 .188.003.375.008.562.005.227.012.453.024.68.008.148.018.296.028.443.018.262.039.524.066.787.012.115.025.23.039.345.033.287.071.575.114.862.014.094.03.187.046.28.049.3.103.6.163.899.017.086.037.172.056.259.064.299.132.597.207.894.024.095.051.19.076.285.075.281.152.562.238.842.038.125.08.25.121.374.079.246.159.492.247.737.063.176.132.35.199.525.074.192.145.384.224.575.106.258.221.513.337.768.044.097.083.196.128.293.005.01.01.019.015.029.231.492.483.976.746 1.452.057.104.115.206.174.308.255.446.521.887.804 1.317.015.023.029.047.044.07.285.429.589.848.902 1.26.09.119.182.236.274.353.279.354.567.702.866 1.042.047.053.092.11.139.163.333.37.681.728 1.038 1.079.113.111.228.22.343.329.288.272.583.538.885.797.094.081.186.165.281.244.376.312.764.614 1.161.906.129.095.26.184.391.276.29.204.585.403.885.595.151.097.302.195.456.289.376.229.759.451 1.15.662.141.076.283.147.425.22.272.14.544.281.823.411l198.572 93.071h-188.161c-13.549 0-24.53 10.984-24.53 24.532 0 13.549 10.981 24.532 24.53 24.532h298.11c.06 0 .12.005.18.005.149 0 .296-.013.445-.016.347-.006.694-.016 1.037-.037.19-.011.38-.027.569-.043.383-.032.764-.072 1.142-.121.113-.015.226-.027.338-.043 1.099-.158 2.173-.391 3.22-.689.015-.004.031-.009.046-.013 1.091-.313 2.15-.699 3.173-1.154.012-.005.024-.011.036-.016.51-.228 1.013-.471 1.504-.732.006-.003.012-.006.018-.009.473-.252.937-.519 1.391-.801.091-.056.18-.116.27-.173.334-.213.663-.434.986-.663.134-.095.269-.188.402-.286.365-.27.723-.547 1.072-.836.17-.14.334-.288.5-.434.202-.177.402-.355.598-.539.181-.169.361-.338.537-.512.268-.266.53-.539.786-.817.179-.195.353-.396.527-.597.198-.229.391-.462.581-.698.126-.158.253-.316.376-.478.296-.389.582-.786.854-1.193.048-.072.093-.146.141-.219.275-.42.537-.85.786-1.288.028-.05.057-.098.085-.148.687-1.225 1.271-2.514 1.743-3.857.016-.046.031-.092.047-.138.111-.322.217-.647.314-.975.035-.116.066-.232.099-.348.072-.254.142-.508.205-.766.048-.193.09-.385.134-.579.04-.18.08-.359.116-.541.055-.274.102-.547.147-.821.017-.105.036-.21.052-.316.053-.352.097-.703.134-1.055.004-.036.009-.072.012-.108.169-1.668.168-3.335-.002-4.977 0-.003 0-.007-.001-.01-.032-.307-.073-.614-.117-.919-.016-.115-.028-.23-.046-.344-.01-.067-.025-.133-.036-.199-.497-3.053-1.558-5.916-3.072-8.48-.033-.056-.064-.114-.098-.17-.124-.206-.255-.408-.385-.61-.092-.143-.181-.288-.275-.429-.077-.115-.158-.226-.237-.339-.155-.223-.31-.446-.472-.664-.021-.028-.042-.054-.063-.081-1.485-1.978-3.286-3.745-5.368-5.226-.185-.132-.369-.267-.557-.394-.014-.01-.029-.019-.044-.028-1.084-.726-2.231-1.364-3.428-1.912l-250.709-117.507 250.716-117.51c1.189-.545 2.328-1.179 3.405-1.899.02-.013.042-.026.062-.04.18-.121.354-.249.53-.375 2.096-1.486 3.907-3.263 5.4-5.252.018-.024.038-.048.056-.072.165-.221.322-.447.479-.673.077-.11.156-.218.231-.33.096-.144.187-.291.28-.437.129-.2.258-.4.38-.604.035-.058.066-.117.1-.175 1.512-2.563 2.572-5.423 3.069-8.474.011-.068.026-.135.036-.203.018-.114.03-.229.046-.343.043-.306.085-.612.117-.92 0-.003 0-.007.001-.01.17-1.642.171-3.31.002-4.977-.004-.036-.009-.072-.012-.109-.037-.352-.081-.703-.134-1.055-.016-.106-.035-.211-.052-.317-.045-.274-.092-.547-.146-.82-.036-.182-.077-.362-.116-.542-.043-.193-.085-.385-.133-.577-.064-.258-.134-.513-.205-.767-.033-.115-.064-.231-.098-.346-.098-.329-.204-.654-.315-.977-.016-.046-.03-.091-.046-.136-.549-1.566-1.25-3.06-2.09-4.462-.01-.017-.019-.034-.029-.051-.148-.246-.304-.487-.461-.728-.075-.115-.146-.234-.223-.347-.017-.025-.035-.049-.052-.074-1.764-2.604-3.975-4.784-6.476-6.486-.04-.028-.079-.057-.12-.084-.215-.145-.435-.282-.655-.42-.128-.081-.255-.164-.384-.242-.137-.083-.278-.16-.417-.24-.216-.124-.43-.249-.65-.367-.056-.03-.114-.058-.171-.087-2.047-1.079-4.264-1.879-6.602-2.345-1.683-.339-3.406-.498-5.141-.476h-297.985c-13.549 0-24.53 10.984-24.53 24.532 0 13.549 10.981 24.532 24.53 24.532h188.162l-198.423 92.998c-2.636 1.213-5.065 2.892-7.149 4.992z"/><path d="m317.91 2181.697c-.009.009-.017.018-.026.027-.27.273-.535.552-.793.839-.018.02-.035.041-.052.06-.246.275-.487.555-.721.843-.026.032-.051.066-.077.099-.222.275-.44.554-.651.84-.035.048-.067.097-.102.145-.197.272-.392.546-.58.828-.058.087-.111.177-.168.265-.158.245-.317.489-.467.741-.206.345-.404.696-.593 1.051-.028.053-.054.109-.082.162-.162.311-.32.623-.469.94-.006.013-.013.025-.019.038-.048.102-.089.206-.135.308-.113.249-.225.498-.329.75-.081.196-.154.393-.229.589-.065.17-.132.339-.193.51-.089.249-.17.498-.251.748-.039.121-.08.241-.117.362-.087.283-.165.568-.241.852-.024.092-.05.183-.073.275-.076.301-.145.602-.209.904-.018.083-.037.166-.053.249-.061.302-.115.604-.165.907-.015.091-.03.181-.044.272-.044.29-.082.579-.115.869-.013.113-.027.226-.038.339-.027.264-.048.528-.066.792-.01.146-.02.293-.028.439-.011.228-.019.455-.024.683-.004.187-.008.374-.008.561 0 .188.003.374.008.561.005.228.012.455.024.683.008.146.017.292.028.438.018.265.04.53.067.795.011.111.025.222.037.333.034.292.072.584.116.876.013.087.028.174.042.261.05.307.105.614.167.92.016.077.033.154.049.23.066.309.136.618.215.925.021.081.043.162.065.243.079.296.16.592.251.887.032.104.067.207.1.311.086.268.173.536.269.803.051.143.108.284.161.426.086.226.17.451.263.676.083.201.174.399.262.599.066.148.126.298.195.445.007.015.016.029.023.044.226.479.47.95.727 1.414.066.119.133.237.2.354.241.42.492.835.758 1.242.03.046.058.094.089.14.277.417.573.823.876 1.224.099.13.199.259.3.387.265.335.538.665.821.987.06.069.118.141.179.209.327.364.67.715 1.02 1.061.12.118.242.234.364.349.278.263.563.519.855.77.102.088.201.179.305.264.372.31.756.608 1.15.897.134.098.271.191.406.287.284.2.574.395.868.584.155.1.309.2.467.296.37.226.748.444 1.134.653.147.08.297.155.446.231.269.138.538.278.815.407l198.572 93.071h-188.164c-13.549 0-24.53 10.983-24.53 24.532s10.981 24.532 24.53 24.532h298.11c.06 0 .12.005.18.005.149 0 .296-.013.445-.016.347-.006.694-.016 1.037-.037.19-.011.38-.027.569-.043.383-.031.764-.072 1.142-.121.113-.015.226-.027.338-.043 1.099-.158 2.173-.391 3.22-.689.015-.004.031-.009.046-.013 1.091-.313 2.15-.699 3.173-1.154.012-.005.024-.011.036-.016.51-.228 1.013-.47 1.504-.732.006-.003.012-.006.018-.009.473-.252.937-.52 1.391-.801.091-.056.18-.116.27-.173.334-.213.663-.434.986-.663.134-.095.269-.188.402-.286.365-.27.723-.547 1.072-.836.17-.141.334-.288.5-.434.202-.177.402-.355.598-.539.181-.169.361-.338.537-.512.268-.266.53-.539.786-.817.179-.195.353-.396.527-.597.198-.229.391-.461.581-.698.126-.158.253-.316.376-.478.296-.389.582-.786.854-1.193.048-.072.093-.146.141-.219.275-.42.537-.85.786-1.288.028-.05.057-.098.085-.148.687-1.225 1.271-2.513 1.742-3.856.016-.047.031-.094.047-.14.111-.322.216-.646.314-.974.035-.116.066-.232.099-.348.072-.254.142-.508.205-.766.048-.193.09-.386.134-.579.04-.18.08-.359.116-.541.055-.273.102-.547.147-.821.017-.105.036-.21.052-.316.053-.352.097-.704.134-1.056.004-.036.009-.072.012-.108.169-1.668.168-3.335-.002-4.978 0-.003 0-.007-.001-.01-.032-.308-.073-.614-.117-.919-.016-.115-.028-.23-.046-.344-.01-.067-.025-.133-.036-.2-.497-3.052-1.557-5.913-3.07-8.476-.034-.058-.066-.117-.1-.175-.123-.204-.252-.404-.38-.604-.093-.146-.184-.293-.28-.437-.075-.112-.154-.219-.231-.33-.157-.226-.314-.452-.479-.673-.018-.024-.037-.048-.056-.072-1.492-1.989-3.304-3.766-5.4-5.252-.176-.125-.35-.253-.53-.375-.02-.013-.042-.026-.062-.04-1.077-.72-2.216-1.354-3.405-1.899l-250.716-117.51 250.914-117.605c.283-.133.558-.275.834-.417.134-.069.268-.136.401-.207.397-.214.784-.438 1.165-.671.152-.093.301-.189.45-.285.303-.195.601-.395.893-.601.128-.091.258-.179.385-.272.398-.292.787-.594 1.164-.908.094-.078.185-.161.278-.241.303-.26.6-.527.888-.801.114-.108.227-.215.339-.325.357-.352.706-.71 1.039-1.081.047-.053.092-.109.139-.163.299-.339.587-.688.866-1.042.092-.117.184-.234.274-.354.313-.412.616-.83.901-1.259.016-.023.029-.048.045-.071.283-.43.548-.87.803-1.316.059-.103.117-.206.175-.31.263-.476.514-.958.745-1.449.005-.01.011-.02.016-.031.048-.103.089-.207.136-.311.112-.248.224-.496.328-.748.081-.195.153-.391.228-.586.065-.171.133-.341.195-.514.089-.249.17-.498.251-.748.039-.121.08-.24.117-.362.086-.282.165-.566.24-.85.025-.093.051-.186.075-.279.076-.3.144-.6.209-.9.018-.084.037-.167.054-.252.061-.302.115-.604.165-.907.015-.091.03-.181.044-.272.044-.289.082-.578.115-.868.013-.114.027-.227.038-.341.027-.263.048-.526.066-.789.01-.147.02-.294.028-.441.012-.228.019-.456.024-.684.004-.187.007-.373.008-.56 0-.187-.003-.374-.008-.56-.005-.228-.013-.456-.024-.685-.008-.147-.017-.293-.028-.439-.018-.264-.04-.528-.066-.792-.011-.112-.025-.224-.038-.336-.034-.292-.072-.583-.116-.875-.013-.087-.028-.174-.043-.261-.05-.307-.105-.614-.167-.92-.016-.078-.033-.155-.05-.233-.066-.308-.136-.615-.214-.921-.021-.083-.045-.166-.067-.249-.078-.295-.16-.589-.25-.882-.032-.105-.068-.208-.101-.313-.085-.267-.172-.533-.268-.799-.052-.146-.11-.289-.165-.434-.085-.223-.168-.447-.26-.669-.083-.202-.174-.401-.263-.601-.066-.147-.125-.296-.194-.443-.009-.019-.019-.037-.028-.056-.124-.263-.257-.522-.391-.781-.053-.103-.102-.209-.156-.311-.187-.352-.383-.699-.588-1.041-.132-.222-.272-.436-.411-.652-.077-.12-.15-.242-.229-.361-.161-.242-.33-.477-.498-.711-.063-.088-.123-.178-.188-.266-.178-.241-.364-.476-.55-.709-.062-.078-.121-.158-.184-.235-.192-.235-.39-.462-.589-.688-.064-.073-.126-.148-.192-.22-.203-.225-.413-.443-.623-.66-.068-.07-.134-.142-.203-.212-.217-.218-.44-.429-.665-.638-.068-.063-.134-.129-.203-.192-.237-.216-.48-.424-.725-.629-.062-.052-.121-.106-.184-.157-.276-.227-.557-.446-.841-.66-.035-.026-.068-.053-.102-.079-1.344-1-2.781-1.854-4.287-2.557l-250.879-117.587 250.716-117.51c1.191-.546 2.333-1.181 3.412-1.904.018-.012.036-.022.053-.034.182-.122.359-.252.537-.379 2.094-1.486 3.903-3.261 5.394-5.248.018-.024.037-.047.055-.071.165-.221.322-.447.479-.673.077-.11.156-.218.231-.33.096-.144.187-.291.28-.437.129-.2.258-.399.38-.604.035-.058.066-.117.1-.175 1.512-2.562 2.572-5.423 3.069-8.473.011-.068.026-.135.036-.203.018-.114.03-.229.046-.344.043-.306.085-.612.117-.92 0-.003 0-.007.001-.01.17-1.642.171-3.31.002-4.977-.004-.036-.008-.072-.012-.109-.037-.352-.081-.703-.134-1.055-.016-.106-.034-.211-.052-.316-.045-.274-.092-.547-.146-.821-.036-.182-.077-.362-.116-.542-.043-.193-.085-.385-.133-.577-.064-.258-.134-.513-.205-.767-.033-.115-.064-.231-.098-.346-.098-.328-.203-.653-.315-.975-.016-.046-.031-.092-.047-.138-.549-1.565-1.25-3.059-2.09-4.461-.01-.017-.019-.034-.029-.051-.148-.246-.304-.487-.461-.728-.075-.115-.146-.234-.223-.347-.017-.025-.035-.049-.052-.074-1.753-2.588-3.947-4.755-6.429-6.453-.059-.04-.116-.083-.175-.123-.196-.132-.396-.256-.595-.382-.148-.094-.294-.19-.444-.28-.115-.069-.232-.133-.348-.2-.239-.139-.478-.277-.722-.408-.027-.014-.055-.027-.082-.042-2.159-1.148-4.51-1.98-6.993-2.44-1.561-.293-3.154-.435-4.759-.42h-298.046c-13.549 0-24.53 10.983-24.53 24.532s10.981 24.532 24.53 24.532h188.162l-198.498 93.036c-1.887.875-3.667 1.991-5.289 3.329-.02.016-.039.033-.058.05-.287.239-.571.483-.848.736-.035.032-.069.066-.104.098-.258.238-.513.48-.761.73-.043.043-.083.088-.126.131-.236.241-.47.485-.697.737-.046.051-.09.104-.135.156-.217.245-.432.493-.641.748-.053.064-.102.131-.154.197-.196.245-.39.491-.577.744-.062.084-.12.172-.181.257-.17.237-.34.473-.502.717-.099.148-.19.3-.285.45-.118.186-.239.368-.352.558-.208.348-.407.701-.598 1.059-.021.039-.039.079-.059.118-.171.325-.335.652-.491.984-.006.012-.012.024-.018.036-.045.096-.083.194-.127.291-.115.256-.231.511-.338.771-.079.191-.15.383-.224.575-.067.175-.136.349-.199.525-.088.245-.167.49-.247.736-.04.125-.083.249-.121.375-.085.28-.163.56-.238.841-.025.096-.052.19-.077.286-.076.297-.143.595-.207.893-.019.087-.038.173-.056.26-.061.299-.114.599-.163.899-.015.094-.031.187-.046.28-.044.287-.081.574-.114.862-.013.115-.027.23-.039.345-.027.262-.048.524-.066.787-.01.148-.02.295-.028.444-.011.227-.019.454-.024.68-.004.187-.008.375-.008.562 0 .188.003.375.008.562.005.227.012.453.024.68.008.148.018.296.028.443.018.262.039.524.066.787.012.115.025.23.039.345.033.288.071.575.114.862.014.094.03.187.046.28.049.3.103.6.163.899.017.086.037.172.056.258.064.299.132.597.207.894.024.095.051.19.076.285.075.281.152.562.238.842.038.125.08.25.121.374.079.246.159.492.247.737.063.176.132.35.199.525.074.192.145.384.224.575.106.258.221.513.337.768.044.097.083.196.128.293.005.01.01.019.015.029.231.492.482.975.746 1.452.057.104.116.207.175.309.255.446.521.886.804 1.316.015.023.029.047.044.07.285.43.589.848.902 1.26.09.119.182.236.274.353.279.354.567.702.866 1.042.047.053.092.11.139.163.333.37.681.728 1.038 1.079.113.111.227.219.342.328.288.273.584.54.888.8.093.08.184.163.278.241.376.313.765.615 1.163.907.128.094.258.183.388.274.291.205.588.405.89.598.15.097.3.194.452.287.38.232.766.456 1.162.669.134.072.27.14.405.209.275.142.55.284.832.416l250.914 117.603-250.763 117.534c-2.637 1.22-5.067 2.899-7.153 5.002z"/><path d="m406.627 1536.063h155.693c111.822 0 202.791-90.973 202.791-202.795v-130.833c0-111.822-90.969-202.795-202.791-202.795h-155.693c-111.822 0-202.79 90.973-202.79 202.795v130.833c0 111.821 90.968 202.795 202.79 202.795zm-153.731-333.628c0-84.767 68.963-153.73 153.731-153.73h155.693c84.768 0 153.731 68.963 153.731 153.73v130.833c0 84.768-68.963 153.731-153.731 153.731h-155.693c-84.768 0-153.731-68.963-153.731-153.731z"/><path d="m1083.645 2505.869h155.694c111.822 0 202.79-90.973 202.79-202.793v-331.991c0-111.822-90.969-202.795-202.79-202.795h-155.694c-111.822 0-202.79 90.973-202.79 202.795v331.991c-.001 111.82 90.968 202.793 202.79 202.793zm-153.731-534.784c0-84.767 68.963-153.73 153.731-153.73h155.694c84.767 0 153.731 68.963 153.731 153.73v331.991c0 84.768-68.963 153.728-153.731 153.728h-155.694c-84.768 0-153.731-68.961-153.731-153.728z"/><path d="m987.936 1938.219c.032.306.073.611.116.915.016.115.028.232.046.347.01.067.025.133.036.2.497 3.052 1.557 5.913 3.07 8.476.034.058.066.117.1.175.123.204.252.404.38.604.093.146.184.293.28.437.074.111.153.219.229.328.157.227.315.454.481.676.016.022.034.043.05.065 1.493 1.991 3.305 3.769 5.402 5.256.177.126.352.255.532.376.019.013.04.025.059.038 1.078.721 2.218 1.354 3.407 1.9l250.718 117.511-250.796 117.55c-2.265 1.045-4.376 2.436-6.247 4.143-.018.017-.036.034-.054.051-.275.252-.546.511-.81.777-.028.028-.054.057-.081.085-.252.256-.499.516-.74.784-.031.034-.06.07-.091.104-.233.262-.463.527-.685.801-.036.044-.07.09-.106.135-.212.264-.422.531-.624.805-.046.062-.088.127-.134.189-.186.258-.371.516-.548.783-.08.12-.154.244-.231.365-.136.213-.274.424-.405.642-.207.347-.406.698-.595 1.055-.025.047-.047.095-.071.142-.166.317-.327.636-.479.96-.006.013-.013.025-.019.038-.047.1-.087.201-.132.302-.114.251-.227.503-.332.758-.079.192-.151.386-.225.579-.066.174-.135.346-.198.521-.088.247-.168.494-.249.742-.04.123-.081.245-.119.368-.086.281-.163.562-.239.844-.025.095-.052.189-.076.285-.076.299-.144.598-.208.898-.018.084-.037.168-.054.252-.061.301-.115.603-.164.904-.015.092-.031.184-.045.276-.044.289-.082.578-.115.867-.013.113-.026.226-.038.339-.027.264-.048.528-.066.792-.01.146-.02.293-.028.439-.011.228-.019.455-.024.683-.005.187-.008.374-.008.561 0 .188.003.374.008.561.005.228.012.455.024.683.008.146.017.292.027.438.018.265.04.53.067.795.011.112.025.223.038.334.033.292.071.583.116.874.014.089.029.177.043.266.05.306.105.612.167.917.016.078.034.156.05.234.065.307.135.613.213.919.022.085.046.17.068.255.078.292.159.585.248.876.033.107.069.213.103.32.085.265.171.529.266.792.053.148.112.294.167.442.084.221.166.442.257.661.085.206.177.408.268.611.064.145.123.29.19.434.007.015.015.028.022.043.226.481.472.952.729 1.418.064.117.13.232.197.348.243.423.495.841.763 1.25.028.042.053.086.081.128.279.42.577.829.882 1.232.098.129.197.257.297.384.266.337.54.667.824.991.06.068.116.139.176.206.328.365.671.717 1.022 1.063.119.117.24.231.361.346.28.265.567.523.86.775.1.086.198.176.3.26.373.31.758.609 1.152.899.133.098.268.19.402.284.286.201.577.397.873.587.154.099.307.198.463.293.373.227.752.447 1.141.656.144.078.29.151.436.226.271.139.541.279.819.409l198.573 93.071h-188.163c-13.549 0-24.53 10.984-24.53 24.532 0 13.549 10.981 24.532 24.53 24.532h298.11c.06 0 .12.005.18.005.148 0 .296-.013.444-.016.347-.006.694-.016 1.037-.037.19-.011.38-.027.569-.043.383-.031.764-.072 1.142-.121.113-.015.226-.027.338-.043 1.099-.158 2.173-.391 3.219-.689.016-.004.031-.009.047-.013 1.091-.313 2.15-.699 3.172-1.154.012-.005.024-.011.036-.016.51-.228 1.011-.47 1.501-.73.007-.004.014-.007.021-.011.473-.252.936-.519 1.389-.8.093-.057.183-.118.274-.176.332-.212.659-.432.98-.659.136-.096.272-.19.406-.289.364-.269.722-.546 1.07-.834.171-.141.336-.29.503-.436.201-.175.399-.353.594-.535.182-.17.363-.34.541-.516.261-.259.516-.525.766-.796.187-.203.369-.411.549-.621.196-.227.387-.457.575-.691.127-.16.255-.319.379-.482.295-.388.58-.784.852-1.19.049-.074.096-.15.144-.225.274-.418.534-.846.783-1.282.029-.051.058-.1.087-.151.686-1.224 1.27-2.512 1.741-3.854.017-.049.032-.097.049-.145.11-.32.215-.643.312-.969.035-.117.067-.235.1-.353.071-.252.14-.504.203-.76.049-.194.092-.389.135-.584.04-.178.08-.356.115-.537.054-.274.102-.548.147-.823.017-.105.036-.209.052-.315.053-.353.097-.706.135-1.059.003-.034.008-.069.012-.104.169-1.668.168-3.336-.002-4.979 0-.003 0-.007-.001-.01-.032-.307-.073-.613-.117-.918-.016-.115-.028-.231-.046-.346-.01-.066-.024-.13-.035-.196-.497-3.054-1.558-5.918-3.073-8.483-.033-.056-.064-.114-.098-.17-.123-.205-.253-.405-.382-.606-.093-.145-.183-.292-.279-.435-.074-.111-.153-.219-.23-.328-.157-.227-.315-.453-.48-.675-.018-.024-.036-.046-.054-.07-1.492-1.988-3.302-3.765-5.397-5.251-.177-.126-.353-.256-.534-.377-.02-.013-.04-.025-.06-.038-1.077-.72-2.216-1.354-3.403-1.899l-250.72-117.512 250.914-117.605c.28-.131.552-.272.824-.412.141-.072.281-.143.421-.218.393-.212.777-.434 1.153-.664.154-.094.304-.191.456-.289.3-.193.595-.391.884-.595.131-.092.263-.182.392-.277.397-.292.785-.593 1.161-.906.095-.079.187-.163.281-.244.302-.259.597-.524.884-.797.115-.109.23-.218.344-.33.356-.351.704-.708 1.036-1.077.049-.055.095-.113.144-.168.298-.338.584-.684.862-1.036.093-.118.185-.236.275-.355.312-.411.615-.828.9-1.257.017-.026.033-.053.05-.079.281-.427.545-.865.799-1.308.059-.104.119-.208.177-.313.263-.476.514-.958.744-1.449.005-.01.011-.02.016-.03.048-.102.089-.206.135-.308.113-.249.225-.498.329-.75.081-.196.154-.394.23-.591.065-.169.132-.338.193-.509.089-.249.17-.499.251-.749.039-.121.08-.241.117-.362.087-.283.165-.568.241-.852.024-.092.05-.183.073-.275.076-.301.145-.602.209-.904.018-.083.037-.166.053-.249.061-.302.115-.604.165-.907.015-.091.03-.181.044-.272.044-.29.082-.579.115-.869.013-.113.027-.226.038-.339.027-.264.048-.528.066-.792.01-.146.02-.293.028-.439.011-.228.019-.455.024-.683.004-.187.008-.374.008-.561 0-.188-.003-.374-.008-.561-.005-.228-.012-.455-.024-.683-.008-.146-.017-.292-.028-.438-.018-.265-.04-.53-.067-.795-.011-.111-.024-.222-.037-.333-.034-.292-.072-.584-.116-.876-.013-.087-.028-.174-.042-.261-.05-.307-.105-.614-.167-.92-.016-.077-.033-.154-.049-.23-.066-.309-.136-.618-.215-.925-.021-.081-.043-.162-.065-.243-.079-.296-.16-.592-.251-.887-.032-.104-.067-.207-.1-.311-.086-.268-.173-.536-.269-.803-.051-.143-.108-.284-.161-.426-.086-.226-.17-.451-.263-.676-.083-.201-.174-.399-.262-.599-.066-.148-.126-.298-.195-.445-.009-.019-.019-.037-.028-.056-.122-.257-.252-.511-.382-.764-.056-.109-.108-.221-.166-.329-.187-.351-.383-.697-.587-1.039-.134-.224-.276-.441-.416-.66-.075-.117-.146-.237-.224-.353-.157-.236-.321-.464-.485-.692-.069-.096-.134-.193-.203-.288-.171-.232-.35-.457-.528-.682-.069-.087-.136-.177-.207-.264-.184-.226-.375-.444-.566-.662-.072-.082-.142-.166-.215-.248-.194-.215-.394-.423-.595-.63-.078-.081-.154-.163-.233-.243-.204-.205-.415-.403-.625-.6-.082-.077-.161-.156-.245-.231-.22-.2-.445-.392-.672-.583-.08-.067-.157-.137-.238-.204-.25-.205-.505-.403-.762-.598-.062-.047-.121-.096-.184-.142-.314-.233-.633-.458-.957-.676-.008-.005-.016-.011-.024-.017-1.044-.699-2.137-1.315-3.269-1.844l-198.563-93.067h188.162c13.549 0 24.53-10.983 24.53-24.532s-10.981-24.532-24.53-24.532h-298.051c-1.672-.016-3.333.137-4.957.456-2.022.393-3.954 1.032-5.766 1.889-.018.008-.036.016-.053.024-.261.125-.518.257-.774.39-.105.054-.212.106-.317.162-.167.09-.331.186-.496.28-.192.109-.385.216-.575.33-.073.044-.144.092-.216.136-3.058 1.887-5.726 4.462-7.75 7.631-.124.194-.25.386-.369.583-.027.045-.052.093-.08.138-.821 1.381-1.508 2.85-2.048 4.389-.016.044-.03.089-.045.133-.112.324-.218.65-.316.98-.034.114-.065.229-.097.343-.072.255-.142.511-.206.77-.047.191-.09.383-.133.574-.04.182-.081.363-.117.546-.054.271-.101.543-.146.815-.017.107-.036.214-.052.322-.053.35-.096.701-.134 1.052-.004.037-.009.073-.012.111-.169 1.665-.168 3.329.001 4.969.006.01.006.016.006.024z"/><path d="m1083.645 1712.689h155.694c111.822 0 202.79-90.973 202.79-202.795v-307.459c0-111.822-90.969-202.795-202.79-202.795h-155.694c-111.822 0-202.79 90.973-202.79 202.795v307.459c-.001 111.822 90.968 202.795 202.79 202.795zm-153.731-510.254c0-84.767 68.963-153.73 153.731-153.73h155.694c84.767 0 153.731 68.963 153.731 153.73v307.459c0 84.768-68.963 153.73-153.731 153.73h-155.694c-84.768 0-153.731-68.963-153.731-153.73z"/><path d="m987.936 1153.214c.032.305.073.609.116.913.016.116.028.234.046.349.01.065.024.129.034.193.497 3.057 1.559 5.923 3.075 8.49.032.055.063.111.096.166.124.207.256.409.386.612.091.143.18.287.275.428.077.114.158.224.236.337.155.224.311.448.474.667.019.025.039.05.058.075 1.487 1.981 3.29 3.752 5.376 5.234.184.131.365.264.552.39.016.011.033.021.049.031 1.082.725 2.228 1.361 3.423 1.909l250.71 117.508-250.761 117.533c-2.279 1.048-4.404 2.445-6.285 4.162-.01.009-.019.018-.028.027-.284.26-.563.527-.835.801-.021.021-.04.042-.06.063-.258.262-.512.529-.759.804-.028.031-.054.063-.082.094-.236.265-.468.534-.694.811-.034.041-.065.084-.098.126-.214.267-.426.536-.63.813-.046.062-.088.126-.133.188-.187.258-.372.518-.549.785-.078.117-.149.238-.225.356-.138.216-.278.429-.41.651-.207.347-.406.699-.595 1.055-.023.044-.044.09-.068.134-.167.319-.33.641-.483.968-.006.013-.013.024-.019.037-.046.099-.086.199-.13.298-.114.253-.229.506-.334.763-.079.191-.15.384-.224.576-.067.175-.136.348-.199.524-.088.246-.168.493-.248.74-.04.123-.081.245-.119.369-.086.281-.163.562-.239.844-.025.095-.052.189-.076.284-.076.299-.144.598-.208.898-.018.084-.037.168-.054.252-.061.301-.115.602-.164.904-.015.092-.031.184-.045.277-.044.289-.081.577-.115.866-.013.113-.026.226-.038.339-.027.264-.048.528-.066.792-.01.146-.02.292-.028.439-.011.228-.019.455-.024.683-.005.187-.008.374-.008.561s.003.374.008.561c.005.228.012.456.024.684.008.146.017.292.027.438.018.265.04.53.067.795.011.111.025.222.038.334.033.291.071.582.116.873.014.089.029.178.043.267.05.306.105.611.167.917.016.078.033.155.05.233.065.307.135.614.213.92.021.085.045.169.068.253.078.293.159.586.248.878.033.107.069.212.103.318.085.265.171.53.266.793.053.148.112.294.167.442.084.221.166.442.257.661.085.206.177.408.268.611.064.145.123.29.19.434.007.015.015.029.022.043.226.48.472.952.729 1.417.065.117.131.233.197.349.243.423.495.841.763 1.249.028.042.053.086.081.128.279.42.576.829.882 1.231.098.13.198.258.298.385.265.336.538.666.822.988.06.069.117.141.178.208.327.364.67.716 1.021 1.061.12.118.241.233.362.348.279.264.565.521.858.773.101.087.199.177.302.262.373.31.757.608 1.151.898.133.098.27.191.405.286.285.201.576.396.871.586.154.099.308.198.464.294.371.226.749.445 1.135.653.147.08.297.155.446.231.269.138.538.277.814.407l198.572 93.071h-188.162c-13.549 0-24.53 10.983-24.53 24.532s10.981 24.532 24.53 24.532h298.11c.06 0 .12.005.18.005.148 0 .296-.013.444-.016.347-.006.694-.016 1.037-.037.19-.011.38-.027.569-.043.383-.031.764-.072 1.142-.121.113-.015.226-.027.338-.043 1.099-.158 2.173-.391 3.219-.689.016-.004.031-.009.047-.013 1.091-.313 2.151-.7 3.174-1.155l.033-.015c.511-.228 1.014-.471 1.505-.732.006-.003.012-.006.018-.009.473-.252.937-.519 1.391-.801.092-.057.181-.117.273-.175.333-.213.66-.433.982-.661.135-.095.271-.189.405-.288.365-.27.723-.547 1.072-.836.17-.14.334-.288.5-.434.202-.176.401-.355.597-.538.181-.169.362-.339.539-.514.266-.264.525-.534.778-.809.182-.198.359-.401.535-.606.197-.229.39-.46.579-.696.126-.159.253-.317.376-.479.295-.389.581-.785.853-1.192.049-.073.095-.149.143-.223.274-.419.535-.848.784-1.285.029-.05.058-.099.086-.15.686-1.224 1.271-2.512 1.741-3.855.017-.048.032-.096.049-.145.11-.321.215-.643.312-.969.035-.117.067-.234.1-.352.071-.252.141-.506.204-.762.048-.194.091-.387.134-.582.04-.179.08-.358.116-.539.054-.273.102-.547.146-.821.017-.105.036-.21.052-.316.053-.353.097-.705.134-1.058.004-.035.008-.07.012-.105.169-1.668.168-3.336-.002-4.979 0-.003 0-.006-.001-.01-.032-.308-.073-.614-.117-.92-.016-.114-.028-.23-.046-.343-.011-.068-.025-.135-.036-.203-.497-3.051-1.557-5.911-3.069-8.473-.034-.058-.066-.117-.101-.175-.123-.204-.252-.404-.38-.604-.093-.146-.184-.293-.28-.437-.074-.111-.153-.218-.229-.327-.157-.228-.315-.455-.481-.677-.016-.022-.034-.043-.05-.065-1.494-1.992-3.308-3.772-5.407-5.26-.175-.125-.349-.252-.528-.373-.02-.013-.04-.025-.06-.038-1.077-.72-2.216-1.353-3.403-1.898l-250.72-117.512 250.914-117.605c.283-.133.558-.275.833-.417.134-.069.268-.136.4-.207.397-.214.785-.438 1.167-.671.152-.093.301-.189.451-.285.302-.194.599-.394.891-.599.129-.091.26-.18.387-.273.398-.292.787-.594 1.164-.908.094-.078.184-.16.276-.24.304-.26.6-.527.889-.801.115-.108.229-.217.342-.328.356-.351.705-.709 1.037-1.079.048-.054.094-.111.142-.166.299-.339.586-.686.864-1.039.092-.117.184-.235.274-.354.312-.412.616-.829.901-1.258.017-.025.032-.051.048-.076.282-.428.547-.867.801-1.311.059-.103.117-.206.175-.31.263-.476.514-.958.745-1.45.005-.01.01-.02.015-.03.048-.102.088-.205.134-.307.113-.25.226-.499.33-.752.081-.195.153-.392.229-.588.065-.17.132-.34.194-.511.089-.249.17-.499.25-.748.039-.121.08-.241.117-.362.087-.283.165-.567.241-.852.025-.092.051-.183.074-.276.076-.3.145-.601.209-.902.018-.083.037-.167.054-.25.061-.302.115-.604.165-.906.015-.091.03-.182.044-.273.044-.289.082-.579.115-.868.013-.113.027-.226.038-.339.027-.264.048-.528.066-.792.01-.146.02-.293.028-.439.011-.228.019-.455.024-.683.004-.187.008-.374.008-.561s-.003-.374-.008-.561c-.005-.228-.012-.455-.024-.683-.008-.146-.018-.292-.028-.438-.018-.265-.04-.53-.067-.795-.011-.111-.024-.222-.037-.333-.034-.292-.072-.584-.116-.876-.013-.087-.028-.174-.042-.261-.05-.307-.105-.614-.167-.92-.016-.077-.033-.154-.049-.23-.066-.309-.136-.617-.215-.925-.021-.081-.043-.162-.065-.242-.079-.296-.16-.592-.251-.887-.032-.104-.067-.207-.1-.31-.086-.268-.173-.536-.269-.803-.051-.143-.107-.283-.161-.425-.086-.226-.17-.452-.263-.677-.083-.2-.173-.397-.26-.594-.067-.15-.127-.3-.197-.449-.009-.019-.019-.037-.028-.056-.123-.261-.255-.517-.387-.774-.054-.105-.105-.214-.16-.318-.188-.352-.384-.7-.589-1.043-.117-.196-.241-.385-.363-.576-.093-.146-.182-.295-.278-.439-.143-.215-.293-.423-.442-.632-.083-.116-.162-.235-.247-.35-.158-.214-.323-.421-.487-.629-.083-.106-.164-.213-.249-.318-.169-.207-.344-.406-.519-.607-.088-.101-.174-.204-.264-.304-.178-.197-.361-.387-.545-.577-.095-.098-.187-.198-.283-.295-.188-.188-.381-.369-.574-.551-.099-.093-.195-.188-.296-.279-.201-.183-.408-.359-.615-.534-.099-.084-.194-.17-.295-.252-.228-.188-.461-.367-.695-.545-.084-.064-.166-.131-.25-.194-.287-.213-.58-.418-.875-.618-.035-.024-.07-.05-.105-.074-1.039-.695-2.126-1.308-3.252-1.835l-198.572-93.07h188.162c13.549 0 24.53-10.984 24.53-24.532s-10.981-24.532-24.53-24.532h-298.051c-1.678-.016-3.344.138-4.973.458-2.016.393-3.943 1.032-5.75 1.886-.018.008-.036.016-.053.024-.26.124-.515.255-.769.387-.107.056-.216.108-.323.166-.165.089-.326.184-.489.276-.195.11-.39.219-.582.335-.071.043-.14.089-.21.132-3.062 1.888-5.732 4.466-7.758 7.639-.123.192-.248.383-.366.578-.028.047-.054.095-.082.142-.82 1.38-1.507 2.848-2.046 4.385-.016.045-.03.09-.046.135-.111.324-.218.649-.316.979-.034.115-.065.23-.098.345-.072.254-.142.509-.205.767-.048.192-.09.384-.133.577-.04.181-.081.361-.117.544-.054.272-.101.544-.146.817-.017.107-.036.213-.052.321-.053.351-.097.702-.134 1.053-.004.036-.009.073-.012.109-.169 1.665-.168 3.329.001 4.969-.003.011-.002.017-.002.025z"/><path d="m1760.662 2505.869h155.694c111.822 0 202.791-90.973 202.791-202.793v-495.534c0-111.822-90.969-202.795-202.791-202.795h-155.694c-111.822 0-202.79 90.973-202.79 202.795v495.534c0 111.82 90.968 202.793 202.79 202.793zm-153.731-698.327c0-84.768 68.963-153.73 153.731-153.73h155.694c84.768 0 153.731 68.963 153.731 153.73v495.534c0 84.768-68.963 153.728-153.731 153.728h-155.694c-84.767 0-153.731-68.961-153.731-153.728z"/><path d="m1674.688 1249.97c-.017.013-.034.027-.051.04-.301.226-.598.458-.89.698-.055.046-.108.094-.163.14-.25.21-.499.423-.741.644-.072.065-.14.133-.211.199-.221.206-.44.413-.654.627-.078.079-.153.16-.23.24-.201.207-.401.414-.594.629-.081.09-.157.182-.237.273-.183.208-.365.416-.541.632-.089.109-.172.221-.259.331-.16.202-.32.403-.474.611-.104.141-.201.286-.302.428-.129.182-.26.362-.384.548-.155.233-.302.471-.449.709-.063.102-.13.201-.191.304-.211.353-.413.71-.606 1.073-.008.015-.015.03-.022.044-.184.347-.359.697-.526 1.052-.006.012-.012.024-.018.036-.046.098-.085.197-.129.295-.115.254-.229.508-.336.766-.079.192-.15.385-.225.578-.066.174-.135.347-.198.522-.088.245-.168.491-.247.738-.04.125-.082.249-.12.374-.085.28-.163.56-.238.841-.025.095-.052.19-.077.286-.076.297-.143.595-.207.893-.019.086-.038.173-.056.26-.061.299-.114.599-.163.899-.015.094-.031.187-.046.28-.044.287-.081.574-.114.862-.013.115-.027.23-.039.345-.027.262-.048.524-.066.787-.01.148-.02.295-.028.443-.011.227-.019.454-.024.681-.004.187-.008.375-.008.562 0 .188.003.375.008.562.005.227.012.453.024.68.008.148.018.296.028.443.018.262.039.524.066.787.012.115.025.23.039.345.033.287.071.575.114.862.014.094.03.187.046.28.049.3.103.6.164.899.017.086.037.172.055.259.064.299.132.597.207.894.024.095.051.19.076.285.075.281.152.562.238.842.038.125.08.25.121.374.079.246.159.492.247.737.063.176.132.35.199.525.074.192.145.384.224.575.106.258.221.513.336.768.044.097.083.196.128.293.005.01.01.019.015.029.231.492.483.976.746 1.452.057.104.115.206.174.308.255.445.52.885.802 1.314.016.024.031.05.046.074.285.429.589.847.901 1.259.09.119.182.237.274.354.278.353.565.7.864 1.039.048.054.093.111.142.165.332.37.681.728 1.037 1.078.113.111.228.22.343.329.288.272.583.538.885.797.094.081.186.165.281.244.376.312.764.614 1.161.906.128.094.26.184.39.275.29.205.586.404.887.597.151.097.301.194.454.288.377.23.761.452 1.154.664.139.075.279.145.419.217.273.14.545.281.825.413l198.572 93.071h-188.162c-13.549 0-24.53 10.984-24.53 24.532 0 13.549 10.981 24.532 24.53 24.532h298.11c.06 0 .12.005.18.005.149 0 .296-.013.445-.016.347-.006.694-.016 1.037-.037.19-.011.38-.027.57-.043.383-.032.764-.072 1.142-.121.113-.015.226-.027.338-.043 1.099-.158 2.173-.391 3.22-.689.015-.004.031-.009.046-.013 1.091-.313 2.15-.699 3.172-1.154.012-.006.025-.011.037-.017.51-.228 1.013-.471 1.504-.732.005-.003.011-.006.016-.008.474-.252.938-.519 1.392-.801.091-.056.18-.116.271-.174.334-.213.662-.434.984-.662.135-.095.27-.188.403-.286.365-.27.722-.547 1.071-.836.17-.141.335-.29.502-.436.201-.176.4-.354.595-.536.181-.169.362-.338.538-.513.266-.264.526-.535.78-.811.181-.197.357-.4.533-.604.198-.229.392-.462.581-.698.126-.158.252-.315.375-.477.296-.389.582-.786.854-1.193.048-.072.093-.146.14-.219.276-.421.538-.851.787-1.29.028-.049.057-.097.084-.146.688-1.226 1.272-2.515 1.744-3.859.016-.044.03-.089.045-.133.112-.324.218-.65.316-.98.034-.115.065-.23.098-.345.072-.255.142-.51.206-.768.048-.192.09-.384.133-.576.04-.181.081-.362.117-.545.054-.271.101-.543.146-.815.017-.107.036-.214.052-.322.053-.351.096-.701.134-1.052.004-.037.009-.073.012-.11.169-1.665.168-3.329-.001-4.969-.001-.006-.001-.013-.002-.019-.032-.306-.073-.61-.116-.914-.016-.116-.028-.233-.046-.348-.01-.066-.024-.131-.035-.197-.497-3.054-1.558-5.918-3.073-8.483-.033-.056-.064-.114-.098-.17-.124-.206-.255-.408-.385-.61-.092-.143-.181-.288-.275-.429-.077-.114-.158-.225-.236-.337-.156-.224-.311-.448-.474-.667-.019-.025-.039-.05-.058-.075-1.487-1.981-3.29-3.751-5.376-5.234-.184-.131-.365-.264-.552-.39-.016-.011-.033-.021-.049-.032-1.083-.725-2.228-1.361-3.423-1.909l-250.71-117.508 250.717-117.511c1.187-.544 2.324-1.177 3.399-1.896.022-.015.045-.028.067-.043.178-.12.351-.247.525-.371 2.1-1.488 3.914-3.268 5.408-5.26.017-.022.034-.043.051-.066.165-.222.323-.449.481-.676.076-.109.155-.217.229-.328.096-.144.187-.291.28-.437.128-.2.258-.4.38-.604.035-.058.066-.117.101-.175 1.513-2.563 2.573-5.425 3.07-8.477.011-.067.025-.133.036-.199.018-.115.03-.231.046-.347.043-.304.084-.609.116-.915.001-.006.001-.013.002-.019.169-1.64.17-3.304.001-4.969-.004-.037-.009-.074-.012-.111-.037-.351-.081-.701-.134-1.051-.016-.108-.035-.215-.053-.323-.044-.272-.091-.543-.145-.814-.036-.183-.077-.365-.117-.546-.043-.192-.085-.383-.132-.574-.064-.258-.134-.514-.206-.769-.032-.114-.063-.229-.097-.343-.098-.33-.205-.657-.317-.982-.015-.044-.029-.088-.044-.131-.551-1.571-1.254-3.069-2.097-4.475-.007-.012-.014-.025-.021-.037-.153-.254-.314-.503-.476-.751-.07-.107-.136-.217-.207-.323-.027-.04-.056-.078-.083-.118-1.743-2.562-3.919-4.71-6.379-6.397-.067-.046-.133-.095-.2-.14-.188-.126-.379-.245-.57-.366-.157-.099-.312-.201-.471-.297-.107-.064-.216-.124-.323-.186-.246-.143-.492-.285-.744-.42-.023-.013-.048-.024-.071-.036-2.106-1.12-4.394-1.942-6.809-2.41-1.645-.323-3.327-.475-5.02-.454h-297.978c-13.549 0-24.53 10.984-24.53 24.532 0 13.549 10.981 24.532 24.53 24.532h188.162l-198.491 93.033c-1.527.703-2.982 1.567-4.341 2.579z"/><path d="m1674.687 2179.318c-.015.011-.03.023-.045.035-.303.227-.602.461-.895.702-.055.046-.108.094-.163.14-.25.21-.499.423-.741.644-.071.064-.138.132-.208.197-.222.207-.443.415-.658.631-.075.076-.147.155-.222.231-.203.209-.406.419-.602.637-.079.087-.154.178-.231.266-.184.21-.369.421-.547.639-.086.105-.167.213-.25.32-.163.206-.326.411-.482.623-.1.135-.193.274-.29.41-.133.188-.268.374-.396.566-.148.222-.288.45-.429.677-.07.112-.143.221-.211.335-.211.352-.412.709-.604 1.071-.011.02-.021.041-.031.062-.18.341-.353.686-.517 1.034-.006.013-.013.025-.019.038-.048.102-.089.206-.135.308-.113.249-.225.498-.329.75-.081.196-.154.393-.229.589-.065.17-.132.339-.194.51-.089.249-.17.498-.25.748-.039.121-.08.241-.117.362-.087.283-.165.568-.241.852-.024.092-.05.183-.073.275-.076.301-.145.602-.209.904-.018.083-.037.166-.053.249-.061.302-.115.604-.165.907-.015.091-.03.181-.044.272-.044.29-.082.579-.115.869-.013.113-.027.226-.038.339-.027.264-.048.528-.066.792-.01.146-.02.293-.028.439-.011.228-.019.455-.024.683-.004.187-.008.374-.008.561 0 .188.003.374.008.561.005.228.012.455.024.683.008.146.017.292.028.438.018.265.04.53.067.795.011.111.024.222.037.333.034.292.072.584.116.876.013.087.028.174.042.261.05.307.105.614.167.92.016.077.033.154.049.23.066.309.136.618.215.925.021.081.043.162.065.243.079.296.16.592.251.887.032.104.067.207.1.311.086.268.173.536.269.803.051.143.108.284.161.426.086.226.17.451.263.676.083.201.174.399.262.599.066.148.126.298.195.445.007.015.016.029.023.044.226.479.47.95.727 1.414.066.119.133.237.2.354.24.419.491.833.756 1.239.032.049.061.099.094.147.276.416.571.82.873 1.219.099.131.199.26.301.388.264.334.536.663.819.984.061.07.119.143.181.211.327.364.669.715 1.02 1.06.12.118.242.234.364.349.278.263.563.519.855.77.102.088.201.178.304.264.373.31.757.608 1.15.897.134.098.27.191.405.286.285.201.575.396.87.585.155.099.308.199.465.295.372.227.75.446 1.138.655.146.079.293.153.44.229.27.139.54.278.817.408l198.572 93.071h-188.162c-13.549 0-24.53 10.983-24.53 24.532s10.981 24.532 24.53 24.532h298.11c.06 0 .12.005.18.005.149 0 .296-.013.445-.016.347-.006.694-.016 1.037-.037.19-.011.38-.027.57-.043.383-.031.764-.072 1.142-.121.113-.015.226-.027.338-.043 1.099-.158 2.173-.391 3.22-.689.015-.004.031-.009.046-.013 1.091-.313 2.15-.699 3.172-1.154.012-.005.025-.011.037-.017.51-.228 1.013-.471 1.504-.732.005-.003.011-.005.016-.008.474-.252.938-.52 1.392-.801.091-.056.18-.116.271-.174.334-.213.662-.434.984-.662.135-.095.27-.189.403-.287.365-.269.722-.547 1.071-.835.17-.141.335-.29.502-.436.201-.176.4-.354.595-.536.181-.169.362-.338.538-.513.266-.264.526-.535.78-.811.181-.197.357-.4.533-.604.198-.229.392-.462.581-.698.126-.158.252-.316.375-.477.296-.389.582-.786.854-1.193.048-.072.093-.146.14-.219.276-.421.538-.851.787-1.29.028-.049.057-.097.084-.146.687-1.225 1.272-2.515 1.743-3.859.016-.045.03-.09.046-.135.111-.323.217-.649.315-.979.034-.115.065-.23.098-.345.072-.255.142-.51.206-.768.048-.191.09-.384.133-.575.04-.181.081-.362.117-.545.054-.271.101-.543.146-.816.017-.107.036-.214.052-.321.053-.351.096-.702.134-1.052.004-.037.009-.073.012-.11.169-1.665.168-3.329-.001-4.969-.001-.006-.001-.013-.002-.019-.032-.306-.073-.61-.116-.914-.016-.116-.028-.232-.046-.348-.01-.066-.024-.131-.035-.197-.497-3.053-1.557-5.915-3.07-8.479-.034-.058-.066-.117-.101-.175-.123-.204-.252-.404-.38-.604-.093-.146-.184-.293-.28-.437-.074-.111-.153-.219-.229-.328-.157-.227-.315-.454-.481-.676-.017-.022-.034-.044-.051-.066-1.494-1.993-3.308-3.772-5.408-5.26-.175-.125-.347-.251-.525-.371-.022-.015-.045-.028-.067-.043-1.075-.719-2.213-1.351-3.399-1.896l-250.718-117.511 250.914-117.605c.284-.133.559-.275.835-.417.132-.068.265-.134.396-.205.398-.214.787-.439 1.168-.672.152-.093.301-.189.45-.285.303-.195.601-.395.893-.601.128-.091.258-.179.385-.272.398-.292.787-.594 1.164-.908.094-.078.185-.161.278-.241.303-.26.6-.527.888-.801.114-.108.227-.215.339-.325.357-.352.706-.71 1.039-1.081.047-.053.092-.109.139-.162.3-.34.588-.688.867-1.043.092-.116.183-.233.272-.352.313-.412.617-.831.902-1.26.016-.023.03-.048.045-.071.283-.43.549-.871.804-1.317.058-.102.116-.204.174-.307.264-.477.515-.959.746-1.452l.015-.03c.047-.1.087-.201.132-.302.114-.251.227-.503.332-.758.079-.192.151-.386.225-.579.066-.174.135-.346.198-.521.088-.247.168-.494.249-.742.04-.123.081-.245.119-.368.086-.281.164-.562.239-.844.025-.095.052-.189.076-.285.076-.299.144-.598.208-.898.018-.084.037-.168.054-.252.061-.301.115-.603.165-.904.015-.092.031-.184.045-.276.044-.289.082-.578.115-.867.013-.113.027-.226.038-.339.027-.264.048-.528.066-.792.01-.146.02-.293.028-.439.011-.228.019-.455.024-.683.004-.187.007-.374.008-.561 0-.188-.003-.374-.008-.561-.005-.228-.013-.455-.024-.683-.008-.146-.017-.292-.027-.438-.018-.265-.04-.53-.067-.795-.011-.112-.025-.223-.038-.334-.033-.292-.071-.583-.116-.874-.014-.089-.029-.177-.043-.266-.05-.306-.104-.612-.167-.917-.016-.078-.034-.156-.05-.234-.065-.307-.135-.613-.213-.919-.022-.085-.046-.17-.068-.255-.078-.292-.159-.585-.248-.876-.033-.107-.069-.213-.103-.32-.085-.265-.171-.529-.266-.792-.053-.148-.112-.294-.167-.442-.084-.221-.166-.442-.257-.661-.085-.206-.177-.408-.268-.611-.064-.145-.123-.29-.19-.434-.009-.019-.019-.036-.027-.054-.127-.269-.263-.534-.399-.799-.05-.097-.096-.197-.148-.293-.188-.353-.384-.701-.59-1.044-.122-.204-.251-.401-.378-.6-.088-.138-.172-.278-.262-.414-.151-.227-.31-.448-.468-.668-.074-.103-.144-.208-.219-.31-.168-.228-.343-.449-.519-.67-.073-.092-.143-.185-.217-.276-.18-.221-.367-.434-.554-.647-.076-.087-.15-.176-.228-.262-.19-.211-.387-.415-.584-.618-.082-.084-.161-.171-.243-.254-.201-.202-.408-.396-.616-.591-.085-.08-.168-.162-.254-.24-.216-.196-.437-.384-.658-.571-.084-.072-.167-.145-.252-.216-.245-.201-.495-.395-.747-.586-.067-.051-.131-.103-.198-.153-.308-.229-.622-.45-.94-.664-.014-.009-.027-.02-.041-.029-1.042-.698-2.133-1.312-3.263-1.841l-250.91-117.601 250.717-117.511c1.189-.546 2.329-1.179 3.407-1.9.019-.013.04-.025.059-.038.18-.122.355-.25.532-.376 2.097-1.488 3.909-3.266 5.402-5.257.016-.022.034-.043.05-.065.165-.222.323-.449.481-.676.076-.11.155-.217.229-.328.096-.144.187-.291.28-.437.128-.2.258-.399.38-.604.035-.058.066-.117.101-.175 1.513-2.563 2.573-5.424 3.07-8.476.011-.067.025-.133.036-.2.018-.115.03-.231.046-.347.043-.304.084-.609.116-.915.001-.006.001-.013.002-.019.169-1.64.17-3.304.001-4.969-.004-.037-.009-.073-.012-.111-.037-.351-.081-.701-.134-1.052-.016-.108-.035-.214-.052-.322-.045-.272-.092-.543-.146-.815-.036-.183-.077-.365-.117-.546-.043-.192-.085-.383-.132-.574-.064-.258-.134-.514-.206-.769-.032-.115-.063-.229-.097-.344-.098-.33-.205-.656-.316-.98-.015-.044-.029-.089-.045-.133-.551-1.571-1.254-3.069-2.097-4.475-.007-.012-.014-.025-.021-.037-.153-.254-.314-.503-.476-.751-.07-.107-.136-.217-.207-.323-.027-.04-.056-.078-.084-.118-1.732-2.546-3.892-4.683-6.333-6.364-.085-.059-.169-.121-.255-.178-.168-.113-.341-.219-.512-.328-.176-.112-.351-.226-.53-.334-.084-.051-.171-.097-.256-.147-2.43-1.424-5.127-2.439-7.998-2.957-.214-.039-.426-.081-.641-.115-.006-.001-.013-.001-.019-.002-1.31-.202-2.639-.294-3.976-.281h-298.046c-13.549 0-24.53 10.983-24.53 24.532s10.981 24.532 24.53 24.532h188.162l-198.566 93.068c-1.13.529-2.222 1.143-3.264 1.841-.02.013-.038.028-.058.041-.311.21-.619.426-.921.651-.079.059-.155.121-.233.18-.239.182-.477.365-.71.557-.102.083-.199.171-.3.256-.204.174-.408.347-.607.528-.108.098-.212.2-.318.301-.185.174-.37.347-.55.527-.108.108-.211.221-.317.331-.171.178-.344.356-.51.54-.106.118-.207.239-.311.358-.158.182-.316.362-.469.549-.111.135-.216.275-.323.412-.138.176-.278.351-.412.532-.125.169-.243.343-.364.515-.108.155-.219.306-.324.464-.18.271-.352.547-.522.824-.039.064-.081.126-.12.19-.212.355-.415.715-.609 1.079-.002.004-.004.008-.006.011-.189.357-.369.718-.541 1.083-.006.012-.012.024-.018.036-.045.096-.083.194-.127.291-.115.256-.231.511-.337.771-.079.191-.15.383-.224.575-.067.175-.136.349-.199.525-.088.245-.167.49-.247.736-.04.125-.083.249-.121.375-.085.28-.163.56-.238.841-.025.096-.052.19-.077.286-.076.297-.143.595-.207.893-.019.087-.038.173-.056.26-.061.299-.114.599-.163.899-.015.094-.031.187-.046.28-.044.287-.081.574-.114.862-.013.115-.027.23-.039.345-.027.262-.048.524-.066.787-.01.148-.02.295-.028.444-.011.227-.019.454-.024.68-.004.187-.008.375-.008.562 0 .188.003.375.008.562.005.227.012.453.024.68.008.148.018.296.028.443.018.262.039.524.066.787.012.115.025.23.039.345.033.288.071.575.114.862.014.094.03.187.046.28.049.3.103.6.164.899.017.086.037.172.055.258.064.299.132.597.207.894.024.095.051.19.076.285.075.281.152.562.238.842.038.125.08.25.121.374.079.246.159.492.247.737.063.176.132.35.199.525.074.192.145.384.224.575.106.258.221.513.336.768.044.097.083.196.128.293.005.01.01.019.015.029.231.492.482.975.746 1.452.057.104.116.207.175.309.255.445.519.884.802 1.313.016.024.031.05.047.074.285.429.589.847.901 1.259.09.119.182.237.274.354.278.353.565.7.864 1.039.048.054.093.112.142.166.333.37.681.728 1.037 1.079.113.111.227.219.342.328.289.273.584.54.888.8.093.08.184.163.278.241.376.313.765.615 1.163.907.127.094.258.182.387.273.292.206.589.406.891.6.15.096.299.193.451.286.381.233.769.457 1.166.671.132.071.266.138.4.207.276.142.551.284.834.417l250.914 117.603-250.831 117.566c-1.529.706-2.986 1.57-4.346 2.583z"/><path d="m1760.662 1536.063h155.694c111.822 0 202.791-90.973 202.791-202.795v-130.833c0-111.822-90.969-202.795-202.791-202.795h-155.694c-111.822 0-202.79 90.973-202.79 202.795v130.833c0 111.821 90.968 202.795 202.79 202.795zm-153.731-333.628c0-84.767 68.963-153.73 153.731-153.73h155.694c84.768 0 153.731 68.963 153.731 153.73v130.833c0 84.768-68.963 153.731-153.731 153.731h-155.694c-84.767 0-153.731-68.963-153.731-153.731z"/><path d="m2437.679 2505.869h155.694c111.822 0 202.79-90.973 202.79-202.793v-331.991c0-111.822-90.969-202.795-202.79-202.795h-155.694c-111.822 0-202.791 90.973-202.791 202.795v331.991c.001 111.82 90.969 202.793 202.791 202.793zm-153.73-534.784c0-84.767 68.963-153.73 153.731-153.73h155.694c84.768 0 153.73 68.963 153.73 153.73v331.991c0 84.768-68.963 153.728-153.73 153.728h-155.694c-84.768 0-153.731-68.961-153.731-153.728z"/><path d="m2341.971 1938.216c.032.308.073.614.117.92.016.114.028.229.046.343.01.068.025.135.036.203.497 3.051 1.557 5.911 3.07 8.473.034.058.066.117.1.175.123.204.252.404.381.604.093.146.184.293.28.437.075.112.154.219.231.33.157.226.314.452.479.674.018.024.037.047.055.071 1.491 1.987 3.301 3.763 5.394 5.248.179.127.355.257.537.379.018.012.036.023.053.034 1.079.722 2.221 1.357 3.412 1.904l250.717 117.51-250.802 117.552c-1.899.878-3.69 1.997-5.323 3.343-.032.026-.062.054-.093.08-.274.229-.545.462-.81.703-.053.049-.104.099-.156.148-.239.222-.476.446-.707.678-.064.064-.125.131-.187.195-.215.22-.428.443-.635.672-.069.077-.134.156-.202.233-.194.221-.388.443-.575.672-.077.094-.15.192-.226.288-.17.216-.342.43-.506.653-.094.128-.183.26-.275.389-.137.194-.277.386-.41.585-.148.221-.287.448-.427.674-.07.113-.144.223-.213.337-.211.352-.412.709-.604 1.071-.01.018-.018.037-.028.055-.181.343-.355.69-.52 1.04-.006.013-.013.026-.019.039-.048.103-.09.207-.136.311-.112.248-.224.496-.328.748-.081.195-.153.391-.228.586-.065.171-.133.341-.195.514-.089.249-.17.498-.251.748-.039.121-.08.24-.116.362-.086.282-.165.566-.24.85-.025.093-.051.186-.075.279-.076.3-.144.6-.209.9-.018.084-.037.167-.054.252-.061.302-.115.604-.165.907-.015.091-.031.181-.044.272-.044.289-.082.578-.115.868-.013.114-.027.227-.038.341-.027.263-.048.526-.066.789-.01.147-.02.294-.028.441-.012.228-.019.456-.024.684-.004.187-.008.373-.008.56s.003.374.008.56c.005.228.013.456.024.685.008.147.017.293.028.439.018.264.04.528.066.792.011.112.025.224.038.336.034.292.072.583.116.875.013.087.028.174.042.261.05.307.105.614.167.92.016.078.033.155.05.233.066.308.136.615.214.921.021.083.045.166.067.249.078.295.16.589.25.882.032.105.068.208.101.313.085.267.172.533.268.799.052.146.11.289.165.434.085.223.168.447.26.669.083.202.174.401.263.601.066.147.125.296.194.443.007.015.016.029.022.044.226.48.471.951.728 1.416.065.118.131.234.198.35.242.423.495.84.762 1.249.028.042.053.087.081.129.279.42.576.828.882 1.231.098.13.198.258.298.385.266.336.54.667.823.99.06.068.116.139.177.206.328.365.671.717 1.022 1.063.119.117.24.231.361.346.28.265.567.523.86.775.1.086.198.176.3.26.373.31.758.609 1.152.899.133.098.269.19.403.285.286.201.576.396.872.586.154.099.308.199.465.294.371.227.75.445 1.137.654.146.079.294.153.441.229.27.139.54.279.817.408l198.572 93.071h-188.162c-13.549 0-24.53 10.984-24.53 24.532 0 13.549 10.981 24.532 24.53 24.532h298.11c.06 0 .12.005.18.005.149 0 .296-.013.445-.016.347-.006.694-.016 1.037-.037.19-.011.38-.027.569-.043.383-.031.764-.072 1.142-.121.113-.015.226-.027.338-.043 1.099-.158 2.173-.391 3.219-.689.015-.004.031-.009.046-.013 1.091-.313 2.15-.699 3.173-1.154.012-.005.024-.011.036-.016.51-.228 1.011-.47 1.501-.73.007-.004.014-.007.021-.011.473-.252.936-.519 1.39-.8.092-.057.182-.117.273-.175.333-.212.66-.432.981-.66.136-.096.272-.19.406-.289.364-.269.722-.546 1.071-.835.17-.141.334-.289.501-.434.201-.176.401-.355.596-.537.181-.169.362-.339.539-.514.264-.262.521-.53.773-.804.184-.2.363-.406.542-.613.196-.227.388-.458.576-.692.127-.159.255-.318.378-.482.295-.389.58-.785.853-1.191.049-.073.094-.148.142-.222.274-.419.535-.848.784-1.284.029-.051.059-.1.087-.151.686-1.224 1.27-2.512 1.741-3.854.017-.049.032-.097.049-.145.11-.32.215-.643.312-.969.035-.117.067-.235.1-.353.071-.252.14-.504.203-.76.048-.194.091-.389.135-.584.04-.178.08-.356.115-.537.055-.274.102-.548.147-.823.017-.105.036-.209.051-.315.053-.353.097-.706.135-1.059.004-.034.008-.069.011-.104.169-1.668.168-3.336-.001-4.979 0-.003 0-.007-.001-.01-.032-.307-.073-.613-.116-.918-.016-.115-.028-.231-.046-.346-.01-.066-.024-.13-.035-.196-.497-3.054-1.558-5.918-3.073-8.483-.033-.056-.064-.114-.098-.17-.123-.205-.253-.405-.382-.606-.093-.145-.183-.292-.279-.435-.075-.111-.154-.219-.23-.328-.157-.227-.315-.453-.48-.675-.018-.024-.036-.046-.054-.07-1.491-1.987-3.3-3.763-5.393-5.248-.179-.128-.356-.258-.539-.381-.018-.012-.036-.023-.054-.034-1.079-.722-2.22-1.356-3.41-1.903l-250.718-117.511 250.914-117.605c.279-.131.55-.271.822-.411.142-.073.285-.145.426-.221.392-.211.774-.433 1.15-.662.154-.094.304-.191.456-.289.3-.192.594-.391.884-.594.131-.092.263-.182.393-.277.397-.292.785-.593 1.161-.906.095-.079.187-.163.281-.244.302-.259.597-.524.884-.797.115-.109.23-.218.344-.33.356-.351.705-.708 1.037-1.078.048-.054.094-.111.141-.165.299-.338.586-.685.864-1.038.093-.118.184-.236.275-.355.312-.412.616-.829.9-1.258.016-.025.031-.051.047-.075.282-.428.546-.867.8-1.311.06-.104.119-.208.177-.312.263-.476.514-.958.745-1.449.005-.01.01-.02.015-.03.048-.102.089-.206.135-.308.113-.249.225-.498.329-.75.081-.196.154-.394.23-.591.065-.169.132-.338.193-.509.089-.249.17-.499.251-.749.039-.121.08-.241.117-.362.087-.283.165-.568.241-.852.024-.092.05-.183.073-.275.076-.301.145-.602.209-.904.018-.083.037-.166.053-.249.061-.302.115-.604.165-.907.015-.091.031-.181.044-.272.044-.29.082-.579.115-.869.013-.113.027-.226.038-.339.027-.264.048-.528.066-.792.01-.146.02-.293.028-.439.011-.228.019-.455.024-.683.004-.187.008-.374.008-.561 0-.188-.003-.374-.008-.561-.005-.228-.012-.455-.024-.683-.008-.146-.017-.292-.028-.438-.018-.265-.04-.53-.066-.795-.011-.111-.025-.222-.038-.333-.034-.292-.072-.584-.116-.876-.013-.087-.028-.174-.042-.261-.05-.307-.105-.614-.167-.92-.016-.077-.033-.154-.049-.23-.066-.309-.136-.618-.215-.925-.021-.081-.043-.162-.065-.243-.079-.296-.16-.592-.251-.887-.032-.104-.067-.207-.1-.311-.086-.268-.173-.536-.269-.803-.051-.143-.108-.284-.161-.426-.086-.226-.17-.451-.263-.676-.083-.201-.174-.399-.262-.599-.066-.148-.126-.298-.195-.445-.009-.019-.019-.037-.028-.055-.136-.288-.281-.572-.428-.855-.04-.076-.076-.156-.117-.232-.19-.357-.389-.709-.597-1.057-.077-.129-.16-.253-.24-.381-.133-.213-.264-.427-.404-.637-.116-.174-.238-.341-.358-.511-.111-.157-.218-.316-.333-.471-.135-.183-.277-.36-.417-.539-.107-.136-.21-.274-.32-.407-.15-.183-.306-.36-.46-.538-.107-.124-.212-.249-.322-.371-.161-.178-.328-.35-.494-.522-.112-.116-.22-.234-.334-.349-.172-.172-.349-.337-.525-.504-.115-.108-.227-.219-.344-.325-.187-.17-.379-.333-.571-.496-.113-.096-.223-.194-.337-.289-.215-.176-.434-.344-.654-.513-.097-.074-.192-.152-.29-.225-.275-.205-.556-.401-.839-.593-.047-.032-.092-.066-.139-.097-1.039-.695-2.126-1.307-3.252-1.834l-198.57-93.07h188.163c13.549 0 24.53-10.983 24.53-24.532s-10.981-24.532-24.53-24.532h-298.053c-1.686-.017-3.359.139-4.995.463-2.017.395-3.945 1.037-5.752 1.893-.008.004-.016.007-.023.01-.274.13-.543.269-.812.409-.092.048-.186.093-.277.142-.183.098-.361.203-.541.306-.176.101-.354.199-.528.303-.092.056-.181.115-.272.172-.257.159-.513.321-.765.49-.005.003-.009.006-.013.009-2.552 1.72-4.804 3.936-6.594 6.59-.007.01-.014.02-.021.03-.082.122-.158.248-.238.372-.151.233-.302.466-.446.704-.013.021-.024.043-.037.064-.836 1.399-1.535 2.888-2.083 4.45-.016.046-.031.092-.047.138-.111.322-.217.647-.314.976-.035.115-.066.231-.098.346-.072.254-.142.509-.205.767-.048.192-.09.385-.133.577-.04.18-.081.36-.116.542-.055.273-.102.547-.146.821-.017.105-.036.21-.052.316-.053.352-.097.703-.134 1.055-.004.036-.009.072-.012.108-.169 1.668-.168 3.335.002 4.977-.002.005-.002.01-.002.012z"/><path d="m2437.679 1712.689h155.694c111.822 0 202.79-90.973 202.79-202.795v-307.459c0-111.822-90.969-202.795-202.79-202.795h-155.694c-111.822 0-202.791 90.973-202.791 202.795v307.459c.001 111.822 90.969 202.795 202.791 202.795zm-153.73-510.254c0-84.767 68.963-153.73 153.731-153.73h155.694c84.768 0 153.73 68.963 153.73 153.73v307.459c0 84.768-68.963 153.73-153.73 153.73h-155.694c-84.768 0-153.731-68.963-153.731-153.73z"/><path d="m2341.971 1153.213c.032.307.073.612.116.917.016.115.028.232.046.346.01.066.024.13.035.196.497 3.056 1.559 5.921 3.075 8.487.032.055.063.111.096.166.124.207.255.409.386.612.092.143.18.287.275.428.077.115.158.226.237.339.155.223.31.446.472.664.021.027.042.054.063.081 1.485 1.978 3.286 3.745 5.368 5.226.185.132.368.267.557.394.014.01.03.018.044.028 1.084.726 2.231 1.364 3.428 1.912l250.709 117.507-250.767 117.536c-1.913.881-3.718 2.007-5.361 3.362-.022.018-.043.037-.064.055-.284.236-.564.478-.838.728-.044.041-.087.083-.131.124-.248.229-.493.462-.732.702-.057.057-.111.117-.168.175-.221.226-.44.455-.652.691-.066.073-.128.149-.194.223-.197.224-.394.449-.583.681-.075.092-.146.187-.22.281-.172.217-.345.435-.51.659-.094.127-.181.258-.273.386-.138.195-.279.388-.412.588-.146.22-.284.445-.424.669-.071.115-.146.226-.215.342-.211.352-.412.71-.605 1.072-.008.015-.015.031-.023.046-.183.345-.358.695-.524 1.049-.006.013-.013.025-.019.038-.048.102-.088.205-.135.307-.113.25-.225.5-.33.753-.08.194-.152.389-.227.584-.066.172-.134.343-.196.516-.089.248-.17.497-.25.747-.039.121-.08.241-.117.362-.086.282-.165.566-.24.85-.025.093-.051.186-.075.279-.076.3-.144.6-.209.9-.018.084-.037.167-.054.251-.061.302-.115.604-.165.907-.015.091-.031.181-.044.272-.044.289-.082.578-.115.867-.013.114-.027.228-.038.341-.027.263-.048.526-.066.789-.01.147-.02.294-.028.441-.012.228-.019.456-.024.684-.004.187-.008.373-.008.56s.003.374.008.56c.005.228.013.456.024.685.008.147.017.293.028.439.018.264.039.528.066.792.011.112.025.224.038.336.034.292.072.583.116.874.013.088.028.175.043.262.05.307.105.613.167.919.016.078.033.155.05.232.066.308.136.615.214.922.021.083.044.165.066.248.078.295.16.59.25.884.032.104.067.208.101.312.086.267.173.534.268.8.052.146.11.289.165.434.085.223.168.447.26.669.083.202.174.401.263.601.066.147.125.296.194.443.007.015.015.029.022.044.226.48.471.95.728 1.415.065.118.132.235.198.352.242.422.495.84.762 1.248.028.042.053.087.081.129.279.419.576.828.881 1.23.099.13.199.259.3.387.265.335.538.665.821.987.061.069.118.141.179.209.327.364.67.716 1.021 1.061.12.118.241.233.363.348.279.264.565.521.858.773.101.087.199.177.302.262.373.31.757.608 1.151.898.134.098.27.191.405.286.285.2.575.396.87.585.155.099.309.199.465.295.37.226.746.443 1.131.651.149.081.3.156.451.234.269.138.537.277.812.406l198.572 93.071h-188.162c-13.549 0-24.53 10.983-24.53 24.532s10.981 24.532 24.53 24.532h298.11c.06 0 .12.005.18.005.149 0 .296-.013.445-.016.347-.006.694-.016 1.037-.037.19-.011.38-.027.569-.043.383-.031.764-.072 1.142-.121.113-.015.226-.027.338-.043 1.099-.158 2.173-.391 3.22-.689.015-.004.031-.009.046-.013 1.091-.313 2.151-.7 3.174-1.155.011-.005.022-.01.033-.015.511-.228 1.014-.471 1.506-.732.006-.003.012-.006.017-.009.473-.252.937-.519 1.391-.801.091-.056.181-.116.271-.174.333-.213.661-.433.983-.661.135-.095.271-.189.404-.288.365-.27.723-.547 1.072-.836.169-.14.333-.287.499-.432.203-.177.403-.356.599-.54.181-.169.361-.338.537-.512.268-.266.53-.539.786-.817.179-.195.354-.396.527-.598.198-.229.391-.461.58-.697.126-.159.253-.316.376-.479.296-.389.581-.786.854-1.193.048-.072.094-.147.141-.22.275-.42.536-.849.785-1.286.029-.05.058-.099.086-.15.686-1.224 1.27-2.512 1.741-3.855.017-.048.032-.096.049-.145.11-.321.215-.643.312-.969.035-.117.067-.234.1-.352.071-.252.141-.506.204-.762.048-.194.091-.387.134-.582.04-.179.08-.358.116-.539.055-.273.102-.547.147-.821.017-.105.036-.21.052-.316.053-.353.097-.705.134-1.058.004-.035.008-.07.012-.105.169-1.668.168-3.336-.001-4.979 0-.003 0-.006-.001-.01-.032-.308-.073-.614-.117-.92-.016-.114-.028-.23-.046-.343-.01-.068-.025-.135-.036-.203-.497-3.051-1.557-5.911-3.069-8.473-.034-.058-.066-.117-.1-.175-.123-.204-.252-.404-.381-.604-.093-.146-.184-.293-.28-.437-.074-.111-.153-.218-.229-.327-.157-.228-.316-.455-.481-.677-.016-.022-.034-.043-.05-.065-1.493-1.991-3.306-3.77-5.403-5.257-.177-.126-.352-.255-.532-.376-.018-.012-.036-.023-.054-.034-1.079-.722-2.22-1.356-3.41-1.903l-250.718-117.511 250.914-117.605c.282-.132.556-.274.831-.416.135-.07.271-.137.406-.209.396-.213.783-.438 1.164-.67.152-.093.301-.189.451-.286.302-.194.599-.394.891-.599.129-.091.26-.18.387-.274.398-.292.787-.594 1.164-.908.094-.078.184-.16.276-.24.304-.26.6-.527.889-.801.115-.108.229-.217.342-.328.357-.351.705-.709 1.038-1.079.048-.053.092-.109.139-.163.3-.339.587-.687.866-1.042.092-.117.184-.234.274-.353.312-.412.616-.83.901-1.259.016-.024.03-.049.046-.073.283-.429.548-.869.802-1.314.059-.103.118-.206.175-.31.263-.476.514-.958.745-1.45.005-.01.01-.02.015-.03.048-.102.088-.205.135-.307.113-.25.225-.499.33-.752.081-.195.153-.392.229-.588.065-.17.133-.34.194-.511.089-.249.17-.499.251-.748.039-.121.08-.241.117-.362.086-.283.165-.567.241-.852.024-.092.05-.183.074-.276.076-.3.145-.601.209-.902.018-.083.037-.167.054-.25.061-.302.115-.604.165-.906.015-.091.031-.182.044-.273.044-.289.082-.579.115-.868.013-.113.027-.226.038-.339.027-.264.048-.528.066-.792.01-.146.02-.293.028-.439.011-.228.019-.455.024-.683.004-.187.008-.374.008-.561s-.003-.374-.008-.561c-.005-.228-.012-.455-.024-.683-.008-.146-.017-.292-.028-.438-.018-.265-.04-.53-.066-.795-.011-.111-.025-.222-.038-.333-.034-.292-.072-.584-.116-.876-.013-.087-.028-.174-.042-.261-.05-.307-.105-.614-.167-.92-.016-.077-.033-.154-.049-.23-.066-.309-.136-.617-.215-.925-.021-.081-.043-.162-.065-.242-.079-.296-.16-.592-.251-.887-.032-.104-.067-.207-.1-.31-.086-.268-.173-.536-.269-.803-.051-.143-.107-.283-.161-.425-.086-.226-.17-.452-.263-.677-.083-.2-.173-.397-.26-.594-.067-.15-.127-.3-.197-.449-.009-.019-.019-.037-.028-.056-.138-.292-.285-.581-.434-.867-.037-.072-.072-.146-.11-.218-.191-.358-.391-.712-.6-1.061-.063-.106-.132-.207-.197-.312-.147-.238-.293-.475-.448-.708-.103-.154-.211-.302-.317-.453-.124-.177-.246-.356-.375-.53-.123-.166-.251-.325-.377-.487-.12-.154-.237-.309-.361-.46-.135-.165-.276-.324-.415-.484-.123-.142-.243-.286-.37-.426-.145-.16-.295-.314-.443-.469-.128-.134-.254-.27-.385-.401-.155-.155-.315-.304-.474-.455-.132-.125-.261-.251-.396-.374-.169-.153-.342-.299-.515-.447-.131-.112-.26-.227-.394-.337-.192-.158-.39-.308-.586-.459-.12-.092-.236-.187-.358-.277-.248-.184-.501-.359-.755-.533-.075-.051-.147-.105-.222-.156-1.034-.692-2.118-1.302-3.239-1.827-.001 0-.002-.001-.003-.002l-198.572-93.07h188.162c13.549 0 24.53-10.984 24.53-24.532s-10.981-24.532-24.53-24.532h-298.053c-1.691-.017-3.37.139-5.011.465-2.011.396-3.934 1.036-5.736 1.891-.008.004-.016.007-.023.01-.272.13-.54.267-.806.406-.094.049-.19.095-.284.145-.18.097-.356.2-.534.302-.179.102-.358.201-.535.308-.09.054-.177.112-.266.167-.26.161-.518.324-.771.494-.002.002-.004.003-.007.005-2.557 1.723-4.813 3.942-6.606 6.603-.005.007-.01.014-.015.021-.083.123-.161.252-.242.377-.15.231-.3.462-.442.699-.013.023-.026.046-.04.068-.835 1.398-1.534 2.886-2.081 4.446-.016.047-.031.093-.047.14-.111.322-.216.646-.314.974-.035.116-.066.232-.099.348-.072.254-.142.508-.205.765-.048.193-.091.386-.134.58-.04.18-.08.359-.116.54-.055.274-.102.548-.147.822-.017.105-.036.209-.052.315-.053.352-.097.704-.134 1.056-.004.036-.009.072-.012.107-.169 1.668-.168 3.335.001 4.977z"/></g></g></svg>