<svg id="Layer_3" height="512" viewBox="0 0 64 64" width="512" xmlns="http://www.w3.org/2000/svg" data-name="Layer 3"><path d="m15 63h34a4 4 0 0 0 4-4v-54a4 4 0 0 0 -4-4h-34a4 4 0 0 0 -4 4v54a4 4 0 0 0 4 4zm36-58v54a2 2 0 0 1 -2 2h-34a2 2 0 0 1 -2-2v-26h23a4 4 0 0 0 4-4v-26h9a2 2 0 0 1 2 2zm-13 18.059a9.012 9.012 0 0 0 -7.941 7.941h-15.814l23.755-26.394zm0 2.021v3.92a2 2 0 0 1 -2 2h-3.92a7 7 0 0 1 5.92-5.92zm-23-22.08h21.755l-23.755 26.394v-24.394a2 2 0 0 1 2-2z"/><path d="m15 5h2v2h-2z"/><path d="m19 5h2v2h-2z"/><path d="m23 5h2v2h-2z"/><path d="m27 5h2v2h-2z"/><path d="m17 9h2v2h-2z"/><path d="m21 9h2v2h-2z"/><path d="m25 9h2v2h-2z"/><path d="m15 13h2v2h-2z"/><path d="m19 13h2v2h-2z"/><path d="m23 13h2v2h-2z"/><path d="m17 17h2v2h-2z"/><path d="m15 21h2v2h-2z"/></svg>