<svg id="Layer_3" height="512" viewBox="0 0 64 64" width="512" xmlns="http://www.w3.org/2000/svg" data-name="Layer 3"><path d="m62 57h-60a1 1 0 0 0 -1 1v4a1 1 0 0 0 1 1h60a1 1 0 0 0 1-1v-4a1 1 0 0 0 -1-1zm-1 4h-58v-2h58z"/><path d="m53.912 1.59a1 1 0 0 0 -.912-.59h-42a1 1 0 0 0 -.912.59l-9 20a1 1 0 0 0 -.088.41v4a1 1 0 0 0 1 1h60a1 1 0 0 0 1-1v-4a1 1 0 0 0 -.088-.41zm-42.266 1.41h40.708l8.1 18h-56.907zm-8.646 22v-2h58v2z"/><path d="m15 5h2v2h-2z"/><path d="m31 5h2v2h-2z"/><path d="m31 9h2v2h-2z"/><path d="m31 13h2v2h-2z"/><path d="m31 17h2v2h-2z"/><path d="m23 5h2v2h-2z"/><path d="m13 9h2v2h-2z"/><path d="m22 9h2v2h-2z"/><path d="m11 13h2v2h-2z"/><path d="m21 13h2v2h-2z"/><path d="m9 17h2v2h-2z"/><path d="m20 17h2v2h-2z"/><path d="m47 5h2v2h-2z"/><path d="m39 5h2v2h-2z"/><path d="m49 9h2v2h-2z"/><path d="m40 9h2v2h-2z"/><path d="m51 13h2v2h-2z"/><path d="m41 13h2v2h-2z"/><path d="m53 17h2v2h-2z"/><path d="m42 17h2v2h-2z"/><path d="m62 29h-60a1 1 0 0 0 -1 1v24a1 1 0 0 0 1 1h60a1 1 0 0 0 1-1v-24a1 1 0 0 0 -1-1zm-59 8.942a3.189 3.189 0 0 0 2.449-2.126 1.192 1.192 0 0 1 1.132-.816h.838a1.192 1.192 0 0 1 1.132.816 3.192 3.192 0 0 0 3.03 2.184h.838a3.192 3.192 0 0 0 3.03-2.184 1.192 1.192 0 0 1 1.132-.816h.838a1.192 1.192 0 0 1 1.132.816 3.192 3.192 0 0 0 3.03 2.184h.838a3.192 3.192 0 0 0 3.03-2.184 1.192 1.192 0 0 1 1.132-.816h.838a1.192 1.192 0 0 1 1.132.816 3.192 3.192 0 0 0 3.03 2.184h.838a3.192 3.192 0 0 0 3.03-2.184 1.192 1.192 0 0 1 1.132-.816h.838a1.192 1.192 0 0 1 1.132.816 3.192 3.192 0 0 0 3.03 2.184h.838a3.192 3.192 0 0 0 3.03-2.184 1.192 1.192 0 0 1 1.132-.816h.838a1.192 1.192 0 0 1 1.132.816 3.192 3.192 0 0 0 3.03 2.184h.838a3.192 3.192 0 0 0 3.03-2.184 1.192 1.192 0 0 1 1.132-.816h.838a1.192 1.192 0 0 1 1.132.816 3.189 3.189 0 0 0 2.449 2.126v3.892a1.181 1.181 0 0 1 -.551-.65 3.192 3.192 0 0 0 -3.03-2.184h-.838a3.192 3.192 0 0 0 -3.03 2.184 1.192 1.192 0 0 1 -1.132.816h-.838a1.192 1.192 0 0 1 -1.132-.816 3.192 3.192 0 0 0 -3.03-2.184h-.838a3.192 3.192 0 0 0 -3.03 2.184 1.192 1.192 0 0 1 -1.132.816h-.838a1.192 1.192 0 0 1 -1.132-.816 3.192 3.192 0 0 0 -3.03-2.184h-.838a3.192 3.192 0 0 0 -3.03 2.184 1.192 1.192 0 0 1 -1.132.816h-.838a1.192 1.192 0 0 1 -1.132-.816 3.192 3.192 0 0 0 -3.03-2.184h-.838a3.192 3.192 0 0 0 -3.03 2.184 1.192 1.192 0 0 1 -1.132.816h-.838a1.192 1.192 0 0 1 -1.132-.816 3.192 3.192 0 0 0 -3.03-2.184h-.838a3.192 3.192 0 0 0 -3.03 2.184 1.192 1.192 0 0 1 -1.132.816h-.838a1.192 1.192 0 0 1 -1.132-.816 3.192 3.192 0 0 0 -3.03-2.184h-.838a3.192 3.192 0 0 0 -3.03 2.184 1.181 1.181 0 0 1 -.551.65zm0 6a3.189 3.189 0 0 0 2.449-2.126 1.192 1.192 0 0 1 1.132-.816h.838a1.192 1.192 0 0 1 1.132.816 3.192 3.192 0 0 0 3.03 2.184h.838a3.192 3.192 0 0 0 3.03-2.184 1.192 1.192 0 0 1 1.132-.816h.838a1.192 1.192 0 0 1 1.132.816 3.192 3.192 0 0 0 3.03 2.184h.838a3.192 3.192 0 0 0 3.03-2.184 1.192 1.192 0 0 1 1.132-.816h.838a1.192 1.192 0 0 1 1.132.816 3.192 3.192 0 0 0 3.03 2.184h.838a3.192 3.192 0 0 0 3.03-2.184 1.192 1.192 0 0 1 1.132-.816h.838a1.192 1.192 0 0 1 1.132.816 3.192 3.192 0 0 0 3.03 2.184h.838a3.192 3.192 0 0 0 3.03-2.184 1.192 1.192 0 0 1 1.132-.816h.838a1.192 1.192 0 0 1 1.132.816 3.192 3.192 0 0 0 3.03 2.184h.838a3.192 3.192 0 0 0 3.03-2.184 1.192 1.192 0 0 1 1.132-.816h.838a1.192 1.192 0 0 1 1.132.816 3.189 3.189 0 0 0 2.449 2.126v3.892a1.181 1.181 0 0 1 -.551-.65 3.192 3.192 0 0 0 -3.03-2.184h-.838a3.192 3.192 0 0 0 -3.03 2.184 1.192 1.192 0 0 1 -1.132.816h-.838a1.192 1.192 0 0 1 -1.132-.816 3.192 3.192 0 0 0 -3.03-2.184h-.838a3.192 3.192 0 0 0 -3.03 2.184 1.192 1.192 0 0 1 -1.132.816h-.838a1.192 1.192 0 0 1 -1.132-.816 3.192 3.192 0 0 0 -3.03-2.184h-.838a3.192 3.192 0 0 0 -3.03 2.184 1.192 1.192 0 0 1 -1.132.816h-.838a1.192 1.192 0 0 1 -1.132-.816 3.192 3.192 0 0 0 -3.03-2.184h-.838a3.192 3.192 0 0 0 -3.03 2.184 1.192 1.192 0 0 1 -1.132.816h-.838a1.192 1.192 0 0 1 -1.132-.816 3.192 3.192 0 0 0 -3.03-2.184h-.838a3.192 3.192 0 0 0 -3.03 2.184 1.192 1.192 0 0 1 -1.132.816h-.838a1.192 1.192 0 0 1 -1.132-.816 3.192 3.192 0 0 0 -3.03-2.184h-.838a3.192 3.192 0 0 0 -3.03 2.184 1.181 1.181 0 0 1 -.551.65zm58-12.942v4.834a1.181 1.181 0 0 1 -.551-.65 3.192 3.192 0 0 0 -3.03-2.184h-.838a3.192 3.192 0 0 0 -3.03 2.184 1.192 1.192 0 0 1 -1.132.816h-.838a1.192 1.192 0 0 1 -1.132-.816 3.192 3.192 0 0 0 -3.03-2.184h-.838a3.192 3.192 0 0 0 -3.03 2.184 1.192 1.192 0 0 1 -1.132.816h-.838a1.192 1.192 0 0 1 -1.132-.816 3.192 3.192 0 0 0 -3.03-2.184h-.838a3.192 3.192 0 0 0 -3.03 2.184 1.192 1.192 0 0 1 -1.132.816h-.838a1.192 1.192 0 0 1 -1.132-.816 3.192 3.192 0 0 0 -3.03-2.184h-.838a3.192 3.192 0 0 0 -3.03 2.184 1.192 1.192 0 0 1 -1.132.816h-.838a1.192 1.192 0 0 1 -1.132-.816 3.192 3.192 0 0 0 -3.03-2.184h-.838a3.192 3.192 0 0 0 -3.03 2.184 1.192 1.192 0 0 1 -1.132.816h-.838a1.192 1.192 0 0 1 -1.132-.816 3.192 3.192 0 0 0 -3.03-2.184h-.838a3.192 3.192 0 0 0 -3.03 2.184 1.181 1.181 0 0 1 -.551.65v-4.834zm-58 22v-3.058a3.189 3.189 0 0 0 2.449-2.126 1.192 1.192 0 0 1 1.132-.816h.838a1.192 1.192 0 0 1 1.132.816 3.192 3.192 0 0 0 3.03 2.184h.838a3.192 3.192 0 0 0 3.03-2.184 1.192 1.192 0 0 1 1.132-.816h.838a1.192 1.192 0 0 1 1.132.816 3.192 3.192 0 0 0 3.03 2.184h.838a3.192 3.192 0 0 0 3.03-2.184 1.192 1.192 0 0 1 1.132-.816h.838a1.192 1.192 0 0 1 1.132.816 3.192 3.192 0 0 0 3.03 2.184h.838a3.192 3.192 0 0 0 3.03-2.184 1.192 1.192 0 0 1 1.132-.816h.838a1.192 1.192 0 0 1 1.132.816 3.192 3.192 0 0 0 3.03 2.184h.838a3.192 3.192 0 0 0 3.03-2.184 1.192 1.192 0 0 1 1.132-.816h.838a1.192 1.192 0 0 1 1.132.816 3.192 3.192 0 0 0 3.03 2.184h.838a3.192 3.192 0 0 0 3.03-2.184 1.192 1.192 0 0 1 1.132-.816h.838a1.192 1.192 0 0 1 1.132.816 3.189 3.189 0 0 0 2.449 2.126v3.058z"/></svg>