<svg id="Layer_3" height="512" viewBox="0 0 64 64" width="512" xmlns="http://www.w3.org/2000/svg" data-name="Layer 3"><path d="m15 63h34a4 4 0 0 0 4-4v-54a4 4 0 0 0 -4-4h-34a4 4 0 0 0 -4 4v54a4 4 0 0 0 4 4zm34-2h-34a2 2 0 0 1 -2-2v-37h18v15a1 1 0 0 0 1 1h19v21a2 2 0 0 1 -2 2zm-16-25v-12.919l16.149 12.919zm-18-33h34a2 2 0 0 1 2 2v29.919l-18.375-14.7a1 1 0 0 0 -.625-.219h-19v-15a2 2 0 0 1 2-2z"/><path d="m24.051 15.684a1 1 0 0 0 .949 1.316h14a1 1 0 0 0 .949-1.316l-.368-1.1a11.326 11.326 0 0 1 0-7.162l.368-1.1a1 1 0 0 0 -.949-1.322h-14a1 1 0 0 0 -.949 1.316l.368 1.1a11.326 11.326 0 0 1 0 7.162zm2.335-8.684h11.228a13.336 13.336 0 0 0 0 8h-11.228a13.336 13.336 0 0 0 0-8z"/></svg>