<?xml version="1.0" encoding="UTF-8"?>
<svg xmlns="http://www.w3.org/2000/svg" id="Layer_3" data-name="Layer 3" viewBox="0 0 64 64" width="512" height="512"><path d="M59,1H5A4,4,0,0,0,1,5V59a4,4,0,0,0,4,4H59a4,4,0,0,0,4-4V5A4,4,0,0,0,59,1ZM3,25H61v2.732A6.194,6.194,0,0,1,55.528,31H8.472A6.194,6.194,0,0,1,3,27.732ZM5,3H59a2,2,0,0,1,2,2V23H3V5A2,2,0,0,1,5,3ZM59,61H5a2,2,0,0,1-2-2V30.907A8.183,8.183,0,0,0,8.472,33H55.528A8.183,8.183,0,0,0,61,30.907V59A2,2,0,0,1,59,61Z"/><path d="M36.051,15.684A1,1,0,0,0,37,17h4.816a11.287,11.287,0,0,1-.4,1.581l-.368,1.1A1,1,0,0,0,42,21H56a1,1,0,0,0,.949-1.316l-.368-1.1a11.326,11.326,0,0,1,0-7.162l.368-1.1A1,1,0,0,0,56,9H51.191a11.3,11.3,0,0,1,.39-1.581l.368-1.1A1,1,0,0,0,51,5H37a1,1,0,0,0-.949,1.316l.368,1.1a11.326,11.326,0,0,1,0,7.162ZM54.614,19H43.386a13.336,13.336,0,0,0,0-8H54.614a13.336,13.336,0,0,0,0,8ZM38.386,7H49.614a13.273,13.273,0,0,0-.443,2H42a1,1,0,0,0-.949,1.316l.368,1.1A11.286,11.286,0,0,1,42,15H38.386a13.336,13.336,0,0,0,0-8Z"/><path d="M7.051,19.684A1,1,0,0,0,8,21H22a1,1,0,0,0,.949-1.316l-.368-1.1a11.287,11.287,0,0,1-.4-1.581H27a1,1,0,0,0,.949-1.316l-.368-1.1a11.326,11.326,0,0,1,0-7.162l.368-1.1A1,1,0,0,0,27,5H13a1,1,0,0,0-.949,1.316l.368,1.1A11.3,11.3,0,0,1,12.809,9H8a1,1,0,0,0-.949,1.316l.368,1.1A11.286,11.286,0,0,1,8,15a11.286,11.286,0,0,1-.581,3.581ZM14.386,7H25.614a13.336,13.336,0,0,0,0,8H22a11.286,11.286,0,0,1,.581-3.581l.368-1.1A1,1,0,0,0,22,9H14.829A13.4,13.4,0,0,0,14.386,7Zm-5,4H20.614a13.336,13.336,0,0,0,0,8H9.386A13.322,13.322,0,0,0,10,15,13.327,13.327,0,0,0,9.386,11Z"/><path d="M28,37H20a1,1,0,0,0-1,1V55a1,1,0,0,0,1,1h8a1,1,0,0,0,1-1V47a1,1,0,0,0-1-1H21V39h6v3h2V38A1,1,0,0,0,28,37ZM27,54H21V48h6Z"/><path d="M40,49H38v1H35V47a1,1,0,1,1,2,0h2a3,3,0,1,0-6,0v3H32v2h1v4h2V52h3v3a1,1,0,0,0,1,1h2V54H40V52h1V50H40Z"/><rect x="43" y="54" width="2" height="2"/></svg>
