<svg id="Layer_3" height="512" viewBox="0 0 64 64" width="512" xmlns="http://www.w3.org/2000/svg" data-name="Layer 3"><path d="m53.912 1.59a1 1 0 0 0 -.912-.59h-42a1 1 0 0 0 -.912.59l-9 20a1 1 0 0 0 -.088.41v4a1 1 0 0 0 1 1h60a1 1 0 0 0 1-1v-4a1 1 0 0 0 -.088-.41zm-42.266 1.41h40.708l8.1 18h-56.907zm-8.646 22v-2h58v2z"/><path d="m15 5h2v2h-2z"/><path d="m31 5h2v2h-2z"/><path d="m31 9h2v2h-2z"/><path d="m31 13h2v2h-2z"/><path d="m31 17h2v2h-2z"/><path d="m23 5h2v2h-2z"/><path d="m13 9h2v2h-2z"/><path d="m22 9h2v2h-2z"/><path d="m11 13h2v2h-2z"/><path d="m21 13h2v2h-2z"/><path d="m9 17h2v2h-2z"/><path d="m20 17h2v2h-2z"/><path d="m47 5h2v2h-2z"/><path d="m39 5h2v2h-2z"/><path d="m49 9h2v2h-2z"/><path d="m40 9h2v2h-2z"/><path d="m51 13h2v2h-2z"/><path d="m41 13h2v2h-2z"/><path d="m53 17h2v2h-2z"/><path d="m42 17h2v2h-2z"/><path d="m1 41h5.1a2.382 2.382 0 0 0 .537 4.265l4.1 1.367a.388.388 0 0 1 0 .736l-4.1 1.367a2.388 2.388 0 0 0 0 4.53l4.1 1.367a.388.388 0 0 1 0 .736l-4.9 1.632h-3.837a1 1 0 0 0 -1 1v4a1 1 0 0 0 1 1h60a1 1 0 0 0 1-1v-4a1 1 0 0 0 -1-1h-5.095a2.382 2.382 0 0 0 -.537-4.265l-4.1-1.367a.388.388 0 0 1 0-.736l4.1-1.367a2.388 2.388 0 0 0 0-4.53l-4.1-1.367a.388.388 0 0 1 0-.736l4.895-1.632h5.837v-2h-62zm10.368 11.735-4.1-1.367a.388.388 0 0 1 0-.736l4.1-1.367a2.388 2.388 0 0 0 0-4.53l-4.1-1.367a.388.388 0 0 1 0-.736l4.895-1.632h2.937a2.382 2.382 0 0 0 .537 4.265l4.1 1.367a.388.388 0 0 1 0 .736l-4.1 1.367a2.388 2.388 0 0 0 0 4.53l4.1 1.367a.388.388 0 0 1 0 .736l-4.9 1.632h-2.932a2.382 2.382 0 0 0 -.537-4.265zm31.264-7.47 4.1 1.367a.388.388 0 0 1 0 .736l-4.1 1.367a2.388 2.388 0 0 0 0 4.53l4.1 1.367a.388.388 0 0 1 0 .736l-4.895 1.632h-2.932a2.382 2.382 0 0 0 -.537-4.265l-4.1-1.367a.388.388 0 0 1 0-.736l4.1-1.367a2.388 2.388 0 0 0 0-4.53l-4.1-1.367a.388.388 0 0 1 0-.736l4.895-1.632h2.937a2.382 2.382 0 0 0 .537 4.265zm-9 0 4.1 1.367a.388.388 0 0 1 0 .736l-4.1 1.367a2.388 2.388 0 0 0 0 4.53l4.1 1.367a.388.388 0 0 1 0 .736l-4.895 1.632h-2.932a2.382 2.382 0 0 0 -.537-4.265l-4.1-1.367a.388.388 0 0 1 0-.736l4.1-1.367a2.388 2.388 0 0 0 0-4.53l-4.1-1.367a.388.388 0 0 1 0-.736l4.895-1.632h2.937a2.382 2.382 0 0 0 .537 4.265zm-9 0 4.1 1.367a.388.388 0 0 1 0 .736l-4.1 1.367a2.388 2.388 0 0 0 0 4.53l4.1 1.367a.388.388 0 0 1 0 .736l-4.895 1.632h-2.932a2.382 2.382 0 0 0 -.537-4.265l-4.1-1.367a.388.388 0 0 1 0-.736l4.1-1.367a2.388 2.388 0 0 0 0-4.53l-4.1-1.367a.388.388 0 0 1 0-.736l4.895-1.632h2.937a2.382 2.382 0 0 0 .537 4.265zm36.368 15.735h-58v-2h58zm-9.368-15.735 4.1 1.367a.388.388 0 0 1 0 .736l-4.1 1.367a2.388 2.388 0 0 0 0 4.53l4.1 1.367a.388.388 0 0 1 0 .736l-4.895 1.632h-2.932a2.382 2.382 0 0 0 -.537-4.265l-4.1-1.367a.388.388 0 0 1 0-.736l4.1-1.367a2.388 2.388 0 0 0 0-4.53l-4.1-1.367a.388.388 0 0 1 0-.736l4.895-1.632h2.937a2.382 2.382 0 0 0 .537 4.265z"/><path d="m62 29h-60a1 1 0 0 0 -1 1v6a1 1 0 0 0 1 1h60a1 1 0 0 0 1-1v-6a1 1 0 0 0 -1-1zm-1 6h-58v-4h58z"/></svg>