<svg id="Layer_3" height="512" viewBox="0 0 64 64" width="512" xmlns="http://www.w3.org/2000/svg" data-name="Layer 3"><path d="m31 7h2v2h-2z"/><path d="m31 13h2v2h-2z"/><path d="m31 19h2v2h-2z"/><path d="m31 25h2v2h-2z"/><path d="m31 31h2v2h-2z"/><path d="m20 7h2v2h-2z"/><path d="m19 13h2v2h-2z"/><path d="m18 19h2v2h-2z"/><path d="m17 25h2v2h-2z"/><path d="m16 31h2v2h-2z"/><path d="m15 37h2v2h-2z"/><path d="m14 43h2v2h-2z"/><path d="m42 7h2v2h-2z"/><path d="m43 13h2v2h-2z"/><path d="m44 19h2v2h-2z"/><path d="m45 25h2v2h-2z"/><path d="m41 39h3.1a2.382 2.382 0 0 0 .537 4.265l4.1 1.367a.388.388 0 0 1 0 .736l-4.1 1.367a2.388 2.388 0 0 0 0 4.53l4.1 1.367a.388.388 0 0 1 0 .736l-4.9 1.632h-2.837v2h12v-2h-3.095a2.382 2.382 0 0 0 -.537-4.265l-4.1-1.367a.388.388 0 0 1 0-.736l4.1-1.367a2.388 2.388 0 0 0 0-4.53l-4.1-1.367a.388.388 0 0 1 0-.736l4.895-1.632h2.837v-2h-12z"/><path d="m59.672 37.27-6.133-32.508a4.623 4.623 0 0 0 -4.539-3.762h-34a4.623 4.623 0 0 0 -4.539 3.762l-9.236 48.956a3.943 3.943 0 0 0 -.225 1.282v4a4 4 0 0 0 4 4h54a4 4 0 0 0 4-4v-4a3.97 3.97 0 0 0 -.964-2.583 15.824 15.824 0 0 0 -2.364-15.147zm-12.672 23.73a14 14 0 1 1 14-14 14.015 14.015 0 0 1 -14 14zm-34.574-55.866a2.622 2.622 0 0 1 2.574-2.134h34a2.622 2.622 0 0 1 2.574 2.133l5.566 29.5a15.962 15.962 0 0 0 -25.613 16.367h-26.527a3.933 3.933 0 0 0 -1.27.226zm-7.426 55.866a2 2 0 0 1 -2-2v-4a2 2 0 0 1 2-2h2v5h2v-5h3v5h2v-5h3v5h2v-5h3v5h2v-5h3v5h2v-5h3.178a16.087 16.087 0 0 0 7.093 8zm56-6v4a2 2 0 0 1 -2 2h-4.271a16.109 16.109 0 0 0 6.245-6.229 1.933 1.933 0 0 1 .026.229z"/></svg>