<svg id="Layer_3" height="512" viewBox="0 0 64 64" width="512" xmlns="http://www.w3.org/2000/svg" data-name="Layer 3"><path d="m31 7h2v2h-2z"/><path d="m31 13h2v2h-2z"/><path d="m31 19h2v2h-2z"/><path d="m31 25h2v2h-2z"/><path d="m31 31h2v2h-2z"/><path d="m20 7h2v2h-2z"/><path d="m19 13h2v2h-2z"/><path d="m18 19h2v2h-2z"/><path d="m17 25h2v2h-2z"/><path d="m16 31h2v2h-2z"/><path d="m15 37h2v2h-2z"/><path d="m14 43h2v2h-2z"/><path d="m42 7h2v2h-2z"/><path d="m43 13h2v2h-2z"/><path d="m44 19h2v2h-2z"/><path d="m45 25h2v2h-2z"/><path d="m59.672 37.27-6.133-32.507a4.623 4.623 0 0 0 -4.539-3.763h-34a4.623 4.623 0 0 0 -4.539 3.763l-9.236 48.955a3.943 3.943 0 0 0 -.225 1.282v4a4 4 0 0 0 4 4h54a4 4 0 0 0 4-4v-4a3.968 3.968 0 0 0 -.964-2.583 15.824 15.824 0 0 0 -2.364-15.147zm-12.672 23.73a14 14 0 1 1 14-14 14.015 14.015 0 0 1 -14 14zm-34.574-55.866a2.622 2.622 0 0 1 2.574-2.134h34a2.622 2.622 0 0 1 2.574 2.134l5.566 29.5a15.962 15.962 0 0 0 -25.613 16.366h-26.527a3.933 3.933 0 0 0 -1.27.226zm-7.426 55.866a2 2 0 0 1 -2-2v-4a2 2 0 0 1 2-2h2v5h2v-5h3v5h2v-5h3v5h2v-5h3v5h2v-5h3v5h2v-5h3.178a16.087 16.087 0 0 0 7.093 8zm56-6v4a2 2 0 0 1 -2 2h-4.271a16.116 16.116 0 0 0 6.245-6.229 1.933 1.933 0 0 1 .026.229z"/><path d="m56.629 44.071-4.872 1.949a14.671 14.671 0 0 0 -4.05-7.727 1 1 0 0 0 -1.414 0 14.675 14.675 0 0 0 -4.05 7.727l-4.872-1.949a1 1 0 0 0 -1.365 1.039l.448 4.031a6.579 6.579 0 0 0 6.546 5.859h8a6.579 6.579 0 0 0 6.546-5.859l.448-4.031a1 1 0 0 0 -1.365-1.039zm-9.629-3.595a12.678 12.678 0 0 1 2.875 6.472 8.307 8.307 0 0 0 -2.875 3.103 8.307 8.307 0 0 0 -2.875-3.1 12.669 12.669 0 0 1 2.875-6.475zm-4 12.524a4.583 4.583 0 0 1 -4.559-4.08l-.263-2.372 3.808 1.523a6.354 6.354 0 0 1 3.937 4.929zm12.559-4.08a4.583 4.583 0 0 1 -4.559 4.08h-2.923a6.354 6.354 0 0 1 3.937-4.929l3.808-1.523z"/></svg>