<svg id="Layer_3" height="512" viewBox="0 0 64 64" width="512" xmlns="http://www.w3.org/2000/svg" data-name="Layer 3"><path d="m49 1h-34a4 4 0 0 0 -4 4v54a4 4 0 0 0 4 4h34a4 4 0 0 0 4-4v-54a4 4 0 0 0 -4-4zm-34 2h34a2 2 0 0 1 2 2v14h-38v-14a2 2 0 0 1 2-2zm36 18v4h-38v-4zm-2 40h-34a2 2 0 0 1 -2-2v-32h38v32a2 2 0 0 1 -2 2z"/><path d="m30 43v-12a1 1 0 0 0 -1-1h-6a1 1 0 0 0 -1 1v3h2v-2h4v4h-3v2h3v4h-4v-2h-2v3a1 1 0 0 0 1 1h6a1 1 0 0 0 1-1z"/><path d="m34 52h-2v1h-3v-3a1 1 0 0 1 2 0h2a3 3 0 1 0 -6 0v3h-1v2h1v4h2v-4h3v3a1 1 0 0 0 1 1h2v-2h-1v-2h1v-2h-1z"/><path d="m37 57h2v2h-2z"/><path d="m24.051 15.684a1 1 0 0 0 .949 1.316h14a1 1 0 0 0 .949-1.316l-.368-1.1a11.317 11.317 0 0 1 0-7.162l.367-1.1a1 1 0 0 0 -.948-1.322h-14a1 1 0 0 0 -.949 1.316l.368 1.1a11.317 11.317 0 0 1 0 7.162zm2.334-8.684h11.23a13.316 13.316 0 0 0 0 8h-11.23a13.316 13.316 0 0 0 0-8z"/><path d="m36 34v4a1 1 0 0 0 1 1h3v3h-2v-1h-2v2a1 1 0 0 0 1 1h4a1 1 0 0 0 1-1v-5a1 1 0 0 0 -1-1h-3v-2h4v-2h-5a1 1 0 0 0 -1 1z"/><path d="m32 42h2v2h-2z"/></svg>