<?xml version="1.0" encoding="UTF-8"?>
<svg xmlns="http://www.w3.org/2000/svg" id="Layer_3" data-name="Layer 3" viewBox="0 0 64 64" width="512" height="512"><path d="M1,38V56a4,4,0,0,0,4,4H63V58H5a2,2,0,0,1-2-2V54H63V52H3V48H63V46H3V42H63V40H3V38a2,2,0,0,1,2-2H63V34H5A4,4,0,0,0,1,38Z"/><path d="M15,16H13v2h2a4,4,0,0,0,0-8H12.742a5.173,5.173,0,0,0-3.681,1.525,7.035,7.035,0,0,0,0,9.95A8.563,8.563,0,0,0,15.157,24H27.764a1,1,0,0,1,.894.553,2.619,2.619,0,0,0,4.684,0A1,1,0,0,1,34.236,24h3.528a1,1,0,0,1,.894.553,2.619,2.619,0,0,0,4.684,0A1,1,0,0,1,44.236,24h3.528a1,1,0,0,1,.894.553,2.619,2.619,0,0,0,4.684,0A1,1,0,0,1,54.236,24H63V22H54.236a2.983,2.983,0,0,0-2.683,1.658.641.641,0,0,1-1.106,0A2.983,2.983,0,0,0,47.764,22H44.236a2.983,2.983,0,0,0-2.683,1.658.641.641,0,0,1-1.106,0A2.983,2.983,0,0,0,37.764,22H34.236a2.983,2.983,0,0,0-2.683,1.658.641.641,0,0,1-1.106,0A2.983,2.983,0,0,0,27.764,22H25V16A12,12,0,0,0,1,16,14.015,14.015,0,0,0,15,30H63V28H15A12.013,12.013,0,0,1,3,16a10,10,0,0,1,20,0v6H15.157a6.582,6.582,0,0,1-4.682-1.939,5.036,5.036,0,0,1,0-7.122A3.226,3.226,0,0,1,12.742,12H15a2,2,0,0,1,0,4Z"/></svg>
