<svg id="Layer_3" height="512" viewBox="0 0 64 64" width="512" xmlns="http://www.w3.org/2000/svg" data-name="Layer 3"><path d="m61.8 19.02-10.191 2.039a100.478 100.478 0 0 1 -39.218 0l-10.191-2.039a1 1 0 0 0 -1.2.98v4a1 1 0 0 0 .8.98l10.2 2.04a102.266 102.266 0 0 0 20 1.98 102.266 102.266 0 0 0 20-1.98l10.2-2.04a1 1 0 0 0 .8-.98v-4a1 1 0 0 0 -1.2-.98zm-.8 4.161-9.391 1.878a100.478 100.478 0 0 1 -39.218 0l-9.391-1.878v-1.961l9 1.8a102.477 102.477 0 0 0 40 0l9-1.8z"/><path d="m24.312 9.917a6.559 6.559 0 0 0 1.872 9.56 10.688 10.688 0 0 0 5.5 1.523h.632a10.688 10.688 0 0 0 5.5-1.523 6.559 6.559 0 0 0 1.872-9.56 7.323 7.323 0 0 0 -3.561-2.54l.623-1.558a3.517 3.517 0 0 0 -3.266-4.819h-2.968a3.516 3.516 0 0 0 -3.265 4.821l.622 1.556a7.317 7.317 0 0 0 -3.561 2.54zm4.8-4.836a1.538 1.538 0 0 1 -.112-.565 1.518 1.518 0 0 1 1.516-1.516h2.968a1.518 1.518 0 0 1 1.516 1.516 1.539 1.539 0 0 1 -.108.563l-.775 1.937c-.088 0-.176-.016-.264-.016h-3.706c-.088 0-.176.012-.264.016zm-3.2 6.037a5.323 5.323 0 0 1 4.235-2.118h3.706a5.323 5.323 0 0 1 4.236 2.118 4.56 4.56 0 0 1 -1.3 6.644 8.7 8.7 0 0 1 -4.473 1.238h-.632a8.7 8.7 0 0 1 -4.471-1.238 4.56 4.56 0 0 1 -1.3-6.644z"/><path d="m60 31a2.981 2.981 0 0 0 -2 .78 2.954 2.954 0 0 0 -4 0 2.954 2.954 0 0 0 -4 0 2.954 2.954 0 0 0 -4 0 2.954 2.954 0 0 0 -4 0 2.954 2.954 0 0 0 -4 0 2.954 2.954 0 0 0 -4 0 2.954 2.954 0 0 0 -4 0 2.954 2.954 0 0 0 -4 0 2.954 2.954 0 0 0 -4 0 2.954 2.954 0 0 0 -4 0 2.954 2.954 0 0 0 -4 0 2.954 2.954 0 0 0 -4 0 2.954 2.954 0 0 0 -4 0 2.987 2.987 0 0 0 -5 2.22v6a2.987 2.987 0 0 0 5 2.22 2.954 2.954 0 0 0 4 0 2.954 2.954 0 0 0 4 0 2.954 2.954 0 0 0 4 0 2.954 2.954 0 0 0 4 0 2.954 2.954 0 0 0 4 0 2.954 2.954 0 0 0 4 0 2.954 2.954 0 0 0 4 0 2.954 2.954 0 0 0 4 0 2.954 2.954 0 0 0 4 0 2.954 2.954 0 0 0 4 0 2.954 2.954 0 0 0 4 0 2.954 2.954 0 0 0 4 0 2.954 2.954 0 0 0 4 0 2.987 2.987 0 0 0 5-2.22v-6a3 3 0 0 0 -3-3zm-56 10a1 1 0 0 1 -1-1v-6a1 1 0 0 1 2 0v6a1 1 0 0 1 -1 1zm4 0a1 1 0 0 1 -1-1v-6a1 1 0 0 1 2 0v6a1 1 0 0 1 -1 1zm4 0a1 1 0 0 1 -1-1v-6a1 1 0 0 1 2 0v6a1 1 0 0 1 -1 1zm4 0a1 1 0 0 1 -1-1v-6a1 1 0 0 1 2 0v6a1 1 0 0 1 -1 1zm4 0a1 1 0 0 1 -1-1v-6a1 1 0 0 1 2 0v6a1 1 0 0 1 -1 1zm4 0a1 1 0 0 1 -1-1v-6a1 1 0 0 1 2 0v6a1 1 0 0 1 -1 1zm4 0a1 1 0 0 1 -1-1v-6a1 1 0 0 1 2 0v6a1 1 0 0 1 -1 1zm4 0a1 1 0 0 1 -1-1v-6a1 1 0 0 1 2 0v6a1 1 0 0 1 -1 1zm4 0a1 1 0 0 1 -1-1v-6a1 1 0 0 1 2 0v6a1 1 0 0 1 -1 1zm4 0a1 1 0 0 1 -1-1v-6a1 1 0 0 1 2 0v6a1 1 0 0 1 -1 1zm4 0a1 1 0 0 1 -1-1v-6a1 1 0 0 1 2 0v6a1 1 0 0 1 -1 1zm4 0a1 1 0 0 1 -1-1v-6a1 1 0 0 1 2 0v6a1 1 0 0 1 -1 1zm4 0a1 1 0 0 1 -1-1v-6a1 1 0 0 1 2 0v6a1 1 0 0 1 -1 1zm4 0a1 1 0 0 1 -1-1v-6a1 1 0 0 1 2 0v6a1 1 0 0 1 -1 1zm5-1a1 1 0 0 1 -2 0v-6a1 1 0 0 1 2 0z"/><path d="m62 45h-60a1 1 0 0 0 -1 1v16a1 1 0 0 0 1 1h60a1 1 0 0 0 1-1v-16a1 1 0 0 0 -1-1zm-1 2v10h-58v-10zm-52 12v2h-2v-2zm2 0h2v2h-2zm4 0h2v2h-2zm4 0h2v2h-2zm4 0h2v2h-2zm4 0h2v2h-2zm4 0h2v2h-2zm4 0h2v2h-2zm4 0h2v2h-2zm4 0h2v2h-2zm4 0h2v2h-2zm4 0h2v2h-2zm4 0h2v2h-2zm-52 0h2v2h-2zm56 2v-2h2v2z"/><path d="m7 49h2v2h-2z"/><path d="m13 49h2v2h-2z"/><path d="m19 49h2v2h-2z"/><path d="m25 49h2v2h-2z"/><path d="m31 49h2v2h-2z"/><path d="m37 49h2v2h-2z"/><path d="m43 49h2v2h-2z"/><path d="m49 49h2v2h-2z"/><path d="m55 49h2v2h-2z"/><path d="m10 53h2v2h-2z"/><path d="m16 53h2v2h-2z"/><path d="m22 53h2v2h-2z"/><path d="m28 53h2v2h-2z"/><path d="m34 53h2v2h-2z"/><path d="m40 53h2v2h-2z"/><path d="m46 53h2v2h-2z"/><path d="m52 53h2v2h-2z"/></svg>